<svg width="40" height="40" viewBox="0 0 40 40" fill="none" xmlns="http://www.w3.org/2000/svg">
<path fill-rule="evenodd" clip-rule="evenodd" d="M21.6667 4C22.219 4 22.6667 4.44772 22.6667 5V5.83333C22.6667 6.98261 22.2101 8.08481 21.3975 8.89746C20.5848 9.71012 19.4826 10.1667 18.3333 10.1667C17.2725 10.1667 16.2551 10.5881 15.5049 11.3382C14.7548 12.0884 14.3333 13.1058 14.3333 14.1667V15C14.3333 15.5523 13.8856 16 13.3333 16C12.781 16 12.3333 15.5523 12.3333 15V14.1667C12.3333 12.5754 12.9655 11.0492 14.0907 9.92403C15.2159 8.79881 16.742 8.16667 18.3333 8.16667C18.9522 8.16667 19.5457 7.92083 19.9832 7.48325C20.4208 7.04566 20.6667 6.45217 20.6667 5.83333V5C20.6667 4.44772 21.1144 4 21.6667 4ZM28.3333 4.83333C28.8856 4.83333 29.3333 5.28105 29.3333 5.83333V6.905C29.3333 8.43309 28.7263 9.89859 27.6458 10.9791C26.5653 12.0596 25.0998 12.6667 23.5717 12.6667C22.629 12.6667 22.0064 12.9889 21.6169 13.398C21.2148 13.8201 21 14.3991 21 15C21 15.5523 20.5523 16 20 16C19.4477 16 19 15.5523 19 15C19 13.9342 19.3802 12.8465 20.1686 12.0187C20.9694 11.1777 22.1327 10.6667 23.5717 10.6667C24.5693 10.6667 25.5261 10.2703 26.2316 9.5649C26.937 8.85945 27.3333 7.90266 27.3333 6.905V5.83333C27.3333 5.28105 27.781 4.83333 28.3333 4.83333ZM4.58579 17.9191C4.96086 17.544 5.46957 17.3333 6 17.3333H27.3333C27.8638 17.3333 28.3725 17.544 28.7475 17.9191C29.1226 18.2942 29.3333 18.8029 29.3333 19.3333V25C29.3333 27.9174 28.1744 30.7153 26.1115 32.7782C24.0486 34.8411 21.2507 36 18.3333 36H15C12.0826 36 9.28473 34.8411 7.22183 32.7782C5.15893 30.7153 4 27.9174 4 25V19.3333C4 18.8029 4.21071 18.2942 4.58579 17.9191ZM27.3333 19.3333L6 19.3333V25C6 27.3869 6.94821 29.6761 8.63604 31.364C10.3239 33.0518 12.6131 34 15 34H18.3333C20.7203 34 23.0095 33.0518 24.6973 31.364C26.3851 29.6761 27.3333 27.3869 27.3333 25V19.3333Z" fill="#012E89"/>
<path fill-rule="evenodd" clip-rule="evenodd" d="M25.6667 18.333C25.6667 17.7807 26.1145 17.333 26.6667 17.333H30.8334C32.2037 17.333 33.5179 17.8774 34.4868 18.8463C35.4557 19.8152 36.0001 21.1294 36.0001 22.4997C36.0001 23.87 35.4557 25.1841 34.4868 26.1531C33.5179 27.122 32.2037 27.6663 30.8334 27.6663H28.3334C27.7811 27.6663 27.3334 27.2186 27.3334 26.6663C27.3334 26.1141 27.7811 25.6663 28.3334 25.6663H30.8334C31.6733 25.6663 32.4787 25.3327 33.0726 24.7388C33.6665 24.145 34.0001 23.3395 34.0001 22.4997C34.0001 21.6598 33.6665 20.8544 33.0726 20.2605C32.4787 19.6666 31.6733 19.333 30.8334 19.333H26.6667C26.1145 19.333 25.6667 18.8853 25.6667 18.333Z" fill="#012E89"/>
</svg>
