<svg width="40" height="40" viewBox="0 0 40 40" fill="none" xmlns="http://www.w3.org/2000/svg">
<path fill-rule="evenodd" clip-rule="evenodd" d="M14 10C14 9.44772 14.4477 9 15 9H16.6667C17.219 9 17.6667 9.44772 17.6667 10C17.6667 10.5523 17.219 11 16.6667 11H15C14.4477 11 14 10.5523 14 10ZM14 23.3333C14 22.781 14.4477 22.3333 15 22.3333H16.6667C17.219 22.3333 17.6667 22.781 17.6667 23.3333C17.6667 23.8856 17.219 24.3333 16.6667 24.3333H15C14.4477 24.3333 14 23.8856 14 23.3333Z" fill="#003083"/>
<path fill-rule="evenodd" clip-rule="evenodd" d="M7.91904 2.91879C8.29411 2.54372 8.80282 2.33301 9.33325 2.33301H30.6666C31.197 2.33301 31.7057 2.54372 32.0808 2.91879C32.4559 3.29387 32.6666 3.80258 32.6666 4.33301V35.6663C32.6666 35.929 32.6149 36.189 32.5143 36.4317C32.4138 36.6744 32.2665 36.8948 32.0808 37.0806C31.8951 37.2663 31.6746 37.4136 31.432 37.5141C31.1893 37.6146 30.9292 37.6663 30.6666 37.6663H9.33325C9.07061 37.6663 8.81054 37.6146 8.56789 37.5141C8.32523 37.4136 8.10475 37.2663 7.91904 37.0806C7.73332 36.8948 7.586 36.6744 7.48549 36.4317C7.38498 36.1891 7.33325 35.929 7.33325 35.6663V4.33301C7.33325 3.80257 7.54397 3.29387 7.91904 2.91879ZM30.6666 4.33301H9.33325V15.6663H30.6666V4.33301ZM30.6666 17.6663H9.33325V35.6663H30.6666V17.6663Z" fill="#003083"/>
</svg>
