<svg width="40" height="40" viewBox="0 0 40 40" fill="none" xmlns="http://www.w3.org/2000/svg">
<path d="M31.5383 17.9799C30.925 17.9799 30.4028 17.7688 29.9717 17.3466C29.5417 16.9232 29.3267 16.4049 29.3267 15.7916C29.3267 15.1782 29.5422 14.6616 29.9733 14.2416C30.4033 13.8216 30.9256 13.6116 31.54 13.6116C32.1522 13.6116 32.6683 13.8216 33.0883 14.2416C33.5083 14.6616 33.7183 15.1782 33.7183 15.7916C33.7183 16.4049 33.5083 16.9232 33.0883 17.3466C32.6683 17.7688 32.1517 17.9799 31.5383 17.9799ZM8.46167 17.9799C7.84833 17.9799 7.33167 17.7688 6.91167 17.3466C6.49167 16.9232 6.28167 16.4049 6.28167 15.7916C6.28167 15.1782 6.49167 14.6616 6.91167 14.2416C7.33167 13.8216 7.84833 13.6116 8.46167 13.6116C9.075 13.6116 9.59722 13.8216 10.0283 14.2416C10.4583 14.6616 10.6733 15.1782 10.6733 15.7916C10.6733 16.4049 10.4578 16.9232 10.0267 17.3466C9.59667 17.7688 9.07611 17.9799 8.46167 17.9799ZM7.69167 34.9999C6.94722 34.9999 6.31222 34.7377 5.78667 34.2132C5.26222 33.6888 5 33.0538 5 32.3082V23.3332H6.28333V22.2916C6.28333 21.5805 6.53333 20.9727 7.03333 20.4682C7.53444 19.9638 8.14111 19.7116 8.85333 19.7116C9.27556 19.7116 9.67222 19.8105 10.0433 20.0082C10.4144 20.206 10.7422 20.4577 11.0267 20.7632L12.42 22.3749C12.5644 22.5638 12.7272 22.736 12.9083 22.8916C13.0894 23.0471 13.2878 23.1943 13.5033 23.3332H26.4967C26.7189 23.1943 26.9189 23.0471 27.0967 22.8916C27.2744 22.736 27.4356 22.5638 27.58 22.3749L28.975 20.7632C29.2583 20.4577 29.5861 20.206 29.9583 20.0082C30.3283 19.8105 30.7244 19.7116 31.1467 19.7116C31.8578 19.7116 32.4644 19.9638 32.9667 20.4682C33.4667 20.9727 33.7167 21.5805 33.7167 22.2916V23.3332H35V32.3082C35 33.0527 34.7378 33.6877 34.2133 34.2132C33.6889 34.7377 33.0539 34.9999 32.3083 34.9999H7.69167ZM6.66667 29.3582H33.3333V24.9999H6.66667V29.3582ZM7.69167 33.3332H32.3083C32.6072 33.3332 32.8528 33.2371 33.045 33.0449C33.2372 32.8527 33.3333 32.6071 33.3333 32.3082V31.0249H6.66667V32.3082C6.66667 32.6071 6.76278 32.8527 6.955 33.0449C7.14722 33.2371 7.39278 33.3332 7.69167 33.3332Z" fill="#012E89"/>
<path fill-rule="evenodd" clip-rule="evenodd" d="M20.3978 4.13226C20.6724 4.34045 20.717 4.7202 20.4973 4.98044C18.9353 6.83068 19.6612 8.85131 20.5985 11.2938C20.6124 11.3301 20.6264 11.3665 20.6404 11.4031C21.5144 13.6786 22.5413 16.3523 20.4973 18.7735C20.2776 19.0337 19.8768 19.0759 19.6022 18.8677C19.3276 18.6595 19.283 18.2798 19.5027 18.0196C21.0647 16.1693 20.3388 14.1487 19.4015 11.7062C19.3876 11.6699 19.3736 11.6335 19.3596 11.5969C18.4856 9.32141 17.4587 6.64771 19.5027 4.2265C19.7224 3.96625 20.1232 3.92406 20.3978 4.13226ZM15.0851 5.85639C15.3597 6.06458 15.4042 6.44433 15.1845 6.70457C14.3628 7.67795 14.2076 8.43408 14.2954 9.07903C14.3902 9.7749 14.7723 10.4247 15.2402 11.2006C15.2492 11.2156 15.2583 11.2306 15.2673 11.2456C15.7034 11.9684 16.2123 12.812 16.3423 13.7665C16.4819 14.7918 16.1822 15.8676 15.1845 17.0494C14.9648 17.3096 14.5641 17.3518 14.2895 17.1436C14.0149 16.9354 13.9703 16.5557 14.19 16.2954C15.0118 15.322 15.167 14.5659 15.0792 13.921C14.9844 13.2251 14.6023 12.5753 14.1344 11.7994C14.1254 11.7844 14.1163 11.7694 14.1073 11.7544C13.6712 11.0316 13.1623 10.188 13.0323 9.23348C12.8927 8.20818 13.1924 7.13242 14.19 5.95063C14.4097 5.69039 14.8105 5.64819 15.0851 5.85639ZM25.7105 5.85639C25.9851 6.06458 26.0297 6.44433 25.81 6.70457C24.9882 7.67795 24.833 8.43408 24.9208 9.07903C25.0156 9.7749 25.3977 10.4247 25.8656 11.2006C25.8746 11.2156 25.8837 11.2306 25.8927 11.2456C26.3288 11.9684 26.8377 12.812 26.9677 13.7665C27.1073 14.7918 26.8076 15.8676 25.81 17.0494C25.5903 17.3096 25.1895 17.3518 24.9149 17.1436C24.6403 16.9354 24.5958 16.5557 24.8155 16.2954C25.6372 15.322 25.7924 14.5659 25.7046 13.921C25.6098 13.2251 25.2277 12.5753 24.7598 11.7994C24.7508 11.7844 24.7417 11.7694 24.7327 11.7544C24.2966 11.0316 23.7877 10.188 23.6577 9.23348C23.5181 8.20818 23.8178 7.13242 24.8155 5.95063C25.0352 5.69039 25.4359 5.64819 25.7105 5.85639Z" fill="#012E89"/>
</svg>
