<svg width="41" height="40" viewBox="0 0 41 40" fill="none" xmlns="http://www.w3.org/2000/svg">
<path fill-rule="evenodd" clip-rule="evenodd" d="M15.4815 3.33325C15.4815 2.78097 15.9292 2.33325 16.4815 2.33325H23.9815C24.5337 2.33325 24.9815 2.78097 24.9815 3.33325V7.33325H37.3148C37.8671 7.33325 38.3148 7.78097 38.3148 8.33325V21.6666C38.3148 22.2189 37.8671 22.6666 37.3148 22.6666H32.7536L33.3049 29.8333H35.6481C36.2004 29.8333 36.6481 30.281 36.6481 30.8333V36.6666C36.6481 37.2189 36.2004 37.6666 35.6481 37.6666H5.64813C5.09584 37.6666 4.64813 37.2189 4.64813 36.6666V30.8333C4.64813 30.281 5.09584 29.8333 5.64813 29.8333H7.99156L9.06209 16.3842C9.07786 16.1854 9.05383 15.9855 8.99142 15.7961C8.92901 15.6067 8.82946 15.4316 8.69859 15.2812L3.22689 8.98948C2.96977 8.69381 2.909 8.27522 3.07145 7.91866C3.2339 7.56209 3.58963 7.33325 3.98146 7.33325H15.4815V3.33325ZM17.4815 7.33325H22.9815V4.33325H17.4815V7.33325ZM9.99789 29.8333H31.299L29.7221 9.33325H6.17639L10.2077 13.9687C10.2077 13.9686 10.2077 13.9687 10.2077 13.9687C10.513 14.3197 10.7453 14.7282 10.8909 15.1701C11.0366 15.612 11.0926 16.0785 11.0558 16.5423L9.99789 29.8333ZM31.728 9.33325L32.5998 20.6666H36.3148V9.33325H31.728ZM17.1481 14.9999C17.1481 14.4476 17.5958 13.9999 18.1481 13.9999H22.3148C22.8671 13.9999 23.3148 14.4476 23.3148 14.9999C23.3148 15.5522 22.8671 15.9999 22.3148 15.9999H18.1481C17.5958 15.9999 17.1481 15.5522 17.1481 14.9999ZM17.1481 19.9999C17.1481 19.4476 17.5958 18.9999 18.1481 18.9999H22.3148C22.8671 18.9999 23.3148 19.4476 23.3148 19.9999C23.3148 20.5522 22.8671 20.9999 22.3148 20.9999H18.1481C17.5958 20.9999 17.1481 20.5522 17.1481 19.9999ZM17.1481 24.9999C17.1481 24.4476 17.5958 23.9999 18.1481 23.9999H22.3148C22.8671 23.9999 23.3148 24.4476 23.3148 24.9999C23.3148 25.5522 22.8671 25.9999 22.3148 25.9999H18.1481C17.5958 25.9999 17.1481 25.5522 17.1481 24.9999ZM6.64813 31.8333V35.6666H34.6481V31.8333H6.64813Z" fill="#012E89"/>
</svg>
