<svg width="40" height="40" viewBox="0 0 40 40" fill="none" xmlns="http://www.w3.org/2000/svg">
<path d="M10 10C10 9.46957 10.2107 8.96086 10.5858 8.58579C10.9609 8.21071 11.4696 8 12 8C12.5304 8 13.0391 8.21071 13.4142 8.58579C13.7893 8.96086 14 9.46957 14 10V20.094C14.642 20.168 15.31 20.294 16 20.474V18H26V24.006C26.734 24.016 27.404 23.942 28 23.826V10C28 8.93913 27.5786 7.92172 26.8284 7.17157C26.0783 6.42143 25.0609 6 24 6C22.9391 6 21.9217 6.42143 21.1716 7.17157C20.4214 7.92172 20 8.93913 20 10V11C20 11.2652 20.1054 11.5196 20.2929 11.7071C20.4804 11.8946 20.7348 12 21 12C21.2652 12 21.5196 11.8946 21.7071 11.7071C21.8946 11.5196 22 11.2652 22 11V10C22 9.46957 22.2107 8.96086 22.5858 8.58579C22.9609 8.21071 23.4696 8 24 8C24.5304 8 25.0391 8.21071 25.4142 8.58579C25.7893 8.96086 26 9.46957 26 10V16H16V10C16 8.93913 15.5786 7.92172 14.8284 7.17157C14.0783 6.42143 13.0609 6 12 6C10.9391 6 9.92172 6.42143 9.17157 7.17157C8.42143 7.92172 8 8.93913 8 10V11C8 11.2652 8.10536 11.5196 8.29289 11.7071C8.48043 11.8946 8.73478 12 9 12C9.26522 12 9.51957 11.8946 9.70711 11.7071C9.89464 11.5196 10 11.2652 10 11V10ZM26.15 28C23.93 28 21.312 27.464 18.494 25.84C11.658 21.898 7.86 25.544 7.72 25.682C7.53044 25.8679 7.27551 25.9721 7.01 25.9721C6.74449 25.9721 6.48956 25.8679 6.3 25.682C6.2055 25.593 6.13021 25.4856 6.07874 25.3664C6.02728 25.2473 6.00073 25.1188 6.00073 24.989C6.00073 24.8592 6.02728 24.7307 6.07874 24.6116C6.13021 24.4924 6.2055 24.385 6.3 24.296C6.512 24.084 11.27 19.37 19.514 24.096C26.67 28.218 32.188 24.336 32.408 24.176C32.6245 24.0246 32.8913 23.9629 33.1523 24.0039C33.4133 24.0449 33.6483 24.1855 33.808 24.396C34.128 24.83 34.048 25.444 33.588 25.782C33.408 25.92 30.508 27.982 26.15 27.982V28ZM18.494 31.84C21.314 33.466 23.932 34 26.15 34V33.98C30.51 33.98 33.406 31.92 33.586 31.78C33.6924 31.7042 33.7825 31.6079 33.8513 31.4968C33.9201 31.3858 33.966 31.2621 33.9865 31.1331C34.007 31.0041 34.0016 30.8723 33.9706 30.7454C33.9396 30.6185 33.8836 30.499 33.806 30.394C33.646 30.1838 33.4109 30.0437 33.1499 30.003C32.8889 29.9624 32.6223 30.0244 32.406 30.176C32.186 30.336 26.67 34.218 19.514 30.096C11.27 25.37 6.514 30.084 6.3 30.296C5.9 30.67 5.9 31.306 6.3 31.682C6.7 32.078 7.34 32.058 7.72 31.682C7.86 31.542 11.658 27.896 18.494 31.84Z" fill="#003083"/>
</svg>
