<svg width="40" height="40" viewBox="0 0 40 40" fill="none" xmlns="http://www.w3.org/2000/svg">
<path fill-rule="evenodd" clip-rule="evenodd" d="M33.3979 19.5398C33.6522 19.0495 34.2558 18.8582 34.746 19.1125C36.0907 19.8099 37.2375 20.8355 38.0803 22.0941C38.9231 23.3527 39.4346 24.8036 39.5675 26.3125C39.57 26.3417 39.5713 26.3709 39.5713 26.4002C39.5713 29.7017 37.0981 32.4671 33.6064 34.3484C30.0734 36.2519 25.2612 37.4002 19.9999 37.4002C14.7397 37.4002 9.92781 36.2595 6.39488 34.3635C2.90297 32.4895 0.428467 29.7313 0.428467 26.4288C0.428467 26.4008 0.429645 26.3727 0.431997 26.3448C0.559601 24.8303 1.06868 23.3728 1.91177 22.1081C2.75486 20.8435 3.90448 19.813 5.25343 19.1127C5.74359 18.8582 6.34724 19.0493 6.60171 19.5395C6.85618 20.0296 6.6651 20.6333 6.17494 20.8877C5.12576 21.4324 4.2316 22.2339 3.57587 23.2175C2.92806 24.1892 2.53379 25.3074 2.42866 26.4701C2.44947 28.6682 4.1312 30.8788 7.34062 32.6012C10.5291 34.3124 15.003 35.4002 19.9999 35.4002C24.9958 35.4002 29.4692 34.3056 32.6577 32.5877C35.8664 30.8589 37.5494 28.642 37.5711 26.4433C37.4617 25.2858 37.0657 24.1734 36.4185 23.2069C35.763 22.228 34.871 21.4303 33.8252 20.8879C33.3349 20.6336 33.1436 20.03 33.3979 19.5398Z" fill="#012E89"/>
<path fill-rule="evenodd" clip-rule="evenodd" d="M20.6248 2.79046C21.056 3.13547 21.126 3.76476 20.7809 4.19602C18.3281 7.26214 19.468 10.6106 20.9399 14.6582C20.9618 14.7184 20.9837 14.7787 21.0058 14.8393C22.3782 18.6102 23.9908 23.0408 20.7809 27.0532C20.4359 27.4844 19.8066 27.5543 19.3754 27.2093C18.9441 26.8643 18.8742 26.235 19.2192 25.8038C21.6721 22.7377 20.5321 19.3892 19.0603 15.3416C19.0384 15.2814 19.0164 15.2211 18.9944 15.1605C17.6219 11.3896 16.0094 6.95894 19.2192 2.94663C19.5642 2.51537 20.1935 2.44545 20.6248 2.79046ZM12.2819 5.6476C12.7132 5.99261 12.7831 6.6219 12.4381 7.05316C11.1477 8.6662 10.9039 9.91921 11.0419 10.988C11.1906 12.1411 11.7907 13.218 12.5255 14.5038C12.5396 14.5285 12.5538 14.5534 12.5681 14.5783C13.2529 15.7761 14.052 17.1741 14.2561 18.7559C14.4754 20.4549 14.0048 22.2376 12.4381 24.196C12.0931 24.6273 11.4638 24.6972 11.0325 24.3522C10.6013 24.0072 10.5313 23.3779 10.8764 22.9466C12.1668 21.3336 12.4105 20.0806 12.2726 19.0118C12.1238 17.8586 11.5237 16.7818 10.789 15.496C10.7748 15.4713 10.7606 15.4464 10.7463 15.4215C10.0616 14.2237 9.2624 12.8257 9.0583 11.2439C8.83907 9.54487 9.30964 7.76216 10.8764 5.80377C11.2214 5.37251 11.8507 5.30259 12.2819 5.6476ZM28.9676 5.6476C29.3989 5.99261 29.4688 6.6219 29.1238 7.05316C27.8334 8.6662 27.5897 9.91921 27.7276 10.988C27.8764 12.1411 28.4765 13.218 29.2112 14.5038C29.2253 14.5285 29.2395 14.5534 29.2538 14.5783C29.9386 15.7761 30.7378 17.1741 30.9419 18.7559C31.1611 20.4549 30.6905 22.2376 29.1238 24.196C28.7788 24.6273 28.1495 24.6972 27.7182 24.3522C27.287 24.0072 27.2171 23.3779 27.5621 22.9466C28.8525 21.3336 29.0962 20.0806 28.9583 19.0118C28.8095 17.8586 28.2094 16.7818 27.4747 15.496C27.4605 15.4713 27.4463 15.4464 27.4321 15.4215C26.7473 14.2237 25.9481 12.8257 25.744 11.2439C25.5248 9.54487 25.9954 7.76216 27.5621 5.80377C27.9071 5.37251 28.5364 5.30259 28.9676 5.6476Z" fill="#012E89"/>
</svg>
