<svg width="30" height="31" viewBox="0 0 30 31" fill="none" xmlns="http://www.w3.org/2000/svg">
<path d="M20.975 9.52494C21.1525 9.69994 21.25 9.93869 21.25 10.1874V13.3124C21.25 13.5611 21.1512 13.7995 20.9754 13.9754C20.7996 14.1512 20.5611 14.2499 20.3125 14.2499C20.0639 14.2499 19.8254 14.1512 19.6496 13.9754C19.4738 13.7995 19.375 13.5611 19.375 13.3124V12.4499L17.225 14.5999C17.1385 14.6894 17.035 14.7608 16.9206 14.8099C16.8062 14.859 16.6832 14.8848 16.5587 14.8858C16.4342 14.8868 16.3108 14.863 16.1956 14.8158C16.0804 14.7687 15.9757 14.699 15.8878 14.6109C15.7998 14.5229 15.7302 14.4182 15.6831 14.3029C15.636 14.1877 15.6124 14.0642 15.6135 13.9397C15.6147 13.8153 15.6406 13.6923 15.6898 13.5779C15.739 13.4635 15.8104 13.3601 15.9 13.2737L18.05 11.1249H17.1875C16.9389 11.1249 16.7004 11.0262 16.5246 10.8504C16.3488 10.6745 16.25 10.4361 16.25 10.1874C16.25 9.9388 16.3488 9.70034 16.5246 9.52453C16.7004 9.34871 16.9389 9.24994 17.1875 9.24994H20.3125C20.5611 9.25016 20.7994 9.34907 20.975 9.52494ZM8.75 20.8124C8.75 21.0611 8.84877 21.2995 9.02459 21.4754C9.2004 21.6512 9.43886 21.7499 9.6875 21.7499H12.8138C13.0624 21.7499 13.3008 21.6512 13.4767 21.4754C13.6525 21.2995 13.7513 21.0611 13.7513 20.8124C13.7513 20.5638 13.6525 20.3253 13.4767 20.1495C13.3008 19.9737 13.0624 19.8749 12.8138 19.8749H11.9513L14.1012 17.7249C14.2719 17.548 14.3663 17.3112 14.3641 17.0654C14.3618 16.8196 14.2631 16.5845 14.0892 16.4107C13.9153 16.237 13.6801 16.1385 13.4343 16.1365C13.1885 16.1345 12.9517 16.2291 12.775 16.3999L10.625 18.5474V17.6849C10.625 17.4363 10.5262 17.1978 10.3504 17.022C10.1746 16.8462 9.93614 16.7474 9.6875 16.7474C9.43886 16.7474 9.2004 16.8462 9.02459 17.022C8.84877 17.1978 8.75 17.4363 8.75 17.6849V20.8099V20.8124ZM2.5 8.93744C2.5 8.02576 2.86216 7.15142 3.50682 6.50676C4.15148 5.8621 5.02582 5.49994 5.9375 5.49994H24.0625C24.9742 5.49994 25.8485 5.8621 26.4932 6.50676C27.1378 7.15142 27.5 8.02576 27.5 8.93744V22.0624C27.5 22.5139 27.4111 22.9609 27.2383 23.3779C27.0656 23.795 26.8124 24.1739 26.4932 24.4931C26.174 24.8123 25.795 25.0655 25.378 25.2383C24.9609 25.411 24.5139 25.4999 24.0625 25.4999H5.9375C5.48608 25.4999 5.03908 25.411 4.62203 25.2383C4.20497 25.0655 3.82602 24.8123 3.50682 24.4931C3.18762 24.1739 2.93441 23.795 2.76166 23.3779C2.58891 22.9609 2.5 22.5139 2.5 22.0624V8.93744ZM5.9375 7.37494C5.075 7.37494 4.375 8.07494 4.375 8.93744V22.0624C4.375 22.9249 5.075 23.6249 5.9375 23.6249H24.0625C24.925 23.6249 25.625 22.9249 25.625 22.0624V8.93744C25.625 8.07494 24.925 7.37494 24.0625 7.37494H5.9375Z" fill="#012E89"/>
</svg>
