<svg width="78" height="75" viewBox="0 0 78 75" fill="none" xmlns="http://www.w3.org/2000/svg">
<g id="Group 133106">
<path id="Vector" d="M13.3614 14.8063C13.387 14.3747 13.387 14.0955 13.4126 13.8163C13.4382 12.877 13.4638 11.9378 13.4894 11.0239C13.515 10.5416 13.5662 10.0847 13.8222 9.62779C14.1037 9.06932 14.2061 8.43471 14.4621 7.82548C15.0508 6.53087 15.8187 5.38856 16.8426 4.37318C17.8408 3.38318 18.8391 2.39317 20.1445 1.78394C20.9124 1.42856 21.6291 0.997008 22.4994 0.870084C22.6274 0.8447 22.7554 0.844703 22.8578 0.793934C24.0096 0.260856 25.2382 0.337013 26.4669 0.337013C27.0812 0.337013 27.6955 0.387779 28.2586 0.66701C28.4122 0.743164 28.5658 0.793943 28.7194 0.819327C30.7927 1.25087 32.5589 2.26625 34.0179 3.73856C34.837 4.55087 35.7072 5.36318 36.2448 6.40395C36.8079 7.49549 37.499 8.56164 37.627 9.83088C37.627 9.88165 37.627 9.90703 37.6526 9.9578C38.2669 11.2524 38.1133 12.6486 38.1389 14.0193C38.1389 14.2986 38.1901 14.5778 38.2157 14.8316C38.7532 15.1363 39.2908 15.0601 39.8027 15.0601C43.0791 15.0601 46.3554 15.0601 49.6318 15.0601C50.2461 15.0601 50.8604 15.0347 51.4491 15.517C51.4747 15.7709 51.5259 16.0755 51.5259 16.4055C51.5259 20.467 51.5259 24.5286 51.5259 28.5901C51.5259 28.9455 51.4747 29.3009 51.4491 29.6817C51.1676 29.7578 50.9372 29.8847 50.7068 29.9101C49.9389 29.9355 49.171 29.9863 48.4031 29.834C48.1472 29.3517 48.224 28.844 48.224 28.3617C48.224 25.6709 48.224 23.0055 48.224 20.3147C48.224 19.9086 48.224 19.5024 48.1984 19.0963C48.1472 18.6393 47.8656 18.3601 47.4305 18.284C47.2257 18.2586 47.0209 18.2586 46.8162 18.2586C44.2309 18.2586 41.6712 18.2586 39.086 18.2586C38.8812 18.2586 38.6764 18.284 38.4205 18.284C38.3437 18.5124 38.1901 18.7155 38.1901 18.944C38.1645 20.2386 38.1901 21.5332 38.1901 22.8278C38.1901 22.904 38.2669 22.9801 38.3181 23.0816C38.7276 23.1324 39.1628 23.2086 39.6491 23.2593C40.0075 24.3001 39.8795 25.3155 39.7515 26.407C39.0092 26.5847 38.3181 26.5086 37.6526 26.5086C36.9103 26.5086 36.168 26.534 35.4513 26.5086C34.7602 26.4832 34.0691 26.6101 33.3268 26.3817C33.0452 25.8232 33.1732 25.1886 33.1732 24.6047C33.1732 23.3355 33.1732 23.3355 34.4786 23.1324C34.5554 23.1324 34.6066 23.0563 34.7858 22.9547C34.7858 22.574 34.8114 22.1424 34.8114 21.6855C34.8114 20.7209 34.7858 19.7309 34.7602 18.7663C34.7602 18.614 34.6322 18.4617 34.581 18.3347C34.5298 18.3093 34.4786 18.284 34.453 18.2586C34.4274 18.2332 34.3762 18.2078 34.3506 18.2078C28.8218 18.2078 23.2929 18.1824 17.764 18.1824C17.5593 18.1824 17.3545 18.2078 17.0985 18.2078C16.9705 18.4363 16.7914 18.6647 16.7146 18.9186C16.561 19.477 16.6634 22.1932 16.817 22.9801C17.1241 23.0563 17.4825 23.1578 17.892 23.2593C18.5319 24.2747 18.4807 25.3409 17.9432 26.3817C16.5866 26.534 12.7983 26.5086 11.8 26.3309C11.6464 25.3155 11.5953 24.3001 11.8768 23.2847C12.3631 23.1832 12.7983 23.0816 13.259 23.0055C13.3102 22.7516 13.387 22.5232 13.387 22.2947C13.4126 21.3555 13.4126 20.4163 13.387 19.5024C13.3614 18.614 13.0031 18.2332 12.1328 18.2332C10.5714 18.2332 9.01 18.2332 7.4742 18.2332C6.19437 18.2332 4.94014 18.2332 3.7371 18.2332C3.32756 18.5378 3.35315 18.9186 3.35315 19.274C3.35315 20.3655 3.35315 21.457 3.35315 22.574C3.35315 38.2363 3.35315 53.8986 3.35315 69.5863C3.35315 70.0179 3.35315 70.4748 3.35315 70.8302C3.7115 71.1856 4.04426 71.1094 4.37702 71.1094C7.65338 71.1094 10.9297 71.1094 14.2061 71.1094C20.5797 71.1094 26.9788 71.1094 33.3524 71.1094C33.7875 71.1094 34.2482 71.0332 34.709 71.2363C34.8881 72.2263 34.8881 73.2163 34.7346 74.2317C34.5298 74.2825 34.3762 74.3333 34.2226 74.3333C22.9601 74.3333 11.6976 74.3333 0.460739 74.3333C0.358353 74.3333 0.23037 74.2571 0.102387 74.2317C0.0767901 74.1048 0 74.0033 0 73.8763C0 54.4825 0 35.0632 0 15.6693C0 15.5424 0.0511936 15.4409 0.102387 15.3393C0.588722 14.9586 1.12625 15.0601 1.66378 15.0601C4.60739 15.0601 7.55099 15.0601 10.4946 15.0855C11.0321 15.0855 11.5697 15.0855 12.0816 15.0601C12.4911 15.0347 12.8751 14.9078 13.3614 14.8063ZM34.7346 14.8063C34.9393 13.994 34.7858 13.1563 34.8114 12.3186C34.8625 11.2016 34.4274 10.1355 33.9923 9.17087C33.0452 7.06394 31.535 5.41394 29.3593 4.47471C28.3866 4.06855 27.4395 3.61164 26.3133 3.68779C25.7502 3.71317 25.1614 3.68778 24.5983 3.71317C24.3168 3.71317 24.0096 3.71317 23.7536 3.84009C22.9857 4.19548 22.1666 4.39856 21.4243 4.8301C19.1206 6.12471 17.7128 8.10472 16.9705 10.5416C16.6378 11.6078 16.5866 12.7755 16.6634 13.9178C16.7146 14.9332 16.8682 15.0601 17.9432 15.0855C18.02 15.0855 18.0968 15.0855 18.1992 15.0855C21.6291 15.0855 25.0591 15.0855 28.5146 15.0855C30.1528 15.0855 31.791 15.0855 33.4291 15.0855C33.8387 15.0601 34.2994 15.1363 34.7346 14.8063Z" fill="#0092D7"/>
<path id="Vector_2" d="M35.8331 74.2967C35.6536 73.1088 35.5511 36.3841 35.7049 32.4918C35.7049 32.2643 35.7818 32.0368 35.8074 31.7588C36.1406 31.7335 36.3969 31.6577 36.6789 31.6577C43.1122 31.506 75.945 31.5819 77.1752 31.7841C77.2009 31.9863 77.2777 32.2137 77.2777 32.4412C77.3034 32.8456 77.2777 33.25 77.2777 33.6544C77.2777 46.6711 77.2777 59.6624 77.2777 72.6791C77.2777 73.1593 77.2777 73.6395 77.2777 74.1703C76.9958 74.2209 76.7651 74.2967 76.5345 74.322C76.2013 74.3472 75.8681 74.322 75.5605 74.322C62.8733 74.322 50.1606 74.322 37.4734 74.322C36.9608 74.322 36.4226 74.2967 35.8331 74.2967ZM39.0881 35.0698C39.0625 35.5248 39.0369 35.9039 39.0369 36.3083C39.0369 46.2919 39.0369 56.2756 39.0369 66.2592C39.0369 67.6241 39.0369 69.0142 39.0369 70.3791C39.0369 70.6065 39.1394 70.834 39.1907 71.112C39.7289 71.112 40.2159 71.112 40.7029 71.112C50.5707 71.112 60.4641 71.112 70.3319 71.112C71.2802 71.112 72.2285 71.112 73.1512 71.112C73.3819 71.112 73.6126 71.0362 73.9201 70.9857C73.9201 70.5813 73.9201 70.2274 73.9201 69.8483C73.9201 68.1043 73.9201 66.3856 73.9201 64.6416C73.9201 55.1888 73.9201 45.7359 73.9201 36.283C73.9201 35.9039 74.0483 35.4742 73.792 35.1204C72.6642 34.9434 44.2655 34.8676 39.7289 35.0193C39.5495 34.9687 39.3445 35.0193 39.0881 35.0698Z" fill="#0092D7"/>
<path id="Vector_3" d="M46.072 42.8343C45.5018 42.7297 45.0611 42.6513 44.5687 42.5467C44.2835 41.5529 44.4391 40.5329 44.465 39.4607C45.1907 39.1207 45.9424 39.3038 46.6682 39.2776C47.368 39.2515 48.0678 39.2515 48.7936 39.2776C49.5193 39.3038 50.271 39.1469 51.0486 39.4607C51.3078 40.3237 51.1782 41.2129 51.1523 42.0759C51.1263 42.4159 50.8931 42.5728 50.582 42.6513C50.271 42.7036 49.934 42.7559 49.5712 42.8082C49.5452 43.0959 49.4675 43.3312 49.4675 43.5928C49.4675 46.3649 49.4675 49.1109 49.4934 51.883C49.4934 52.2492 49.5452 52.6415 49.5712 53.0076C49.5971 53.1645 49.5971 53.3999 49.6748 53.4783C50.2191 53.9229 50.271 54.629 50.6079 55.2044C51.567 56.7735 52.5778 57.6104 54.1849 58.3688C55.7141 59.0749 57.2434 58.9703 58.7986 58.7611C59.7576 58.6303 60.6129 58.055 61.4164 57.4535C62.6087 56.5643 63.2567 55.5705 63.9306 54.1844C64.2935 53.4783 64.3972 52.7722 64.4231 52.04C64.449 49.1632 64.449 46.2603 64.449 43.3835C64.449 43.2266 64.3972 43.0697 64.3454 42.8343C63.9566 42.7297 63.5678 42.6513 63.179 42.5728C62.6606 41.7359 62.7902 40.8468 62.7902 39.9837C62.7902 39.6438 62.9975 39.4607 63.3345 39.3822C63.49 39.3561 63.6714 39.3299 63.827 39.3299C65.5377 39.3299 67.2224 39.3299 68.9331 39.3299C69.0887 39.3299 69.2442 39.3822 69.4775 39.4345C69.6848 40.4806 69.633 41.5006 69.4775 42.5728C69.2183 42.6251 68.985 42.6513 68.7517 42.7036C68.5184 42.7559 68.2852 42.8082 67.9741 42.8605C67.9482 43.2528 67.8964 43.6189 67.8964 43.985C67.8964 45.9465 67.8964 47.9079 67.8964 49.8693C67.8964 50.8369 67.8704 51.8046 67.8186 52.7461C67.7927 53.1907 67.7149 53.6614 67.5335 54.0798C67.2484 54.7598 67.1447 55.4921 66.7559 56.172C66.2893 57.0089 65.7969 57.7673 65.1489 58.4734C64.5527 59.1011 63.9566 59.7287 63.2827 60.2518C62.4791 60.8794 61.2868 61.3502 60.3537 61.7686C58.7208 62.5009 57.036 62.2132 55.3512 62.2394C54.9365 62.2394 54.5477 62.1086 54.1589 61.9255C53.5628 61.664 52.9148 61.5594 52.3186 61.2456C50.0636 60.0164 48.3529 58.2904 47.2125 55.9628C46.8496 55.2044 46.7459 54.3937 46.3312 53.6614C46.1498 53.3737 46.2016 52.9291 46.2016 52.563C46.1757 49.9216 46.1498 47.3064 46.1498 44.665C46.072 44.0896 46.072 43.5404 46.072 42.8343Z" fill="#0092D7"/>
</g>
</svg>
