<svg width="226" height="88" viewBox="0 0 226 88" fill="none" xmlns="http://www.w3.org/2000/svg">
<path d="M190.385 44.0443L117.291 44.0059C117.294 38.2349 116.377 32.5196 114.593 27.1866C112.809 21.8536 110.192 17.0071 106.892 12.9241C103.593 8.84098 99.6747 5.60122 95.362 3.38979C91.0494 1.17835 86.4266 0.0385379 81.7575 0.0354365L0.0761732 0C0.074918 5.77079 0.993272 11.4854 2.7788 16.8175C4.56433 22.1496 7.18206 26.9948 10.4825 31.0765C13.783 35.1581 17.7016 38.3963 22.0146 40.6062C26.3276 42.816 30.9504 43.9542 35.6193 43.9557V43.9409L113.932 44.0089C113.931 49.78 114.85 55.4949 116.636 60.8273C118.422 66.1596 121.04 71.0049 124.341 75.0866C127.642 79.1682 131.561 82.4063 135.874 84.6159C140.187 86.8255 144.811 87.9634 149.48 87.9646V87.9498L225.923 88C225.924 82.2296 225.006 76.5153 223.221 71.1834C221.436 65.8515 218.819 61.0064 215.519 56.9247C212.219 52.8431 208.301 49.6048 203.988 47.3947C199.676 45.1847 195.053 44.0462 190.385 44.0443Z" fill="#CCE9F7"/>
<path fill-rule="evenodd" clip-rule="evenodd" d="M120.79 22.8662C118.657 18.3062 114.301 13.9397 108.99 11.7767C103.622 9.59072 97.2474 9.65218 91.288 14.0493C85.2893 18.4753 83.2866 24.1717 83.262 29.455C83.2376 34.6736 85.1354 39.4723 86.9053 42.3292L86.9072 42.3323L109.022 78.4855C110.794 81.3813 114.553 82.3338 117.489 80.6308L137.736 68.8891C140.748 67.1425 141.752 63.2717 139.969 60.2815L128.016 40.2359C126.156 37.1173 122.145 36.3243 119.064 37.8152C116.87 38.877 114.315 39.8682 111.747 40.4261C109.168 40.9863 106.661 41.0908 104.51 40.4724C100.634 39.358 97.6699 36.2424 96.5867 32.8843C95.528 29.6023 96.274 26.2095 99.6412 24.0961C100.979 23.3923 102.159 23.3004 103.209 23.5264C104.301 23.7611 105.335 24.3583 106.293 25.1522C107.248 25.9439 108.074 26.8869 108.75 27.7386C109.049 28.116 109.313 28.467 109.548 28.7801L109.549 28.7803L109.549 28.7803L109.549 28.7806L109.636 28.8971C109.875 29.214 110.123 29.5429 110.329 29.7639C111.02 30.5045 112.259 31.2997 113.734 31.6451C115.252 32.0006 117.084 31.8902 118.819 30.6896C120.17 29.7542 120.799 28.3693 121.065 27.1286C121.33 25.8943 121.264 24.6916 121.128 23.9058C121.06 23.5117 120.929 23.1635 120.79 22.8662ZM122.38 47.4475C122.723 48.0466 122.516 48.8104 121.917 49.1535L108.127 57.0537C107.528 57.3969 106.765 57.1895 106.421 56.5905C106.078 55.9915 106.286 55.2276 106.885 54.8845L120.674 46.9843C121.273 46.6411 122.037 46.8485 122.38 47.4475ZM126.949 54.3026C127.293 54.9016 127.085 55.6654 126.486 56.0086L112.697 63.9087C112.098 64.2519 111.334 64.0445 110.991 63.4455C110.648 62.8465 110.855 62.0827 111.454 61.7395L125.243 53.8393C125.842 53.4961 126.606 53.7035 126.949 54.3026ZM131.519 61.1575C131.863 61.7565 131.655 62.5203 131.056 62.8635L117.267 70.7637C116.668 71.1068 115.904 70.8994 115.561 70.3004C115.218 69.7014 115.425 68.9376 116.024 68.5944L129.813 60.6943C130.412 60.3511 131.176 60.5585 131.519 61.1575Z" fill="url(#paint0_linear_2331_7170)"/>
<defs>
<linearGradient id="paint0_linear_2331_7170" x1="83.2617" y1="10.3652" x2="156.772" y2="36.2311" gradientUnits="userSpaceOnUse">
<stop stop-color="#0092D7"/>
<stop offset="1" stop-color="#012E89"/>
</linearGradient>
</defs>
</svg>
