<svg width="226" height="88" viewBox="0 0 226 88" fill="none" xmlns="http://www.w3.org/2000/svg">
<path d="M190.385 44.0443L117.291 44.0059C117.294 38.2349 116.377 32.5196 114.593 27.1866C112.809 21.8536 110.192 17.0071 106.892 12.9241C103.593 8.84098 99.6747 5.60122 95.362 3.38979C91.0494 1.17835 86.4266 0.0385379 81.7575 0.0354365L0.0761732 0C0.074918 5.77079 0.993272 11.4854 2.7788 16.8175C4.56433 22.1496 7.18206 26.9948 10.4825 31.0765C13.783 35.1581 17.7016 38.3963 22.0146 40.6062C26.3276 42.816 30.9504 43.9542 35.6193 43.9557V43.9409L113.932 44.0089C113.931 49.78 114.85 55.4949 116.636 60.8273C118.422 66.1596 121.04 71.0049 124.341 75.0866C127.642 79.1682 131.561 82.4063 135.874 84.6159C140.187 86.8255 144.811 87.9634 149.48 87.9646V87.9498L225.923 88C225.924 82.2296 225.006 76.5153 223.221 71.1834C221.436 65.8515 218.819 61.0064 215.519 56.9247C212.219 52.8431 208.301 49.6048 203.988 47.3947C199.676 45.1847 195.053 44.0462 190.385 44.0443Z" fill="#CCE9F7"/>
<path d="M148 28.4865C148 25.8343 146.946 23.2908 145.071 21.4154C143.196 19.54 140.652 18.4865 138 18.4865H135.5V16.0568C135.5 14.7115 134.466 13.5568 133.12 13.4896C132.782 13.4733 132.444 13.5258 132.127 13.6439C131.81 13.7621 131.52 13.9434 131.275 14.1768C131.03 14.4103 130.835 14.691 130.702 15.0021C130.569 15.3132 130.5 15.648 130.5 15.9865V18.4865H95.5V16.0568C95.5 14.7115 94.4656 13.5568 93.1203 13.4896C92.7823 13.4733 92.4445 13.5258 92.1273 13.6439C91.8102 13.7621 91.5204 13.9434 91.2754 14.1768C91.0304 14.4103 90.8353 14.691 90.702 15.0021C90.5688 15.3132 90.5 15.648 90.5 15.9865V18.4865H88C85.3478 18.4865 82.8043 19.54 80.9289 21.4154C79.0536 23.2908 78 25.8343 78 28.4865V30.3615C78 30.5272 78.0658 30.6862 78.1831 30.8034C78.3003 30.9206 78.4592 30.9865 78.625 30.9865H147.375C147.541 30.9865 147.7 30.9206 147.817 30.8034C147.934 30.6862 148 30.5272 148 30.3615V28.4865ZM78 71.3243C78 73.9765 79.0536 76.52 80.9289 78.3954C82.8043 80.2707 85.3478 81.3243 88 81.3243H138C140.652 81.3243 143.196 80.2707 145.071 78.3954C146.946 76.52 148 73.9765 148 71.3243V34.2931C148 34.1687 147.951 34.0495 147.863 33.9616C147.775 33.8737 147.656 33.8243 147.531 33.8243H78.4687C78.3444 33.8243 78.2252 33.8737 78.1373 33.9616C78.0494 34.0495 78 34.1687 78 34.2931V71.3243ZM131.75 38.8243C132.492 38.8243 133.217 39.0442 133.833 39.4563C134.45 39.8683 134.931 40.454 135.215 41.1392C135.498 41.8245 135.573 42.5785 135.428 43.3059C135.283 44.0333 134.926 44.7015 134.402 45.226C133.877 45.7504 133.209 46.1076 132.482 46.2523C131.754 46.3969 131 46.3227 130.315 46.0389C129.63 45.755 129.044 45.2744 128.632 44.6577C128.22 44.041 128 43.316 128 42.5743C128 41.5797 128.395 40.6259 129.098 39.9227C129.802 39.2194 130.755 38.8243 131.75 38.8243ZM131.75 51.3243C132.492 51.3243 133.217 51.5442 133.833 51.9563C134.45 52.3684 134.931 52.954 135.215 53.6392C135.498 54.3245 135.573 55.0785 135.428 55.8059C135.283 56.5333 134.926 57.2015 134.402 57.726C133.877 58.2504 133.209 58.6076 132.482 58.7523C131.754 58.897 131 58.8227 130.315 58.5389C129.63 58.255 129.044 57.7744 128.632 57.1577C128.22 56.541 128 55.816 128 55.0743C128 54.0798 128.395 53.1259 129.098 52.4227C129.802 51.7194 130.755 51.3243 131.75 51.3243ZM119.25 38.8243C119.992 38.8243 120.717 39.0442 121.333 39.4563C121.95 39.8683 122.431 40.454 122.715 41.1392C122.998 41.8245 123.073 42.5785 122.928 43.3059C122.783 44.0333 122.426 44.7015 121.902 45.226C121.377 45.7504 120.709 46.1076 119.982 46.2523C119.254 46.3969 118.5 46.3227 117.815 46.0389C117.13 45.755 116.544 45.2744 116.132 44.6577C115.72 44.041 115.5 43.316 115.5 42.5743C115.5 41.5797 115.895 40.6259 116.598 39.9227C117.302 39.2194 118.255 38.8243 119.25 38.8243ZM119.25 51.3243C119.992 51.3243 120.717 51.5442 121.333 51.9563C121.95 52.3684 122.431 52.954 122.715 53.6392C122.998 54.3245 123.073 55.0785 122.928 55.8059C122.783 56.5333 122.426 57.2015 121.902 57.726C121.377 58.2504 120.709 58.6076 119.982 58.7523C119.254 58.897 118.5 58.8227 117.815 58.5389C117.13 58.255 116.544 57.7744 116.132 57.1577C115.72 56.541 115.5 55.816 115.5 55.0743C115.5 54.0798 115.895 53.1259 116.598 52.4227C117.302 51.7194 118.255 51.3243 119.25 51.3243ZM119.25 63.8243C119.992 63.8243 120.717 64.0442 121.333 64.4563C121.95 64.8684 122.431 65.454 122.715 66.1393C122.998 66.8245 123.073 67.5785 122.928 68.3059C122.783 69.0333 122.426 69.7015 121.902 70.226C121.377 70.7504 120.709 71.1076 119.982 71.2523C119.254 71.397 118.5 71.3227 117.815 71.0389C117.13 70.755 116.544 70.2744 116.132 69.6577C115.72 69.041 115.5 68.316 115.5 67.5743C115.5 66.5798 115.895 65.6259 116.598 64.9227C117.302 64.2194 118.255 63.8243 119.25 63.8243ZM106.75 51.3243C107.492 51.3243 108.217 51.5442 108.833 51.9563C109.45 52.3684 109.931 52.954 110.215 53.6392C110.498 54.3245 110.573 55.0785 110.428 55.8059C110.283 56.5333 109.926 57.2015 109.402 57.726C108.877 58.2504 108.209 58.6076 107.482 58.7523C106.754 58.897 106 58.8227 105.315 58.5389C104.63 58.255 104.044 57.7744 103.632 57.1577C103.22 56.541 103 55.816 103 55.0743C103 54.0798 103.395 53.1259 104.098 52.4227C104.802 51.7194 105.755 51.3243 106.75 51.3243ZM106.75 63.8243C107.492 63.8243 108.217 64.0442 108.833 64.4563C109.45 64.8684 109.931 65.454 110.215 66.1393C110.498 66.8245 110.573 67.5785 110.428 68.3059C110.283 69.0333 109.926 69.7015 109.402 70.226C108.877 70.7504 108.209 71.1076 107.482 71.2523C106.754 71.397 106 71.3227 105.315 71.0389C104.63 70.755 104.044 70.2744 103.632 69.6577C103.22 69.041 103 68.316 103 67.5743C103 66.5798 103.395 65.6259 104.098 64.9227C104.802 64.2194 105.755 63.8243 106.75 63.8243ZM94.25 51.3243C94.9917 51.3243 95.7167 51.5442 96.3334 51.9563C96.9501 52.3684 97.4307 52.954 97.7145 53.6392C97.9984 54.3245 98.0726 55.0785 97.9279 55.8059C97.7833 56.5333 97.4261 57.2015 96.9017 57.726C96.3772 58.2504 95.709 58.6076 94.9816 58.7523C94.2542 58.897 93.5002 58.8227 92.8149 58.5389C92.1297 58.255 91.544 57.7744 91.132 57.1577C90.7199 56.541 90.5 55.816 90.5 55.0743C90.5 54.0798 90.8951 53.1259 91.5983 52.4227C92.3016 51.7194 93.2554 51.3243 94.25 51.3243ZM94.25 63.8243C94.9917 63.8243 95.7167 64.0442 96.3334 64.4563C96.9501 64.8684 97.4307 65.454 97.7145 66.1393C97.9984 66.8245 98.0726 67.5785 97.9279 68.3059C97.7833 69.0333 97.4261 69.7015 96.9017 70.226C96.3772 70.7504 95.709 71.1076 94.9816 71.2523C94.2542 71.397 93.5002 71.3227 92.8149 71.0389C92.1297 70.755 91.544 70.2744 91.132 69.6577C90.7199 69.041 90.5 68.316 90.5 67.5743C90.5 66.5798 90.8951 65.6259 91.5983 64.9227C92.3016 64.2194 93.2554 63.8243 94.25 63.8243Z" fill="url(#paint0_linear_2331_1783)"/>
<defs>
<linearGradient id="paint0_linear_2331_1783" x1="78" y1="13.4867" x2="161.608" y2="50.9701" gradientUnits="userSpaceOnUse">
<stop stop-color="#0092D7"/>
<stop offset="1" stop-color="#012E89"/>
</linearGradient>
</defs>
</svg>
