<svg width="86" height="87" viewBox="0 0 86 87" fill="none" xmlns="http://www.w3.org/2000/svg">
<path d="M38.235 58.8C37.9057 62.388 37.247 65.6727 36.259 68.654C35.271 71.6353 33.9277 74.4173 32.229 77H28.719C27.0377 74.452 25.703 71.696 24.715 68.732C23.727 65.7507 23.051 62.44 22.687 58.8H26.795C27.107 61.7467 27.575 64.416 28.199 66.808C28.823 69.2 29.577 71.2193 30.461 72.866C31.345 71.2193 32.099 69.2 32.723 66.808C33.347 64.416 33.815 61.7467 34.127 58.8H38.235ZM41.2951 58.8H45.2991V77H41.2951V58.8ZM55.4809 58.8C57.8382 58.8 59.6322 59.3027 60.8629 60.308C62.0936 61.3133 62.7089 62.7867 62.7089 64.728C62.7089 66.7213 62.0762 68.264 60.8109 69.356C59.5629 70.448 57.7862 70.994 55.4809 70.994H53.8169V77H49.8129V58.8H55.4809ZM55.2209 68.03C56.4342 68.03 57.3096 67.77 57.8469 67.25C58.3842 66.73 58.6529 65.8893 58.6529 64.728C58.6529 63.584 58.3842 62.7607 57.8469 62.258C57.3096 61.7553 56.4342 61.504 55.2209 61.504H53.8169V68.03H55.2209Z" fill="#CCE9F7"/>
<path d="M66.0579 14.8808C65.7054 14.5734 65.2696 14.3778 64.8057 14.3187C64.3418 14.2596 63.8707 14.3396 63.4524 14.5487L53.6458 19.4315L45.4583 5.83194C45.2478 5.48297 44.9508 5.1943 44.5959 4.99391C44.2411 4.79353 43.8404 4.68823 43.4329 4.68823C43.0254 4.68823 42.6248 4.79353 42.2699 4.99391C41.9151 5.1943 41.618 5.48297 41.4075 5.83194L33.22 19.4374L23.4173 14.5546C23 14.3474 22.5308 14.268 22.0685 14.3264C21.6063 14.3849 21.1716 14.5785 20.819 14.8831C20.4664 15.1877 20.2116 15.5897 20.0867 16.0385C19.9617 16.4874 19.9721 16.9632 20.1165 17.4062L27.3431 39.5468C27.4157 39.7692 27.5374 39.9725 27.6992 40.1416C27.8609 40.3107 28.0585 40.4413 28.2775 40.5238C28.4965 40.6063 28.7312 40.6385 28.9643 40.6182C29.1974 40.5978 29.423 40.5254 29.6243 40.4062C29.6731 40.3769 34.6673 37.4999 43.4329 37.4999C52.1985 37.4999 57.1927 40.3769 57.2376 40.4042C57.439 40.5246 57.665 40.598 57.8987 40.6191C58.1324 40.6402 58.3678 40.6083 58.5875 40.526C58.8072 40.4436 59.0056 40.3128 59.1678 40.1433C59.3301 39.9738 59.452 39.7699 59.5247 39.5468L66.7513 17.412C66.8999 16.9689 66.9133 16.4916 66.7898 16.0409C66.6663 15.5901 66.4116 15.1863 66.0579 14.8808ZM57.1048 36.8808C54.761 35.8866 50.0892 34.3749 43.4329 34.3749C36.7767 34.3749 32.1048 35.8866 29.761 36.8808L23.6497 18.164L32.4524 22.5526C32.9853 22.8154 33.5972 22.8691 34.1676 22.7032C34.7381 22.5373 35.2257 22.1637 35.5345 21.6562L43.4329 8.52725L51.3314 21.6523C51.6401 22.1593 52.1274 22.5325 52.6974 22.6984C53.2674 22.8643 53.8788 22.8109 54.4114 22.5487L63.2161 18.164L57.1048 36.8808Z" fill="#CCE9F7"/>
</svg>
