<svg width="100" height="100" viewBox="0 0 100 100" fill="none" xmlns="http://www.w3.org/2000/svg">
<g id="icons / our ship Frame 134861">
<path id="Vector" d="M80.8227 33.1647C81.0069 33.8208 81.076 34.4769 81.4446 35.0627C81.5367 35.2033 81.5137 35.4142 81.5367 35.6016C81.5828 36.164 81.6749 36.7029 81.8592 37.2418C82.0204 37.687 81.9973 38.2025 82.0204 38.6712C82.0664 39.421 82.0665 40.1708 82.3198 40.8972C82.412 41.2018 82.458 41.5533 82.458 41.9047C82.481 43.1466 82.5041 44.3651 82.5041 45.6069C82.5041 45.9818 82.5041 46.3802 82.3889 46.7316C82.0664 47.7861 82.0665 48.8639 81.9974 49.9652C81.9743 50.4104 81.9743 50.8556 81.7209 51.2774C81.6058 51.4648 81.6058 51.6992 81.5827 51.9335C81.5367 52.6364 81.4906 53.3394 81.0991 53.972C80.9839 54.136 81.0069 54.4172 80.9609 54.6281C80.8918 54.9093 80.7996 55.1905 80.7075 55.4716C80.6384 55.706 80.5232 55.9637 80.4772 56.198C80.4081 56.5729 80.339 56.9244 80.1547 57.2525C79.9244 57.7211 79.8322 58.2366 80.0395 58.8224C80.4541 58.8458 80.8457 58.8927 81.2373 58.9161C81.8591 58.963 82.481 58.9161 83.0569 59.2676C83.1951 59.3613 83.4024 59.3613 83.5866 59.3613C84.2776 59.4082 84.9686 59.455 85.5905 59.8534C85.8439 60.0174 86.2585 59.9237 86.5579 60.0642C87.2489 60.3923 88.009 60.486 88.7 60.8609C89.3219 61.2124 90.0589 61.3764 90.7269 61.681C91.1645 61.8685 91.5561 62.1028 91.9476 62.2902C91.9707 62.3605 92.0168 62.4074 91.9937 62.4308C91.6713 63.2041 91.5561 64.0476 91.2336 64.8443C91.0033 65.4301 90.773 66.0159 90.5426 66.5782C89.9898 67.9138 89.3679 69.1791 88.6078 70.3976C87.9168 71.5223 87.1568 72.5767 86.3736 73.6312C85.245 75.1308 83.817 76.3258 82.5502 77.7083C81.8592 78.0363 81.4215 78.7158 80.7305 79.0907C80.1547 79.3953 79.694 79.8874 79.1412 80.2154C78.0357 80.895 76.9531 81.6213 75.7323 82.1134C75.4329 82.2306 75.1796 82.4649 74.8801 82.5586C74.5807 82.6758 74.2352 82.7226 74.0049 83.0038C73.9588 83.0507 73.8897 83.0975 73.8206 83.121C73.1526 83.3084 72.5077 83.5193 71.8398 83.7068C71.7937 83.7068 71.7707 83.7068 71.7246 83.7302C70.8954 84.152 69.9741 84.2691 69.0988 84.5269C68.6612 84.644 68.2696 84.7612 67.809 84.8081C67.118 84.8549 66.427 84.8783 65.759 85.1595C65.4596 85.3001 65.1141 85.2767 64.7686 85.2767C62.972 85.3001 61.1524 85.3001 59.3558 85.2767C58.9182 85.2767 58.5036 85.183 58.066 85.0424C57.5823 84.8783 57.0525 84.8549 56.5458 84.8081C56.0391 84.7612 55.5093 84.7612 55.0486 84.5034C54.8644 84.4097 54.634 84.3628 54.4037 84.3394C53.897 84.2926 53.3903 84.2223 52.9526 83.8942C52.7914 83.7771 52.538 83.7771 52.3307 83.7302C52.1234 83.6833 51.8701 83.6833 51.6858 83.5896C50.8796 83.0507 49.9813 83.2381 49.1061 83.285C48.9218 83.285 48.7606 83.4022 48.5994 83.449C48.323 83.5427 48.0466 83.6365 47.7702 83.7302C46.8489 84.0817 45.9045 84.316 44.9371 84.5503C44.4764 84.6675 44.0158 84.7846 43.5551 84.8315C42.9793 84.8783 42.3804 84.9018 41.8276 85.1361C41.5052 85.2767 41.1136 85.2767 40.7451 85.3001C39.1328 85.3235 37.4974 85.347 35.8851 85.3235C35.125 85.3235 34.3419 85.3001 33.6048 84.9721C33.2593 84.8081 32.7986 84.8549 32.4071 84.8315C31.9004 84.7846 31.3936 84.8081 30.9099 84.5034C30.7257 84.3863 30.4954 84.3863 30.265 84.3628C29.7583 84.2926 29.2285 84.2691 28.8139 83.9176C28.7448 83.8474 28.6066 83.8005 28.5145 83.8005C27.7314 83.8708 27.1555 83.3084 26.4185 83.1913C25.9348 83.0975 25.5893 82.6055 25.0365 82.582C24.6449 82.09 24 82.09 23.4933 81.7854C22.5259 81.1996 19.4625 79.3953 18.7254 78.7627C17.021 77.2396 15.3165 75.6931 13.8424 73.9123C12.852 72.6939 11.9537 71.4052 11.1936 70.0461C10.756 69.2729 10.3644 68.4996 9.9959 67.703C9.5813 66.836 9.16671 65.9924 8.95941 65.0317C8.38358 64.3991 8.54481 63.4618 8.03808 62.7823C7.96898 62.6886 8.01503 62.5011 8.01503 62.2902C8.68299 62.1497 9.16669 61.7045 9.83465 61.5639C10.2492 61.4701 10.5256 61.0249 11.0093 61.0249C11.6773 60.5329 12.5526 60.6032 13.2436 60.1814C13.4278 60.0642 13.6581 60.0877 13.8885 60.0408C14.1418 59.9939 14.4413 60.0174 14.6255 59.8768C15.1783 59.4784 15.8002 59.455 16.4221 59.4081C16.5373 59.4081 16.6524 59.4082 16.7446 59.3613C17.6659 58.8927 18.6794 58.9864 19.6698 58.9161C19.808 58.9161 19.9462 58.8458 20.1074 58.8224C20.2456 58.26 20.1765 57.7679 19.9232 57.2993C19.808 57.065 19.6698 56.8307 19.6237 56.5964C19.5546 56.198 19.4855 55.7997 19.2322 55.4482C19.117 55.2842 19.0709 55.0264 19.0479 54.8156C18.9788 54.3235 18.9327 53.8549 18.6794 53.4097C18.5872 53.2691 18.5872 53.0582 18.5642 52.8707C18.4951 52.2146 18.4951 51.5351 18.1496 50.9259C18.0114 50.6916 18.0575 50.3401 18.0344 50.0355C17.9193 49.0045 17.8272 47.9501 17.712 46.9191C17.4817 44.904 17.5047 42.8889 17.758 40.8737C17.8502 40.1005 17.9423 39.3038 18.0114 38.5306C18.0575 37.9682 18.0575 37.4059 18.3569 36.8904C18.403 36.7966 18.449 36.6795 18.449 36.5623C18.403 35.5313 18.9558 34.6175 19.0479 33.6334C19.0709 33.4928 19.1631 33.3756 19.2322 33.235C19.7159 33.0944 20.1995 33.1413 20.6602 33.2819C21.0057 33.399 21.3742 33.4928 21.7197 33.5396C22.4107 33.6334 23.1248 33.5631 23.7466 33.9848C23.9079 34.102 24.1843 34.0551 24.3916 34.102C24.7371 34.1957 25.0826 34.3129 25.4281 34.43C25.6584 34.5003 25.9118 34.6175 26.1421 34.6644C26.5106 34.7346 26.8561 34.7581 27.1786 35.0158C27.3398 35.133 27.5932 35.133 27.8005 35.1798C27.9847 35.2267 28.192 35.2033 28.3302 35.297C29.0673 35.7891 29.9656 35.9531 30.7026 36.3749C31.2785 36.6795 31.9464 36.7966 32.3841 37.3356C33.2363 37.523 33.8582 38.1322 34.5952 38.5071C34.8025 38.6243 35.0098 38.7883 35.1941 38.9055C35.6778 38.6477 35.839 38.2728 35.9081 37.8042C36.0694 36.656 36.3457 35.5548 36.9216 34.5472C36.9676 34.4769 36.9907 34.4066 36.9907 34.3363C36.9446 33.5865 37.5435 33.0476 37.5895 32.3212C38.2345 31.4542 38.3957 30.3529 38.9715 29.4625C39.4782 28.6658 39.7547 27.7286 40.2844 26.9319C40.8833 26.0181 41.4361 25.0574 42.058 24.167C43.4399 22.1519 44.9832 20.2539 46.6646 18.4965C47.7241 17.3952 48.8067 16.3174 49.9813 15.3333C51.11 16.2939 52.1464 17.3015 53.1599 18.3559C54.2194 19.4572 55.2559 20.5585 56.2003 21.777C57.5592 23.5578 58.8721 25.362 59.8626 27.3771C60.5075 28.1035 60.6687 29.0876 61.2445 29.8609C61.567 30.3061 61.6591 30.9387 61.8664 31.5011C61.9125 31.6417 61.9125 31.8526 62.0046 31.9228C62.4192 32.2275 62.304 32.7664 62.5804 33.0944C62.9029 33.4693 62.8108 33.9614 63.0181 34.3129C63.4327 35.0393 63.3636 35.9062 63.8242 36.6092C63.9855 36.8435 63.9855 37.1715 64.0085 37.4761C64.0546 38.0151 64.2158 38.5071 64.6534 38.9289C65.045 38.718 65.4596 38.5306 65.8512 38.2728C66.3579 37.9214 66.8646 37.5933 67.4404 37.3824C67.832 37.2418 68.1775 36.9607 68.569 36.7498C69.3522 36.3514 70.2044 36.1171 70.9645 35.6953C71.6094 35.3439 72.3695 35.3204 72.9684 34.8752C73.0835 34.8049 73.2448 34.8049 73.383 34.7581C73.4521 34.7347 73.5212 34.7112 73.5903 34.7346C74.1431 34.8049 74.5346 34.3363 75.0183 34.2191C75.479 34.1254 76.0087 34.1254 76.4003 33.938C76.8149 33.7271 77.2295 33.6568 77.6671 33.6334C78.2199 33.6099 78.7497 33.5631 79.2794 33.3287C79.8322 33.0007 80.3159 32.9773 80.8227 33.1647ZM50.0274 78.2472C50.9027 77.4505 51.6397 76.6538 52.3307 75.8337C52.9296 75.1308 53.4363 74.381 54.0352 73.7015C54.8183 72.7876 55.4172 71.7332 56.0851 70.7256C56.6149 69.929 57.0525 69.0854 57.4901 68.2419C57.9278 67.3983 58.3424 66.5314 58.7339 65.6644C58.8491 65.4301 58.8721 65.1489 58.9873 64.938C59.3328 64.2351 59.6322 63.5321 59.8395 62.7823C59.9086 62.5714 59.9086 62.3137 60.0468 62.1497C60.3002 61.8685 60.3002 61.5404 60.3693 61.2124C60.4153 60.9312 60.5305 60.65 60.6226 60.3689C60.6917 60.0877 60.7608 59.7831 60.8299 59.5019C61.1063 58.3069 61.544 57.1587 61.544 55.9168C61.9125 55.3076 61.8434 54.6281 61.8895 53.9486C61.9585 52.613 62.0507 51.2539 62.1198 49.9183C62.1428 49.5903 62.1658 49.2388 62.1428 48.9108C62.0507 47.2003 61.9816 45.4663 61.8895 43.7558C61.8664 43.4512 61.8895 43.1232 61.7743 42.8654C61.4979 42.2562 61.4979 41.6235 61.4288 40.9909C61.4058 40.6628 61.3597 40.3114 61.2215 40.0302C61.0142 39.6084 60.899 39.2101 60.853 38.7415C60.7608 37.8979 60.2771 37.1247 60.2541 36.2577C60.2541 36.2343 60.208 36.1874 60.185 36.164C59.7243 35.5548 59.6783 34.7815 59.3788 34.102C59.1024 33.4225 58.8261 32.743 58.5266 32.0634C58.066 31.009 57.4901 30.0483 56.9834 29.0173C56.684 28.3847 56.2003 27.8692 56.016 27.1897C55.2099 26.393 54.7492 25.3151 54.0582 24.4247C52.8835 22.9485 51.6628 21.5192 50.3268 20.1836C50.2347 20.0899 50.0965 20.043 50.0044 19.9727C49.4285 20.5585 48.8527 21.0506 48.346 21.6129C47.5859 22.4799 46.8258 23.3937 46.1118 24.3076C45.3978 25.2214 44.868 26.2758 44.0849 27.1662C43.5091 28.5253 42.5877 29.6734 41.9888 31.0324C41.6203 31.876 41.1366 32.6727 40.9063 33.5396C40.699 34.3363 40.1232 34.969 40.1232 35.8359C39.8237 36.1874 39.8007 36.656 39.7316 37.1012C39.7086 37.3121 39.6164 37.523 39.5243 37.7339C39.4322 37.9448 39.294 38.1322 39.271 38.3431C39.1558 39.0461 39.1097 39.749 38.7412 40.3817C38.7182 41.3892 38.4878 42.3734 38.2575 43.3575C38.2345 43.4746 38.2345 43.5918 38.2345 43.6855C38.1654 45.068 38.0963 46.4505 38.0041 47.8329C37.889 50.1995 38.1654 52.5427 38.2575 54.9093C38.2575 55.1202 38.3036 55.3779 38.3957 55.5654C38.603 56.0106 38.6721 56.5026 38.6721 56.9947C38.6951 58.0491 39.2709 58.9864 39.34 60.0174C39.34 60.1111 39.4092 60.2283 39.4783 60.322C39.7086 60.6032 39.7316 60.9312 39.7777 61.2593C39.8007 61.4701 39.8007 61.7513 39.9159 61.9153C40.1462 62.2434 40.1923 62.5949 40.2844 62.9463C40.3996 63.3212 40.6299 63.6727 40.7681 64.0476C41.3209 65.6175 42.0119 67.1172 42.8181 68.5699C43.6703 70.1164 44.5686 71.616 45.559 73.0688C45.8814 73.514 46.25 73.9123 46.5724 74.3575C47.5629 75.74 48.7375 76.9585 50.0274 78.2472ZM21.7888 37.3121C21.6967 37.8745 21.6737 38.39 21.5124 38.882C21.3282 39.421 21.2591 39.9833 21.2591 40.5457C21.2591 42.8654 21.2591 45.1852 21.2591 47.5049C21.2591 47.8329 21.236 48.2078 21.3512 48.5124C21.6046 49.3091 21.6506 50.1292 21.7658 50.9493C21.904 51.9335 22.4338 52.8473 22.4338 53.8783C22.8714 54.6515 22.8483 55.6122 23.332 56.362C23.3781 57.0416 23.977 57.5336 23.977 58.2366C24.691 59.5253 25.2438 60.8843 25.9578 62.1497C26.9022 63.8602 28.0769 65.3832 29.2055 66.9531C29.574 67.4686 29.9886 67.9373 30.4032 68.4059C32.338 70.5148 33.7891 71.6863 35.7699 73.186C36.7834 73.9592 37.8199 74.6856 38.9715 75.2245C39.6855 75.5526 40.3305 76.0446 41.0906 76.3024C41.39 76.771 42.0119 76.5367 42.3574 76.8647C42.6568 77.1459 43.0253 77.1459 43.3708 77.2631C43.6933 77.3802 43.9927 77.5442 44.3613 77.7317C44.3843 77.5442 44.4304 77.4037 44.3843 77.3334C43.9697 76.7007 43.6012 76.0212 43.0253 75.4823C42.4034 74.873 42.1271 73.9826 41.5052 73.35C41.367 73.2094 41.367 72.9282 41.2288 72.7642C40.4226 71.7566 40.0541 70.5148 39.294 69.4838C39.2479 68.8745 38.6491 68.4996 38.626 67.867C38.2575 67.4686 38.2575 66.9063 37.9811 66.4611C37.5895 65.8284 37.4283 65.102 37.175 64.4225C37.0598 64.1179 37.0368 63.7899 36.8295 63.5087C36.6682 63.2978 36.6221 62.9463 36.553 62.6652C36.4839 62.4543 36.507 62.1965 36.3918 62.0091C36.1385 61.6107 36.0924 61.1655 36.0463 60.7203C36.0463 60.5797 36.0463 60.3923 35.9542 60.2751C35.5857 59.7596 35.5857 59.1504 35.5166 58.5646C35.4705 58.26 35.4474 57.9554 35.3092 57.6976C35.0098 57.1353 35.0098 56.5495 34.9638 55.9637C34.9177 55.3779 34.8486 54.7687 34.7795 54.1829C34.7334 53.7846 34.5952 53.3862 34.5722 52.9879C34.5492 50.4104 34.5492 47.8095 34.5722 45.232C34.5722 44.8337 34.6643 44.4119 34.7795 44.037C34.8947 43.6387 34.9638 43.2403 34.8716 42.8888C34.6643 42.6545 34.5031 42.4436 34.2958 42.3031C34.0885 42.1625 33.7891 42.1156 33.6278 41.9516C33.052 41.3658 32.1998 41.2486 31.647 40.616C30.8639 40.3582 30.1729 39.8662 29.4128 39.5381C28.86 39.3038 28.3763 38.8118 27.7083 38.8586C27.2016 38.4603 26.5106 38.4837 25.9808 38.1791C25.5893 37.9682 25.1977 37.8042 24.7371 37.7573C24.4837 37.7339 24.2534 37.6167 24 37.523C23.2629 37.2418 22.5489 37.2184 21.7888 37.3121ZM65.1832 43.006C65.2293 43.3809 65.2753 43.8261 65.3444 44.2713C65.4135 44.74 65.5517 45.232 65.5517 45.7006C65.5747 48.0204 65.5517 50.3401 65.5517 52.6598C65.5517 52.9645 65.5517 53.2691 65.4596 53.5502C65.1832 54.3938 65.1832 55.2373 65.0911 56.1043C65.045 56.5495 64.9759 56.9947 64.8147 57.4165C64.6534 57.8382 64.5613 58.26 64.5152 58.7286C64.4922 59.0333 64.5383 59.3847 64.4001 59.619C63.9164 60.486 64.1697 61.5639 63.5248 62.3605C63.3175 63.5321 62.8568 64.61 62.4192 65.7113C62.281 66.0627 61.9816 66.3439 61.9355 66.6954C61.8664 67.2343 61.4749 67.6092 61.3597 68.1247C61.2445 68.6637 60.7148 69.0386 60.6917 69.6244C60.3462 69.8821 60.3462 70.3507 60.1389 70.6788C59.7013 71.3817 59.1946 72.0612 58.8261 72.8111C58.5957 73.2797 58.2732 73.678 57.9968 74.0998C57.6974 74.545 57.4671 75.0605 57.0755 75.4588C56.5458 76.0212 56.1542 76.6773 55.7396 77.3334C55.6936 77.4037 55.7396 77.5208 55.7396 77.6614C56.1312 77.4974 56.4997 77.3802 56.8683 77.2396C57.4901 76.9819 58.1351 76.7241 58.757 76.443C59.2406 76.2321 59.7244 75.9509 60.208 75.6931C60.8299 75.3417 61.4518 75.0136 62.0737 74.6387C63.3636 73.842 64.5843 72.9516 65.8051 72.0144C67.2562 70.8662 68.5691 69.6243 69.7898 68.2419C71.9549 65.7347 73.8436 63.0635 75.2256 60.0174C75.4329 59.5487 75.5942 59.0333 75.8706 58.6115C76.2851 57.9554 76.4694 57.2056 76.7228 56.4792C76.8149 56.198 76.9301 55.9403 77.0452 55.6591C77.1143 55.4482 77.2525 55.2608 77.2756 55.0499C77.3907 54.1829 77.9896 53.4097 77.8975 52.4724C77.8975 52.4021 77.9205 52.3318 77.9666 52.2615C78.289 51.7694 78.266 51.1837 78.3351 50.6447C78.4042 50.1761 78.4502 49.684 78.6115 49.2154C78.7957 48.6296 78.8879 48.0438 78.8879 47.458C78.9109 45.6538 78.9109 43.873 78.9109 42.0687C78.9109 40.8737 78.9339 39.6787 78.4733 38.5306C78.312 38.1791 78.312 37.7573 78.243 37.359C78.0587 37.3356 77.9435 37.3121 77.8514 37.3121C77.0683 37.3121 76.3312 37.4527 75.6172 37.8042C74.6728 37.7808 73.9127 38.4603 73.0144 38.6009C72.692 38.6712 72.3695 38.8821 72.001 38.9758C71.6325 39.0695 71.287 39.2804 70.9415 39.4913C70.4117 39.7959 69.8359 40.0302 69.2831 40.2879C68.6612 40.5691 68.0163 40.8737 67.4865 41.2955C66.7264 41.7876 65.7821 42.1156 65.1832 43.006ZM12.4604 64.5397C12.5295 64.6334 12.6677 64.7506 12.6908 64.8677C12.8981 65.805 13.3587 66.6251 13.8194 67.4686C14.925 69.5541 16.0766 71.1005 17.5507 72.6939C18.3108 73.514 19.117 74.3107 19.9462 75.0371C21.19 76.1383 22.595 77.0522 24.023 77.9192C25.405 78.7627 26.8561 79.4188 28.3533 79.9343C28.5145 80.0046 28.6757 80.1217 28.837 80.192C29.0443 80.2857 29.2285 80.4029 29.4358 80.4263C30.3571 80.5904 31.2324 81.0824 32.2228 81.0121C32.315 81.0121 32.4531 81.059 32.5453 81.1059C33.1441 81.4573 33.7891 81.5042 34.457 81.5276C35.3323 81.5511 36.2306 81.6448 37.1058 81.6448C38.7873 81.6213 40.4917 81.551 42.1731 81.4808C42.4265 81.4808 42.772 81.5042 42.9793 81.1527C42.6799 80.9418 42.4034 80.5669 42.104 80.5435C41.3209 80.4732 40.8372 79.7937 40.0771 79.7468C39.2249 79.1376 38.1884 78.8564 37.2901 78.2941C36.3918 77.7317 35.5165 77.1928 34.6183 76.6304C33.3054 75.7869 32.0846 74.8027 30.9099 73.7717C30.0807 73.0454 29.2976 72.2253 28.5375 71.4052C27.9617 70.7959 27.3859 70.2101 26.8561 69.5541C26.3264 68.898 25.8196 68.2419 25.3359 67.5389C24.7831 66.7188 24.2303 65.8987 23.7236 65.0552C23.2169 64.2585 22.6641 63.4853 22.2725 62.5949C22.1113 62.22 21.881 62.0559 21.5124 62.0794C20.7754 62.1028 20.0383 62.0559 19.3243 62.3371C18.9558 62.4777 18.5412 62.5246 18.1496 62.5949C17.4356 62.6886 16.6755 62.6417 16.0075 63.0401C15.8693 63.1338 15.639 63.1104 15.4778 63.1338C15.0862 63.1806 14.6716 63.2041 14.3491 63.5087C14.234 63.6259 14.0037 63.6493 13.8194 63.6727C13.2205 63.6961 12.8059 64.0008 12.4604 64.5397ZM87.6405 64.4928C87.2719 64.0945 86.8804 63.7196 86.2815 63.6727C86.0972 63.6493 85.8899 63.6493 85.7517 63.5321C85.3602 63.1807 84.8765 63.1572 84.3928 63.1338C84.2085 63.1104 84.0243 63.0869 83.863 62.9932C83.4024 62.7354 82.8726 62.712 82.3659 62.6417C81.8131 62.5714 81.2603 62.5246 80.7536 62.3371C80.0395 62.0794 79.3025 62.1028 78.5654 62.0794C78.1969 62.0559 77.9665 62.22 77.8053 62.5949C77.575 63.1338 77.2525 63.6259 76.9531 64.1179C76.5155 64.8209 76.0548 65.5238 75.6172 66.2268C74.8571 67.4921 73.9358 68.6168 72.9914 69.7415C72.4847 70.3507 71.9549 70.96 71.4252 71.5457C70.2044 72.8579 68.8915 74.0061 67.4865 75.1074C66.45 75.904 65.3905 76.6304 64.3079 77.3568C63.7321 77.7317 63.1102 78.0129 62.5344 78.3878C61.9125 78.7861 61.2445 79.0439 60.6226 79.3953C60.1389 79.6531 59.6092 79.7937 59.1485 80.0514C58.803 80.2389 58.4575 80.4263 58.066 80.5201C57.6974 80.6138 57.3059 80.8247 57.0755 81.3402C57.4901 81.4105 57.8126 81.4808 58.1351 81.5042C60.7839 81.7151 63.4327 81.6916 66.0815 81.5042C66.4731 81.4808 66.8876 81.4105 67.2562 81.2464C67.6708 81.059 68.1084 81.0121 68.523 80.9418C69.3752 80.7778 70.2274 80.5435 71.0797 80.3326C71.1488 80.3092 71.2179 80.2623 71.287 80.2389C71.9549 79.9343 72.5998 79.6531 73.2678 79.3485C73.8897 79.0673 74.5346 78.7627 75.1565 78.4815C75.8705 78.13 76.5385 77.6848 77.2065 77.2631C78.266 76.5835 79.3255 75.8572 80.2699 75.0371C81.1912 74.2404 81.9973 73.3031 82.8496 72.4361C83.5636 71.7098 84.1394 70.8662 84.7383 70.0227C85.5905 68.8277 86.3046 67.5624 86.9264 66.2502C87.1568 65.6644 87.341 65.0786 87.6405 64.4928Z" fill="#0092D7"/>
</g>
</svg>
