<svg width="226" height="112" viewBox="0 0 226 112" fill="none" xmlns="http://www.w3.org/2000/svg">
<path d="M190.385 56.0443L117.291 56.0059C117.294 50.2349 116.377 44.5196 114.593 39.1866C112.809 33.8536 110.192 29.0071 106.892 24.9241C103.593 20.841 99.6747 17.6012 95.362 15.3898C91.0494 13.1783 86.4266 12.0385 81.7575 12.0354L0.0761732 12C0.074918 17.7708 0.993272 23.4854 2.7788 28.8175C4.56433 34.1496 7.18206 38.9948 10.4825 43.0765C13.783 47.1581 17.7016 50.3963 22.0146 52.6062C26.3276 54.816 30.9504 55.9542 35.6193 55.9557V55.9409L113.932 56.0089C113.931 61.78 114.85 67.4949 116.636 72.8273C118.422 78.1596 121.04 83.0049 124.341 87.0866C127.642 91.1682 131.561 94.4063 135.874 96.6159C140.187 98.8255 144.811 99.9634 149.48 99.9646V99.9498L225.923 100C225.924 94.2296 225.006 88.5153 223.221 83.1834C221.436 77.8515 218.819 73.0064 215.519 68.9247C212.219 64.8431 208.301 61.6048 203.988 59.3947C199.676 57.1847 195.053 56.0462 190.385 56.0443Z" fill="#CCE9F7"/>
<mask id="path-2-inside-1_179_5539" fill="white">
<path fill-rule="evenodd" clip-rule="evenodd" d="M159.776 85.5821C160.165 85.1659 160.383 84.6021 160.383 84.0143C160.383 83.4264 160.165 82.8626 159.776 82.4464L149.393 71.3468C149.001 70.9476 148.478 70.7281 147.936 70.735C147.395 70.7419 146.877 70.9747 146.494 71.3837C146.111 71.7927 145.892 72.3456 145.885 72.9244C145.877 73.5033 146.082 74.0624 146.454 74.4824L153.292 81.7971L71.8533 81.7971L78.6908 74.4824C79.0635 74.0624 79.2679 73.5033 79.2605 72.9244C79.2531 72.3456 79.0345 71.7927 78.6512 71.3837C78.2679 70.9747 77.7503 70.7419 77.2088 70.735C76.6672 70.7281 76.1446 70.9476 75.7523 71.3468L65.3689 82.4464C64.9805 82.8626 64.7624 83.4264 64.7624 84.0143C64.7624 84.6021 64.9805 85.1659 65.3689 85.5821L75.7523 96.6818C76.1446 97.0809 76.6672 97.3004 77.2088 97.2935C77.7503 97.2866 78.2679 97.0539 78.6512 96.6449C79.0345 96.2359 79.2531 95.683 79.2605 95.1041C79.2679 94.5252 79.0635 93.9662 78.6908 93.5461L71.8533 86.2314L153.292 86.2314L146.454 93.5461C146.082 93.9662 145.877 94.5252 145.885 95.1041C145.892 95.683 146.111 96.2359 146.494 96.6449C146.877 97.0539 147.395 97.2866 147.936 97.2935C148.478 97.3004 149.001 97.0809 149.393 96.6818L159.776 85.5821Z"/>
</mask>
<path fill-rule="evenodd" clip-rule="evenodd" d="M159.776 85.5821C160.165 85.1659 160.383 84.6021 160.383 84.0143C160.383 83.4264 160.165 82.8626 159.776 82.4464L149.393 71.3468C149.001 70.9476 148.478 70.7281 147.936 70.735C147.395 70.7419 146.877 70.9747 146.494 71.3837C146.111 71.7927 145.892 72.3456 145.885 72.9244C145.877 73.5033 146.082 74.0624 146.454 74.4824L153.292 81.7971L71.8533 81.7971L78.6908 74.4824C79.0635 74.0624 79.2679 73.5033 79.2605 72.9244C79.2531 72.3456 79.0345 71.7927 78.6512 71.3837C78.2679 70.9747 77.7503 70.7419 77.2088 70.735C76.6672 70.7281 76.1446 70.9476 75.7523 71.3468L65.3689 82.4464C64.9805 82.8626 64.7624 83.4264 64.7624 84.0143C64.7624 84.6021 64.9805 85.1659 65.3689 85.5821L75.7523 96.6818C76.1446 97.0809 76.6672 97.3004 77.2088 97.2935C77.7503 97.2866 78.2679 97.0539 78.6512 96.6449C79.0345 96.2359 79.2531 95.683 79.2605 95.1041C79.2679 94.5252 79.0635 93.9662 78.6908 93.5461L71.8533 86.2314L153.292 86.2314L146.454 93.5461C146.082 93.9662 145.877 94.5252 145.885 95.1041C145.892 95.683 146.111 96.2359 146.494 96.6449C146.877 97.0539 147.395 97.2866 147.936 97.2935C148.478 97.3004 149.001 97.0809 149.393 96.6818L159.776 85.5821Z" fill="url(#paint0_linear_179_5539)"/>
<path d="M159.776 85.5821L163.428 88.9979L163.432 88.9935L159.776 85.5821ZM160.383 84.0143L155.383 84.0143L160.383 84.0143ZM159.776 82.4464L163.432 79.0351L163.428 79.0307L159.776 82.4464ZM149.393 71.3468L153.044 67.931L153.002 67.8859L152.959 67.8419L149.393 71.3468ZM146.454 74.4824L142.714 77.8007L142.757 77.8493L142.802 77.8968L146.454 74.4824ZM153.292 81.7971L153.292 86.7971L164.81 86.7971L156.945 78.3827L153.292 81.7971ZM71.8533 81.7971L68.2007 78.3827L60.3352 86.7971L71.8533 86.7971L71.8533 81.7971ZM78.6908 74.4824L82.3435 77.8968L82.3879 77.8493L82.431 77.8007L78.6908 74.4824ZM75.7523 71.3468L72.1864 67.8419L72.1431 67.8859L72.1009 67.931L75.7523 71.3468ZM65.3689 82.4464L61.7175 79.0307L61.7134 79.0351L65.3689 82.4464ZM65.3689 85.5821L61.7134 88.9935L61.7175 88.9979L65.3689 85.5821ZM75.7523 96.6818L72.1009 100.098L72.1431 100.143L72.1864 100.187L75.7523 96.6818ZM78.6908 93.5461L82.431 90.2278L82.3879 90.1792L82.3435 90.1317L78.6908 93.5461ZM71.8533 86.2314L71.8533 81.2314L60.3352 81.2314L68.2007 89.6458L71.8533 86.2314ZM153.292 86.2314L156.945 89.6458L164.81 81.2314L153.292 81.2314L153.292 86.2314ZM146.454 93.5461L142.802 90.1317L142.757 90.1792L142.714 90.2278L146.454 93.5461ZM149.393 96.6818L152.959 100.187L153.002 100.143L153.044 100.098L149.393 96.6818ZM163.432 88.9935C164.715 87.6185 165.383 85.8227 165.383 84.0143L155.383 84.0143C155.383 83.3815 155.614 82.7134 156.121 82.1708L163.432 88.9935ZM165.383 84.0143C165.383 82.2059 164.715 80.41 163.432 79.0351L156.121 85.8578C155.614 85.3152 155.383 84.647 155.383 84.0143L165.383 84.0143ZM163.428 79.0307L153.044 67.931L145.742 74.7625L156.125 85.8622L163.428 79.0307ZM152.959 67.8419C151.647 66.5071 149.828 65.7105 147.873 65.7354L148 75.7346C147.128 75.7457 146.354 75.3882 145.827 74.8516L152.959 67.8419ZM147.873 65.7354C145.919 65.7603 144.123 66.6022 142.846 67.9647L150.142 74.8027C149.632 75.3472 148.871 75.7235 148 75.7346L147.873 65.7354ZM142.846 67.9647C141.579 69.3166 140.908 71.0789 140.885 72.8605L150.884 72.9884C150.876 73.6122 150.643 74.2687 150.142 74.8027L142.846 67.9647ZM140.885 72.8605C140.862 74.6418 141.488 76.4181 142.714 77.8007L150.195 71.1641C150.676 71.7067 150.892 72.3648 150.884 72.9884L140.885 72.8605ZM142.802 77.8968L149.639 85.2115L156.945 78.3827L150.107 71.068L142.802 77.8968ZM153.292 76.7971L71.8533 76.7971L71.8533 86.7971L153.292 86.7971L153.292 76.7971ZM75.506 85.2115L82.3435 77.8968L75.0382 71.068L68.2007 78.3827L75.506 85.2115ZM82.431 77.8007C83.6577 76.4181 84.2829 74.6418 84.2601 72.8605L74.2609 72.9884C74.253 72.3648 74.4693 71.7066 74.9507 71.1641L82.431 77.8007ZM84.2601 72.8605C84.2373 71.079 83.5665 69.3167 82.2995 67.9647L75.0028 74.8027C74.5024 74.2687 74.2689 73.6121 74.2609 72.9884L84.2601 72.8605ZM82.2995 67.9647C81.0227 66.6022 79.2267 65.7603 77.2724 65.7354L77.1451 75.7346C76.2739 75.7235 75.5131 75.3472 75.0028 74.8027L82.2995 67.9647ZM77.2724 65.7354C75.3176 65.7105 73.4984 66.5071 72.1864 67.8419L79.3183 74.8516C78.7909 75.3882 78.0169 75.7457 77.1451 75.7346L77.2724 65.7354ZM72.1009 67.931L61.7175 79.0307L69.0203 85.8622L79.4037 74.7625L72.1009 67.931ZM61.7134 79.0351C60.4303 80.41 59.7624 82.2059 59.7624 84.0143L69.7624 84.0143C69.7624 84.647 69.5308 85.3152 69.0244 85.8578L61.7134 79.0351ZM59.7624 84.0143C59.7624 85.8226 60.4303 87.6185 61.7134 88.9935L69.0244 82.1708C69.5308 82.7134 69.7624 83.3816 69.7624 84.0143L59.7624 84.0143ZM61.7175 88.9979L72.1009 100.098L79.4037 93.266L69.0203 82.1663L61.7175 88.9979ZM72.1864 100.187C73.4984 101.521 75.3176 102.318 77.2724 102.293L77.1451 92.2939C78.0169 92.2828 78.7909 92.6403 79.3183 93.1769L72.1864 100.187ZM77.2724 102.293C79.2267 102.268 81.0227 101.426 82.2995 100.064L75.0028 93.2259C75.5131 92.6814 76.2739 92.305 77.1451 92.2939L77.2724 102.293ZM82.2995 100.064C83.5665 98.7119 84.2373 96.9496 84.2601 95.1681L74.2609 95.0401C74.2689 94.4164 74.5024 93.7599 75.0028 93.2259L82.2995 100.064ZM84.2601 95.1681C84.2829 93.3868 83.6577 91.6105 82.431 90.2278L74.9507 96.8644C74.4693 96.3219 74.253 95.6637 74.2609 95.0401L84.2601 95.1681ZM82.3435 90.1317L75.506 82.8171L68.2007 89.6458L75.0382 96.9605L82.3435 90.1317ZM71.8533 91.2314L153.292 91.2314L153.292 81.2314L71.8533 81.2314L71.8533 91.2314ZM149.639 82.8171L142.802 90.1317L150.107 96.9605L156.945 89.6458L149.639 82.8171ZM142.714 90.2278C141.488 91.6105 140.862 93.3868 140.885 95.1681L150.884 95.0401C150.892 95.6637 150.676 96.3219 150.195 96.8644L142.714 90.2278ZM140.885 95.1681C140.908 96.9496 141.579 98.7119 142.846 100.064L150.142 93.2259C150.643 93.7598 150.876 94.4164 150.884 95.0401L140.885 95.1681ZM142.846 100.064C144.123 101.426 145.918 102.268 147.873 102.293L148 92.2939C148.871 92.305 149.632 92.6814 150.142 93.2259L142.846 100.064ZM147.873 102.293C149.828 102.318 151.647 101.521 152.959 100.187L145.827 93.1769C146.354 92.6404 147.128 92.2828 148 92.2939L147.873 102.293ZM153.044 100.098L163.428 88.9979L156.125 82.1663L145.742 93.266L153.044 100.098Z" fill="url(#paint1_linear_179_5539)" mask="url(#path-2-inside-1_179_5539)"/>
<path fill-rule="evenodd" clip-rule="evenodd" d="M86.745 14.6665H94.9402L96.336 16.1115L96.4357 27.6915L108.3 27.7119C109.384 27.777 112.181 27.739 113.444 27.7119L119.817 27.6568C121.728 27.6667 123.102 27.6617 124.112 27.6508L127.562 27.5898L133.523 27.6915L142.855 27.7933L143.394 28.3021C143.693 28.587 145.487 31.4973 150.871 40.7165L162.037 40.8183L162.675 41.4899C163.234 42.0597 163.333 42.2836 163.333 43.1384C163.333 43.8507 163.214 44.2577 162.935 44.5833C162.715 44.8479 161.499 45.8451 160.243 46.822C158.986 47.7989 156.833 49.5491 155.457 50.7092C154.101 51.8692 151.948 53.884 150.672 55.1662C149.415 56.4483 147.94 58.1986 147.382 59.033C146.843 59.8674 146.125 60.8646 145.188 61.8822H70.8131L70.1751 61.2309C69.7962 60.8239 68.221 57.8322 66.227 53.7416C63.1762 47.4936 62.917 46.8627 63.0167 46.1097C63.0765 45.5806 63.3358 45.0921 64.3327 44.0746L70.1153 43.9728L73.0265 36.4834C75.1799 30.9478 76.0772 28.8516 77.0942 27.7933L85.2694 27.6915L85.3691 16.1115L86.745 14.6665ZM84.9305 35.303L84.9341 35.3031C87.0441 35.3437 87.0644 35.3441 87.722 36.0153C88.2803 36.5852 88.3601 36.809 88.3601 37.6842C88.3601 38.5593 88.2803 38.7831 87.064 40.0246H82.2984L81.6404 39.353C81.0821 38.7831 80.9824 38.5593 80.9824 37.7045C80.9824 36.9311 81.102 36.5648 81.4609 36.1374C81.7202 35.8322 82.119 35.5065 82.3582 35.4251C82.5975 35.3234 83.754 35.2623 84.9305 35.303ZM99.626 35.3437L100.284 36.0153C100.842 36.5852 100.922 36.809 100.922 37.6842C100.922 38.5593 100.842 38.7831 99.626 40.0246H94.4616L93.8036 39.353C93.2453 38.7831 93.1456 38.5593 93.1456 37.7045C93.1456 36.9311 93.2652 36.5648 93.6242 36.1374C93.8834 35.8322 94.2822 35.5065 94.5214 35.4251C94.7607 35.3234 95.997 35.2623 99.626 35.3437ZM112.986 35.3437L113.644 36.0153C114.202 36.5852 114.282 36.809 114.282 37.6842C114.282 38.5593 114.202 38.7831 112.986 40.0246H107.223L106.565 39.353C106.007 38.7831 105.907 38.5593 105.907 37.7045C105.907 36.9311 106.027 36.5648 106.386 36.1374C106.645 35.8322 107.044 35.5065 107.283 35.4251C107.522 35.3234 108.898 35.2623 112.986 35.3437ZM125.348 35.3437L126.006 36.0153C126.565 36.5852 126.644 36.809 126.644 37.6842C126.644 38.5593 126.565 38.7831 125.348 40.0246H120.184L119.526 39.353C118.968 38.7831 118.868 38.5593 118.868 37.7045C118.868 36.9311 118.987 36.5648 119.346 36.1374C119.606 35.8322 120.004 35.5065 120.244 35.4251C120.483 35.3234 121.719 35.2623 125.348 35.3437ZM138.708 35.3437L139.366 36.0153C139.924 36.5852 140.004 36.809 140.004 37.6842C140.004 38.5593 139.924 38.7831 138.708 40.0246H132.945L132.287 39.353C131.729 38.7831 131.629 38.5593 131.629 37.7045C131.629 36.9311 131.749 36.5648 132.108 36.1374C132.367 35.8322 132.766 35.5065 133.005 35.4251C133.244 35.3234 134.62 35.2623 138.708 35.3437Z" fill="url(#paint2_linear_179_5539)"/>
<defs>
<linearGradient id="paint0_linear_179_5539" x1="160.383" y1="70.7349" x2="155.851" y2="108.286" gradientUnits="userSpaceOnUse">
<stop stop-color="#0092D7"/>
<stop offset="1" stop-color="#012E89"/>
</linearGradient>
<linearGradient id="paint1_linear_179_5539" x1="160.383" y1="70.7349" x2="155.851" y2="108.286" gradientUnits="userSpaceOnUse">
<stop stop-color="#0092D7"/>
<stop offset="1" stop-color="#012E89"/>
</linearGradient>
<linearGradient id="paint2_linear_179_5539" x1="63" y1="14.6665" x2="140.697" y2="86.4004" gradientUnits="userSpaceOnUse">
<stop stop-color="#0092D7"/>
<stop offset="1" stop-color="#012E89"/>
</linearGradient>
</defs>
</svg>
