<svg width="226" height="88" viewBox="0 0 226 88" fill="none" xmlns="http://www.w3.org/2000/svg">
<path d="M190.385 44.0443L117.291 44.0059C117.294 38.2349 116.377 32.5196 114.593 27.1866C112.809 21.8536 110.192 17.0071 106.892 12.9241C103.593 8.84098 99.6747 5.60122 95.362 3.38979C91.0494 1.17835 86.4266 0.0385379 81.7575 0.0354365L0.0761732 0C0.074918 5.77079 0.993272 11.4854 2.7788 16.8175C4.56433 22.1496 7.18206 26.9948 10.4825 31.0765C13.783 35.1581 17.7016 38.3963 22.0146 40.6062C26.3276 42.816 30.9504 43.9542 35.6193 43.9557V43.9409L113.932 44.0089C113.931 49.78 114.85 55.4949 116.636 60.8273C118.422 66.1596 121.04 71.0049 124.341 75.0866C127.642 79.1682 131.561 82.4063 135.874 84.6159C140.187 86.8255 144.811 87.9634 149.48 87.9646V87.9498L225.923 88C225.924 82.2296 225.006 76.5153 223.221 71.1834C221.436 65.8515 218.819 61.0064 215.519 56.9247C212.219 52.8431 208.301 49.6048 203.988 47.3947C199.676 45.1847 195.053 44.0462 190.385 44.0443Z" fill="#CCE9F7"/>
<g clip-path="url(#clip0_2331_6648)">
<path d="M104.322 28.3333H122.98V23.6667H104.322V28.3333ZM91.4951 28.3333V75H89.1629C86.9278 75 85.0086 74.1979 83.4051 72.5938C81.8017 70.9896 81 69.0694 81 66.8333V36.5C81 34.2639 81.8017 32.3438 83.4051 30.7396C85.0086 29.1354 86.9278 28.3333 89.1629 28.3333H91.4951ZM132.309 28.3333V75H94.9935V28.3333H99.658V22.5C99.658 21.5278 99.9981 20.7014 100.678 20.0208C101.359 19.3403 102.185 19 103.156 19H124.147C125.118 19 125.944 19.3403 126.625 20.0208C127.305 20.7014 127.645 21.5278 127.645 22.5V28.3333H132.309ZM146.303 36.5V66.8333C146.303 69.0694 145.501 70.9896 143.898 72.5938C142.294 74.1979 140.375 75 138.14 75H135.808V28.3333H138.14C140.375 28.3333 142.294 29.1354 143.898 30.7396C145.501 32.3438 146.303 34.2639 146.303 36.5Z" fill="url(#paint0_linear_2331_6648)"/>
</g>
<defs>
<linearGradient id="paint0_linear_2331_6648" x1="81" y1="19" x2="155.541" y2="56.7661" gradientUnits="userSpaceOnUse">
<stop stop-color="#0092D7"/>
<stop offset="1" stop-color="#012E89"/>
</linearGradient>
<clipPath id="clip0_2331_6648">
<rect width="65.3029" height="56" fill="white" transform="translate(81 19)"/>
</clipPath>
</defs>
</svg>
