<svg width="226" height="88" viewBox="0 0 226 88" fill="none" xmlns="http://www.w3.org/2000/svg">
<path d="M190.385 44.0443L117.291 44.0059C117.294 38.2349 116.377 32.5196 114.593 27.1866C112.809 21.8536 110.192 17.0071 106.892 12.9241C103.593 8.84098 99.6747 5.60122 95.362 3.38979C91.0494 1.17835 86.4266 0.0385379 81.7575 0.0354365L0.0761732 0C0.074918 5.77079 0.993272 11.4854 2.7788 16.8175C4.56433 22.1496 7.18206 26.9948 10.4825 31.0765C13.783 35.1581 17.7016 38.3963 22.0146 40.6062C26.3276 42.816 30.9504 43.9542 35.6193 43.9557V43.9409L113.932 44.0089C113.931 49.78 114.85 55.4949 116.636 60.8273C118.422 66.1596 121.04 71.0049 124.341 75.0866C127.642 79.1682 131.561 82.4063 135.874 84.6159C140.187 86.8255 144.811 87.9634 149.48 87.9646V87.9498L225.923 88C225.924 82.2296 225.006 76.5153 223.221 71.1834C221.436 65.8515 218.819 61.0064 215.519 56.9247C212.219 52.8431 208.301 49.6048 203.988 47.3947C199.676 45.1847 195.053 44.0462 190.385 44.0443Z" fill="#CCE9F7"/>
<path fill-rule="evenodd" clip-rule="evenodd" d="M113 17C93.6719 17 78 32.6563 78 51.9844C77.9882 60.5357 81.1188 68.7933 86.7969 75.1875C86.8563 75.2523 86.9139 75.3172 86.9709 75.3813L86.9711 75.3816L86.9712 75.3817C87.0789 75.503 87.1846 75.622 87.2969 75.7344C87.6667 76.1347 88.1155 76.4538 88.615 76.6716C89.1145 76.8894 89.6538 77.0012 90.1988 76.9997C90.7437 76.9982 91.2824 76.8836 91.7807 76.6631C92.2791 76.4426 92.7262 76.121 93.0938 75.7188C95.6274 72.9654 98.7046 70.7676 102.131 69.2642C105.557 67.7608 109.258 66.9846 113 66.9846C116.742 66.9846 120.443 67.7608 123.869 69.2642C127.295 70.7676 130.373 72.9654 132.906 75.7188C133.274 76.121 133.721 76.4426 134.219 76.6631C134.718 76.8836 135.256 76.9982 135.801 76.9997C136.346 77.0012 136.886 76.8894 137.385 76.6716C137.885 76.4538 138.333 76.1347 138.703 75.7344L139.203 75.1875C144.881 68.7933 148.012 60.5357 148 51.9844C148 32.6563 132.328 17 113 17ZM123.951 43.2344L116.529 55.0313C116.226 55.4521 115.856 55.8214 115.436 56.125C114.42 56.8338 113.165 57.1132 111.945 56.9028C110.724 56.6924 109.635 56.009 108.915 55.001C108.195 53.9931 107.902 52.7418 108.099 51.5189C108.296 50.2959 108.967 49.1999 109.967 48.4688L121.764 41.0469C122.032 40.86 122.351 40.7598 122.678 40.7598C123.005 40.7598 123.324 40.86 123.592 41.0469C123.929 41.2901 124.155 41.6566 124.223 42.0665C124.29 42.4764 124.192 42.8963 123.951 43.2344ZM115.5 27C115.5 25.6193 114.381 24.5 113 24.5C111.619 24.5 110.5 25.6193 110.5 27V32C110.5 33.3807 111.619 34.5 113 34.5C114.381 34.5 115.5 33.3807 115.5 32V27ZM97.0896 32.5541C96.1133 31.5778 94.5304 31.5778 93.5541 32.5541C92.5778 33.5304 92.5778 35.1133 93.5541 36.0896L97.09 39.6256C98.0664 40.6019 99.6493 40.6019 100.626 39.6256C101.602 38.6493 101.602 37.0664 100.626 36.09L97.0896 32.5541ZM132.446 36.0896C133.422 35.1133 133.422 33.5304 132.446 32.5541C131.47 31.5778 129.887 31.5778 128.91 32.5541L125.374 36.09C124.398 37.0664 124.398 38.6493 125.374 39.6256C126.351 40.6019 127.934 40.6019 128.91 39.6256L132.446 36.0896ZM88 49.5C86.6193 49.5 85.5 50.6193 85.5 52C85.5 53.3807 86.6193 54.5 88 54.5H93C94.3807 54.5 95.5 53.3807 95.5 52C95.5 50.6193 94.3807 49.5 93 49.5H88ZM133 49.5C131.619 49.5 130.5 50.6193 130.5 52C130.5 53.3807 131.619 54.5 133 54.5H138C139.381 54.5 140.5 53.3807 140.5 52C140.5 50.6193 139.381 49.5 138 49.5H133Z" fill="url(#paint0_linear_2331_7203)"/>
<defs>
<linearGradient id="paint0_linear_2331_7203" x1="78" y1="17" x2="157.887" y2="57.4938" gradientUnits="userSpaceOnUse">
<stop stop-color="#0092D7"/>
<stop offset="1" stop-color="#012E89"/>
</linearGradient>
</defs>
</svg>
