<svg width="226" height="88" viewBox="0 0 226 88" fill="none" xmlns="http://www.w3.org/2000/svg">
<path d="M190.385 44.0443L117.291 44.0059C117.294 38.2349 116.377 32.5196 114.593 27.1866C112.809 21.8536 110.192 17.0071 106.892 12.9241C103.593 8.84098 99.6747 5.60122 95.362 3.38979C91.0494 1.17835 86.4266 0.0385379 81.7575 0.0354365L0.0761732 0C0.074918 5.77079 0.993272 11.4854 2.7788 16.8175C4.56433 22.1496 7.18206 26.9948 10.4825 31.0765C13.783 35.1581 17.7016 38.3963 22.0146 40.6062C26.3276 42.816 30.9504 43.9542 35.6193 43.9557V43.9409L113.932 44.0089C113.931 49.78 114.85 55.4949 116.636 60.8273C118.422 66.1596 121.04 71.0049 124.341 75.0866C127.642 79.1682 131.561 82.4063 135.874 84.6159C140.187 86.8255 144.811 87.9634 149.48 87.9646V87.9498L225.923 88C225.924 82.2296 225.006 76.5153 223.221 71.1834C221.436 65.8515 218.819 61.0064 215.519 56.9247C212.219 52.8431 208.301 49.6048 203.988 47.3947C199.676 45.1847 195.053 44.0462 190.385 44.0443Z" fill="#CCE9F7"/>
<path fill-rule="evenodd" clip-rule="evenodd" d="M145.071 21.4152C146.946 23.2905 148 25.8341 148 28.4862V30.3612C148 30.527 147.934 30.686 147.817 30.8032C147.7 30.9204 147.541 30.9862 147.375 30.9862H78.625C78.4592 30.9862 78.3003 30.9204 78.1831 30.8032C78.0658 30.686 78 30.527 78 30.3612V28.4862C78 25.8341 79.0536 23.2905 80.9289 21.4152C82.8043 19.5398 85.3478 18.4862 88 18.4862H90.5V15.9862C90.5 15.6478 90.5688 15.3129 90.702 15.0019C90.8353 14.6908 91.0304 14.41 91.2754 14.1766C91.5204 13.9431 91.8102 13.7618 92.1273 13.6437C92.4445 13.5256 92.7823 13.4731 93.1203 13.4893C94.4656 13.5565 95.5 14.7112 95.5 16.0565V18.4862H130.5V15.9862C130.5 15.6478 130.569 15.3129 130.702 15.0019C130.835 14.6908 131.03 14.41 131.275 14.1766C131.52 13.9431 131.81 13.7618 132.127 13.6437C132.444 13.5256 132.782 13.4731 133.12 13.4893C134.466 13.5565 135.5 14.7112 135.5 16.0565V18.4862H138C140.652 18.4862 143.196 19.5398 145.071 21.4152ZM80.9289 78.3951C79.0536 76.5198 78 73.9762 78 71.3241V34.2928C78 34.1685 78.0494 34.0493 78.1373 33.9614C78.2252 33.8734 78.3444 33.8241 78.4688 33.8241H147.531C147.656 33.8241 147.775 33.8734 147.863 33.9614C147.951 34.0493 148 34.1685 148 34.2928V71.3241C148 73.9762 146.946 76.5198 145.071 78.3951C143.196 80.2705 140.652 81.3241 138 81.3241H88C85.3478 81.3241 82.8043 80.2705 80.9289 78.3951ZM133.833 39.456C133.217 39.044 132.492 38.8241 131.75 38.8241C130.755 38.8241 129.802 39.2192 129.098 39.9224C128.395 40.6257 128 41.5795 128 42.5741C128 43.3157 128.22 44.0408 128.632 44.6575C129.044 45.2741 129.63 45.7548 130.315 46.0386C131 46.3224 131.754 46.3967 132.482 46.252C133.209 46.1073 133.877 45.7502 134.402 45.2257C134.926 44.7013 135.283 44.0331 135.428 43.3057C135.573 42.5782 135.498 41.8242 135.215 41.139C134.931 40.4538 134.45 39.8681 133.833 39.456ZM121.333 39.456C120.717 39.044 119.992 38.8241 119.25 38.8241C118.255 38.8241 117.302 39.2192 116.598 39.9224C115.895 40.6257 115.5 41.5795 115.5 42.5741C115.5 43.3157 115.72 44.0408 116.132 44.6575C116.544 45.2741 117.13 45.7548 117.815 46.0386C118.5 46.3224 119.254 46.3967 119.982 46.252C120.709 46.1073 121.377 45.7502 121.902 45.2257C122.426 44.7013 122.783 44.0331 122.928 43.3057C123.073 42.5782 122.998 41.8242 122.715 41.139C122.431 40.4538 121.95 39.8681 121.333 39.456ZM108.833 51.9561C108.217 51.544 107.492 51.3241 106.75 51.3241C105.755 51.3241 104.802 51.7192 104.098 52.4224C103.395 53.1257 103 54.0795 103 55.0741C103 55.8157 103.22 56.5408 103.632 57.1575C104.044 57.7741 104.63 58.2548 105.315 58.5386C106 58.8224 106.754 58.8967 107.482 58.752C108.209 58.6073 108.877 58.2502 109.402 57.7257C109.926 57.2013 110.283 56.5331 110.428 55.8057C110.573 55.0782 110.498 54.3242 110.215 53.639C109.931 52.9538 109.45 52.3681 108.833 51.9561ZM108.833 64.4561C108.217 64.044 107.492 63.8241 106.75 63.8241C105.755 63.8241 104.802 64.2192 104.098 64.9224C103.395 65.6257 103 66.5795 103 67.5741C103 68.3157 103.22 69.0408 103.632 69.6575C104.044 70.2741 104.63 70.7548 105.315 71.0386C106 71.3224 106.754 71.3967 107.482 71.252C108.209 71.1073 108.877 70.7502 109.402 70.2257C109.926 69.7013 110.283 69.0331 110.428 68.3057C110.573 67.5782 110.498 66.8242 110.215 66.139C109.931 65.4538 109.45 64.8681 108.833 64.4561ZM96.3334 51.9561C95.7167 51.544 94.9917 51.3241 94.25 51.3241C93.2554 51.3241 92.3016 51.7192 91.5983 52.4224C90.8951 53.1257 90.5 54.0795 90.5 55.0741C90.5 55.8157 90.7199 56.5408 91.132 57.1575C91.544 57.7741 92.1297 58.2548 92.8149 58.5386C93.5002 58.8224 94.2542 58.8967 94.9816 58.752C95.709 58.6073 96.3772 58.2502 96.9017 57.7257C97.4261 57.2013 97.7833 56.5331 97.9279 55.8057C98.0726 55.0782 97.9984 54.3242 97.7145 53.639C97.4307 52.9538 96.9501 52.3681 96.3334 51.9561ZM96.3334 64.4561C95.7167 64.044 94.9917 63.8241 94.25 63.8241C93.2554 63.8241 92.3016 64.2192 91.5983 64.9224C90.8951 65.6257 90.5 66.5795 90.5 67.5741C90.5 68.3157 90.7199 69.0408 91.132 69.6575C91.544 70.2741 92.1297 70.7548 92.8149 71.0386C93.5002 71.3224 94.2542 71.3967 94.9816 71.252C95.709 71.1073 96.3772 70.7502 96.9017 70.2257C97.4261 69.7013 97.7833 69.0331 97.9279 68.3057C98.0726 67.5782 97.9984 66.8242 97.7145 66.139C97.4307 65.4538 96.9501 64.8681 96.3334 64.4561ZM126.338 51.0628C126.197 50.7466 125.749 50.7466 125.608 51.0628L122.782 57.4026C122.724 57.533 122.6 57.6226 122.458 57.6376L115.556 58.3661C115.211 58.4024 115.073 58.8293 115.33 59.061L120.486 63.7078C120.592 63.8034 120.639 63.9483 120.609 64.0879L119.169 70.878C119.097 71.2167 119.461 71.4805 119.76 71.3075L125.773 67.8396C125.897 67.7682 126.049 67.7682 126.173 67.8396L132.186 71.3075C132.485 71.4805 132.848 71.2167 132.777 70.878L131.336 64.0879C131.307 63.9483 131.354 63.8034 131.46 63.7078L136.616 59.061C136.873 58.8293 136.735 58.4024 136.39 58.3661L129.488 57.6376C129.346 57.6226 129.222 57.533 129.164 57.4026L126.338 51.0628Z" fill="url(#paint0_linear_2331_5918)"/>
<defs>
<linearGradient id="paint0_linear_2331_5918" x1="78" y1="13.4865" x2="161.608" y2="50.9699" gradientUnits="userSpaceOnUse">
<stop stop-color="#0092D7"/>
<stop offset="1" stop-color="#012E89"/>
</linearGradient>
</defs>
</svg>
