<svg width="88" height="84" viewBox="0 0 88 84" fill="none" xmlns="http://www.w3.org/2000/svg">
<path d="M78.8351 31.6023C78.8117 31.4846 78.7882 31.3432 78.7414 31.2255C76.7515 27.2918 75.183 23.1932 73.9656 18.9533C72.8653 15.1609 72.0928 11.2743 71.6714 7.34063C71.5543 6.30421 71.4841 5.24424 71.3905 4.18426C71.3671 3.92516 71.3671 3.66604 71.3905 3.40694C71.4607 2.81806 71.9055 2.37052 72.4674 2.2763C73.0994 2.18208 73.6613 2.46474 73.8954 3.10072C74.0125 3.40694 74.0593 3.76027 74.0827 4.09004C74.2934 8.11795 74.9489 12.0987 75.9555 16.0089C77.4772 22.0154 79.7481 27.7393 82.8149 33.1099C82.9553 33.369 83.1426 33.6045 83.3299 33.9107C83.962 34.0049 84.5941 33.9343 85.2262 33.9578C85.5539 33.9814 85.905 33.9343 86.2328 34.005C86.8649 34.1227 87.3097 34.6409 87.3331 35.2534C87.3566 35.8894 86.8883 36.5018 86.2328 36.6196C86.0221 36.6667 85.788 36.6667 85.5539 36.6667C84.3131 36.6667 83.0724 36.6431 81.855 36.6667C81.2698 36.6667 80.7781 36.5018 80.2865 36.172C75.183 32.8743 70.9925 28.6108 67.6214 23.5465C64.9994 19.5893 62.9861 15.3022 61.5112 10.7797C60.5982 7.97663 59.8724 5.15002 59.4276 2.25275C59.3808 1.92298 59.334 1.56965 59.334 1.23988C59.3808 0.580341 59.849 0.109237 60.4577 0.0150172C61.16 -0.079203 61.7453 0.274123 61.9326 0.957219C62.0496 1.42832 62.0964 1.92297 62.1901 2.39407C62.6817 5.47978 63.5245 8.49483 64.578 11.4392C65.7251 14.6191 67.1766 17.6813 68.9324 20.5786C71.4607 24.6772 74.4807 28.3282 78.2264 31.3432C78.3668 31.461 78.5307 31.5552 78.6946 31.6494C78.6946 31.673 78.7414 31.6494 78.8351 31.6023Z" fill="#0092D7"/>
<path d="M5.2503 33.9291C5.64888 33.2453 6.024 32.6321 6.37569 32.019C8.60306 27.8921 10.385 23.6001 11.7448 19.1195C12.8703 15.4406 13.6909 11.691 14.1598 7.87069C14.3005 6.66799 14.3708 5.46529 14.488 4.2626C14.5349 3.88528 14.5584 3.50796 14.6522 3.15422C14.8397 2.5175 15.3555 2.16377 16.012 2.21093C16.6685 2.2581 17.114 2.68257 17.2078 3.36646C17.2547 3.69661 17.2078 4.05036 17.2078 4.38051C17.0671 7.21039 16.6685 9.99309 16.1292 12.7758C14.91 19.0723 12.8703 25.0622 10.0802 30.8163C9.9395 31.0757 9.84572 31.3587 9.72849 31.6417C9.72849 31.6652 9.75191 31.7124 9.79881 31.7831C9.91604 31.7124 10.0567 31.6417 10.1505 31.5709C13.4095 28.9297 16.1996 25.8404 18.5676 22.3738C21.1702 18.5063 23.1631 14.3558 24.6167 9.92235C25.5311 7.16322 26.2579 4.35691 26.6565 1.47987C26.68 1.26763 26.7503 1.03181 26.8207 0.81957C27.0551 0.20643 27.6178 -0.0765489 28.2743 0.0177803C28.837 0.11211 29.3059 0.560165 29.3294 1.1733C29.3528 1.66853 29.2825 2.16376 29.2122 2.63541C28.6494 6.26709 27.6413 9.75727 26.3283 13.1767C24.1478 18.8836 21.1467 24.1189 17.0671 28.6939C14.488 31.6181 11.5573 34.1178 8.27481 36.2166C7.80589 36.4996 7.36043 36.6883 6.79773 36.6647C5.55509 36.6411 4.31244 36.6647 3.09324 36.6647C2.90567 36.6647 2.7181 36.6647 2.53053 36.6411C1.8037 36.5232 1.31134 35.9336 1.33479 35.2262C1.35823 34.5659 1.85062 34.0471 2.554 33.9763C2.99947 33.9291 3.44493 33.9527 3.91385 33.9527C4.33588 33.9291 4.73448 33.9291 5.2503 33.9291Z" fill="#0092D7"/>
<path d="M54.6734 71.3437C55.8535 71.3437 57.0336 71.3672 58.2368 71.3437C61.1061 71.2498 64.3687 73.6204 64.6001 77.3055C64.7158 79.0658 64.6463 80.8262 64.6463 82.5866C64.6463 82.7978 64.5769 83.0325 64.4844 83.2438C64.253 83.7601 63.7902 84.0418 63.2348 83.9949C62.6795 83.9479 62.1473 83.5489 62.0548 82.9856C62.0085 82.7274 62.0085 82.4692 62.0085 82.211C62.0085 80.8966 62.0085 79.5822 62.0085 78.2678C62.0085 77.8218 61.9622 77.3759 61.8465 76.9299C61.4763 75.4043 60.4813 74.4654 58.9772 74.1133C58.5607 74.0194 58.098 73.996 57.6583 73.996C55.6684 73.9725 53.6552 73.996 51.6653 73.996C51.3413 73.996 50.9942 73.996 50.6703 74.0664C48.7266 74.348 47.4077 75.8502 47.3614 77.8453C47.3383 79.2301 47.3614 80.615 47.3383 81.9998C47.3383 82.3049 47.3383 82.61 47.292 82.8917C47.1531 83.5958 46.621 84.0183 45.9499 83.9949C45.302 83.9714 44.7698 83.4785 44.7004 82.7978C44.6773 82.657 44.6773 82.4927 44.6773 82.3518C44.6773 80.8027 44.6541 79.2771 44.6773 77.7279C44.7236 74.8409 46.6904 72.2591 49.4671 71.5315C49.9993 71.3906 50.5546 71.3437 51.1099 71.3437C52.3132 71.3202 53.4933 71.3437 54.6734 71.3437Z" fill="#0092D7"/>
<path d="M77.0165 71.3357C78.2383 71.3357 79.4601 71.3592 80.6819 71.3357C83.8203 71.2419 87.1743 73.8214 87.2941 77.5265C87.3659 79.168 87.318 80.833 87.318 82.4745C87.318 82.6855 87.2701 82.92 87.1982 83.1311C87.0305 83.647 86.5274 83.9753 85.9764 83.9987C85.4254 84.0222 84.8744 83.6939 84.7067 83.2014C84.5869 82.8497 84.5629 82.4745 84.539 82.0993C84.515 80.9268 84.539 79.7777 84.539 78.6052C84.539 78.2769 84.5151 77.9252 84.5151 77.5969C84.4911 76.0961 83.2693 74.4311 81.3288 74.1028C80.9215 74.0325 80.4902 74.009 80.083 74.009C78.0227 74.009 75.9384 74.009 73.8781 74.009C73.4948 74.009 73.1115 74.0325 72.7282 74.0794C70.572 74.4311 69.446 76.2133 69.4221 77.7141C69.4221 78.3942 69.4221 79.0742 69.4221 79.7308C69.4221 80.5516 69.4221 81.3723 69.4221 82.2165C69.4221 82.5214 69.3981 82.8262 69.3023 83.1076C69.1346 83.6939 68.5836 84.0222 67.9846 83.9987C67.3857 83.9753 66.8826 83.6001 66.7389 83.0138C66.667 82.7559 66.667 82.4979 66.667 82.24C66.667 80.8095 66.667 79.3791 66.667 77.9721C66.667 76.0257 67.3617 74.3842 68.8471 73.071C70.0449 71.9923 71.4584 71.3826 73.1115 71.3592C74.4051 71.3357 75.6988 71.3357 77.0165 71.3357Z" fill="#0092D7"/>
<path d="M33.2945 74.0262C32.2543 74.0262 31.214 74.0028 30.1969 74.0262C29.6421 74.0496 29.0873 74.1199 28.5557 74.2837C27.2149 74.7285 26.4059 75.6883 26.1285 77.093C26.036 77.5378 26.0129 77.9826 26.0129 78.4274C25.9898 79.5979 26.0129 80.745 26.0129 81.9155C26.0129 82.2198 26.0129 82.5242 25.9898 82.8051C25.8973 83.5074 25.3656 83.9756 24.7415 83.999C24.0942 84.0224 23.5626 83.5776 23.4008 82.8753C23.3545 82.6646 23.3545 82.4305 23.3545 82.1964C23.3545 80.7684 23.3083 79.3404 23.3545 77.9357C23.447 75.1499 24.7415 73.1132 27.2381 71.8725C27.9778 71.4979 28.7637 71.334 29.5959 71.334C32.0693 71.334 34.5428 71.3574 37.0162 71.334C39.6052 71.2872 42.9802 73.3941 43.2576 77.3037C43.3963 79.0594 43.3038 80.8152 43.3038 82.571C43.3038 82.9222 43.1882 83.2265 42.9802 83.5074C42.6796 83.882 42.2636 84.0224 41.8012 83.9522C41.2233 83.8586 40.8766 83.484 40.7148 82.9456C40.6454 82.6646 40.6454 82.3603 40.6454 82.056C40.6454 80.6982 40.5761 79.3638 40.6454 78.006C40.7379 76.2268 39.4665 74.1198 36.8775 74.0028C35.6523 74.0028 34.4734 74.0496 33.2945 74.0262Z" fill="#0092D7"/>
<path d="M10.9611 71.3575C12.1572 71.3575 13.3295 71.4043 14.5256 71.3575C17.5877 71.2172 21.1044 73.6263 21.2958 77.7662C21.3675 79.2865 21.3197 80.8302 21.2958 82.3738C21.2958 82.7013 21.2001 83.0521 21.0565 83.3328C20.7695 83.824 20.3149 84.0579 19.7168 83.9877C19.1427 83.9175 18.6642 83.4731 18.5686 82.8884C18.5207 82.5843 18.5207 82.3037 18.5207 81.9996C18.5207 80.8302 18.5207 79.6841 18.5207 78.5146C18.5207 78.1404 18.4968 77.7662 18.4489 77.3919C18.1858 75.591 16.894 74.3513 15.0758 74.0941C14.7409 74.0473 14.3821 74.0473 14.0471 74.0473C11.9898 74.0473 9.9085 74.0473 7.85114 74.0473C7.42053 74.0473 7.01386 74.0707 6.60717 74.1408C4.74119 74.4917 3.49719 75.9184 3.44935 77.7428C3.4015 79.1227 3.44935 80.5027 3.42543 81.8827C3.42543 82.1867 3.44936 82.4908 3.40151 82.7715C3.2819 83.3562 2.94698 83.824 2.32499 83.9409C1.75084 84.0579 1.24845 83.8708 0.937455 83.3796C0.793919 83.1691 0.698228 82.8884 0.698228 82.6545C0.698228 80.7834 0.602554 78.9122 0.746091 77.0411C0.889627 75.17 1.89437 73.6497 3.44935 72.5504C4.59764 71.7551 5.88949 71.3107 7.30093 71.3341C8.521 71.3809 9.74104 71.3575 10.9611 71.3575Z" fill="#0092D7"/>
<path d="M44.0351 60.6667C44.8773 60.6667 45.7195 60.6667 46.5858 60.6667C49.5937 60.6667 52 62.9921 52 65.9221C52 66.4801 52 67.0382 52 67.5963C52 67.8289 52 68.0381 51.9519 68.2707C51.8075 68.9218 51.1819 69.3636 50.5081 69.3171C49.8824 69.2706 49.3531 68.8288 49.2568 68.2009C49.2087 67.9916 49.2327 67.7591 49.2327 67.5266C49.2327 67.015 49.2568 66.4802 49.2327 65.9686C49.1605 64.3873 48.174 63.3874 46.5377 63.3409C44.8532 63.2944 43.1448 63.3409 41.4603 63.3409C40.8347 63.3409 40.2572 63.5502 39.7518 63.9223C39.1262 64.3873 38.8134 64.9919 38.8134 65.7593C38.8134 66.4569 38.8134 67.1778 38.8134 67.8754C38.8134 68.387 38.6209 68.8055 38.1637 69.1078C37.3455 69.6194 36.2145 69.2241 36.1183 68.2939C35.9739 67.015 35.9017 65.6895 36.2627 64.4106C36.8883 62.2945 38.7653 60.8295 41.0994 60.7133C42.0378 60.6435 43.0485 60.69 44.0351 60.6667Z" fill="#0092D7"/>
<path d="M67.9901 66.6374C67.9901 67.1254 68.0131 67.6135 67.9901 68.0784C67.9439 68.8221 67.39 69.3334 66.6977 69.3334C66.0516 69.3334 65.5208 68.8686 65.4054 68.1946C65.3593 67.9854 65.3824 67.753 65.3824 67.5205C65.3824 67.0092 65.3593 66.4747 65.3824 65.9633C65.4516 64.8012 64.5977 63.4764 62.89 63.3602C62.7054 63.337 62.5208 63.3602 62.3362 63.3602C60.9978 63.3602 59.6824 63.3602 58.3439 63.3602C58.1131 63.3602 57.9054 63.337 57.6747 63.3835C56.2208 63.5694 55.3439 64.5921 55.3439 65.8936C55.3439 66.5909 55.3439 67.3114 55.3439 68.0086C55.3439 68.5897 55.067 68.9848 54.5362 69.2172C53.7747 69.5426 52.8285 69.101 52.7593 68.2875C52.667 67.0789 52.5747 65.8239 52.8516 64.6153C53.3593 62.5003 55.0901 60.9895 57.2131 60.7339C57.3978 60.7106 57.5824 60.6874 57.767 60.6874C59.4978 60.6874 61.2285 60.6409 62.9593 60.6874C65.0593 60.7571 66.6055 61.7565 67.5285 63.6624C67.8055 64.2434 67.967 64.8477 67.9901 65.4753C67.9901 65.8936 67.9901 66.2655 67.9901 66.6374Z" fill="#0092D7"/>
<path d="M11.0093 60.6771C11.9313 60.6771 12.8532 60.6538 13.7752 60.6771C15.8726 60.7469 17.8087 62.2127 18.408 64.2137C18.5233 64.6093 18.6155 65.0048 18.6385 65.4237C18.6846 66.238 18.6616 67.0524 18.6616 67.8667C18.6616 68.0761 18.6385 68.3321 18.5463 68.5182C18.3389 68.9836 17.947 69.286 17.4169 69.3093C16.8407 69.3326 16.4027 69.0534 16.1723 68.5415C16.057 68.2855 16.0109 67.9598 16.0109 67.6806C15.9879 67.0756 16.0109 66.494 15.9879 65.889C15.9418 64.3533 15.0198 63.3994 13.4986 63.3296C13.1989 63.3063 12.8993 63.3296 12.6227 63.3296C11.4011 63.3296 10.2026 63.3296 8.98098 63.3296C8.75049 63.3296 8.54305 63.3296 8.31256 63.3528C6.97572 63.5157 6.1229 64.4232 6.03071 65.7959C5.98461 66.3078 6.03071 66.843 6.00766 67.3548C6.00766 67.6108 6.00767 67.8667 5.98462 68.1459C5.89242 68.8207 5.3623 69.3093 4.71693 69.3326C4.0946 69.3559 3.51837 68.8905 3.38007 68.239C3.38007 68.1925 3.35703 68.1692 3.35703 68.1227C3.35703 67.0524 3.26484 65.9821 3.44923 64.8885C3.86411 62.585 5.89243 60.7934 8.24343 60.7004C9.16539 60.6538 10.0873 60.6771 11.0093 60.6771Z" fill="#0092D7"/>
<path d="M77.0167 60.6874C77.9412 60.6874 78.8658 60.6409 79.7903 60.6874C82.0092 60.8038 83.8352 62.2466 84.4593 64.3644C84.5518 64.6436 84.6211 64.9462 84.6211 65.2254C84.6442 66.1097 84.6673 67.0173 84.6673 67.9017C84.6673 68.1576 84.598 68.4369 84.4824 68.6463C84.2281 69.1118 83.8121 69.3212 83.2805 69.298C82.7489 69.2747 82.2635 68.9256 82.1248 68.4136C82.0555 68.1344 82.0324 67.8318 82.0324 67.5293C82.0093 66.9708 82.0324 66.4123 82.0324 65.8537C82.0324 64.3876 80.946 63.3869 79.6054 63.3404C77.9181 63.2706 76.2077 63.2939 74.4973 63.3404C73.018 63.3869 71.9779 64.504 72.001 65.9236C72.001 66.5519 72.0241 67.1802 71.9779 67.8318C71.9548 68.1111 71.9085 68.4369 71.7698 68.6929C71.5387 69.1583 70.9608 69.391 70.4523 69.3212C69.8745 69.2281 69.3891 68.8093 69.366 68.2042C69.3429 67.0871 69.2736 65.9468 69.4585 64.8763C69.8745 62.4561 71.8392 60.8271 74.2661 60.7107C75.1676 60.6642 76.0921 60.6874 77.0167 60.6874Z" fill="#0092D7"/>
<path d="M27.7048 60.6875C28.5543 60.6875 29.4038 60.6875 30.2304 60.6875C32.3427 60.6875 34.3633 62.0856 35.0061 64.1594C35.1669 64.6487 35.2817 65.1614 35.3046 65.674C35.3506 66.3731 35.3276 67.0954 35.3276 67.7945C35.3276 68.0042 35.2817 68.2372 35.2128 68.4469C35.0291 68.9829 34.4781 69.3557 33.927 69.3324C33.3301 69.3091 32.802 68.8431 32.7101 68.2372C32.6642 67.911 32.6642 67.5615 32.6642 67.2352C32.6413 66.7226 32.6872 66.1867 32.6412 65.674C32.5035 64.2992 31.631 63.4604 30.2534 63.3439C30.0238 63.3206 29.8171 63.3439 29.5875 63.3439C28.3018 63.3439 27.016 63.3439 25.7302 63.3439C25.5006 63.3439 25.294 63.3439 25.0644 63.3439C23.7097 63.4604 22.8372 64.3458 22.7224 65.7206C22.6765 66.2799 22.6995 66.8391 22.6995 67.3983C22.6995 67.7013 22.6995 68.0042 22.6306 68.2838C22.4928 68.913 21.9648 69.3324 21.3678 69.3324C20.7708 69.3324 20.2427 68.913 20.082 68.3071C20.082 68.2605 20.0591 68.2372 20.0591 68.1906C20.0132 66.7692 19.8524 65.3478 20.3805 63.9963C21.2071 61.9224 22.7454 60.8273 24.9266 60.6875C25.868 60.6409 26.7864 60.6875 27.7048 60.6875Z" fill="#0092D7"/>
<path d="M74.0063 55.4152C74.1454 54.6226 74.3308 53.4803 74.5858 52.3381C75.5361 47.7691 77.0891 43.4099 79.2447 39.2605C79.3606 39.0273 79.4765 38.7942 79.6387 38.5844C80.056 38.025 80.6123 37.8618 81.1917 38.1182C81.8176 38.3979 82.1189 38.9807 81.9566 39.6801C81.9103 39.8899 81.8175 40.0997 81.7016 40.2861C80.1719 43.2234 78.9665 46.3005 78.0394 49.4941C77.5063 51.3124 77.1123 53.1773 76.8109 55.0422C76.7414 55.4152 76.695 55.7882 76.6023 56.1378C76.4169 56.9071 75.8374 57.3966 75.2348 57.3267C74.4467 57.2568 73.9368 56.6041 74.0063 55.4152Z" fill="#0092D7"/>
<path d="M14.667 55.8519C14.667 56.6219 14.1813 57.2053 13.4874 57.322C12.863 57.4153 12.1922 56.9253 12.0535 56.2019C11.8222 55.0353 11.6371 53.8686 11.4058 52.7019C10.5501 48.4785 9.06985 44.4885 7.15016 40.6385C7.01139 40.3818 6.8495 40.1251 6.75699 39.8451C6.54883 39.2618 6.71072 38.6785 7.15016 38.3285C7.72838 37.8618 8.44539 37.8851 8.93109 38.4451C9.20863 38.7951 9.41679 39.1918 9.62495 39.5885C11.4752 43.2518 12.8861 47.0785 13.8112 51.0919C14.135 52.4686 14.3432 53.8686 14.5976 55.2453C14.6208 55.4553 14.6439 55.6886 14.667 55.8519Z" fill="#0092D7"/>
<path d="M81.4238 7.56862C81.3789 6.8227 81.334 6.05191 81.334 5.30599C81.334 4.98276 81.3564 4.65953 81.4238 4.36117C81.6036 3.68984 82.1652 3.26716 82.7044 3.34175C83.2661 3.41634 83.7604 3.93849 83.8727 4.58495C83.8952 4.73413 83.8952 4.90817 83.8952 5.05735C84.03 7.27024 84.075 9.50801 84.2996 11.7209C84.5018 13.7349 84.8838 15.724 85.1983 17.7131C85.2433 17.9866 85.3331 18.2601 85.3331 18.5336C85.3556 19.2049 84.9512 19.7768 84.3895 19.9509C83.8503 20.1249 83.2212 19.8265 82.9516 19.2049C82.8393 18.9563 82.7719 18.6828 82.7269 18.4093C82.2776 16.445 81.963 14.4559 81.7608 12.4419C81.6036 10.8258 81.5137 9.20964 81.3789 7.56862C81.4014 7.56862 81.4238 7.56862 81.4238 7.56862Z" fill="#0092D7"/>
<path d="M7.2309 7.82489C7.09809 9.42162 7.00953 11.0433 6.85457 12.665C6.65535 14.636 6.41186 16.6069 5.92487 18.528C5.83633 18.9022 5.74779 19.3014 5.46002 19.5759C5.08371 19.9501 4.68524 20.1247 4.19825 19.9002C3.66699 19.6757 3.31283 19.1018 3.33497 18.528C3.33497 18.3035 3.40137 18.054 3.46778 17.8294C4.06545 14.9853 4.44176 12.1161 4.59671 9.19708C4.66312 7.87479 4.7074 6.57744 4.77381 5.25515C4.77381 5.00566 4.7738 4.78111 4.81807 4.53162C4.92875 3.858 5.52643 3.30912 6.10197 3.33407C6.65537 3.35902 7.18661 3.858 7.29729 4.50668C7.34157 4.73122 7.34159 4.98071 7.31945 5.2302C7.27518 6.10342 7.25304 6.95167 7.2309 7.82489Z" fill="#0092D7"/>
<path d="M84.0037 44.57C84.0037 43.0726 84.0037 41.5753 84.0037 40.0537C84.0037 39.7397 83.9807 39.4258 84.0496 39.136C84.1644 38.4839 84.8072 37.9767 85.404 38.0008C86.0009 38.025 86.5748 38.6046 86.6437 39.2567C86.6666 39.5224 86.6667 39.788 86.6667 40.0537C86.6667 43.1451 86.6667 46.2123 86.6667 49.3037C86.6667 49.5694 86.6666 49.8351 86.6437 50.1007C86.5519 50.8011 86.0239 51.3083 85.3811 51.3325C84.7383 51.3566 84.1644 50.8736 84.0496 50.1973C84.0037 49.9075 84.0037 49.5936 84.0037 49.2796C84.0037 47.7097 84.0037 46.1399 84.0037 44.57Z" fill="#0092D7"/>
<path d="M5.33366 44.6171C5.33366 46.1568 5.33366 47.6966 5.33366 49.2364C5.33366 49.5732 5.33368 49.9341 5.2635 50.2709C5.12315 50.9686 4.53836 51.3776 3.85999 51.3295C3.22842 51.2814 2.78397 50.8243 2.69041 50.1266C2.66702 49.8619 2.66699 49.5973 2.66699 49.3086C2.66699 46.229 2.66699 43.1495 2.66699 40.0699C2.66699 39.8053 2.66702 39.5406 2.69041 39.2519C2.76058 38.5301 3.29858 38.0249 3.93015 38.0009C4.56173 37.9768 5.14654 38.458 5.2635 39.1557C5.31028 39.4444 5.31027 39.7572 5.31027 40.0699C5.33366 41.6097 5.33366 43.1014 5.33366 44.6171Z" fill="#0092D7"/>
<path d="M86.6659 22.4983C86.6877 23.352 86.2511 23.8773 85.5744 23.9867C85.0724 24.0743 84.4612 23.7241 84.2647 23.155C84.1337 22.761 84.0464 22.3451 84.0028 21.9292C83.9591 21.2944 84.4393 20.791 85.0287 20.6816C85.5744 20.594 86.1857 20.9004 86.3603 21.4477C86.5568 21.8417 86.6222 22.2575 86.6659 22.4983Z" fill="#0092D7"/>
<path d="M5.33284 22.216C5.26745 22.4363 5.18027 22.899 5.0059 23.2956C4.76615 23.8464 4.11227 24.1108 3.63276 23.9566C3.02248 23.7583 2.60839 23.2295 2.67377 22.6126C2.71736 22.238 2.80454 21.8414 2.91352 21.4889C3.10968 20.894 3.76355 20.5635 4.33024 20.6957C4.94052 20.8279 5.35463 21.3567 5.33284 22.216Z" fill="#0092D7"/>
</svg>
