<svg width="100" height="100" viewBox="0 0 100 100" fill="none" xmlns="http://www.w3.org/2000/svg">
<path d="M56.0654 61.242C55.884 61.1124 55.7285 61.0347 55.6248 60.9051C47.4867 52.1449 39.3486 43.3589 31.1846 34.5987C31.2364 34.3914 31.2364 34.21 31.3142 34.0804C33.8541 29.6226 36.4199 25.1647 38.9339 20.7847C39.9706 20.6551 71.3309 20.6033 72.9378 20.7328C74.3114 22.9099 75.5554 25.2425 76.8772 27.5232C78.199 29.8299 79.4949 32.1106 80.8167 34.4432C80.6612 34.6765 80.5575 34.832 80.402 34.9875C72.3157 43.7217 64.2035 52.4559 56.0654 61.242ZM56.1173 56.4991C58.5794 49.5791 61.0157 42.7628 63.426 35.9464C63.4779 35.7909 63.4779 35.6354 63.5038 35.4281C63.2705 35.4022 63.0632 35.3503 62.8558 35.3503C58.2943 35.3503 53.7588 35.3503 49.1973 35.3503C48.964 35.3503 48.7048 35.2985 48.4975 35.5836C48.5493 35.765 48.6012 36.0242 48.6789 36.2315C51.0633 42.8924 53.4478 49.5273 55.8322 56.1881C55.8581 56.2917 55.9358 56.3436 56.1173 56.4991ZM58.9941 55.0218C59.357 54.6589 59.6421 54.3998 59.9272 54.0887C63.4519 50.3048 66.9767 46.5208 70.4756 42.7109C72.4972 40.5339 74.5187 38.3568 76.5403 36.1538C76.7217 35.9724 77.0327 35.8169 76.9032 35.454C75.7369 35.3244 66.8731 35.3503 65.8882 35.4799C65.4994 36.1797 59.668 52.1968 58.9423 54.5812C58.9164 54.6589 58.9682 54.7885 58.9941 55.0218ZM46.2168 35.454C45.9317 35.4022 45.828 35.3763 45.6984 35.3763C42.2514 35.3763 38.8303 35.3763 35.3832 35.3763C35.2536 35.3763 35.124 35.454 34.8649 35.5577C40.8777 42.0112 46.7869 48.3869 52.6961 54.7367C52.7739 54.8144 52.9035 54.8404 53.0072 54.8922C53.0331 54.7885 53.0849 54.7108 53.059 54.633C50.8042 48.2573 48.5234 41.8816 46.2168 35.454ZM56.0654 23.4542C55.8581 23.6356 55.7544 23.7134 55.6767 23.817C53.5255 26.8235 51.4003 29.804 49.2491 32.8104C49.1714 32.9141 49.1714 33.0955 49.1195 33.251C50.0785 33.3806 60.8343 33.4065 62.5967 33.3288C62.6485 33.3288 62.7262 33.251 62.7781 33.1992C62.7781 33.1214 62.8299 33.0178 62.7781 32.9659C60.5751 29.804 58.3462 26.668 56.0654 23.4542ZM58.2425 22.7544C58.8127 23.9207 64.385 31.696 65.0847 32.2921C66.8212 29.2338 68.5836 26.2014 70.2942 23.1432C70.346 23.0395 70.3201 22.9099 70.346 22.8062C69.4389 22.6248 59.7716 22.5989 58.2425 22.7544ZM47.098 32.3439C49.3269 29.182 51.5039 26.1237 53.681 23.0654C53.7069 23.0136 53.7069 22.9099 53.7069 22.8322C53.6551 22.7803 53.5773 22.7026 53.5255 22.7026C49.6897 22.7026 45.828 22.6767 41.9922 22.6767C41.8885 22.6767 41.7589 22.7544 41.5775 22.8062C41.6553 23.0136 41.733 23.195 41.8108 23.3764C43.7546 26.979 46.3723 31.4368 47.098 32.3439ZM77.7584 33.251C77.2401 32.0847 76.5921 31.0739 76.0219 30.0632C75.4258 29.0265 74.8557 27.9638 74.2336 26.9531C73.6116 25.9423 73.1451 24.8537 72.3417 23.7911C72.2121 23.9985 72.1602 24.1021 72.0825 24.2058C70.4497 27.0826 68.7909 29.9595 67.1581 32.8104C67.0804 32.94 67.1063 33.1214 67.0545 33.3547C70.4756 33.3547 73.819 33.3547 77.1623 33.3547C77.3178 33.3547 77.4733 33.3029 77.7584 33.251ZM44.9986 33.2251C44.895 32.9659 44.869 32.8104 44.7913 32.6808C43.2103 29.8817 41.6034 27.0826 39.9965 24.2835C39.9188 24.128 39.841 23.8948 39.5041 23.9466C38.9339 24.9315 38.3637 25.9164 37.7935 26.9271C36.7309 28.7932 35.6424 30.6593 34.6057 32.5253C34.4761 32.7586 34.2169 32.9918 34.4761 33.3029C36.1607 33.4065 43.9101 33.3806 44.9986 33.2251Z" fill="#0092D7"/>
<path d="M67.3654 68.9912C67.9616 68.758 68.5577 68.5506 69.1278 68.3174C73.5857 66.529 78.0435 64.7667 82.5013 62.9524C83.6417 62.4859 84.808 62.3304 86.0261 62.4859C87.4256 62.6673 88.6438 63.2634 89.6027 64.3001C89.7323 64.4556 89.8878 64.6111 90.0174 64.7667C90.8208 65.7515 92.2463 68.5247 92.7128 69.9502C92.4277 70.2871 92.013 70.4685 91.6243 70.7018C87.0628 73.4231 82.5272 76.1445 77.9657 78.8399C70.7866 83.1163 63.5815 87.4186 56.4023 91.695C55.9876 91.9542 55.547 92.1874 55.1064 92.4207C53.9661 93.0427 52.7479 93.3019 51.4261 93.3278C49.3268 93.3796 47.3312 93.0686 45.3355 92.4466C40.5926 90.9693 35.8238 89.5957 31.0549 88.1961C29.1111 87.6259 27.1673 87.0558 25.2235 86.5115C23.6943 86.0709 22.1911 86.2005 20.6879 86.6929C17.8111 87.6519 14.9601 88.6108 12.0833 89.5698C10.6578 90.0363 9.25826 90.5287 7.83279 90.9952C7.67729 91.0471 7.52178 91.0471 7.34035 91.073C6.89976 90.5546 6.89976 89.9326 6.6665 89.3365C6.9516 89.2069 7.15893 89.0773 7.39219 88.9996C11.6427 87.5741 15.8931 86.2005 20.1177 84.7491C22.1134 84.0752 24.109 84.0752 26.1047 84.6195C29.0593 85.4489 31.988 86.3301 34.9167 87.2113C38.2859 88.222 41.6552 89.2328 45.0245 90.2177C46.1649 90.5546 47.3312 90.8916 48.4715 91.2026C50.6227 91.8246 52.6702 91.4617 54.5881 90.3732C55.9876 89.5698 57.3872 88.7404 58.7608 87.911C66.5879 83.2459 74.415 78.5807 82.2421 73.9156C84.6006 72.516 86.9332 71.1165 89.2917 69.7169C89.5768 69.5614 89.8101 69.3541 90.1211 69.1467C89.6027 67.8768 89.0325 66.6845 88.1254 65.6997C86.8814 64.3779 85.3004 64.1446 83.6676 64.6889C81.8793 65.3109 80.1169 66.0625 78.3545 66.7882C75.0889 68.0841 71.8233 69.4059 68.5576 70.7018C68.3762 70.7795 68.1948 70.8832 67.9615 70.9869C67.9356 71.3497 67.9097 71.7126 67.8838 72.0754C67.6246 74.8486 65.4475 76.9738 62.6484 77.1293C62.3115 77.1552 61.9746 77.1293 61.6636 77.1293C54.8213 77.1293 47.9791 77.1293 41.1369 77.1293C40.6963 77.1293 40.2298 77.2071 39.7632 77.0257C39.6077 76.4296 39.6596 75.8853 39.7373 75.3151C40.1779 75.0041 40.6444 75.1337 41.085 75.1337C47.8495 75.1337 54.5881 75.1337 61.3526 75.1337C61.7154 75.1337 62.1042 75.1596 62.467 75.1337C64.4108 75.03 65.9141 73.4749 65.8881 71.5571C65.8622 69.6651 64.359 68.1359 62.5189 68.0841C62.156 68.0841 61.7673 68.0841 61.4044 68.0841C57.4649 68.0841 53.5255 68.0841 49.586 68.0841C48.9121 68.0841 48.2901 67.9804 47.6422 67.7472C43.91 66.3995 40.152 65.1036 36.4199 63.73C32.8692 62.4341 29.3184 62.3045 25.69 63.3671C19.7549 65.0777 13.8198 66.7105 7.88463 68.3692C7.78096 68.3951 7.65137 68.3692 7.46994 68.3692C7.18485 67.8249 6.97752 67.2547 6.97752 66.5809C7.23669 66.4772 7.49587 66.3217 7.75504 66.244C13.0941 64.7407 18.4331 63.2634 23.798 61.7861C25.2235 61.3974 26.6489 60.9568 28.1262 60.7235C30.9772 60.2829 33.7504 60.6458 36.4458 61.6047C40.2038 62.9265 43.936 64.2483 47.694 65.596C48.4715 65.8811 49.275 66.0107 50.1303 66.0107C54.0179 65.9848 57.9314 66.0107 61.8191 65.9848C62.6484 65.9848 63.4778 66.0366 64.2553 66.3476C65.2402 66.7105 66.0696 67.3325 66.7434 68.1359C66.9248 68.4469 67.1322 68.6802 67.3654 68.9912Z" fill="#0092D7"/>
<path d="M55.1068 14.357C54.9254 13.1388 54.9254 8.57736 55.0809 7.41107C55.366 7.38515 55.677 7.33331 56.0139 7.33331C56.299 7.33331 56.5841 7.35923 56.8951 7.38515C57.2061 8.13676 57.0247 8.88837 57.0506 9.61406C57.0765 10.3916 57.0506 11.195 57.0506 11.9726C57.0506 12.7242 57.0247 13.4499 57.0247 14.1755C56.3508 14.5125 55.7547 14.3051 55.1068 14.357Z" fill="#0092D7"/>
<path d="M76.1256 10.3657C76.6699 10.573 77.2401 10.8063 77.7066 11.195C77.3178 12.3613 75.6332 15.7047 75.0112 16.534C74.6483 16.3785 74.2855 16.223 73.9226 16.0416C73.7412 15.9639 73.5857 15.8083 73.4302 15.7047C73.7671 14.6161 75.5036 11.1432 76.1256 10.3657Z" fill="#0092D7"/>
<path d="M34.3198 11.0911C34.8123 10.8319 35.3306 10.5987 35.8749 10.3136C36.0304 10.5209 36.1859 10.7024 36.2896 10.9097C36.9893 12.2574 37.6632 13.631 38.363 14.9788C38.4666 15.1602 38.5185 15.3675 38.5962 15.5489C37.9742 16.171 37.9742 16.171 36.9116 16.4561C36.1859 15.3416 34.579 12.0242 34.3198 11.0911Z" fill="#0092D7"/>
</svg>
