<svg width="93" height="92" viewBox="0 0 93 92" fill="none" xmlns="http://www.w3.org/2000/svg">
<g id="Group 133111">
<path id="Vector" d="M49.3936 23.8225C49.4241 24.4316 49.4241 24.9493 49.485 25.4669C49.6068 26.4719 49.7895 27.4768 49.9418 28.4817C50.0027 28.9689 50.3376 29.3039 50.764 29.4257C52.2866 29.8825 53.7787 30.4915 55.3622 30.7047C57.2502 30.9787 59.1078 31.2833 60.9349 31.7705C62.7011 32.2577 64.4369 32.9277 66.1422 33.6281C68.9133 34.7548 71.4713 36.3078 73.8465 38.1045C76.2827 39.962 78.4143 42.0937 80.3632 44.4385C81.764 46.1438 83.043 48.0014 84.3524 49.7676C86.7886 53.0259 89.1943 56.2538 91.6304 59.5122C91.8741 59.8167 92.1481 60.1212 92.3004 60.4562C92.7267 61.3697 92.1177 61.9788 91.3259 62.1919C91.1737 62.2224 90.93 62.1615 90.7778 62.0397C90.3514 61.6743 89.8947 61.2784 89.5293 60.8216C88.2807 59.2381 87.0627 57.5937 85.8446 55.9798C84.4438 54.1222 83.0734 52.2646 81.7031 50.4071C80.6373 48.9758 79.6019 47.5141 78.4752 46.1133C76.1609 43.1595 73.4507 40.6624 70.3141 38.6222C68.7306 37.6173 67.1471 36.6123 65.3809 35.9424C63.9801 35.4247 62.6402 34.8157 61.1785 34.4198C59.4123 33.9021 57.6156 33.5976 55.7885 33.3235C54.6009 33.1408 53.4437 32.7449 52.2561 32.4709C51.982 32.41 51.708 32.3186 51.4034 32.2577C51.1598 32.2273 50.9467 32.2273 50.6117 32.1968C50.5812 32.5927 50.4899 32.9277 50.5813 33.2322C51.3425 35.6379 52.2866 37.9522 53.9005 39.962C54.4791 40.6929 55.1795 41.0888 56.0626 41.3019C57.1893 41.576 58.2856 41.9414 59.4123 42.2459C60.2954 42.4896 61.1785 42.7636 62.0616 43.0072C63.0056 43.2813 63.9496 43.464 64.8632 43.7685C67.1471 44.5907 69.0655 45.9306 70.4359 47.9709C72.7198 51.3815 74.9732 54.7921 77.2571 58.2027C77.5007 58.5682 77.7748 58.9031 78.0489 59.2381C78.3838 59.634 78.4752 60.1212 78.5056 60.578C78.5361 61.3697 77.9575 61.857 77.1658 61.7047C76.7699 61.6134 76.3436 61.4002 76.0086 61.1566C72.9939 59.1468 70.0096 57.1065 66.9948 55.0966C65.9595 54.3963 64.9546 53.6654 63.7974 53.1173C62.4575 52.4778 61.1176 52.021 59.6255 52.1124C59.0773 52.1428 58.5597 52.1124 58.0115 52.1733C57.7984 52.2037 57.5852 52.2951 57.3416 52.356C57.4025 52.9955 57.8593 53.2391 58.1638 53.6045C58.651 54.2135 59.1992 54.7617 59.6864 55.3707C60.9045 56.8324 61.4526 58.5682 61.7876 60.3953C61.9703 61.3393 62.153 62.2833 62.3661 63.2578C62.6402 64.5976 62.9143 65.9071 63.2188 67.247C63.3102 67.6124 63.4015 68.0083 63.4319 68.4041C63.4928 69.0741 63.5538 69.744 63.8583 70.3835C64.0105 70.7185 64.0105 71.1448 64.041 71.5407C64.1019 72.1193 64.1628 72.6979 64.4064 73.246C64.6805 73.8855 64.65 74.2205 64.4369 75.3472C64.1324 75.4385 63.7669 75.6517 63.4015 75.6517C62.9752 75.6517 62.5489 75.5603 62.3052 75.1036C62.0007 74.5554 61.5135 74.0986 61.2394 73.5505C60.4477 71.9366 59.2905 70.5358 58.3769 69.0132C57.5243 67.6124 56.6412 66.2421 55.7885 64.8717C54.9359 63.5014 53.8396 62.3747 52.4693 61.4916C50.1245 59.969 47.7797 58.4159 45.374 56.9847C43.5773 55.9188 41.9634 54.6399 40.319 53.3913C39.04 52.4169 37.761 51.5033 36.147 51.1074C35.7207 51.0161 35.3553 50.7725 34.9594 50.5898C33.1018 49.8285 31.092 49.7067 29.1127 49.4326C28.1991 49.3108 27.2855 49.189 26.372 49.0976C25.8543 49.0367 25.3062 48.9454 24.7885 48.9149C23.7227 48.854 22.6569 48.854 21.6215 48.4886C21.2256 48.3363 20.7688 48.3668 20.312 48.3363C18.6676 48.3059 17.48 47.5141 16.6274 46.1438C16.4751 45.9002 16.3533 45.6261 16.3229 45.352C16.262 44.7125 16.2315 44.0731 16.262 43.464C16.3838 41.9414 17.6932 40.5711 19.2158 40.3275C20.4034 40.1448 21.5606 40.2361 22.6873 40.5406C24.3013 40.967 25.9457 41.1192 27.5596 41.4542C28.93 41.7283 30.3003 42.0632 31.6706 42.3373C33.315 42.6723 34.929 42.7636 36.5429 42.185C37.1824 41.9414 37.8219 41.7283 38.4005 41.3933C40.4103 40.297 41.6589 38.6222 42.4811 36.4905C42.9378 35.2725 43.0292 34.0239 42.9683 32.7754C42.9378 32.3491 42.816 31.9227 42.7551 31.4964C42.6333 30.9178 42.4506 30.3697 42.4201 29.7911C42.3288 28.7557 41.9024 27.9031 41.0498 27.355C39.3445 26.2587 37.8524 24.8579 36.3907 23.4571C35.0812 22.1781 33.8632 20.8078 32.7669 19.3157C30.9398 16.8186 28.9299 14.4738 26.5547 12.4335C25.2148 11.3068 23.7836 10.3323 22.3219 9.38833C21.1038 8.59658 19.7639 8.04844 18.4849 7.3785C17.3582 6.79991 16.201 6.34313 15.0134 6.00816C13.7953 5.67319 12.6382 5.21642 11.3592 5.06416C11.0242 5.03371 10.6893 4.9119 10.3847 4.82054C9.95841 4.72919 9.53209 4.60738 9.13621 4.51602C8.61853 4.39421 8.10086 4.27241 7.58317 4.1506C7.43091 4.12015 7.3091 4.05924 7.15684 4.02879C5.96921 3.81563 4.75112 3.63292 3.5635 3.3893C2.95446 3.2675 2.34542 3.05433 1.76683 2.84117C1.18824 2.59755 0.914176 2.07987 1.00553 1.56219C1.09689 1.07496 1.61458 0.709532 2.19316 0.67908C2.37587 0.67908 2.58905 0.679082 2.77176 0.709534C3.95938 0.953149 5.14699 1.19676 6.33462 1.47083C7.33953 1.68399 8.314 1.92761 9.31892 2.14077C10.3238 2.35394 11.3288 2.5671 12.3032 2.78026C13.4299 3.05433 14.5567 3.35885 15.6834 3.66337C17.9368 4.24195 19.9466 5.39913 22.0478 6.34314C22.9918 6.79992 23.8749 7.43941 24.7276 8.01799C26.7069 9.32742 28.5645 10.8196 30.2394 12.4944C31.9751 14.2302 33.5282 16.1487 34.9899 18.128C36.3907 20.0465 38.096 21.7214 39.8622 23.2744C40.1972 23.5789 40.6235 23.8225 41.202 24.2184C41.1107 23.6094 41.1107 23.2135 41.0193 22.8785C40.6235 21.5082 40.4712 20.1074 40.6539 18.7066C40.7148 18.1889 40.6844 17.7322 40.258 17.3667C37.9742 15.3265 36.2384 12.8294 34.3504 10.4846C32.4014 8.0789 30.148 5.94726 27.651 4.0897C27.1333 3.72427 26.5852 3.41975 26.037 3.11523C25.4584 2.78026 25.3062 2.26258 25.3366 1.62309C25.3671 1.01405 25.7934 0.587724 26.372 0.67908C26.7983 0.739984 27.2246 0.892243 27.5901 1.13586C30.5744 3.14568 33.2541 5.46003 35.6294 8.20071C37.0606 9.84511 38.1873 11.7027 39.6795 13.2862C40.3494 13.9866 41.0498 14.6565 41.6588 15.3874C42.0852 15.905 42.6029 16.0268 43.2119 15.9659C43.8818 15.905 44.5822 15.8441 45.2522 15.8746C46.653 15.9355 47.5665 16.7272 48.206 17.9149C48.5105 18.463 48.7237 19.072 48.7237 19.7115C48.7237 20.4424 49.0891 20.8687 49.7591 21.1123C51.2817 21.7518 52.7738 22.4522 54.2964 23.0308C55.2099 23.3658 56.154 23.518 57.098 23.7616C57.4634 23.853 57.8592 23.9443 58.2247 24.0661C58.4074 24.1271 58.5901 24.2489 58.7728 24.2489C60.1432 24.2489 61.4526 24.7361 62.7925 24.9493C63.2188 25.0102 63.6451 25.1624 64.041 25.2842C64.8632 25.5583 65.7159 25.741 66.5381 26.0151C68.3347 26.5937 70.0096 27.4159 71.7149 28.2076C73.8161 29.1516 75.6736 30.4611 77.4703 31.8618C79.6933 33.5671 81.7336 35.4856 83.4693 37.7391C85.875 40.9365 88.3112 44.1035 90.7473 47.2705C91.2346 47.9404 91.6913 48.6104 92.1481 49.3108C92.544 49.8894 92.5135 50.4984 92.1177 50.8943C91.6304 51.3511 90.7778 51.3511 90.2906 50.8029C89.4988 49.8894 88.7984 48.9149 88.0675 47.9405C87.0017 46.5092 85.9359 45.078 84.9005 43.6467C84.0783 42.5505 83.2561 41.4846 82.4644 40.4188C80.0282 37.1909 77.1962 34.3893 73.7551 32.1968C71.2276 30.5829 68.6088 29.1212 65.6549 28.3294C64.6196 28.0553 63.6451 27.6595 62.6402 27.355C62.3661 27.2636 62.0616 27.2941 61.7876 27.2332C61.2699 27.1418 60.7522 27.02 60.2345 26.8982C59.9604 26.8373 59.6559 26.7155 59.3819 26.7155C58.1029 26.7459 56.9152 26.2282 55.6667 26.0151C54.8141 25.8628 54.0223 25.4974 53.2001 25.1929C52.0734 24.7665 50.9771 24.2793 49.8808 23.8225C49.8199 23.7616 49.6981 23.7921 49.3936 23.8225ZM60.3868 67.3992C60.8435 67.0947 60.7522 66.6988 60.6608 66.3029C60.5086 65.5112 60.3259 64.689 60.1432 63.8973C59.93 62.8619 59.7168 61.7961 59.5037 60.7607C59.3514 60.1517 59.2296 59.5122 58.9555 58.9336C58.5292 57.9591 58.1029 56.9847 57.3416 56.2234C56.2453 55.1271 55.149 54.0308 54.0832 52.9041C53.8092 52.63 53.5351 52.356 53.2915 52.0515C52.8652 51.4729 52.9261 50.8638 53.4133 50.3461C53.7178 50.0416 54.0832 49.9807 54.4791 49.9807C56.1844 49.8894 57.8897 49.7371 59.595 49.7067C60.6913 49.7067 61.8485 49.7676 62.9143 50.0721C64.1628 50.4375 65.3504 50.9856 66.4467 51.7165C68.2434 52.9346 70.0705 54.1222 71.8671 55.3098C71.989 55.4012 72.2021 55.3707 72.6284 55.4621C71.0754 53.1782 69.705 51.077 68.2434 49.0672C67.4821 48.0014 66.5076 47.0878 65.32 46.5397C64.2846 46.0524 63.1579 45.7479 62.0312 45.4129C61.0262 45.1084 59.93 44.9866 58.9555 44.6516C57.6765 44.1949 56.3367 43.9512 55.0272 43.5858C54.1137 43.3422 53.3524 42.9159 52.7433 42.185C51.8907 41.1801 51.0685 40.2057 50.429 39.018C49.82 37.8609 49.3327 36.6428 48.8455 35.4552C48.6323 34.907 48.4192 34.3589 48.2974 33.8108C47.9624 32.2577 47.6274 30.6742 47.6579 29.0603C47.6579 28.8167 47.6274 28.573 47.5361 28.3294C47.1706 27.4159 47.1706 26.4414 47.1097 25.4669C47.0793 24.9797 47.1402 24.462 46.9879 24.0052C46.5311 22.8481 46.5311 21.63 46.5311 20.4119C46.5311 19.742 46.2266 19.1938 45.8612 18.6762C45.374 18.0062 44.2777 17.9758 43.6687 18.5239C43.2424 18.9198 43.0596 19.407 43.151 19.9856C43.3946 21.4168 43.6382 22.8481 43.9123 24.2793C44.0036 24.7665 44.1254 25.2233 44.2472 25.6801C44.3081 25.9542 44.2472 26.2891 44.3995 26.5328C44.8258 27.2332 44.7345 28.0249 44.8868 28.7862C45.0086 29.6084 45.3435 30.3697 45.4044 31.1919C45.4958 32.4404 45.4653 33.7194 45.4958 34.9679C45.5262 36.1251 45.0695 37.1605 44.6127 38.1654C43.9123 39.7793 42.7856 41.1192 41.4761 42.2764C40.1362 43.464 38.5527 44.1949 36.8779 44.6212C35.8121 44.8953 34.6549 44.8344 33.5282 44.8039C32.371 44.7734 31.2138 44.6821 30.0871 44.2862C29.204 43.9513 28.1991 43.8903 27.2247 43.7685C26.0979 43.6163 25.0321 43.3422 23.9358 43.0986C23.0832 42.9159 22.2001 42.8854 21.3779 42.5809C21.0124 42.4591 20.6166 42.4591 20.2207 42.4591C19.6117 42.4591 18.9722 42.9768 18.8199 43.5249C18.6067 44.2558 18.8199 44.8344 19.3985 45.3216C19.9162 45.7479 20.5252 45.8088 21.1647 45.8697C23.3268 46.0524 25.5193 46.296 27.6814 46.5397C27.8641 46.5701 28.0468 46.631 28.26 46.6615C28.9299 46.7833 29.5999 46.966 30.2698 46.966C31.7924 46.9355 33.2237 47.4837 34.7158 47.6359C34.8681 47.6359 34.9899 47.7273 35.1117 47.7577C35.7816 48.0623 36.3906 48.4581 37.091 48.6408C38.6745 49.0672 40.0144 49.8894 41.2934 50.8638C42.3897 51.686 43.4555 52.5082 44.5518 53.3C47.3838 55.2794 50.3376 57.1065 53.2915 58.9031C55.149 60.0299 56.6716 61.4916 57.8593 63.2882C58.7119 64.6586 59.5341 66.0289 60.3868 67.3992Z" fill="#0092D7"/>
<path id="Vector_2" d="M71.8667 90.695C71.8362 91.5172 70.8313 92.1263 70.1309 91.6999C69.7655 91.4868 69.4914 91.1214 69.2173 90.7864C67.8775 89.0202 66.568 87.2235 65.2282 85.4573C62.6397 81.9553 59.5337 79.0015 55.8794 76.6872C53.9914 75.4691 51.9511 74.4642 49.8195 73.6724C48.2664 73.0938 46.6829 72.6371 45.1299 72.1803C44.0336 71.8453 42.846 71.6321 41.6889 71.5103C39.1004 71.2058 36.6947 70.4141 34.289 69.4396C32.4924 68.7392 30.7566 67.8866 29.1122 66.9121C27.9246 66.1812 26.7674 65.3895 25.6711 64.5368C24.6967 63.806 23.7831 63.0143 22.9 62.2225C20.7075 60.2431 18.9412 57.8679 17.1446 55.5231C14.3126 51.808 10.7192 49.0064 6.73005 46.6616C5.45107 45.9003 4.01981 45.4131 2.67993 44.7736C2.2536 44.5604 1.79683 44.3472 1.43141 44.0732C0.913723 43.6773 0.974649 42.9769 1.49233 42.581C1.97956 42.1851 2.46677 42.0633 3.10626 42.3679C4.5984 43.0682 6.18192 43.5555 7.61316 44.3472C9.25756 45.2303 10.8411 46.2657 12.3332 47.4229C13.7035 48.4887 15.0739 49.5545 16.292 50.803C17.7536 52.3561 19.1544 53.97 20.403 55.6753C22.0778 57.9288 23.9963 59.9691 26.1584 61.7962C28.1987 63.5319 30.4216 64.9327 32.7969 66.1508C33.8931 66.7294 35.0808 67.1253 36.2684 67.582C37.2124 67.9475 38.1564 68.3433 39.1309 68.587C40.3185 68.8915 41.5061 69.0437 42.6937 69.2569C44.0336 69.5005 45.3735 69.7441 46.6829 70.0791C47.566 70.2923 48.4187 70.6881 49.3018 70.9318C53.3519 72.1194 56.9452 74.2206 60.234 76.7785C62.5788 78.6056 64.7105 80.7068 66.4767 83.1734C67.9688 85.2441 69.5523 87.254 71.1054 89.2942C71.3795 89.6292 71.5926 90.0251 71.8058 90.3905C71.8362 90.4819 71.8362 90.6341 71.8667 90.695Z" fill="#0092D7"/>
<path id="Vector_3" d="M62.8528 90.6646C62.7919 91.6086 61.6651 92.1568 60.9647 91.6391C60.6907 91.4564 60.4775 91.1823 60.2644 90.9082C57.6759 87.6803 54.6307 84.9701 51.0983 82.8385C49.1494 81.6508 47.0787 80.7373 44.947 79.9455C43.5767 79.4279 42.1759 79.0624 40.7447 78.7579C39.7397 78.5447 38.7044 78.4838 37.7604 78.2098C36.5423 77.8444 35.2938 77.753 34.1062 77.3267C32.8881 76.9003 31.6396 76.5045 30.4215 76.1086C29.2643 75.7432 28.2289 75.1341 27.1327 74.6165C25.0619 73.642 23.1739 72.363 21.4077 70.9622C20.0678 69.866 18.7279 68.7392 17.5403 67.4603C15.5305 65.3591 13.9166 62.9534 12.0285 60.7608C10.2623 58.6901 8.25247 56.9239 6.02949 55.3708C4.93322 54.5791 3.77606 53.8787 2.61889 53.2088C2.28392 53.026 1.94896 52.8129 1.64444 52.5693C1.27902 52.2952 1.00492 51.9298 1.15718 51.4426C1.30944 50.8944 1.94894 50.4681 2.49707 50.529C2.67978 50.5594 2.89296 50.5899 3.04522 50.6813C4.99414 51.6557 6.7908 52.8433 8.55701 54.1528C10.5364 55.6145 12.2721 57.3807 13.947 59.1773C14.8605 60.1518 15.6219 61.309 16.4441 62.3748C19.8851 66.9426 24.1484 70.5054 29.3252 72.972C30.4519 73.5202 31.6091 74.0379 32.8576 74.3424C33.8321 74.5555 34.7761 74.9819 35.7201 75.2864C36.0246 75.3777 36.39 75.3777 36.725 75.4691C37.2123 75.5605 37.669 75.6518 38.1258 75.7736C38.3085 75.8041 38.4912 75.9259 38.674 75.9259C39.8007 76.0172 40.8665 76.2609 41.9627 76.5045C43.668 76.8699 45.282 77.418 46.896 78.088C47.505 78.362 48.114 78.6361 48.7535 78.8797C51.3724 79.9455 53.7172 81.4986 55.9402 83.2039C58.1936 84.9396 60.2339 86.919 62.0001 89.1725C62.2742 89.5074 62.5178 89.8729 62.7614 90.2383C62.8223 90.3905 62.8223 90.6037 62.8528 90.6646Z" fill="#0092D7"/>
<path id="Vector_4" d="M24.27 31.3443C23.9655 27.3246 28.0461 23.305 32.0962 23.6704C36.1159 23.3963 39.8919 27.3855 39.8005 31.5574C39.7396 35.303 36.4204 39.2313 31.9439 39.2313C27.772 39.2313 23.9655 35.4248 24.27 31.3443ZM26.6453 31.4661C26.6758 34.4199 29.051 36.7952 32.0048 36.7952C35.1109 36.7647 37.3339 34.4199 37.3644 31.4965C37.3948 28.695 35.1718 26.1065 31.9135 26.1065C28.8378 26.1065 26.6149 28.8472 26.6453 31.4661Z" fill="#0092D7"/>
<path id="Vector_5" d="M48.4186 65.907C48.1445 65.8461 47.6878 65.7852 47.3223 65.6025C43.9117 63.8971 40.6838 61.9178 37.8213 59.3294C36.2987 57.959 35.0198 56.406 33.6494 54.9138C33.2536 54.4875 32.9795 53.9698 32.6749 53.4826C32.2486 52.7822 32.4009 52.1732 33.0404 51.7164C33.3754 51.5032 33.9235 51.5032 34.2585 51.8077C34.563 52.0513 34.8066 52.3559 35.0502 52.6604C37.5777 56.1015 40.6838 58.903 44.2162 61.1869C45.5866 62.07 47.1092 62.74 48.5709 63.5013C48.8145 63.6231 49.0885 63.7753 49.3322 63.9276C49.8194 64.2626 49.9716 64.6584 49.8194 65.1761C49.6671 65.6634 49.3017 65.8461 48.8449 65.907C48.784 65.907 48.6927 65.907 48.4186 65.907Z" fill="#0092D7"/>
<path id="Vector_6" d="M79.1448 55.0359C79.4798 54.975 79.7843 54.8228 80.1192 54.8228C80.5151 54.8228 80.8501 54.975 81.0937 55.3404C83.0122 57.8984 84.9306 60.4259 86.8491 62.9839C88.4021 65.0546 89.9857 67.1558 91.5387 69.2265C91.8128 69.5615 92.0868 69.9269 92.3 70.2923C92.635 70.8709 92.4827 71.4799 91.965 71.8454C91.5083 72.1803 90.8078 72.089 90.3815 71.6627C90.1379 71.419 89.9248 71.1754 89.7116 70.9014C87.58 68.0389 85.4483 65.1764 83.3167 62.3139C82.0073 60.5782 80.7283 58.812 79.3884 57.0762C78.9316 56.4672 78.7185 55.919 79.1448 55.0359Z" fill="#0092D7"/>
<path id="Vector_7" d="M80.0886 68.0389C80.4845 68.0389 80.8194 68.1607 81.063 68.5262C82.1593 69.9879 83.3165 71.4191 84.4127 72.8808C85.4786 74.2816 86.5139 75.7433 87.5797 77.1745C88.9501 79.0016 90.3204 80.7983 91.6603 82.6254C91.9039 82.9299 92.1475 83.2344 92.2998 83.5694C92.6652 84.3003 92.2084 85.092 91.3862 85.1529C90.8685 85.1834 90.4727 85.0616 90.1377 84.6048C89.2546 83.3867 88.3106 82.2295 87.397 81.0419C85.3872 78.3926 83.3774 75.7433 81.398 73.094C80.6671 72.1195 79.9972 71.145 79.2664 70.1401C79.1445 69.9879 78.9923 69.8356 78.9314 69.6833C78.7182 68.922 78.8401 67.978 80.0886 68.0389Z" fill="#0092D7"/>
<path id="Vector_8" d="M80.0282 77.7839C80.3631 77.7534 80.6068 77.9057 80.8504 78.2102C81.8248 79.4587 82.8602 80.7072 83.8346 81.9558C84.8091 83.2043 85.7227 84.5137 86.6667 85.7623C87.5802 87.0108 88.5242 88.2289 89.4378 89.4774C89.651 89.7819 89.8337 90.1473 89.925 90.5128C90.0468 90.9695 89.8641 91.3959 89.4682 91.6395C89.0724 91.8831 88.6156 91.9135 88.2197 91.6699C87.9457 91.4872 87.702 91.2436 87.4889 90.9695C86.1185 89.112 84.7482 87.2544 83.3779 85.3968C82.1902 83.8133 80.9722 82.2298 79.7846 80.6463C79.5105 80.3114 79.2364 79.9459 79.0537 79.5805C78.5969 78.7583 79.1146 77.8143 80.0282 77.7839Z" fill="#0092D7"/>
<path id="Vector_9" d="M12.791 35.8817C13.1869 37.6479 12.5169 38.3787 10.9639 37.8611C10.2026 37.6174 9.47175 37.4652 8.71045 37.3434C8.25367 37.2825 7.79689 37.0084 7.34012 36.9171C6.03068 36.643 4.69081 36.4603 3.35092 36.1862C2.89414 36.0949 2.43737 35.9121 1.98059 35.7294C1.3411 35.4858 1.03657 35.0595 1.09747 34.5723C1.15838 34.0241 1.70652 33.5369 2.28511 33.476C2.52872 33.4455 2.77234 33.476 3.01596 33.5064C3.83816 33.6587 4.66033 33.7196 5.42163 33.9937C6.63971 34.4809 8.01004 34.3286 9.22812 34.9377C9.34993 34.9986 9.50219 35.029 9.65445 35.029C10.7507 35.0595 11.7557 35.4249 12.791 35.8817Z" fill="#0092D7"/>
<path id="Vector_10" d="M11.1758 14.7476C10.6885 14.6258 9.95769 14.4431 9.19639 14.2604C9.01368 14.23 8.83096 14.1386 8.6178 14.1386C6.54707 13.9254 4.53726 13.286 2.46653 12.951C1.94884 12.8596 1.61387 12.5247 1.24845 12.1897C1.00483 11.9765 0.97439 11.337 1.21801 11.0934C1.64433 10.6671 2.1011 10.3321 2.77105 10.4844C3.77596 10.6975 4.75043 10.9107 5.75535 11.0934C7.09523 11.3675 8.43511 11.5807 9.74454 11.8547C10.5363 12.007 11.3585 12.2201 12.1502 12.4333C12.9115 12.6465 13.277 13.7123 12.8202 14.3518C12.7288 14.504 12.5157 14.5954 12.333 14.6258C12.0589 14.7476 11.7544 14.7172 11.1758 14.7476Z" fill="#0092D7"/>
<path id="Vector_11" d="M11.9388 25.6499C12.761 25.8326 13.3701 25.924 13.9791 26.0762C14.8318 26.2894 15.654 26.5026 16.4762 26.7766C17.2984 27.0507 18.0901 27.4161 18.8514 27.7815C19.1559 27.9033 19.43 28.1165 19.6736 28.3297C20.039 28.6646 20.0086 29.1214 19.8563 29.5477C19.7041 29.9436 19.3386 30.1568 18.9428 30.1263C18.5164 30.0959 18.0597 30.0654 17.6638 29.9132C16.5066 29.4259 15.3495 28.9996 14.1314 28.6646C13.6746 28.5428 13.1873 28.3906 12.7306 28.3601C12.152 28.3297 11.7257 27.9947 11.2993 27.7206C10.6294 27.2639 10.6294 26.533 11.2993 26.0458C11.482 25.8935 11.7257 25.7717 11.9388 25.6499Z" fill="#0092D7"/>
</g>
</svg>
