<svg width="226" height="88" viewBox="0 0 226 88" fill="none" xmlns="http://www.w3.org/2000/svg">
<path d="M190.385 44.0443L117.291 44.0059C117.294 38.2349 116.377 32.5196 114.593 27.1866C112.809 21.8536 110.192 17.0071 106.892 12.9241C103.593 8.84098 99.6747 5.60122 95.362 3.38979C91.0494 1.17835 86.4266 0.0385379 81.7575 0.0354365L0.0761732 0C0.074918 5.77079 0.993272 11.4854 2.7788 16.8175C4.56433 22.1496 7.18206 26.9948 10.4825 31.0765C13.783 35.1581 17.7016 38.3963 22.0146 40.6062C26.3276 42.816 30.9504 43.9542 35.6193 43.9557V43.9409L113.932 44.0089C113.931 49.78 114.85 55.4949 116.636 60.8273C118.422 66.1596 121.04 71.0049 124.341 75.0866C127.642 79.1682 131.561 82.4063 135.874 84.6159C140.187 86.8255 144.811 87.9634 149.48 87.9646V87.9498L225.923 88C225.924 82.2296 225.006 76.5153 223.221 71.1834C221.436 65.8515 218.819 61.0064 215.519 56.9247C212.219 52.8431 208.301 49.6048 203.988 47.3947C199.676 45.1847 195.053 44.0462 190.385 44.0443Z" fill="#CCE9F7"/>
<path d="M94.3076 38.1763H130.766C131.593 38.1761 132.393 38.4661 133.028 38.9957C133.663 39.5252 134.091 40.2607 134.239 41.0739L140.017 72.8386C140.11 73.3473 140.089 73.8701 139.957 74.3701C139.826 74.8701 139.586 75.3349 139.254 75.7319C138.923 76.1289 138.508 76.4482 138.04 76.6673C137.572 76.8864 137.061 76.9999 136.544 76.9998H88.5299C88.0129 76.9999 87.5022 76.8864 87.0338 76.6673C86.5655 76.4482 86.151 76.1289 85.8197 75.7319C85.4884 75.3349 85.2484 74.8701 85.1166 74.3701C84.9848 73.8701 84.9645 73.3473 85.057 72.8386L90.8346 41.0739C90.9826 40.2607 91.4113 39.5252 92.046 38.9957C92.6806 38.4661 93.481 38.1761 94.3076 38.1763Z" fill="url(#paint0_linear_2331_5026)"/>
<path d="M101.949 27.5882C101.949 30.3964 103.065 33.0896 105.05 35.0752C107.036 37.0609 109.729 38.1765 112.537 38.1765C115.346 38.1765 118.039 37.0609 120.024 35.0752C122.01 33.0896 123.126 30.3964 123.126 27.5882C123.126 24.7801 122.01 22.0869 120.024 20.1012C118.039 18.1155 115.346 17 112.537 17C109.729 17 107.036 18.1155 105.05 20.1012C103.065 22.0869 101.949 24.7801 101.949 27.5882Z" stroke="url(#paint1_linear_2331_5026)" stroke-width="5" stroke-linecap="round" stroke-linejoin="round"/>
<defs>
<linearGradient id="paint0_linear_2331_5026" x1="85" y1="38.1763" x2="142.254" y2="73.4634" gradientUnits="userSpaceOnUse">
<stop stop-color="#0092D7"/>
<stop offset="1" stop-color="#012E89"/>
</linearGradient>
<linearGradient id="paint1_linear_2331_5026" x1="101.949" y1="17" x2="127.503" y2="28.1023" gradientUnits="userSpaceOnUse">
<stop stop-color="#0092D7"/>
<stop offset="1" stop-color="#012E89"/>
</linearGradient>
</defs>
</svg>
