<svg width="65" height="92" viewBox="0 0 65 92" fill="none" xmlns="http://www.w3.org/2000/svg">
<g id="Group 133108">
<path id="Vector" d="M32.278 13.3615C32.3284 12.5903 32.8326 12.2171 33.3872 11.8191C35.0258 13.0132 36.6896 14.2074 38.303 15.4265C40.0424 16.745 41.8323 18.0138 43.4961 19.4568C45.7902 21.4471 47.8321 23.6613 49.622 26.0994C51.3362 28.438 52.7479 30.9507 53.9076 33.5879C54.5882 35.1304 55.1932 36.7724 55.6218 38.4143C55.8739 39.3597 56.3024 40.2802 56.2772 41.3003C56.8823 42.6437 56.6301 44.1116 57.0083 45.5048C57.1595 46.1018 57.1343 46.7736 57.1343 47.3955C57.1595 48.54 57.1596 49.7093 57.1596 50.8537C57.1596 51.1273 57.21 51.3761 57.2352 51.7493C57.4621 51.6498 57.6133 51.6 57.7394 51.5254C59.4536 50.3561 60.6132 48.6892 61.672 46.9477C61.7728 46.7736 61.7729 46.5745 61.8485 46.3755C62.3275 45.1067 62.6804 43.8379 62.8569 42.4944C63.0333 40.952 63.109 39.4095 63.0333 37.8421C62.9325 35.9265 62.8064 34.0357 62.6804 32.12C62.6552 31.921 62.6552 31.722 62.5796 31.5478C62.3275 31.0005 62.3022 30.4034 62.2518 29.8063C62.2014 29.3336 62.0754 28.8609 61.9997 28.4131C61.9493 28.0897 61.8737 27.7912 61.8233 27.4677C61.7729 27.2438 61.7981 26.995 61.7225 26.7711C61.3191 25.4526 60.9157 24.134 60.4368 22.8403C59.8065 21.1237 59.1259 19.4568 58.2183 17.8646C57.4116 16.3967 56.5545 14.9786 55.5209 13.685C54.5882 12.4908 53.5798 11.3712 52.4958 10.3263C51.1597 9.03264 49.7228 7.81359 48.1094 6.84332C46.5717 5.92281 45.0086 5.05206 43.3448 4.35545C42.0087 3.80812 40.6727 3.31055 39.2862 2.98713C38.908 2.88761 38.5551 2.66371 38.1518 2.61395C35.7317 2.21589 33.3116 1.79296 30.8411 1.79296C30.0344 1.79296 29.2277 1.89247 28.4462 1.96711C27.9168 2.01687 27.4125 2.06662 26.8831 2.16614C24.2362 2.68859 21.8665 3.68373 20.1019 5.79841C19.1439 6.94283 18.5389 8.26141 18.2616 9.72925C18.0095 10.9483 18.0095 12.1674 17.9591 13.4113C17.833 15.9489 16.9003 18.1631 15.2113 20.0788C14.0516 21.3973 12.7408 22.5418 11.3542 23.6364C10.0434 24.6813 8.75765 25.7262 7.54761 26.8706C6.00984 28.3385 4.87542 30.08 4.0183 32.0454C3.28723 33.7371 2.85871 35.4787 2.60662 37.3197C2.43015 38.6631 2.22847 40.0066 2.27888 41.35C2.43014 44.8828 3.64016 47.9926 6.16109 50.5551C6.33756 50.7293 6.46359 50.9034 6.58964 51.0527C6.58964 51.1522 6.58964 51.202 6.58964 51.2269C5.75773 52.5703 5.45526 52.6201 4.42168 51.5005C2.98474 49.9332 1.92597 48.1419 1.2201 46.1267C0.64029 44.3852 0.28736 42.6188 0.337779 40.7778C0.388197 39.4592 0.28736 38.1407 0.715918 36.8719C0.791546 36.6231 0.766288 36.3245 0.791497 36.0509C0.816706 35.7772 0.816743 35.4787 0.892371 35.2299C1.14446 34.384 1.37131 33.563 1.67382 32.742C2.37968 30.702 3.38808 28.8609 4.72417 27.1443C6.18632 25.2784 8.00136 23.8106 9.86685 22.3925C11.3542 21.2481 12.7408 20.0041 14.0012 18.6109C14.4046 18.188 14.7575 17.6655 14.9844 17.1431C15.5894 15.7996 16.0683 14.4313 16.0431 12.9137C16.0431 12.4659 16.0432 12.043 16.0684 11.5952C16.0936 10.8488 16.1188 10.1024 16.3961 9.38095C16.623 8.75898 16.6482 8.06238 16.9255 7.44041C17.8078 5.37549 19.0935 3.68374 21.0094 2.46468C22.169 1.71832 23.4043 1.24562 24.7152 0.822682C26.5302 0.225594 28.3957 -0.0231893 30.2864 0.00168935C31.1435 0.00168935 31.9754 0.00169238 32.8326 0.0514497C33.5888 0.101207 34.3451 0.200722 35.1014 0.300236C35.4291 0.325115 35.7316 0.399751 36.0594 0.42463C37.3955 0.549023 38.6559 0.872445 39.9164 1.29538C40.2945 1.41978 40.6979 1.46954 41.076 1.59393C42.9919 2.14126 44.807 2.96226 46.5969 3.88277C48.664 4.92767 50.5799 6.22135 52.3445 7.71407C54.4117 9.48046 56.252 11.421 57.815 13.6601C59.1511 15.5509 60.2855 17.566 61.2435 19.6558C62.1006 21.5715 62.8316 23.5369 63.2602 25.5769C63.4619 26.5472 63.84 27.4926 64.0165 28.438C64.2434 29.5575 64.3694 30.7268 64.5207 31.8713C64.6467 32.742 64.7223 33.6128 64.8232 34.4835C64.8736 34.8816 64.924 35.2796 64.9492 35.6777C64.9744 37.5933 64.9997 39.4841 64.9997 41.3998C64.9997 42.1461 64.8988 42.8925 64.6971 43.6389C64.5459 44.2111 64.5207 44.8082 64.3694 45.3804C63.5123 48.6395 61.5964 51.202 58.9494 53.2669C58.0671 53.9635 57.1595 54.6103 56.2016 55.1577C55.5966 55.506 55.2184 55.9289 55.1428 56.6504C55.0672 57.3221 54.9663 57.9938 54.8907 58.6656C54.7899 59.611 54.6891 60.5563 54.5882 61.5017C54.5378 61.9744 54.4874 62.4471 54.4118 62.9198C54.2605 64.1389 54.1597 65.3828 53.958 66.577C53.8571 67.2487 53.6807 67.8956 53.4286 68.5175C52.9748 69.6619 52.6723 70.8561 52.1177 71.9508C51.0589 74.0903 49.8741 76.1304 48.2355 77.8968C47.7061 78.469 47.454 79.0412 47.4792 79.8124C47.5044 83.3452 47.4792 86.9028 47.4792 90.4356C47.4792 90.8586 47.4792 91.3064 47.4792 91.7542C46.8742 92.1274 46.2943 91.9781 45.6893 91.9283C45.412 91.5054 45.5129 91.0576 45.5129 90.6347C45.5129 87.9975 45.5129 85.3853 45.5129 82.7481C45.5129 82.3501 45.5129 81.952 45.4625 81.5539C45.4372 81.3052 45.1347 81.1559 44.9078 81.2554C44.7313 81.33 44.5297 81.4296 44.3784 81.5539C43.1684 82.6486 41.8071 83.5442 40.4962 84.4896C39.5886 85.1613 38.6559 85.7584 37.5971 86.1316C36.3618 86.5546 35.1266 87.0521 33.7653 87.0024C32.6813 86.9775 31.5721 87.0272 30.5133 86.9029C29.3285 86.7536 28.1941 86.3306 27.1101 85.8082C25.9252 85.236 24.8412 84.4647 23.7824 83.6686C22.1186 82.4247 20.4548 81.2305 18.9422 79.8124C17.7069 78.668 16.6734 77.3743 15.6902 76.006C14.8835 74.8865 14.1525 73.6923 13.5727 72.4483C13.1945 71.6273 12.7911 70.8064 12.4634 69.9605C12.1861 69.2639 12.0601 68.5175 11.808 67.796C11.5811 67.199 11.4551 66.577 11.4299 65.9301C11.4299 65.8555 11.4299 65.756 11.4046 65.7062C10.9257 64.6613 11.0769 63.5169 10.9257 62.4222C10.6736 60.6559 10.5223 58.8646 10.4467 57.0733C10.4467 56.9489 10.4215 56.8245 10.3963 56.725C10.0686 55.1577 10.0937 55.1826 10.6988 53.7894C11.5559 51.8737 12.3878 49.958 13.2449 48.0424C14.3289 45.6292 15.6398 43.3154 17.3792 41.3003C19.1943 39.2105 21.2867 37.469 23.6816 36.0509C24.6647 35.4538 25.6983 34.9064 26.8327 34.583C27.4378 34.4089 27.9924 34.0855 28.5974 33.8864C29.1268 33.7123 29.6814 33.6128 30.236 33.5132C30.3872 33.4884 30.5385 33.563 30.6898 33.5879C30.7402 33.7371 30.8158 33.8367 30.8411 33.9362C31.0427 35.2299 31.0427 35.205 29.7822 35.5782C27.8159 36.1504 25.9756 36.9714 24.211 38.0412C22.1942 39.2353 20.48 40.7529 18.9422 42.4696C17.5809 43.9872 16.5221 45.7038 15.665 47.5448C14.6062 49.8336 13.5726 52.1474 12.5391 54.4611C12.287 55.0333 12.1357 55.6553 12.2617 56.327C12.3626 56.7997 12.3626 57.2724 12.413 57.7451C12.5139 58.6407 12.6147 59.5612 12.7155 60.4568C12.7659 60.8798 12.8164 61.3276 12.8668 61.7505C12.9676 62.7457 13.0937 63.7159 13.1693 64.7111C13.2953 66.4028 13.9004 67.9453 14.4298 69.5127C15.06 71.3537 15.9676 73.0703 17.102 74.6377C18.4885 76.5782 20.0515 78.3943 22.0178 79.8373C23.4547 80.8822 24.8664 82.0018 26.3034 83.0715C27.9924 84.3155 29.8579 85.0369 31.9755 85.0867C33.1855 85.1116 34.3955 85.1116 35.5804 84.7882C36.7148 84.4896 37.7736 84.0418 38.7315 83.3701C39.9164 82.5491 41.1012 81.7778 42.2104 80.8822C43.8238 79.5885 45.5381 78.3943 46.7229 76.6528C47.0254 76.205 47.4539 75.8318 47.8069 75.4089C49.2186 73.6176 50.227 71.5776 51.0841 69.5127C51.3614 68.8161 51.4118 68.0448 51.7143 67.3482C52.2185 66.2287 52.0672 65.0096 52.4706 63.8901C52.5966 63.5418 52.5714 63.094 52.5966 62.7208C52.6471 61.5266 52.7227 60.3324 52.9244 59.1631C53.0756 58.2178 53.0757 57.2724 53.1513 56.3021C53.2017 55.7796 53 55.3816 52.5715 55.0582C51.6387 54.3367 50.706 53.5903 49.7732 52.844C49.4455 52.5703 49.143 52.2469 48.7901 51.9732C47.5548 51.1025 46.2943 50.2566 44.933 49.5849C43.4961 48.8883 42.0088 48.3409 40.471 47.918C40.1937 47.8433 39.9164 47.8433 39.6391 47.7936C39.2357 47.719 38.8576 47.6194 38.4794 47.5448C38.2777 47.495 38.1013 47.4204 37.8997 47.3955C35.7317 47.2711 33.7653 46.4253 31.8494 45.5048C30.3369 44.7833 28.9251 43.8876 27.6647 42.7432C27.5134 42.6188 27.4378 42.4447 27.3369 42.2705C27.5638 41.7481 27.9924 41.4247 28.4209 41.0266C28.6478 41.151 28.8999 41.2505 29.1016 41.4247C30.8662 42.8676 32.8326 43.9623 35.0258 44.7086C36.2106 45.1067 37.3954 45.455 38.6307 45.6292C41.7567 46.077 44.7061 47.0721 47.3783 48.7141C48.664 49.5102 49.8741 50.4059 51.1346 51.2766C51.3614 51.2268 51.3362 50.9781 51.2858 50.8288C51.1345 50.3561 50.9581 49.8585 50.7312 49.4107C49.6976 47.2214 48.8153 44.9574 47.5296 42.9174C46.2691 40.8773 44.807 38.9617 43.0927 37.2202C41.202 35.3294 39.0088 33.8118 36.8408 32.2693C34.4964 30.6273 32.1267 29.0102 29.7822 27.418C27.7655 26.0496 25.774 24.6813 23.7572 23.3379C23.0009 22.8154 22.2194 22.3179 21.4884 21.7954C21.2363 21.6213 21.0094 21.3725 20.8077 21.2232C20.7321 20.5763 21.2615 20.2778 21.3876 19.83C21.7405 19.6558 21.9925 19.7802 22.2194 19.9544C24.3622 21.472 26.5303 22.9647 28.6983 24.4574C30.3117 25.5521 31.925 26.6467 33.5384 27.7414C35.6056 29.1595 37.6727 30.5527 39.7399 31.9708C42.0339 33.563 44.1768 35.3543 45.9666 37.469C47.4288 39.1856 48.7648 41.0266 49.8236 43.0418C50.4791 44.3106 51.0841 45.5794 51.6891 46.8731C52.395 48.4156 53.0756 49.9829 53.7563 51.5254C53.9832 52.023 54.21 52.5454 54.4369 53.043C54.5126 53.1923 54.563 53.3415 54.6639 53.4659C54.7899 53.665 55.1932 53.6152 55.2689 53.3913C55.3445 53.1674 55.3949 52.9435 55.3949 52.6947C55.3949 50.9781 55.3697 49.2614 55.3445 47.5697C55.3445 47.0472 55.2436 46.5497 55.1932 46.0272C55.1176 45.4301 55.0672 44.833 54.9664 44.2608C54.8655 43.6637 54.7647 43.0915 54.6639 42.4944C54.6134 42.2705 54.5378 42.0217 54.5126 41.7978C54.3109 40.2554 53.8319 38.7875 53.3277 37.3197C52.7731 35.6777 52.0925 34.0606 51.311 32.5181C50.101 30.1546 48.6892 27.9156 47.0002 25.8506C45.3868 23.8354 43.5717 21.9944 41.5802 20.3524C40.4962 19.4817 39.4122 18.6358 38.303 17.7899C36.7652 16.6455 35.2275 15.526 33.6645 14.3816C33.1099 13.9586 32.6813 13.6601 32.278 13.3615Z" fill="#0092D7"/>
<path id="Vector_2" d="M21 27.8753C20.7409 28.1132 20.5289 28.3273 20.2933 28.4938C18.2911 29.8498 16.5715 31.5151 15.0404 33.3706C14.1689 34.4411 13.3915 35.6068 12.7555 36.8677C12.5906 37.1769 12.4022 37.391 12.0724 37.3196C11.6248 37.2245 11.1537 37.1531 11.0124 36.606C10.9653 36.4156 11.0595 36.154 11.1773 35.9637C11.4835 35.4165 11.8133 34.8694 12.1431 34.3222C12.9204 33.0852 13.792 31.8957 14.8284 30.849C15.9827 29.6595 17.1369 28.4938 18.4796 27.5423C18.8093 27.3044 19.1391 27.0427 19.4924 26.8286C19.94 26.5431 20.2226 26.6383 20.5053 27.0903C20.6938 27.3282 20.8351 27.5899 21 27.8753Z" fill="#0092D7"/>
<path id="Vector_3" d="M19.4774 56.6667C19.9031 56.8393 20.249 56.9926 20.5948 57.146C21.7387 57.6827 23.0156 57.8743 24.3458 57.7977C25.5961 57.721 26.8464 57.5485 27.8573 56.8968C28.283 56.6284 28.5757 56.6667 28.9747 56.9351C29.2141 57.0884 29.4269 57.2801 29.6663 57.491C29.5333 57.6443 29.4801 57.8168 29.3205 57.8935C28.3628 58.4686 27.3785 58.9478 26.1016 59.0819C25.5163 59.1394 24.9311 59.3311 24.3724 59.3311C22.2442 59.3695 20.3021 58.9286 18.6262 57.9318C18.3069 57.7402 18.2271 57.5101 18.4932 57.2993C18.7858 57.0884 19.1316 56.8968 19.4774 56.6667Z" fill="#0092D7"/>
<path id="Vector_4" d="M45.2757 56.6667C45.6532 56.955 45.9803 57.2048 46.3327 57.4738C45.9552 58.0888 45.2253 58.377 44.5458 58.6653C43.6146 59.0496 42.5828 59.261 41.551 59.3186C39.5376 59.4147 37.6753 59.0496 36.0898 58.0311C35.5613 57.6852 35.5361 57.4931 35.964 57.1279C36.0646 57.0319 36.1905 56.955 36.2911 56.8589C36.5176 56.686 36.7944 56.686 37.0713 56.782C37.2223 56.8397 37.3481 56.8973 37.474 56.9742C38.1535 57.3778 38.9084 57.5891 39.7641 57.7044C41.4251 57.935 42.9352 57.7044 44.3445 57.0126C44.5207 56.9358 44.6717 56.8397 44.8479 56.782C44.9234 56.7436 45.0492 56.7244 45.2757 56.6667Z" fill="#0092D7"/>
<path id="Vector_5" d="M19.4797 91.3333C19.1374 91.3333 18.7951 91.3333 18.4528 91.3333C18.4015 91.196 18.3501 91.1044 18.3501 90.99C18.333 89.5708 18.333 88.1516 18.333 86.7325C18.333 86.1831 18.4528 86.0229 18.8807 86C19.069 86 19.2572 86.0458 19.4284 86.0687C19.6338 86.4578 19.6167 86.8698 19.6338 87.2589C19.7023 89.6395 19.668 90.4864 19.4797 91.3333Z" fill="#0092D7"/>
</g>
</svg>
