<svg width="98" height="98" viewBox="0 0 98 98" fill="none" xmlns="http://www.w3.org/2000/svg">
<g id="icon-park-outline:check-one">
<g id="Group">
<g id="Vector (Stroke)">
<path fill-rule="evenodd" clip-rule="evenodd" d="M48.9997 4.08333C54.8992 4.07638 60.7421 5.23504 66.1926 7.49278C71.643 9.75049 76.5936 13.0627 80.7602 17.2393C84.9367 21.4059 88.249 26.3567 90.5068 31.8072C92.7645 37.2577 93.9232 43.1004 93.9164 49C93.9233 54.8995 92.7647 60.7424 90.5069 66.1929C88.2492 71.6433 84.9369 76.594 80.7603 80.7606C76.5937 84.9372 71.643 88.2495 66.1926 90.5072C60.7421 92.765 54.8992 93.9236 48.9996 93.9167C43.1001 93.9235 37.2574 92.7648 31.8069 90.5071C26.3565 88.2493 21.4058 84.9371 17.2391 80.7606C13.0625 76.594 9.75023 71.6433 7.49249 66.1929C5.23474 60.7424 4.07608 54.8995 4.08304 48.9999C4.07622 43.1004 5.23493 37.2576 7.49265 31.8072C9.75037 26.3568 13.0626 21.4061 17.2391 17.2394C21.4058 13.0629 26.3565 9.75066 31.8069 7.49294C37.2574 5.23521 43.1001 4.0765 48.9997 4.08333ZM63.0672 15.0378C58.6093 13.1911 53.8303 12.2437 49.005 12.25H48.9945C44.1692 12.2438 39.3902 13.1913 34.9323 15.0379C30.4743 16.8845 26.4251 19.5939 23.0176 23.0104L23.0101 23.0178C19.5936 26.4254 16.8842 30.4746 15.0376 34.9325C13.191 39.3905 12.2436 44.1695 12.2497 48.9948V49.0053C12.2435 53.8306 13.1909 58.6096 15.0375 63.0675C16.8841 67.5255 19.5935 71.5746 23.01 74.9821L23.0176 74.9896C26.4251 78.4061 30.4743 81.1155 34.9323 82.9621C39.3902 84.8087 44.1692 85.7561 48.9945 85.75H49.005C53.8303 85.7563 58.6093 84.8088 63.0672 82.9622C67.5252 81.1156 71.5743 78.4062 74.9818 74.9897L74.9894 74.9821C78.4059 71.5746 81.1153 67.5255 82.9619 63.0675C84.8086 58.6096 85.756 53.8306 85.7497 49.0053V48.9948C85.7559 44.1695 84.8084 39.3905 82.9618 34.9325C81.1152 30.4746 78.4058 26.4254 74.9893 23.0178L74.9818 23.0103C71.5743 19.5938 67.5252 16.8844 63.0672 15.0378Z" fill="url(#paint0_linear_3076_18214)"/>
<path d="M49.005 12.25C53.8303 12.2437 58.6093 13.1911 63.0672 15.0378C67.5252 16.8844 71.5743 19.5938 74.9818 23.0103L74.9893 23.0178C78.4058 26.4254 81.1152 30.4746 82.9618 34.9325C84.8084 39.3905 85.7559 44.1695 85.7497 48.9948V49.0053C85.756 53.8306 84.8086 58.6096 82.9619 63.0675C81.1153 67.5255 78.4059 71.5746 74.9894 74.9821L74.9818 74.9897C71.5743 78.4062 67.5252 81.1156 63.0672 82.9622C58.6093 84.8088 53.8303 85.7563 49.005 85.75H48.9945C44.1692 85.7561 39.3902 84.8087 34.9323 82.9621C30.4743 81.1155 26.4251 78.4061 23.0176 74.9896L23.01 74.9821C19.5935 71.5746 16.8841 67.5255 15.0375 63.0675C13.1909 58.6096 12.2435 53.8306 12.2497 49.0053V48.9948C12.2436 44.1695 13.191 39.3905 15.0376 34.9325C16.8842 30.4746 19.5936 26.4254 23.0101 23.0178L23.0176 23.0104C26.4251 19.5939 30.4743 16.8845 34.9323 15.0379C39.3902 13.1913 44.1692 12.2438 48.9945 12.25H49.005Z" fill="url(#paint1_linear_3076_18214)"/>
</g>
<path id="Vector (Stroke)_2" fill-rule="evenodd" clip-rule="evenodd" d="M72.3037 33.8626C73.8983 35.4573 73.8983 38.0427 72.3037 39.6374L47.8037 64.1374C46.2091 65.732 43.6236 65.732 42.029 64.1374L29.779 51.8874C28.1843 50.2927 28.1843 47.7073 29.779 46.1126C31.3736 44.518 33.9591 44.518 35.5537 46.1126L44.9163 55.4753L66.529 33.8626C68.1236 32.268 70.7091 32.268 72.3037 33.8626Z" fill="white"/>
</g>
</g>
<defs>
<linearGradient id="paint0_linear_3076_18214" x1="4.08301" y1="4.0833" x2="112.484" y2="51.1805" gradientUnits="userSpaceOnUse">
<stop stop-color="#0092D7"/>
<stop offset="1" stop-color="#012E89"/>
</linearGradient>
<linearGradient id="paint1_linear_3076_18214" x1="4.08301" y1="4.0833" x2="112.484" y2="51.1805" gradientUnits="userSpaceOnUse">
<stop stop-color="#0092D7"/>
<stop offset="1" stop-color="#012E89"/>
</linearGradient>
</defs>
</svg>
