<svg width="48" height="48" viewBox="0 0 48 48" fill="none" xmlns="http://www.w3.org/2000/svg">
<path d="M10.2195 3.60901L8.1075 5.71801L11.25 8.85901L13.359 6.75001L10.218 3.60901H10.2195ZM37.782 3.60901L34.6395 6.75001L36.75 8.85901L39.891 5.71951L37.782 3.60901ZM24 4.54501C23.505 4.55101 23.004 4.57951 22.5 4.64101C22.485 4.64101 22.47 4.63801 22.455 4.64101C16.371 5.33851 11.529 10.254 10.6875 16.311C10.0155 21.186 12.0255 25.6065 15.375 28.4535C16.7451 29.6228 17.6718 31.2274 18 32.9985V41.9985H21.42C21.942 42.894 22.8945 43.4985 24 43.4985C25.1055 43.4985 26.058 42.894 26.58 41.9985H30V35.9985H30.141V34.2165C30.141 32.0175 31.284 29.8005 33.141 28.077C35.625 25.59 37.5 22.0575 37.5 18C37.5 10.59 31.401 4.47601 24 4.54501ZM24 7.54501C29.7975 7.46401 34.5 12.21 34.5 18C34.5 21.141 33.045 23.907 31.0305 25.92L31.0785 25.968C29.0766 27.8141 27.7821 30.3012 27.4185 33H20.8575C20.5275 30.429 19.425 27.9405 17.3415 26.1555C14.691 23.9055 13.1115 20.5155 13.6395 16.6875C14.295 11.9625 18.129 8.16301 22.827 7.64251C23.2149 7.58843 23.6055 7.55638 23.997 7.54651L24 7.54501ZM3 18V21H7.5V18H3ZM40.5 18V21H45V18H40.5ZM11.25 30.141L8.109 33.2805L10.2195 35.391L13.3575 32.25L11.25 30.141ZM36.75 30.141L34.641 32.25L37.7805 35.391L39.891 33.2805L36.75 30.141ZM21 36H27V39H21V36Z" fill="white"/>
</svg>
