<?xml version="1.0" standalone="no"?>
<!DOCTYPE svg PUBLIC "-//W3C//DTD SVG 20010904//EN"
 "http://www.w3.org/TR/2001/REC-SVG-20010904/DTD/svg10.dtd">
<svg version="1.0" xmlns="http://www.w3.org/2000/svg"
 width="1248.000000pt" height="1248.000000pt" viewBox="0 0 1248.000000 1248.000000"
 preserveAspectRatio="xMidYMid meet">
<metadata>
Created by potrace 1.14, written by Peter Selinger 2001-2017
</metadata>
<g transform="translate(0.000000,1248.000000) scale(0.100000,-0.100000)"
fill="#000000" stroke="none">
<path d="M5397 10554 c-1 -1 -40 -5 -86 -8 -47 -4 -98 -9 -115 -11 -17 -3 -58
-7 -91 -10 -33 -2 -69 -6 -80 -9 -11 -2 -49 -7 -85 -11 -36 -3 -73 -9 -83 -12
-10 -2 -35 -6 -55 -9 -37 -3 -60 -7 -162 -25 -62 -10 -94 -16 -130 -24 -33 -7
-68 -14 -105 -21 -16 -3 -50 -10 -75 -15 -25 -6 -54 -13 -65 -15 -44 -9 -63
-14 -145 -34 -47 -12 -93 -23 -102 -25 -9 -2 -52 -13 -95 -26 -43 -12 -82 -22
-88 -24 -5 -1 -17 -5 -25 -8 -8 -3 -33 -11 -55 -16 -22 -6 -89 -27 -150 -47
-60 -19 -117 -37 -125 -39 -8 -2 -40 -13 -70 -25 -30 -12 -59 -23 -65 -24 -19
-5 -50 -17 -230 -88 -213 -83 -233 -92 -437 -187 -48 -23 -91 -41 -96 -41 -4
0 -14 -6 -20 -12 -7 -7 -16 -13 -20 -13 -19 -1 -317 -160 -427 -228 -207 -128
-479 -324 -612 -442 -156 -138 -340 -318 -418 -409 -22 -26 -53 -61 -68 -79
-16 -18 -69 -86 -119 -152 -49 -66 -96 -128 -104 -138 -8 -9 -14 -21 -14 -25
0 -5 -8 -17 -17 -28 -10 -10 -27 -36 -38 -57 -11 -21 -28 -47 -38 -58 -10 -10
-16 -19 -13 -19 3 0 -14 -33 -38 -72 -70 -120 -225 -456 -241 -523 -1 -5 -4
-17 -7 -25 -27 -75 -75 -230 -82 -265 -2 -11 -12 -49 -21 -85 -18 -70 -20 -78
-30 -136 -8 -45 -13 -69 -15 -69 -1 0 -3 -13 -5 -30 -4 -41 -15 -114 -20 -145
-38 -197 -38 -828 1 -1040 7 -43 11 -65 18 -110 6 -35 11 -62 21 -110 3 -14 7
-36 10 -50 3 -14 12 -54 21 -90 9 -36 17 -69 18 -75 2 -10 36 -119 62 -203 22
-67 104 -272 130 -324 14 -27 21 -48 18 -48 -4 0 0 -8 8 -17 8 -10 21 -34 28
-53 8 -19 16 -37 19 -40 3 -3 24 -39 45 -80 42 -81 66 -120 66 -106 0 5 6 4
12 -1 7 -6 21 -9 30 -8 10 2 18 0 18 -4 0 -4 10 -7 23 -8 12 0 47 -6 77 -12
54 -12 92 -18 160 -26 19 -2 46 -6 60 -9 117 -22 542 -35 665 -21 22 3 65 7
95 9 30 3 66 7 80 10 14 2 45 7 70 10 77 10 274 56 350 82 25 9 52 17 61 19 9
2 46 15 81 29 36 14 69 26 75 26 6 0 13 5 15 10 2 6 13 12 26 13 12 0 22 5 22
9 0 4 6 8 14 8 7 0 35 12 62 26 27 14 76 40 109 57 33 18 62 35 65 38 3 3 21
14 40 25 19 10 37 22 40 25 3 3 25 19 50 34 25 15 47 31 50 34 3 4 23 20 46
36 116 85 393 351 434 417 11 18 20 29 20 23 0 -5 8 2 17 15 10 14 21 30 25
35 5 6 28 37 53 70 24 33 51 68 59 78 9 9 16 19 16 22 0 3 15 27 34 54 73 103
191 312 270 475 97 201 117 245 120 260 1 6 12 33 24 60 13 28 25 60 28 73 4
13 10 23 16 23 5 0 6 5 3 10 -4 6 -2 16 3 23 7 9 39 95 47 127 1 3 5 12 8 20
10 24 87 263 87 271 0 4 5 20 11 36 7 15 13 35 14 43 1 8 12 50 24 92 58 203
56 185 54 743 -1 286 -2 523 -2 527 -1 4 -40 -12 -88 -36 -166 -82 -470 -205
-547 -221 -10 -3 -33 -9 -50 -14 -50 -16 -218 -59 -255 -66 -19 -3 -37 -7 -40
-9 -3 -2 -24 -7 -46 -10 -22 -4 -65 -10 -95 -16 -30 -5 -73 -11 -95 -14 -22
-2 -62 -8 -90 -11 -27 -4 -66 -8 -85 -10 -19 -2 -37 -4 -40 -4 -4 -1 -4 -695
0 -1019 l0 -43 53 6 c28 3 63 8 77 10 14 2 57 8 95 14 39 6 84 13 100 15 17 2
55 10 85 16 30 6 66 13 80 15 14 2 94 21 178 43 147 38 152 38 146 18 -4 -12
-9 -23 -13 -26 -3 -3 -22 -36 -42 -75 -91 -177 -114 -220 -120 -225 -3 -3 -9
-15 -13 -27 -4 -13 -12 -23 -17 -23 -5 0 -9 -5 -9 -10 0 -26 -189 -297 -280
-400 -97 -111 -221 -223 -334 -302 -44 -32 -86 -62 -91 -66 -6 -5 -44 -26 -85
-47 -41 -22 -78 -43 -81 -48 -3 -5 -8 -8 -10 -6 -2 1 -26 -8 -53 -19 -27 -12
-54 -22 -60 -22 -7 0 -16 -4 -22 -9 -8 -7 -93 -37 -134 -47 -8 -2 -40 -10 -70
-18 -30 -8 -71 -17 -90 -20 -19 -4 -53 -9 -75 -13 -22 -3 -52 -7 -67 -7 -16
-1 -28 -4 -28 -7 0 -7 -446 -3 -500 4 -19 3 -62 8 -95 12 -33 4 -67 11 -76 16
-9 4 -19 6 -21 3 -6 -6 -33 74 -44 131 -10 50 -9 44 -17 80 -3 17 -9 46 -11
65 -3 19 -8 46 -11 60 -21 99 -21 477 1 612 3 23 8 59 9 78 2 19 4 35 5 35 1
0 3 11 5 25 7 63 63 288 89 360 9 25 19 54 21 65 3 11 9 29 14 40 17 40 96
230 96 235 0 3 6 14 12 25 6 11 33 63 60 115 65 126 64 123 172 290 78 122
218 315 257 356 5 6 30 35 55 64 181 215 436 464 659 644 25 20 54 45 65 55
21 18 169 131 219 166 16 11 40 29 55 41 52 40 300 204 311 204 5 0 10 5 10
10 0 6 5 10 11 10 6 0 29 12 52 28 69 44 246 148 327 190 25 12 79 41 120 63
41 23 80 42 87 43 7 1 15 5 19 9 3 3 43 24 88 45 122 58 153 72 165 72 6 0 11
4 11 9 0 8 34 21 54 20 5 -1 12 3 15 8 3 6 71 36 151 68 80 31 159 63 175 70
17 7 50 20 75 28 25 9 104 37 175 62 124 44 325 106 410 127 22 6 52 15 66 22
l27 11 -2 140 -1 140 -48 1 c-26 0 -48 -1 -50 -2z"/>
<path d="M7603 10405 c-32 -34 -65 -73 -73 -85 -8 -13 -24 -32 -35 -44 -12
-11 -22 -25 -24 -31 -2 -5 -14 -26 -25 -45 -20 -32 -33 -58 -65 -130 -20 -44
-34 -122 -34 -185 0 -151 59 -258 222 -405 44 -39 273 -177 313 -189 17 -4
104 -42 120 -51 10 -5 26 -10 36 -10 10 0 22 -4 28 -9 5 -4 63 -25 129 -45 66
-20 139 -43 162 -50 l42 -13 93 93 c355 353 799 806 795 810 -9 10 -361 137
-442 160 -27 8 -58 19 -68 25 -10 5 -22 7 -27 4 -4 -3 -10 0 -12 5 -2 6 -85
-70 -185 -168 -142 -139 -185 -177 -197 -170 -9 5 -16 7 -16 4 0 -3 -18 1 -39
9 -22 7 -42 11 -45 8 -3 -4 -6 -1 -6 6 0 7 -4 10 -9 6 -11 -6 -127 38 -182 70
-133 77 -163 183 -89 320 18 33 40 68 48 78 8 9 13 19 11 21 -3 3 -55 13 -159
33 -14 2 -33 5 -42 6 -10 1 -18 4 -18 7 0 3 -12 6 -28 7 -15 1 -48 6 -74 11
l-48 9 -57 -62z"/>
<path d="M9260 9409 c-238 -236 -432 -430 -429 -432 2 -2 47 -21 99 -42 130
-51 424 -189 500 -235 8 -5 56 -32 105 -61 111 -65 299 -189 303 -200 2 -5 8
-9 14 -9 10 0 127 -91 243 -189 49 -43 267 -261 315 -316 63 -72 95 -111 110
-135 8 -13 23 -30 33 -39 9 -8 17 -21 17 -27 0 -7 4 -14 8 -16 10 -3 121 -167
142 -208 7 -14 16 -27 20 -30 10 -8 145 -280 170 -345 13 -33 26 -64 30 -70 4
-5 10 -21 13 -35 3 -14 15 -52 27 -85 21 -58 67 -225 76 -275 6 -35 13 -70 20
-100 3 -14 7 -38 8 -55 2 -16 5 -39 9 -50 21 -74 34 -414 21 -590 -2 -38 -6
-92 -8 -120 -2 -27 -5 -50 -6 -50 -1 0 -4 -19 -6 -41 -4 -38 -24 -155 -39
-229 -4 -16 -7 -38 -8 -47 -1 -10 -5 -18 -10 -18 -4 0 -6 -4 -3 -8 3 -5 -2
-33 -10 -63 -8 -30 -17 -64 -20 -77 -27 -128 -224 -629 -257 -653 -5 -3 -8 -9
-8 -13 2 -14 -139 -279 -158 -296 -4 -3 -15 -21 -25 -40 -17 -32 -168 -260
-188 -285 -4 -5 -40 -53 -80 -105 -39 -52 -83 -109 -97 -126 -49 -58 -106
-127 -124 -148 -123 -146 -404 -427 -596 -595 l-61 -53 0 -148 0 -148 42 20
c23 11 47 21 52 22 6 1 31 12 56 23 25 11 68 31 95 43 74 33 336 166 375 190
8 5 51 31 95 58 44 26 102 61 129 77 51 31 306 209 341 237 57 47 105 86 139
113 95 75 212 182 341 311 123 124 245 254 245 262 0 3 6 10 14 16 7 6 53 61
101 121 48 61 94 119 103 130 27 34 156 229 172 260 8 17 17 32 20 35 3 3 25
43 49 90 23 47 46 90 51 95 4 6 11 21 15 35 4 14 23 55 41 93 18 37 31 67 29
67 -2 0 4 19 14 43 21 49 34 80 36 87 0 3 13 42 29 87 15 45 27 84 26 85 -1 2
5 20 13 40 19 46 77 296 92 398 3 19 7 44 10 55 2 11 7 43 10 70 4 28 8 61 10
75 18 108 25 516 12 695 -11 139 -28 287 -43 365 -3 14 -7 39 -10 55 -3 17
-12 59 -20 95 -8 36 -17 76 -20 88 -2 13 -12 49 -20 80 -9 32 -19 71 -24 87
-14 53 -60 189 -70 207 -6 10 -10 26 -10 36 0 10 -4 22 -8 28 -5 5 -19 36 -32
69 -70 180 -208 436 -334 624 -39 57 -75 111 -81 119 -18 27 -157 203 -180
228 -5 6 -35 39 -65 74 -117 133 -320 327 -460 442 -146 120 -170 138 -179
138 -5 0 -11 3 -13 8 -5 13 -137 106 -283 200 -77 50 -153 103 -170 117 -16
15 -52 38 -80 53 -27 15 -52 29 -55 32 -8 8 -262 137 -290 148 -24 9 -50 -15
-460 -419z"/>
<path d="M6437 9454 c-1 -1 -27 -4 -57 -7 -261 -27 -528 -174 -700 -386 -19
-24 -41 -49 -47 -56 -7 -8 -13 -16 -13 -20 0 -6 -40 -66 -51 -75 -6 -5 -97
-192 -123 -250 -8 -20 -17 -48 -20 -63 -2 -14 -8 -32 -13 -39 -4 -7 -8 -17 -9
-23 -1 -5 -5 -21 -8 -35 -51 -208 -69 -346 -70 -530 0 -95 13 -300 19 -310 2
-4 6 -24 9 -46 10 -69 17 -109 22 -124 3 -8 8 -26 11 -40 3 -14 6 -29 7 -35
13 -51 20 -72 29 -82 5 -7 7 -13 3 -13 -7 0 43 -142 55 -154 5 -6 9 -16 9 -24
0 -47 228 -433 305 -517 14 -14 25 -29 25 -32 0 -3 38 -49 84 -102 86 -98 200
-210 296 -291 29 -25 58 -51 66 -57 7 -7 17 -13 22 -13 6 0 12 -4 14 -8 4 -12
176 -132 188 -132 6 0 10 -4 10 -10 0 -5 4 -10 9 -10 5 0 35 -16 67 -35 62
-38 298 -156 318 -159 6 -1 21 -7 33 -14 12 -7 29 -12 37 -12 9 0 16 -5 16
-11 0 -5 3 -8 8 -6 4 3 18 0 32 -6 14 -5 31 -11 38 -13 8 -1 21 -6 30 -10 9
-4 20 -8 25 -9 4 -2 9 -3 11 -4 16 -5 -164 -432 -185 -439 -5 -2 -9 -9 -9 -17
0 -14 -74 -152 -124 -230 -17 -27 -38 -62 -46 -77 -7 -16 -17 -28 -22 -28 -4
0 -8 -7 -8 -15 0 -8 -4 -15 -10 -15 -5 0 -10 -7 -10 -15 0 -8 -4 -15 -10 -15
-5 0 -10 -5 -10 -10 0 -11 -159 -228 -194 -264 -12 -12 -41 -47 -66 -77 -46
-55 -271 -283 -326 -329 -16 -14 -56 -48 -89 -76 -149 -126 -410 -303 -586
-397 -154 -82 -164 -87 -176 -87 -7 0 -13 -4 -13 -10 0 -5 -4 -10 -9 -10 -5 0
-42 -15 -83 -33 -102 -47 -192 -82 -200 -79 -5 1 -8 -3 -8 -9 0 -5 -5 -7 -10
-4 -6 4 -16 2 -23 -3 -7 -5 -43 -19 -82 -31 -38 -13 -79 -26 -90 -31 -21 -10
-227 -67 -260 -73 -11 -2 -28 -7 -38 -12 -10 -4 -21 -5 -24 -1 -3 3 -12 1 -20
-5 -7 -6 -13 -8 -13 -4 0 4 -7 2 -15 -5 -8 -7 -15 -10 -15 -7 0 3 -17 1 -37
-4 -34 -8 -175 -33 -243 -44 -168 -26 -333 -42 -518 -49 -56 -2 -105 -6 -109
-9 -3 -4 -13 -2 -23 3 -10 5 -20 7 -23 3 -20 -19 -588 9 -832 42 -22 3 -58 8
-80 11 -22 3 -56 7 -75 10 -19 3 -46 7 -60 9 -27 4 -109 16 -124 19 -5 0 -10
-67 -12 -156 -1 -87 1 -156 5 -155 3 1 20 -3 36 -10 53 -20 70 -26 80 -29 6
-1 44 -13 85 -27 75 -25 186 -57 195 -58 3 0 23 -6 45 -14 22 -8 40 -12 40
-10 0 3 12 0 28 -6 15 -6 34 -12 42 -14 8 -2 47 -11 85 -20 88 -21 100 -24
128 -30 58 -12 74 -16 97 -20 14 -3 61 -12 105 -21 44 -8 94 -17 110 -19 17
-3 41 -7 55 -9 41 -9 116 -19 220 -31 30 -3 66 -8 80 -10 105 -13 241 -25 358
-30 56 -2 106 -6 110 -8 10 -5 494 0 587 7 88 6 166 13 236 22 25 3 63 7 85 9
37 3 87 11 144 21 14 2 41 7 60 9 19 3 55 10 80 15 25 5 56 12 70 14 14 2 45
9 70 16 25 7 54 14 65 15 33 5 132 33 267 76 70 22 131 40 135 41 5 0 17 7 28
14 11 8 25 14 31 14 7 0 34 10 61 22 26 12 50 22 53 23 56 18 240 108 240 116
0 5 3 8 8 7 12 -4 150 75 266 153 157 106 167 113 205 148 19 17 37 31 40 31
15 0 247 225 321 310 30 35 63 72 73 82 9 10 17 21 17 26 0 4 14 21 30 39 38
40 161 221 226 333 96 165 213 423 279 615 28 82 66 208 71 235 2 14 9 36 14
50 9 22 29 105 46 190 3 14 7 32 9 40 5 16 15 71 29 160 3 14 7 34 9 45 2 11
8 47 12 80 4 32 9 68 11 80 7 37 15 99 19 155 2 30 4 55 5 55 1 0 3 23 5 50 2
28 7 93 10 145 16 214 10 705 -10 865 -2 17 -7 58 -10 92 -3 34 -8 72 -10 85
-5 23 -13 77 -20 133 -2 17 -7 41 -10 55 -3 14 -8 39 -11 55 -3 17 -9 48 -14
70 -5 22 -11 54 -15 72 -3 18 -9 43 -15 57 -5 15 -8 26 -5 26 2 0 -1 15 -6 33
-11 37 -18 61 -25 96 -3 14 -8 29 -11 34 -3 6 -7 20 -9 31 -1 12 -15 59 -30
106 -15 47 -29 90 -30 95 -4 18 -55 159 -85 235 -39 97 -39 98 -93 213 -25 53
-46 99 -46 102 -1 2 -16 32 -35 66 -19 33 -35 65 -35 70 0 5 -4 9 -9 9 -5 0
-11 8 -15 18 -10 31 -94 164 -110 174 -6 5 -7 8 -1 8 7 0 7 3 0 8 -5 4 -32 36
-60 72 -116 151 -229 263 -353 348 -74 52 -231 127 -287 137 -22 5 -47 10 -55
12 -36 9 -176 23 -183 17z m161 -1218 c152 -16 329 -108 445 -232 52 -56 147
-196 141 -206 -3 -4 -1 -8 3 -8 7 0 19 -22 38 -70 1 -3 7 -18 14 -35 31 -72
74 -237 86 -325 16 -123 20 -194 20 -385 -1 -199 -6 -299 -16 -310 -2 -2 -27
1 -54 7 -28 5 -63 12 -80 14 -45 8 -186 43 -215 54 -14 6 -34 11 -45 13 -11 2
-27 7 -35 10 -8 4 -55 20 -105 38 -94 32 -294 126 -354 166 -20 13 -45 29 -55
36 -87 56 -201 165 -265 250 -52 70 -92 142 -84 150 3 4 1 7 -5 7 -7 0 -11 3
-10 8 0 4 -2 16 -6 27 -4 11 -13 32 -18 48 -6 15 -12 39 -14 55 -1 15 -5 38
-9 52 -9 38 -7 151 4 188 5 17 7 32 5 32 -3 0 -2 6 3 13 4 6 9 20 10 30 7 42
89 173 143 227 44 44 182 125 194 113 3 -4 6 -2 6 3 0 5 8 11 18 12 22 2 57
10 57 12 0 1 25 4 54 6 30 3 57 7 59 9 3 2 8 3 11 1 3 -2 30 -7 59 -10z"/>
<path d="M9940 7362 c0 -7 -3 -11 -7 -10 -14 3 -77 -13 -113 -30 -179 -81
-312 -264 -419 -576 -21 -61 -39 -115 -40 -121 -1 -5 -6 -26 -11 -45 -5 -19
-11 -46 -14 -60 -2 -14 -5 -26 -7 -27 -3 -5 -22 -97 -24 -118 -2 -14 -13 -68
-35 -160 -10 -44 -21 -91 -23 -105 -3 -14 -11 -45 -18 -70 -7 -25 -13 -47 -14
-50 -12 -56 -40 -159 -46 -171 -5 -9 -11 -31 -14 -49 -3 -18 -9 -38 -13 -44
-3 -6 -7 -15 -8 -21 -2 -11 -81 -251 -91 -275 -3 -8 -7 -19 -9 -25 -11 -45
-125 -326 -170 -423 -19 -39 -34 -75 -34 -78 0 -25 -252 -502 -272 -515 -6 -3
-9 -10 -7 -14 2 -7 -27 -55 -116 -194 -84 -132 -108 -166 -214 -306 -190 -253
-386 -464 -632 -680 -41 -36 -176 -144 -205 -165 -94 -66 -271 -186 -279 -189
-5 -2 -41 -22 -80 -45 -38 -23 -88 -50 -110 -61 -22 -11 -43 -24 -46 -28 -3
-5 -9 -8 -13 -8 -3 1 -45 -18 -93 -40 -99 -47 -285 -120 -383 -152 -76 -24
-67 -22 -105 -31 -16 -5 -49 -14 -72 -22 -23 -7 -52 -15 -65 -18 -13 -3 -68
-14 -123 -26 -55 -11 -111 -23 -125 -25 -59 -10 -88 -14 -130 -19 -25 -3 -58
-8 -75 -10 -76 -11 -230 -22 -347 -25 l-28 -1 0 -145 c0 -142 0 -145 23 -150
28 -6 112 -15 197 -21 108 -8 150 -13 162 -20 7 -5 8 -3 3 6 -6 9 -4 11 5 5
18 -11 120 -15 400 -15 260 -1 387 3 396 13 3 3 16 2 29 -3 13 -5 26 -6 29 -2
4 3 21 7 39 8 18 1 61 6 97 10 36 4 76 8 90 9 14 1 42 5 62 9 21 4 57 9 80 12
43 4 62 7 128 19 36 6 60 11 105 20 14 3 35 7 48 9 12 2 69 16 127 31 58 14
123 31 145 36 75 19 373 121 460 158 76 33 352 172 405 204 134 82 278 180
326 222 7 6 26 21 44 35 67 52 117 98 211 190 83 82 131 135 246 273 20 24 49
64 117 162 12 17 23 32 26 35 3 3 12 17 20 32 8 15 37 64 64 110 49 83 150
279 149 288 -1 3 4 14 10 25 6 11 12 22 12 25 1 3 11 27 23 53 12 27 22 53 22
58 0 5 4 17 10 27 12 21 49 115 80 202 13 36 26 70 30 75 3 6 17 44 30 85 14
41 29 78 35 82 5 4 7 8 4 8 -4 0 5 30 18 68 13 37 26 74 28 82 1 8 17 56 34
105 18 50 31 90 31 90 -1 0 1 7 4 15 45 141 113 377 162 565 40 156 109 445
120 505 11 62 71 183 114 229 63 67 165 134 221 145 64 12 67 18 43 81 -8 22
-23 65 -34 95 -39 116 -81 236 -87 250 -3 8 -7 20 -9 25 -1 6 -12 37 -24 70
-12 33 -48 134 -80 225 -97 278 -90 263 -135 276 -38 11 -119 24 -175 28 -14
1 -35 -2 -46 -5 -12 -4 -26 -3 -33 4 -8 8 -11 8 -11 -1z"/>
<path d="M5170 5819 c-52 -10 -108 -21 -125 -23 -16 -3 -41 -8 -55 -10 -14 -3
-41 -7 -60 -10 -19 -3 -45 -8 -56 -10 -12 -2 -37 -7 -55 -10 -19 -3 -43 -7
-54 -10 -22 -4 -99 -17 -130 -22 -11 -2 -33 -6 -50 -9 -116 -22 -213 -39 -232
-39 -16 0 -20 -5 -16 -20 2 -12 6 -34 8 -51 2 -16 6 -41 9 -55 3 -14 8 -41 12
-60 3 -19 9 -55 15 -80 5 -25 11 -61 13 -80 3 -19 5 -35 6 -35 2 0 5 -19 14
-75 7 -39 10 -57 32 -180 9 -47 18 -94 20 -105 3 -11 7 -39 9 -61 5 -46 13
-42 -105 -58 -19 -3 -46 -8 -60 -12 -14 -3 -38 -8 -55 -10 -16 -2 -41 -6 -55
-9 -14 -2 -38 -7 -55 -9 -16 -3 -46 -8 -65 -11 -66 -12 -245 -44 -270 -49 -14
-2 -57 -10 -97 -17 -68 -11 -71 -13 -63 -34 5 -13 6 -25 3 -28 -3 -3 -2 -11 3
-18 4 -7 8 -26 10 -43 2 -17 6 -42 9 -56 3 -14 8 -41 11 -60 10 -64 13 -85 24
-140 6 -30 13 -71 16 -90 2 -19 7 -46 10 -60 8 -36 13 -60 18 -100 3 -19 12
-73 21 -120 9 -47 18 -94 19 -105 2 -11 7 -37 11 -58 7 -36 8 -37 44 -32 53 7
100 15 156 25 28 5 65 12 83 15 17 3 47 7 65 10 17 3 43 8 57 10 61 12 77 15
110 20 19 3 46 7 60 9 14 3 54 10 90 17 36 6 77 12 91 14 15 1 31 5 35 8 5 2
32 8 59 11 127 16 123 13 105 94 -6 23 -13 59 -16 80 -8 52 -13 83 -19 112 -3
14 -7 39 -10 55 -2 17 -8 55 -14 85 -6 30 -13 69 -16 85 -3 17 -8 50 -12 75
-3 25 -8 47 -12 50 -3 3 -6 16 -7 30 0 14 -4 45 -8 70 -5 25 -9 63 -10 84 -1
32 2 40 19 41 19 2 68 10 110 19 11 2 40 7 65 11 25 4 54 9 65 11 11 2 31 6
45 9 14 2 41 7 60 11 19 3 46 7 60 9 14 1 34 5 45 8 11 3 38 8 60 11 22 4 51
8 65 11 34 7 58 11 110 20 113 19 121 22 116 48 -3 12 -5 24 -6 27 -2 3 -2 9
-1 14 1 4 -3 22 -8 40 -5 17 -12 54 -16 81 -3 28 -8 57 -10 65 -2 8 -6 31 -9
50 -7 41 -14 85 -21 120 -3 14 -7 41 -10 60 -3 19 -7 46 -10 60 -3 14 -8 36
-11 50 -2 14 -7 41 -11 60 -3 19 -7 44 -8 55 -1 11 -5 34 -8 50 -4 17 -9 46
-13 65 -3 19 -9 53 -12 74 -4 24 -13 40 -22 41 -8 1 -58 -6 -110 -16z"/>
</g>
</svg>
