<svg width="694" height="369" viewBox="0 0 694 369" fill="none" xmlns="http://www.w3.org/2000/svg">
<path d="M610.768 271.447H497.971V245.864C523.554 212.012 543.193 179.84 556.889 149.347C570.585 118.597 578.725 86.0367 581.309 51.668C586.477 51.1511 590.095 50.8927 592.162 50.8927C606.892 50.8927 618.132 54.3813 625.885 61.3584C633.637 68.3355 637.513 78.0259 637.513 90.4297C637.513 105.159 632.474 121.827 622.396 140.432C612.577 159.038 600.56 176.739 586.348 193.536C572.394 210.333 559.344 223.512 547.198 233.073H610.768V178.806H666.585V233.073H690.229V271.447H666.585V323H610.768V271.447Z" fill="#0092D7"/>
<ellipse cx="345.5" cy="180.5" rx="199.5" ry="142.5" fill="url(#paint0_linear_2302_15392)"/>
<path d="M297.046 197.02L322.498 192.51L326.911 217.612L304.767 221.526L308.669 243.735L283.217 248.16L278.806 223.143L301.034 219.229L297.046 197.02Z" fill="#ECF3FA"/>
<path d="M261.922 136.605C275.226 135.58 288.172 131.784 299.931 125.458V154.134C285.423 213.443 252.759 239.056 204.824 230.632L199.988 229.611C191.277 214.832 186.787 197.934 187.008 180.768C187.008 143.583 205.503 113.29 240.542 92.5276C267.418 77.6138 297.27 68.8933 327.927 67V74.7434C269.557 90.3152 217.635 133.287 217.635 180.257C217.481 186.28 218.312 192.288 220.095 198.042C265.824 206.125 278.805 169.11 283.895 160.601C276.715 162.686 269.359 164.109 261.922 164.856V136.605Z" fill="#ECF3FA"/>
<path d="M439.238 86.1456C443.48 88.1878 447.552 90.3149 451.37 92.6124L451.2 92.9529C485.9 113.715 504.82 144.178 504.989 180.768C505.261 198.615 500.4 216.163 490.991 231.312C476.331 252.64 455.649 269.086 431.602 278.538V270.795C500.917 211.231 487.089 135.414 416.077 109.12L439.238 86.1456Z" fill="#ECF3FA"/>
<path d="M428.632 81.4644L405.216 105.12L405.047 105.46C387.061 100.78 364.324 90.4842 385.28 69.4665L395.205 71.4237C387.739 80.7838 396.478 83.6768 404.198 85.4638L413.531 76.1888C419.724 78.0609 422.524 79.2521 428.632 81.4644Z" fill="#ECF3FA"/>
<path d="M454.594 184.766L454.085 185.532V185.872C453.475 186.887 452.991 187.973 452.644 189.106C448.705 207.835 443.024 226.153 435.676 243.82C413.448 294.96 355.331 297.938 322.922 293.599V285.855C389.776 284.494 420.489 221.696 428.973 177.703C434.233 151.58 444.753 150.304 453.831 153.027L463.078 179.405C459.694 180.095 456.676 182.001 454.594 184.766Z" fill="#ECF3FA"/>
<path fill-rule="evenodd" clip-rule="evenodd" d="M240.883 268.413V260.67C313.59 273.433 356.774 237.61 371.197 196.51C362.078 193.651 353.625 188.985 346.338 182.787C339.051 176.589 333.079 168.987 328.777 160.431C317.069 136.435 324.281 100.867 350.412 96.6972C376.543 92.5277 395.376 138.733 395.546 174.727C395.97 295.983 285.169 285.601 240.458 268.753L240.883 268.413ZM356.096 128.692C356.096 128.692 380.529 128.692 376.627 170.302L376.457 170.642C376.457 170.642 354.992 167.834 345.405 156.177C342.214 152.558 340.436 147.904 340.4 143.072C340.441 141.079 340.886 139.115 341.706 137.299C342.528 135.483 343.708 133.853 345.176 132.508C346.643 131.164 348.368 130.132 350.245 129.476C352.122 128.82 354.113 128.553 356.096 128.692Z" fill="#ECF3FA"/>
<path d="M120.549 271.447H7.75234V245.864C33.3351 212.012 52.9744 179.84 66.6702 149.347C80.366 118.597 88.5059 86.0367 91.09 51.668C96.2583 51.1511 99.876 50.8927 101.943 50.8927C116.673 50.8927 127.914 54.3813 135.666 61.3584C143.418 68.3355 147.295 78.0259 147.295 90.4297C147.295 105.159 142.256 121.827 132.177 140.432C122.358 159.038 110.342 176.739 96.1291 193.536C82.1748 210.333 69.1251 223.512 56.9797 233.073H120.549V178.806H176.366V233.073H200.01V271.447H176.366V323H120.549V271.447Z" fill="#0092D7"/>
<defs>
<linearGradient id="paint0_linear_2302_15392" x1="146" y1="38" x2="563.783" y2="292.121" gradientUnits="userSpaceOnUse">
<stop stop-color="#0092D7"/>
<stop offset="1" stop-color="#012E89"/>
</linearGradient>
</defs>
</svg>
