<svg width="48" height="48" viewBox="0 0 48 48" fill="none" xmlns="http://www.w3.org/2000/svg">
<path d="M0 0H32C40.8366 0 48 7.16344 48 16V48H16C7.16344 48 0 40.8366 0 32V0Z" fill="#0090D0"/>
<path d="M20.2692 37.125C20.1338 37.125 20.004 37.0712 19.9083 36.9755C19.8126 36.8798 19.7588 36.7499 19.7588 36.6146V35.1414C19.759 34.4491 19.5527 33.7725 19.1663 33.1981C18.7799 32.6236 18.231 32.1775 17.5897 31.9168C17.5007 31.8845 17.4233 31.8264 17.3676 31.75C17.3118 31.6735 17.2801 31.5822 17.2765 31.4876C17.2705 31.3937 17.2899 31.3 17.3328 31.2162C17.3757 31.1325 17.4404 31.062 17.5201 31.012C17.9923 30.741 18.3619 30.3217 18.5712 29.8191C18.7806 29.3165 18.8181 28.7588 18.6779 28.2327C18.5377 27.7066 18.2276 27.2415 17.7959 26.9098C17.3642 26.578 16.835 26.3982 16.2905 26.3982C15.7461 26.3982 15.2168 26.578 14.7851 26.9098C14.3534 27.2415 14.0433 27.7066 13.9031 28.2327C13.7629 28.7588 13.8004 29.3165 14.0098 29.8191C14.2192 30.3217 14.5887 30.741 15.0609 31.012C15.1406 31.062 15.2053 31.1325 15.2482 31.2162C15.2911 31.3 15.3106 31.3937 15.3045 31.4876C15.301 31.5822 15.2693 31.6735 15.2135 31.75C15.1577 31.8264 15.0803 31.8845 14.9914 31.9168C14.35 32.1775 13.8011 32.6236 13.4147 33.1981C13.0283 33.7725 12.822 34.4491 12.8222 35.1414V36.6146C12.8222 36.7499 12.7685 36.8798 12.6727 36.9755C12.577 37.0712 12.4472 37.125 12.3118 37.125C12.1785 37.1219 12.0516 37.0668 11.9584 36.9714C11.8652 36.8761 11.813 36.748 11.8131 36.6146V35.1414C11.801 34.383 11.9834 33.634 12.3428 32.966C12.7022 32.298 13.2266 31.7331 13.8662 31.3252C13.3693 30.8427 13.0277 30.2228 12.8852 29.5451C12.7426 28.8673 12.8055 28.1624 13.0658 27.5206C13.3262 26.8788 13.7721 26.3293 14.3466 25.9424C14.9211 25.5555 15.5979 25.3488 16.2905 25.3488C16.9831 25.3488 17.66 25.5555 18.2344 25.9424C18.8089 26.3293 19.2548 26.8788 19.5152 27.5206C19.7755 28.1624 19.8384 28.8673 19.6959 29.5451C19.5533 30.2228 19.2117 30.8427 18.7148 31.3252C19.3477 31.7289 19.8679 32.2864 20.2269 32.9457C20.586 33.6049 20.7721 34.3444 20.768 35.095V36.5682C20.7744 36.638 20.7663 36.7085 20.7442 36.7751C20.7222 36.8416 20.6867 36.903 20.6399 36.9552C20.5931 37.0075 20.536 37.0495 20.4722 37.0787C20.4084 37.1079 20.3393 37.1237 20.2692 37.125Z" fill="white"/>
<path d="M36.5554 37.1249C36.42 37.1249 36.2902 37.0712 36.1945 36.9755C36.0988 36.8797 36.045 36.7499 36.045 36.6146V35.1414C36.0452 34.4491 35.839 33.7725 35.4526 33.198C35.0662 32.6236 34.5172 32.1775 33.8759 31.9167C33.7885 31.882 33.7128 31.8232 33.6574 31.7473C33.602 31.6714 33.5692 31.5813 33.5627 31.4875C33.5565 31.3923 33.5772 31.2973 33.6223 31.2132C33.6674 31.1292 33.7352 31.0595 33.8179 31.012C34.2924 30.7397 34.6636 30.3184 34.874 29.8134C35.0843 29.3085 35.122 28.7482 34.9811 28.2196C34.8403 27.6911 34.5287 27.2238 34.095 26.8905C33.6612 26.5572 33.1295 26.3765 32.5825 26.3765C32.0355 26.3765 31.5038 26.5572 31.0701 26.8905C30.6363 27.2238 30.3248 27.6911 30.1839 28.2196C30.0431 28.7482 30.0807 29.3085 30.2911 29.8134C30.5014 30.3184 30.8727 30.7397 31.3472 31.012C31.4281 31.0614 31.4945 31.1315 31.5393 31.2151C31.5842 31.2987 31.6059 31.3927 31.6024 31.4875C31.5959 31.5813 31.5631 31.6714 31.5077 31.7473C31.4523 31.8232 31.3765 31.882 31.2892 31.9167C30.6457 32.1757 30.0943 32.621 29.7057 33.1956C29.3171 33.7702 29.1092 34.4478 29.1084 35.1414V36.6146C29.1096 36.7387 29.0655 36.859 28.9843 36.9529C28.9032 37.0469 28.7906 37.108 28.6677 37.1249C28.5323 37.1249 28.4025 37.0712 28.3068 36.9755C28.211 36.8797 28.1573 36.7499 28.1573 36.6146V35.1414C28.1412 34.3887 28.3156 33.6441 28.6645 32.9769C29.0133 32.3097 29.5251 31.7415 30.1524 31.3251C29.8173 30.9997 29.5512 30.6102 29.3698 30.1797C29.1885 29.7493 29.0956 29.2867 29.0968 28.8196C29.0983 28.2456 29.2418 27.6808 29.5145 27.1757C29.7872 26.6705 30.1806 26.2407 30.6597 25.9244C31.1388 25.6082 31.6887 25.4154 32.2603 25.3632C32.832 25.311 33.4077 25.4011 33.9361 25.6253C34.4645 25.8496 34.9293 26.2011 35.2889 26.6485C35.6486 27.0959 35.892 27.6253 35.9974 28.1896C36.1028 28.7539 36.067 29.3355 35.8932 29.8825C35.7193 30.4296 35.4129 30.9252 35.001 31.3251C35.6353 31.7283 36.1572 32.2854 36.5182 32.9445C36.8792 33.6037 37.0676 34.3435 37.0658 35.095V36.5681C37.0722 36.639 37.0638 36.7104 37.0411 36.7777C37.0184 36.8451 36.9818 36.907 36.9337 36.9595C36.8857 37.0119 36.8272 37.0537 36.7621 37.0822C36.6969 37.1107 36.6265 37.1252 36.5554 37.1249Z" fill="white"/>
<path d="M18.2271 23.2054H18.0531C17.9552 23.1699 17.8705 23.1053 17.8104 23.0203C17.7502 22.9353 17.7175 22.8339 17.7167 22.7298V19.5631H16.1971C15.8392 19.56 15.497 19.4157 15.245 19.1615C14.993 18.9073 14.8515 18.5639 14.8516 18.206V12.2206C14.8516 12.0439 14.8864 11.8689 14.954 11.7056C15.0216 11.5424 15.1207 11.394 15.2457 11.2691C15.3706 11.1442 15.5189 11.0451 15.6822 10.9774C15.8454 10.9098 16.0204 10.875 16.1971 10.875H28.6667C29.0247 10.875 29.3681 11.0164 29.6223 11.2684C29.8765 11.5204 30.0208 11.8626 30.0239 12.2206V12.7657C30.0208 12.8991 29.9657 13.0259 29.8703 13.1192C29.775 13.2124 29.6469 13.2646 29.5135 13.2645C29.3812 13.2645 29.2543 13.212 29.1608 13.1184C29.0673 13.0249 29.0147 12.898 29.0147 12.7657V12.1742C29.0117 12.0839 28.9737 11.9983 28.9088 11.9356C28.8438 11.8728 28.757 11.8377 28.6667 11.8378H16.1971C16.1079 11.8378 16.0223 11.8732 15.9593 11.9363C15.8962 11.9994 15.8607 12.0849 15.8607 12.1742V18.1596C15.8607 18.2499 15.8958 18.3367 15.9585 18.4016C16.0213 18.4666 16.1069 18.5046 16.1971 18.5076H18.2271C18.3593 18.5076 18.4862 18.5601 18.5797 18.6537C18.6733 18.7472 18.7258 18.8741 18.7258 19.0063V21.2335L20.7558 18.6931C20.8037 18.635 20.864 18.5882 20.9322 18.5561C21.0003 18.524 21.0748 18.5075 21.1502 18.5076H21.417C21.5503 18.5075 21.6784 18.5597 21.7738 18.6529C21.8692 18.7461 21.9243 18.873 21.9273 19.0063C21.9273 19.1417 21.8736 19.2715 21.7778 19.3672C21.6821 19.463 21.5523 19.5167 21.417 19.5167L18.6446 22.9966C18.5954 23.0608 18.5322 23.1129 18.4599 23.1491C18.3876 23.1853 18.3079 23.2045 18.2271 23.2054Z" fill="white"/>
<path d="M31.4973 23.2056C31.4222 23.2041 31.3483 23.1869 31.2803 23.1549C31.2123 23.1229 31.1519 23.0769 31.1029 23.02L29.1774 20.5957H24.0271C23.7195 20.5957 23.4245 20.4734 23.2069 20.2559C22.9894 20.0384 22.8672 19.7433 22.8672 19.4357V15.1902C22.8672 14.8826 22.9894 14.5876 23.2069 14.37C23.4245 14.1525 23.7195 14.0303 24.0271 14.0303H32.9009C33.2085 14.0303 33.5035 14.1525 33.7211 14.37C33.9386 14.5876 34.0608 14.8826 34.0608 15.1902V19.4357C34.0608 19.7433 33.9386 20.0384 33.7211 20.2559C33.5035 20.4734 33.2085 20.5957 32.9009 20.5957H31.9961V22.7068C31.9952 22.8109 31.9625 22.9123 31.9024 22.9973C31.8423 23.0823 31.7576 23.1469 31.6597 23.1824L31.4973 23.2056ZM24.0388 15.0858C24.0111 15.0858 23.9845 15.0968 23.9649 15.1164C23.9453 15.136 23.9344 15.1625 23.9344 15.1902V19.4357C23.9344 19.4634 23.9453 19.4899 23.9649 19.5095C23.9845 19.5291 24.0111 19.5401 24.0388 19.5401H29.421C29.4963 19.54 29.5708 19.5566 29.639 19.5887C29.7072 19.6207 29.7674 19.6676 29.8154 19.7257L30.9753 21.2104V20.0505C30.9738 19.984 30.9855 19.9179 31.0099 19.856C31.0343 19.7942 31.0708 19.7378 31.1172 19.6903C31.1637 19.6427 31.2192 19.6049 31.2805 19.5791C31.3418 19.5533 31.4076 19.5401 31.4741 19.5401H32.8893C32.9169 19.5401 32.9435 19.5291 32.9631 19.5095C32.9827 19.4899 32.9937 19.4634 32.9937 19.4357V15.1902C32.9937 15.1625 32.9827 15.136 32.9631 15.1164C32.9435 15.0968 32.9169 15.0858 32.8893 15.0858H24.0388Z" fill="white"/>
</svg>
