<svg width="48" height="48" viewBox="0 0 48 48" fill="none" xmlns="http://www.w3.org/2000/svg">
<path d="M0 0H32C40.8366 0 48 7.16344 48 16V48H16C7.16344 48 0 40.8366 0 32V0Z" fill="#0090D0"/>
<path d="M35.25 35.25L27.75 27.75M12.75 21.5C12.75 22.6491 12.9763 23.7869 13.4161 24.8485C13.8558 25.9101 14.5003 26.8747 15.3128 27.6872C16.1253 28.4997 17.0899 29.1442 18.1515 29.5839C19.2131 30.0237 20.3509 30.25 21.5 30.25C22.6491 30.25 23.7869 30.0237 24.8485 29.5839C25.9101 29.1442 26.8747 28.4997 27.6872 27.6872C28.4997 26.8747 29.1442 25.9101 29.5839 24.8485C30.0237 23.7869 30.25 22.6491 30.25 21.5C30.25 20.3509 30.0237 19.2131 29.5839 18.1515C29.1442 17.0899 28.4997 16.1253 27.6872 15.3128C26.8747 14.5003 25.9101 13.8558 24.8485 13.4161C23.7869 12.9763 22.6491 12.75 21.5 12.75C20.3509 12.75 19.2131 12.9763 18.1515 13.4161C17.0899 13.8558 16.1253 14.5003 15.3128 15.3128C14.5003 16.1253 13.8558 17.0899 13.4161 18.1515C12.9763 19.2131 12.75 20.3509 12.75 21.5Z" stroke="white" stroke-width="2" stroke-linecap="round" stroke-linejoin="round"/>
</svg>
