<svg width="48" height="48" viewBox="0 0 48 48" fill="none" xmlns="http://www.w3.org/2000/svg">
<path d="M0 0H32C40.8366 0 48 7.16344 48 16V48H16C7.16344 48 0 40.8366 0 32V0Z" fill="#0090D0"/>
<path d="M20.25 12.06C20.0511 12.06 19.8603 12.139 19.7197 12.2796C19.579 12.4203 19.5 12.6111 19.5 12.81V16.5H15.75C15.5511 16.5 15.3603 16.579 15.2197 16.7196C15.079 16.8603 15 17.0511 15 17.25V23.3445L12.549 24.0285C12.444 24.0578 12.3467 24.1097 12.2638 24.1805C12.181 24.2513 12.1145 24.3393 12.0691 24.4384C12.0237 24.5374 12.0004 24.6452 12.0009 24.7542C12.0014 24.8632 12.0257 24.9708 12.072 25.0695L14.775 30.8145C15.1051 30.4163 15.5622 30.1441 16.0695 30.0435L13.806 25.2345L23.19 22.62C23.717 22.4731 24.274 22.4731 24.801 22.62L34.1865 25.2345L31.8765 30.033C32.3847 30.1174 32.8485 30.3737 33.1905 30.759L35.928 25.077C35.9754 24.9781 36.0006 24.8701 36.0017 24.7605C36.0029 24.6508 35.98 24.5423 35.9346 24.4425C35.8893 24.3427 35.8226 24.254 35.7393 24.1827C35.656 24.1115 35.5581 24.0593 35.4525 24.03L33 23.346V17.25C33 17.0511 32.921 16.8603 32.7803 16.7196C32.6397 16.579 32.4489 16.5 32.25 16.5H28.5V12.8085C28.5 12.6096 28.421 12.4188 28.2803 12.2781C28.1397 12.1375 27.9489 12.0585 27.75 12.0585L20.25 12.06ZM27 16.5H21V13.56H27V16.5ZM31.5 18V22.9275L25.2015 21.1725C24.4115 20.9524 23.5765 20.9524 22.7865 21.1725L16.5 22.929V18H31.5ZM32.232 32.085L32.2275 32.07C32.1887 31.9149 32.1014 31.7762 31.9783 31.6742C31.8552 31.5722 31.7027 31.5123 31.5431 31.503C31.3835 31.4938 31.2251 31.5359 31.0911 31.623C30.957 31.7102 30.8543 31.8379 30.798 31.9875L30.7905 32.0025L30.7605 32.079C30.5694 32.5089 30.3234 32.9123 30.0285 33.279C29.4915 33.939 28.746 34.5 27.75 34.5C26.754 34.5 26.007 33.9375 25.467 33.276C25.154 32.888 24.8956 32.459 24.699 32.001L24.6915 31.9845C24.6371 31.8423 24.5407 31.7201 24.4152 31.6341C24.2896 31.548 24.1409 31.5022 23.9887 31.5027C23.8365 31.5032 23.6881 31.55 23.5631 31.6368C23.4381 31.7237 23.3425 31.8465 23.289 31.989L23.2815 32.004L23.2515 32.0805C23.0615 32.5099 22.8164 32.9128 22.5225 33.279C21.9885 33.939 21.246 34.5 20.25 34.5C19.254 34.5 18.51 33.9375 17.973 33.2775C17.6608 32.8895 17.4034 32.4605 17.208 32.0025L17.202 31.9875C17.1457 31.8379 17.043 31.7087 16.9089 31.6215C16.7749 31.5344 16.6165 31.4923 16.4569 31.5015C16.2973 31.5108 16.1448 31.5707 16.0217 31.6727C15.8986 31.7747 15.8113 31.9134 15.7725 32.0685L15.7695 32.0805L15.7485 32.1495C15.6115 32.5624 15.4095 32.9508 15.15 33.3C14.6895 33.915 13.956 34.5 12.75 34.5C12.5511 34.5 12.3603 34.579 12.2197 34.7196C12.079 34.8603 12 35.0511 12 35.25C12 35.4489 12.079 35.6397 12.2197 35.7803C12.3603 35.921 12.5511 36 12.75 36C14.544 36 15.6855 35.088 16.35 34.2C16.425 34.0995 16.497 33.9975 16.56 33.8985C16.6365 34.005 16.719 34.1145 16.809 34.224C17.49 35.064 18.621 36 20.25 36C21.879 36 23.007 35.0625 23.688 34.2225C23.7956 34.0898 23.8977 33.9526 23.994 33.8115C24.0885 33.9465 24.192 34.086 24.3045 34.2255C24.99 35.0655 26.121 36 27.75 36C29.379 36 30.51 35.064 31.191 34.224C31.278 34.1175 31.359 34.011 31.434 33.906C31.4985 34.0065 31.569 34.11 31.644 34.212C32.31 35.106 33.4545 36.0225 35.259 36C35.3575 35.9988 35.4548 35.9782 35.5453 35.9394C35.6359 35.9007 35.7179 35.8444 35.7867 35.7739C35.8555 35.7035 35.9098 35.6201 35.9464 35.5287C35.983 35.4372 36.0012 35.3395 36 35.241C35.9988 35.1425 35.9782 35.0452 35.9395 34.9546C35.9007 34.8641 35.8444 34.7821 35.774 34.7133C35.7035 34.6445 35.6201 34.5902 35.5287 34.5536C35.4373 34.517 35.3395 34.4988 35.241 34.5C34.0365 34.515 33.306 33.9315 32.8485 33.3165C32.5889 32.964 32.3879 32.5719 32.253 32.1555L32.232 32.085Z" fill="white"/>
</svg>
