<svg width="48" height="48" viewBox="0 0 48 48" fill="none" xmlns="http://www.w3.org/2000/svg">
<path d="M0 0H32C40.8366 0 48 7.16344 48 16V48H16C7.16344 48 0 40.8366 0 32V0Z" fill="#0090D0"/>
<path d="M13.6064 28.3052C13.041 26.9403 12.75 25.4774 12.75 24C12.75 22.5226 13.041 21.0597 13.6064 19.6948C14.1717 18.3299 15.0004 17.0897 16.045 16.045C17.0897 15.0004 18.3299 14.1717 19.6948 13.6064C21.0597 13.041 22.5226 12.75 24 12.75C25.4774 12.75 26.9403 13.041 28.3052 13.6064C29.6701 14.1717 30.9103 15.0004 31.955 16.045C32.9996 17.0897 33.8283 18.3299 34.3936 19.6948C34.959 21.0597 35.25 22.5226 35.25 24C35.25 25.4774 34.959 26.9403 34.3936 28.3052C33.8283 29.6701 32.9996 30.9103 31.955 31.955C30.9103 32.9996 29.6701 33.8283 28.3052 34.3936C26.9403 34.959 25.4774 35.25 24 35.25C22.5226 35.25 21.0597 34.959 19.6948 34.3936C18.3299 33.8283 17.0897 32.9996 16.045 31.955C15.0004 30.9103 14.1717 29.6701 13.6064 28.3052Z" stroke="white" stroke-width="1.5" stroke-linecap="round" stroke-linejoin="round"/>
<path d="M20 20.25C20 20.25 20.0076 20.25 20.0125 20.25" stroke="white" stroke-width="2" stroke-linecap="round" stroke-linejoin="round"/>
<path d="M28 20.25C28 20.25 28.0076 20.25 28.0125 20.25" stroke="white" stroke-width="2" stroke-linecap="round" stroke-linejoin="round"/>
<path d="M19 25.25C19 26.5761 19.5268 27.8479 20.4645 28.7855C21.4021 29.7232 22.6739 30.25 24 30.25C25.3261 30.25 26.5979 29.7232 27.5355 28.7855C28.4732 27.8479 29 26.5761 29 25.25H19Z" stroke="white" stroke-width="1.5" stroke-linecap="round" stroke-linejoin="round"/>
</svg>
