<svg width="1919" height="1844" viewBox="0 0 1919 1844" fill="none" xmlns="http://www.w3.org/2000/svg">
<g clip-path="url(#clip0_728_6482)">
<path fill-rule="evenodd" clip-rule="evenodd" d="M2247.52 -88.8428L3367.12 -88.7304V-88.5299C3367.12 117.579 3200.03 284.666 2993.92 284.666H2993.72V284.559L1910.59 284.826C1910.48 490.848 1743.43 657.827 1537.38 657.827H1537.18V657.714L418.375 657.827V657.626C418.375 451.671 585.207 284.688 791.102 284.431L790.984 284.313L1874.92 284.27C1875.02 78.4094 2041.81 -88.465 2247.64 -88.7301L2247.52 -88.8428ZM2248.29 -88.4417V-88.3295L2248.09 -88.3294C2042.21 -88.3081 1875.32 78.5886 1875.32 284.471V284.671L791.749 284.714V284.831H791.548C585.736 284.847 418.884 451.636 418.776 657.426L1537.58 657.313V657.426C1743.38 657.317 1910.19 490.451 1910.19 284.626V284.425L2994.12 284.158V284.265C3199.85 284.156 3366.61 117.399 3366.72 -88.3295L2248.29 -88.4417Z" fill="#002F87" fill-opacity="0.5"/>
<path fill-rule="evenodd" clip-rule="evenodd" d="M1273.53 -282.986L2393.13 -282.874V-282.674C2393.13 -76.5647 2226.04 90.522 2019.93 90.522H2019.73V90.4152L936.592 90.6824C936.484 296.704 769.437 463.683 563.387 463.683H563.187V463.571L-555.613 463.683V463.482C-555.613 257.528 -388.782 90.5443 -182.887 90.2871L-183.005 90.1692L900.928 90.1264C901.036 -115.734 1067.82 -282.614 1273.64 -282.874L1273.53 -282.986ZM1274.3 -282.585V-282.473L1274.1 -282.473C1068.22 -282.457 901.329 -115.555 901.329 90.3269V90.5274L-182.24 90.5702V90.6878H-182.44C-388.252 90.7039 -555.104 257.492 -555.212 463.282L563.588 463.17V463.282C769.391 463.173 936.191 296.308 936.191 90.482V90.2815L2020.13 90.0141V90.1209C2225.86 90.0127 2392.62 -76.7447 2392.73 -282.473L1274.3 -282.585Z" fill="#002F87" fill-opacity="0.5"/>
<path fill-rule="evenodd" clip-rule="evenodd" d="M-478.729 -88.8428L640.868 -88.7304V-88.5299C640.868 117.579 473.779 284.666 267.668 284.666H267.468V284.559L-815.673 284.826C-815.782 490.848 -982.829 657.827 -1188.87 657.827H-1189.07V657.714L-2307.88 657.827V657.626C-2307.88 451.671 -2141.05 284.688 -1935.15 284.431L-1935.27 284.313L-851.338 284.27C-851.23 78.4094 -684.443 -88.465 -478.617 -88.7301L-478.729 -88.8428ZM-477.964 -88.4417V-88.3295L-478.165 -88.3294C-684.044 -88.3081 -850.937 78.5886 -850.937 284.471V284.671L-1934.51 284.714V284.831H-1934.71C-2140.52 284.847 -2307.37 451.636 -2307.48 657.426L-1188.67 657.313V657.426C-982.875 657.317 -816.074 490.451 -816.074 284.626V284.425L267.868 284.158V284.265C473.599 284.156 640.358 117.399 640.467 -88.3295L-477.964 -88.4417Z" fill="#002F87" fill-opacity="0.5"/>
<path fill-rule="evenodd" clip-rule="evenodd" d="M2710.46 553.592L3830.06 553.704V553.905C3830.06 760.013 3662.97 927.1 3456.86 927.1H3456.66V926.993L2373.53 927.261C2373.42 1133.28 2206.38 1300.26 2000.33 1300.26H2000.13V1300.15L881.328 1300.26V1300.06C881.328 1094.11 1048.16 927.122 1254.05 926.865L1253.94 926.747L2337.85 926.705C2337.96 720.844 2504.75 553.964 2710.57 553.704L2710.46 553.592ZM2711.23 553.993V554.105L2711.03 554.105C2505.15 554.121 2338.25 721.023 2338.25 926.905V927.106L1254.7 927.148V927.266H1254.5C1048.69 927.282 881.838 1094.07 881.729 1299.86L2000.53 1299.75V1299.86C2206.33 1299.75 2373.13 1132.89 2373.13 927.06V926.86L3457.06 926.592V926.699C3662.79 926.591 3829.55 759.833 3829.66 554.105L2711.23 553.993Z" fill="#002F87" fill-opacity="0.5"/>
<path fill-rule="evenodd" clip-rule="evenodd" d="M1736.47 359.438L2856.07 359.55V359.75C2856.07 565.859 2688.98 732.946 2482.86 732.946H2482.66V732.834L1399.53 733.101C1399.42 939.123 1232.37 1106.1 1026.32 1106.1H1026.12V1105.99L-92.6797 1106.1V1105.9C-92.6797 899.953 74.1353 732.974 280.026 732.706L279.9 732.588L1363.86 732.55C1363.97 526.69 1530.75 359.81 1736.58 359.55L1736.47 359.438ZM1737.23 359.839V359.951L1737.03 359.951C1531.15 359.967 1364.26 526.869 1364.26 732.751V732.951L280.694 732.989V733.106H280.493C74.676 733.122 -92.1703 899.911 -92.2786 1105.7L1026.52 1105.59V1105.7C1232.32 1105.59 1399.12 938.726 1399.12 732.901V732.7L2483.06 732.433V732.545C2688.8 732.437 2855.56 565.679 2855.67 359.951L1737.23 359.839Z" fill="#002F87" fill-opacity="0.5"/>
<path fill-rule="evenodd" clip-rule="evenodd" d="M-15.7933 553.592L1103.79 553.709V553.91C1103.79 760.019 936.705 927.106 730.589 927.106H730.388V926.999L-352.747 927.266C-352.856 1133.29 -519.903 1300.27 -725.947 1300.27H-726.148V1300.15L-1844.95 1300.27V1300.07C-1844.95 1094.11 -1678.12 927.128 -1472.23 926.871L-1472.34 926.753L-388.401 926.705C-388.293 720.844 -221.506 553.965 -15.6805 553.704L-15.7933 553.592ZM-15.0278 553.993V554.105L-15.2283 554.105C-221.107 554.121 -388 721.023 -388 926.905V927.106L-1471.58 927.154V927.271H-1471.78C-1677.59 927.287 -1844.44 1094.08 -1844.55 1299.87L-725.747 1299.75V1299.87C-519.949 1299.76 -353.148 1132.89 -353.148 927.065V926.865L730.789 926.598V926.705C936.525 926.596 1103.28 759.839 1103.39 554.11L-15.0278 553.993Z" fill="#002F87" fill-opacity="0.5"/>
<path fill-rule="evenodd" clip-rule="evenodd" d="M3173.4 1196.03L4293 1196.14V1196.34C4293 1402.45 4125.91 1569.54 3919.8 1569.54H3919.6V1569.42L2836.46 1569.69C2836.35 1775.71 2669.3 1942.69 2463.26 1942.69H2463.06V1942.58L1344.25 1942.69V1942.49C1344.25 1736.54 1511.08 1569.56 1716.97 1569.29L1716.86 1569.18L2800.79 1569.14C2800.9 1363.28 2967.69 1196.4 3173.51 1196.14L3173.4 1196.03ZM3174.16 1196.43V1196.54L3173.96 1196.54C2968.09 1196.56 2801.19 1363.46 2801.19 1569.34V1569.54L1717.62 1569.58V1569.69L1717.42 1569.69C1511.61 1569.71 1344.76 1736.5 1344.65 1942.29L2463.46 1942.18V1942.29C2669.25 1942.18 2836.05 1775.31 2836.05 1569.49V1569.29L3920 1569.02V1569.13C4125.73 1569.03 4292.49 1402.27 4292.6 1196.54L3174.16 1196.43Z" fill="#002F87" fill-opacity="0.5"/>
<path fill-rule="evenodd" clip-rule="evenodd" d="M2199.42 1001.89L3319 1002.01V1002.21C3319 1208.32 3151.92 1375.4 2945.8 1375.4H2945.6V1375.29L1862.46 1375.56C1862.36 1581.58 1695.31 1748.56 1489.26 1748.56H1489.06V1748.45L370.258 1748.56V1748.36C370.258 1542.41 537.081 1375.43 742.974 1375.16L742.861 1375.05L1826.79 1375.01C1826.9 1169.14 1993.7 1002.26 2199.53 1002.01L2199.42 1001.89ZM2200.17 1002.29V1002.41L2199.97 1002.41C1994.09 1002.42 1827.19 1169.33 1827.19 1375.21V1375.41L743.626 1375.45V1375.56L743.426 1375.56C537.614 1375.58 370.767 1542.37 370.659 1748.16L1489.46 1748.05V1748.16C1695.26 1748.05 1862.06 1581.18 1862.06 1375.36V1375.16L2946 1374.89V1375C3151.74 1374.89 3318.49 1208.14 3318.6 1002.41L2200.17 1002.29Z" fill="#002F87" fill-opacity="0.5"/>
<path fill-rule="evenodd" clip-rule="evenodd" d="M447.141 1196.03L1566.74 1196.14V1196.34C1566.74 1402.45 1399.65 1569.54 1193.53 1569.54H1193.33V1569.42L110.198 1569.69C110.089 1775.71 -56.9578 1942.69 -263.002 1942.69H-263.203V1942.58L-1382.01 1942.69V1942.49C-1382.01 1736.54 -1215.18 1569.56 -1009.29 1569.29L-1009.4 1569.18L74.5331 1569.14C74.6414 1363.28 241.428 1196.4 447.254 1196.14L447.141 1196.03ZM447.907 1196.43V1196.54L447.706 1196.54C241.827 1196.56 74.9341 1363.46 74.9341 1569.34V1569.54L-1008.63 1569.58V1569.69L-1008.83 1569.69C-1214.65 1569.71 -1381.5 1736.5 -1381.61 1942.29L-262.802 1942.18V1942.29C-57.004 1942.18 109.797 1775.31 109.797 1569.49V1569.29L1193.73 1569.02V1569.13C1399.47 1569.03 1566.23 1402.27 1566.34 1196.54L447.907 1196.43Z" fill="#002F87" fill-opacity="0.5"/>
<path fill-rule="evenodd" clip-rule="evenodd" d="M-526.833 1001.89L592.743 1002.01V1002.21C592.743 1208.32 425.654 1375.4 219.543 1375.4H219.343V1375.29L-863.793 1375.56C-863.901 1581.58 -1030.95 1748.56 -1237 1748.56H-1237.2V1748.45L-2356 1748.56V1748.36C-2356 1542.41 -2189.18 1375.43 -1983.28 1375.16L-1983.39 1375.05L-899.463 1375.01C-899.355 1169.14 -732.557 1002.26 -526.722 1002.01L-526.833 1001.89ZM-526.089 1002.29V1002.41L-526.29 1002.41C-732.169 1002.42 -899.062 1169.33 -899.062 1375.21V1375.41L-1982.63 1375.45V1375.56L-1982.83 1375.56C-2188.64 1375.58 -2355.49 1542.37 -2355.6 1748.16L-1236.8 1748.05V1748.16C-1030.99 1748.05 -864.194 1581.18 -864.194 1375.36V1375.16L219.743 1374.89V1375C425.474 1374.89 592.233 1208.14 592.342 1002.41L-526.089 1002.29Z" fill="#002F87" fill-opacity="0.5"/>
<path fill-rule="evenodd" clip-rule="evenodd" d="M2662.36 1644.3L3781.94 1644.42V1644.62C3781.94 1850.73 3614.85 2017.82 3408.74 2017.82H3408.54V2017.7L2325.41 2017.98C2325.3 2223.99 2158.26 2390.97 1952.21 2390.97H1952.01V2390.87L833.211 2390.98V2390.78C833.211 2184.82 1000.03 2017.84 1205.93 2017.58L1205.81 2017.46L2289.73 2017.42C2289.84 1811.55 2456.64 1644.67 2662.47 1644.42L2662.36 1644.3ZM2663.1 1644.7V1644.82L2662.9 1644.82C2457.02 1644.84 2290.13 1811.74 2290.13 2017.62V2017.82L1206.58 2017.86V2017.98H1206.38C1000.57 2017.99 833.72 2184.79 833.612 2390.58L1952.41 2390.46V2390.57C2158.21 2390.46 2325.01 2223.6 2325.01 2017.78V2017.58L3408.94 2017.3V2017.42C3614.67 2017.31 3781.43 1850.55 3781.54 1644.82L2663.1 1644.7Z" fill="#002F87" fill-opacity="0.5"/>
<path fill-rule="evenodd" clip-rule="evenodd" d="M910.074 1838.47L2029.68 1838.59V1838.79C2029.68 2044.9 1862.59 2211.99 1656.47 2211.99H1656.27V2211.87L573.135 2212.15C573.027 2418.16 405.98 2585.14 199.93 2585.14H199.73V2585.04L-919.07 2585.15V2584.95C-919.07 2378.99 -752.242 2212.01 -546.349 2211.75L-546.462 2211.63L537.47 2211.57C537.579 2005.71 704.361 1838.83 910.192 1838.59L910.074 1838.47ZM910.844 1838.87V1838.99H910.644C704.759 1838.99 537.871 2005.89 537.871 2211.78V2211.98L-545.697 2212.03V2212.15H-545.897C-751.709 2212.16 -918.561 2378.96 -918.669 2584.75L200.131 2584.63V2584.74C405.933 2584.63 572.734 2417.77 572.734 2211.95V2211.75L1656.67 2211.47V2211.59C1862.41 2211.48 2029.17 2044.72 2029.28 1838.99L910.844 1838.87Z" fill="#002F87" fill-opacity="0.5"/>
<path fill-rule="evenodd" clip-rule="evenodd" d="M-63.8943 1644.3L1055.68 1644.42V1644.62C1055.67 1850.73 888.593 2017.82 682.482 2017.82H682.281V2017.7L-400.865 2017.98C-400.973 2223.99 -568.015 2390.97 -774.064 2390.97H-774.265V2390.87L-1893.07 2390.98V2390.78C-1893.07 2184.82 -1726.24 2017.84 -1520.35 2017.58L-1520.46 2017.46L-436.524 2017.42C-436.416 1811.55 -269.618 1644.67 -63.7837 1644.42L-63.8943 1644.3ZM-63.1503 1644.7V1644.82L-63.3507 1644.82C-269.23 1644.84 -436.123 1811.74 -436.123 2017.62V2017.82L-1519.7 2017.86V2017.98H-1519.9C-1725.71 2017.99 -1892.56 2184.79 -1892.67 2390.58L-773.864 2390.46V2390.57C-568.061 2390.46 -401.266 2223.6 -401.266 2017.78V2017.58L682.683 2017.3V2017.42C888.413 2017.31 1055.16 1850.55 1055.28 1644.82L-63.1503 1644.7Z" fill="#002F87" fill-opacity="0.5"/>
</g>
<defs>
<clipPath id="clip0_728_6482">
<rect width="1919" height="1844" fill="white"/>
</clipPath>
</defs>
</svg>
