<svg width="24" height="24" viewBox="0 0 24 24" fill="none" xmlns="http://www.w3.org/2000/svg">
<g id="Icon/search">
<path id="Vector (Stroke)" fill-rule="evenodd" clip-rule="evenodd" d="M10.05 4.5C6.98482 4.5 4.5 6.98482 4.5 10.05C4.5 13.1152 6.98482 15.6 10.05 15.6C13.1152 15.6 15.6 13.1152 15.6 10.05C15.6 6.98482 13.1152 4.5 10.05 4.5ZM3.5 10.05C3.5 6.43253 6.43254 3.5 10.05 3.5C13.6675 3.5 16.6 6.43254 16.6 10.05C16.6 13.6675 13.6675 16.6 10.05 16.6C6.43254 16.6 3.5 13.6675 3.5 10.05Z" fill="#98AACE"/>
<path id="Vector (Stroke)_2" fill-rule="evenodd" clip-rule="evenodd" d="M15.4062 15.4265C15.6015 15.2312 15.9181 15.2312 16.1133 15.4265L21.0433 20.3565C21.2386 20.5517 21.2386 20.8683 21.0433 21.0636C20.8481 21.2588 20.5315 21.2588 20.3362 21.0636L15.4062 16.1336C15.211 15.9383 15.211 15.6217 15.4062 15.4265Z" fill="#98AACE"/>
</g>
</svg>
