<svg width="1306" height="509" viewBox="0 0 1306 509" fill="none" xmlns="http://www.w3.org/2000/svg">
<g clip-path="url(#clip0_2110_43327)">
<path d="M1202.8 83.2779L402.969 83.037C402.991 46.8369 395.891 10.9869 382.074 -22.4659C368.258 -55.9186 347.995 -86.3189 322.444 -111.931C296.892 -137.543 266.552 -157.865 233.156 -171.737C199.76 -185.609 163.962 -192.758 127.806 -192.778L-698 -193C-698.01 -156.801 -690.898 -120.955 -677.071 -87.5084C-663.245 -54.0615 -642.974 -23.6688 -617.415 1.93433C-591.857 27.5375 -561.513 47.8498 -528.114 61.7114C-494.715 75.573 -458.917 82.7124 -422.762 82.7222V82.6295L376.957 83.0556C376.95 119.257 384.064 155.105 397.894 188.553C411.724 222.001 431.999 252.394 457.56 277.998C483.122 303.601 513.47 323.912 546.872 337.773C580.273 351.633 616.075 358.77 652.232 358.778V358.685L1478 359C1478.01 322.804 1470.9 286.96 1457.08 253.514C1443.26 220.069 1422.99 189.677 1397.43 164.073C1371.88 138.47 1341.54 118.157 1308.14 104.294C1274.75 90.4315 1238.95 83.29 1202.8 83.2779Z" fill="url(#paint0_linear_2110_43327)" fill-opacity="0.05"/>
<path d="M340.833 138H-485C-485.015 174.174 -477.904 209.997 -464.075 243.422C-450.246 276.846 -429.97 307.218 -404.404 332.801C-378.838 358.385 -348.484 378.678 -315.076 392.523C-281.667 406.368 -245.859 413.493 -209.698 413.491L590.013 413.676C590.028 486.698 619.035 556.725 670.655 608.356C722.275 659.987 792.281 688.995 865.278 689H1691C1691 615.969 1661.99 545.931 1610.37 494.289C1558.75 442.647 1488.74 413.63 1415.73 413.62H615.913C615.948 340.587 586.981 270.53 535.384 218.859C483.787 167.189 413.786 138.137 340.777 138.093L340.833 138Z" fill="url(#paint1_linear_2110_43327)" fill-opacity="0.05"/>
</g>
<defs>
<linearGradient id="paint0_linear_2110_43327" x1="-698" y1="-193" x2="95.5766" y2="1166.16" gradientUnits="userSpaceOnUse">
<stop stop-color="#0092D7"/>
<stop offset="1" stop-color="#012E89"/>
</linearGradient>
<linearGradient id="paint1_linear_2110_43327" x1="-485" y1="138" x2="306.432" y2="1495.95" gradientUnits="userSpaceOnUse">
<stop stop-color="#0092D7"/>
<stop offset="1" stop-color="#012E89"/>
</linearGradient>
<clipPath id="clip0_2110_43327">
<rect width="1306" height="509" fill="white"/>
</clipPath>
</defs>
</svg>
