<svg width="41" height="40" viewBox="0 0 41 40" fill="none" xmlns="http://www.w3.org/2000/svg">
  <path fill-rule="evenodd" clip-rule="evenodd"
    d="M7.16669 34.1665L14.5 31.8332C16.4167 32.9165 18.6667 33.4998 21 33.4998C28.4167 33.4998 34.4167 27.4998 34.4167 20.0832C34.4167 12.6665 28.4167 6.6665 21 6.6665C13.5833 6.6665 7.58335 12.6665 7.58335 20.0832C7.58335 22.5832 8.25001 24.9998 9.50001 26.9998L7.16669 34.1665ZM17.4167 13.9998C19.1667 13.9998 20.9167 13.9998 22.6667 13.9998C24.6667 13.9998 26 15.8332 26 17.6665C26 18.9165 25.8334 19.4998 25.25 20.1665C25.9167 20.7498 26.3334 21.4998 26.3334 22.7498C26.3334 25.0832 24.5 26.5832 22.8333 26.5832C21.0833 26.5832 19.3334 26.5832 17.5834 26.5832C16.9167 26.5832 16.5833 26.2498 16.5833 25.5832C16.5833 21.9998 16.5833 18.4165 16.5833 14.8332C16.5833 14.4165 16.75 13.9998 17.4167 13.9998ZM19 21.5832H22.75C23.3334 21.5832 23.8334 22.0832 23.8334 22.6665V23.1665C23.8334 23.7498 23.3334 24.2498 22.75 24.2498H19V21.5832ZM19 16.4165H22.5C23.0833 16.4165 23.5834 16.9165 23.5834 17.4998V17.9998C23.5834 18.5832 23.0833 19.0832 22.5 19.0832H19V16.4165ZM21 8.83317C27.1667 8.83317 32.25 13.8332 32.25 20.0832C32.25 26.2498 27.25 31.3332 21 31.3332C18.75 31.3332 16.5834 30.6665 14.8334 29.4998L10.5833 30.8332L12 26.7498C10.6667 24.9165 9.83336 22.5832 9.83336 20.0832C9.75003 13.8332 14.75 8.83317 21 8.83317Z"
    fill="#003083" />
</svg>