<svg width="15" height="30" viewBox="0 0 15 30" fill="none" xmlns="http://www.w3.org/2000/svg">
<g id="Group">
<g id="Group_2">
<path id="Vector" d="M0.833336 9.25016H3.83334V7.66683C3.83334 5.91683 4.00001 4.66683 4.41667 3.75016C4.75001 2.91683 5.50001 2.16683 6.41667 1.66683C7.41667 1.16683 8.66667 0.833496 10.1667 0.833496C11.75 0.833496 13.25 1.0835 14.75 1.50016L14 5.41683C13.1667 5.25016 12.3333 5.0835 11.5 5.0835C10.75 5.0835 10.1667 5.25016 9.83334 5.66683C9.50001 6.00016 9.33334 6.75016 9.33334 7.8335V9.25016H13.4167V13.5835H9.33334V29.9168H3.91667V13.5835H0.916674V9.25016H0.833336Z" fill="#003083"/>
</g>
</g>
</svg>
