<svg width="23" height="21" viewBox="0 0 23 21" fill="none" xmlns="http://www.w3.org/2000/svg">
  <g id="Group">
    <g id="Group_2">
      <path id="Vector"
        d="M0.666656 3.75016V0.0834961H4.66665V3.75016H0.666656ZM0.666656 20.8335V5.75016H4.66665V20.8335H0.666656Z"
        fill="#003083" />
    </g>
    <g id="Group_3">
      <path id="Vector_2"
        d="M22.4166 20.8337H18.4166V13.167C18.4166 11.5003 18.3333 10.5003 18.1666 10.0003C18 9.50033 17.75 9.16699 17.3333 8.91699C16.9166 8.66699 16.5 8.50032 15.9166 8.50032C15.25 8.50032 14.5833 8.66699 14.0833 9.08366C13.5 9.41699 13.1666 9.91699 12.9166 10.5837C12.75 11.167 12.5833 12.3337 12.5833 14.0837V20.917H8.58331V5.75032H12.25V8.00032C13.5833 6.33366 15.25 5.41699 17.25 5.41699C18.1666 5.41699 18.9166 5.58366 19.6666 5.91699C20.4166 6.25032 20.9166 6.66699 21.3333 7.16699C21.6666 7.66699 22 8.25032 22.0833 8.83366C22.25 9.41699 22.3333 10.3337 22.3333 11.5003V20.8337H22.4166Z"
        fill="#003083" />
    </g>
  </g>
</svg>