<svg width="41" height="40" viewBox="0 0 41 40" fill="none" xmlns="http://www.w3.org/2000/svg">
<path d="M20.5834 33.6667C19.3334 33.6667 18 33.6667 16.75 33.6667C15.5 33.6667 14.2501 33.6667 13.0834 33.3333C10.1667 32.5833 8.33339 30.75 7.66672 27.8333C7.41672 26.8333 7.41672 25.8333 7.41672 24.8333C7.41672 21.9167 7.41672 19 7.41672 16.0833C7.41672 14.9167 7.50005 13.6667 7.83338 12.5C8.66672 9.75 10.5001 8.16667 13.2501 7.5C14.2501 7.25 15.2501 7.25 16.2501 7.25C19.1667 7.25 22.0834 7.25 25.0001 7.25C26.1667 7.25 27.3334 7.33333 28.5001 7.66667C31.3334 8.41667 33 10.3333 33.5834 13.0833C33.8334 14.25 33.8334 15.5 33.8334 16.6667C33.8334 19.1667 33.8334 21.75 33.8334 24.25C33.8334 25.5 33.8334 26.75 33.5001 28C32.7501 31 30.9167 32.75 27.9167 33.4167C26.7501 33.6667 25.5834 33.6667 24.4167 33.6667C23.1667 33.6667 21.8334 33.6667 20.5834 33.6667ZM20.5834 9.5C19.5001 9.5 18.4167 9.5 17.4167 9.58333C16.1667 9.58333 15.0001 9.58333 13.7501 9.83333C11.8334 10.25 10.5834 11.3333 10.0834 13.25C9.83338 14.0833 9.83339 15 9.75005 15.8333C9.75005 18.5833 9.66672 21.25 9.75005 24C9.75005 25.0833 9.75005 26.25 10 27.3333C10.4167 29.25 11.5 30.5 13.4167 31C14.25 31.25 15.0834 31.25 15.9167 31.25C19.0834 31.25 22.2501 31.25 25.4167 31.25C26.0834 31.25 26.8334 31.1667 27.5001 31.0833C29.4167 30.75 30.7501 29.5833 31.2501 27.6667C31.5001 26.8333 31.5 25.9167 31.5 25.0833C31.5 22 31.5 18.9167 31.5 15.8333C31.5 15 31.4167 14.25 31.2501 13.5C30.9167 12.1667 30.25 11.0833 29 10.4167C28.0834 9.91667 27.1667 9.75 26.1667 9.75C24.25 9.58333 22.4167 9.58333 20.5834 9.5Z" fill="#003083"/>
<path d="M20.5834 13.6667C24.4167 13.6667 27.4167 16.75 27.4167 20.5C27.4167 24.25 24.3334 27.25 20.5834 27.25C16.8334 27.25 13.8334 24.1667 13.8334 20.3334C13.8334 16.6667 16.8334 13.5834 20.5834 13.6667ZM20.5834 16C18.1667 16 16.1667 18 16.1667 20.4167C16.1667 22.8334 18.1667 24.8334 20.5834 24.8334C23 24.8334 25 22.8334 25 20.4167C25 18 23 16 20.5834 16Z" fill="#003083"/>
<path d="M27.6667 14.9167C26.8334 14.9167 26.0834 14.25 26.0834 13.3333C26.0834 12.5 26.75 11.75 27.6667 11.75C28.5834 11.75 29.25 12.4167 29.3334 13.3333C29.25 14.1667 28.5834 14.9167 27.6667 14.9167Z" fill="#003083"/>
</svg>