<svg width="25" height="25" viewBox="0 0 25 25" fill="none" xmlns="http://www.w3.org/2000/svg">
<path fill-rule="evenodd" clip-rule="evenodd" d="M12.1281 3.64999C7.56175 3.64999 3.85999 7.35176 3.85999 11.9181C3.85999 16.4845 7.56175 20.1862 12.1281 20.1862C16.6945 20.1862 20.3962 16.4845 20.3962 11.9181C20.3962 7.35176 16.6945 3.64999 12.1281 3.64999ZM2.85999 11.9181C2.85999 6.79947 7.00946 2.64999 12.1281 2.64999C17.2467 2.64999 21.3962 6.79947 21.3962 11.9181C21.3962 17.0367 17.2467 21.1862 12.1281 21.1862C7.00946 21.1862 2.85999 17.0367 2.85999 11.9181Z" fill="#002F87"/>
<path fill-rule="evenodd" clip-rule="evenodd" d="M6.15612 9.25872C4.62698 10.0422 3.85999 11.0349 3.85999 11.9906C3.85999 12.9462 4.62698 13.9389 6.15612 14.7225C7.65872 15.4924 9.76937 15.9833 12.1281 15.9833C14.4868 15.9833 16.5975 15.4924 18.1001 14.7225C19.6292 13.9389 20.3962 12.9462 20.3962 11.9906C20.3962 11.0349 19.6292 10.0422 18.1001 9.25872C16.5975 8.48879 14.4868 7.99783 12.1281 7.99783C9.76937 7.99783 7.65872 8.48879 6.15612 9.25872ZM5.7001 8.36874C7.37093 7.51262 9.64434 6.99783 12.1281 6.99783C14.6119 6.99783 16.8853 7.51262 18.5561 8.36874C20.2004 9.21128 21.3962 10.465 21.3962 11.9906C21.3962 13.5162 20.2004 14.7699 18.5561 15.6124C16.8853 16.4686 14.6119 16.9833 12.1281 16.9833C9.64434 16.9833 7.37093 16.4686 5.7001 15.6124C4.0558 14.7699 2.85999 13.5162 2.85999 11.9906C2.85999 10.465 4.0558 9.21128 5.7001 8.36874Z" fill="#002F87"/>
<path fill-rule="evenodd" clip-rule="evenodd" d="M9.46871 5.94612C8.69878 7.44872 8.20782 9.55938 8.20782 11.9181C8.20782 14.2768 8.69878 16.3875 9.46871 17.8901C10.2522 19.4192 11.2449 20.1862 12.2006 20.1862C13.1562 20.1862 14.1489 19.4192 14.9324 17.8901C15.7024 16.3875 16.1933 14.2768 16.1933 11.9181C16.1933 9.55938 15.7024 7.44872 14.9324 5.94612C14.1489 4.41699 13.1562 3.64999 12.2006 3.64999C11.2449 3.64999 10.2522 4.41699 9.46871 5.94612ZM8.57874 5.49011C9.42127 3.8458 10.675 2.64999 12.2006 2.64999C13.7262 2.64999 14.9799 3.8458 15.8224 5.49011C16.6785 7.16094 17.1933 9.43435 17.1933 11.9181C17.1933 14.4019 16.6785 16.6753 15.8224 18.3461C14.9799 19.9904 13.7262 21.1862 12.2006 21.1862C10.675 21.1862 9.42127 19.9904 8.57874 18.3461C7.72261 16.6753 7.20782 14.4019 7.20782 11.9181C7.20782 9.43435 7.72261 7.16094 8.57874 5.49011Z" fill="#002F87"/>
<path fill-rule="evenodd" clip-rule="evenodd" d="M11.5557 21.15V3.14999H12.5557V21.15H11.5557Z" fill="#002F87"/>
<path fill-rule="evenodd" clip-rule="evenodd" d="M3.35999 11.3456H21.2295V12.3456H3.35999V11.3456Z" fill="#002F87"/>
</svg>
