<svg width="41" height="40" viewBox="0 0 41 40" fill="none" xmlns="http://www.w3.org/2000/svg">
  <path
    d="M21.25 6.41699C17.1667 6.41699 13 8.08366 10.75 11.7503C9.91668 13.0837 9.41667 14.7503 9.33334 16.3337C9.25001 18.667 10.0833 21.2503 12.25 22.417C12.6667 22.667 13.25 22.917 13.5 22.3337C13.6667 21.917 13.75 21.3337 13.9167 20.917C14.0833 20.3337 13.6667 20.0003 13.3334 19.5837C13 19.0837 12.75 18.417 12.6667 17.8337C12.3333 15.8337 13 13.7503 14.25 12.167C15.5834 10.5003 17.5 9.50033 19.5 9.25033C21.5834 9.00033 23.9167 9.33366 25.5833 10.667C27.0833 11.8337 27.75 13.667 27.6667 15.5003C27.6667 17.917 27.0833 20.667 25.3333 22.5003C24.0834 23.8337 21.5833 24.5837 20.1667 22.917C19.3333 21.917 19.6667 20.8337 20 19.7503C20.4167 18.417 21 17.0003 21.1667 15.5837C21.25 14.667 21.0833 13.5837 20.25 13.0003C19.4167 12.417 18.3334 12.5837 17.5 13.0837C15.5834 14.3337 15.4167 17.2503 16.1667 19.167C16.25 19.417 16.1667 19.5837 16.0833 19.917C15.9167 20.5003 15.75 21.167 15.6667 21.7503C15.25 23.3337 14.9167 24.917 14.5 26.5837C14.0834 28.2503 13.75 29.917 13.8334 31.667C13.8334 32.5003 13.9167 33.3337 14.0834 34.0837C14.1667 34.917 14.8334 34.0003 15 33.7503C16.25 32.167 17.1667 30.417 17.6667 28.5003C18 27.2503 18.3334 26.0003 18.6667 24.7503C19.8334 26.8337 22.8333 27.0003 24.8333 26.5003C26.8333 26.0003 28.5 24.7503 29.5834 23.0837C31 21.0837 31.5834 18.5837 31.6667 16.167C31.75 14.167 31.1667 12.3337 30 10.7503C28.0834 7.83366 24.6667 6.41699 21.25 6.41699C27.6667 6.41699 13.4167 6.41699 21.25 6.41699Z"
    fill="#003083" />
</svg>