<svg width="32" height="32" viewBox="0 0 32 32" fill="none" xmlns="http://www.w3.org/2000/svg">
<path fill-rule="evenodd" clip-rule="evenodd" d="M4 5.04803C4 4.46922 4.46922 4 5.04803 4H26.952C27.5308 4 28 4.46922 28 5.04803V26.952C28 27.5308 27.5308 28 26.952 28H5.04803C4.46922 28 4 27.5308 4 26.952V5.04803ZM6.09607 6.09607V25.9039H25.9039V6.09607H6.09607Z" fill="white"/>
<path fill-rule="evenodd" clip-rule="evenodd" d="M15.9257 9.42358C15.3734 9.42358 14.9257 8.97587 14.9257 8.42358C14.9257 7.8713 15.3734 7.42358 15.9257 7.42358L23.5763 7.42358C24.1286 7.42358 24.5763 7.8713 24.5763 8.42358L24.5763 16.0742C24.5763 16.6265 24.1286 17.0742 23.5763 17.0742C23.024 17.0742 22.5763 16.6265 22.5763 16.0742L22.5763 11.0325L18.2912 15.3176C17.8819 15.7269 17.2183 15.7269 16.809 15.3176C16.3998 14.9083 16.3998 14.2447 16.809 13.8354L21.2209 9.42358L15.9257 9.42358Z" fill="white"/>
<path fill-rule="evenodd" clip-rule="evenodd" d="M9.92566 15.4236C9.92566 14.8713 9.47794 14.4236 8.92566 14.4236C8.37337 14.4236 7.92566 14.8713 7.92566 15.4236V23.0742C7.92566 23.6265 8.37337 24.0742 8.92566 24.0742H16.5763C17.1286 24.0742 17.5763 23.6265 17.5763 23.0742C17.5763 22.5219 17.1286 22.0742 16.5763 22.0742H11.5345L15.8197 17.7891C16.2289 17.3798 16.2289 16.7162 15.8197 16.307C15.4104 15.8977 14.7468 15.8977 14.3375 16.307L9.92566 20.7188V15.4236Z" fill="white"/>
</svg>
