<svg width="25" height="25" viewBox="0 0 25 25" fill="none" xmlns="http://www.w3.org/2000/svg">
<path fill-rule="evenodd" clip-rule="evenodd" d="M10.41 4.64999C7.34481 4.64999 4.85999 7.13481 4.85999 10.2C4.85999 13.2652 7.34481 15.75 10.41 15.75C13.4752 15.75 15.96 13.2652 15.96 10.2C15.96 7.13481 13.4752 4.64999 10.41 4.64999ZM3.85999 10.2C3.85999 6.58253 6.79252 3.64999 10.41 3.64999C14.0275 3.64999 16.96 6.58253 16.96 10.2C16.96 13.8175 14.0275 16.75 10.41 16.75C6.79252 16.75 3.85999 13.8175 3.85999 10.2Z" fill="#002F87"/>
<path fill-rule="evenodd" clip-rule="evenodd" d="M15.7664 15.5765C15.9617 15.3812 16.2783 15.3812 16.4735 15.5765L21.4035 20.5065C21.5988 20.7017 21.5988 21.0183 21.4035 21.2136C21.2083 21.4088 20.8917 21.4088 20.6964 21.2136L15.7664 16.2836C15.5712 16.0883 15.5712 15.7717 15.7664 15.5765Z" fill="#002F87"/>
</svg>
