<svg width="41" height="40" viewBox="0 0 41 40" fill="none" xmlns="http://www.w3.org/2000/svg">
  <g id="Component 5">
    <path id="Vector"
      d="M8.41669 27.0832C8.66669 26.9998 8.9167 26.9998 9.1667 26.9165C10.6667 26.4998 11.75 25.5832 12.75 24.4165C13.25 23.7498 13.75 23.0832 14.0834 22.3332C14.1667 22.0832 14.25 21.9165 14.25 21.6665C14.3334 21.1665 14.0834 20.7498 13.75 20.4998C13.4167 20.2498 13 20.0832 12.5834 19.9165C12.25 19.8332 11.9167 19.6665 11.5834 19.4998C11.4167 19.4165 11.25 19.2498 11.1667 19.1665C11 18.9998 11.0834 18.9165 11.1667 18.7498C11.4167 18.4998 11.75 18.4165 12.0834 18.5832C12.5834 18.8332 13.0834 18.9998 13.6667 18.9165C13.8334 18.9165 13.9167 18.8332 14.0834 18.8332C14.4167 18.6665 14.5 18.5832 14.4167 18.2498C14.3334 17.0832 14.3334 15.9165 14.3334 14.8332C14.25 11.9998 16.4167 9.83317 18.5834 9.24984C20.5834 8.66651 22.5 8.74984 24.3334 9.74984C25.75 10.4998 26.6667 11.6665 27.1667 13.1665C27.4167 13.9165 27.4167 14.6665 27.4167 15.4998C27.4167 16.4998 27.3334 17.4165 27.25 18.4165C27.25 18.6665 27.3334 18.7498 27.5 18.9165C27.9167 19.1665 28.3334 19.1665 28.75 18.9998C29 18.9165 29.25 18.8332 29.5 18.7498C29.8334 18.5832 30.25 18.6665 30.5 18.9165C30.6667 19.0832 30.6667 19.1665 30.5 19.3332C30.4167 19.4165 30.25 19.5832 30.0834 19.6665C29.75 19.8332 29.4167 19.9165 29.0834 20.0832C28.75 20.1665 28.5 20.3332 28.25 20.4165C27.5 20.8332 27.25 21.4998 27.5834 22.3332C28.4167 24.2498 29.6667 25.7498 31.5834 26.7498C32.0834 26.9998 32.5834 27.1665 33.0834 27.2498C33.1667 27.2498 33.1667 27.2498 33.25 27.2498C33.25 27.2498 33.25 27.2498 33.25 27.3332C33.1667 27.4165 33 27.5832 32.8334 27.6665C32.4167 27.8332 32 27.9998 31.5 28.1665C31.0834 28.2498 30.6667 28.3332 30.25 28.4165C29.9167 28.4998 29.75 28.5832 29.6667 28.9165C29.5834 29.1665 29.5 29.4998 29.4167 29.7498C29.3334 30.1665 29.3334 30.1665 28.9167 30.0832C28 29.9165 27.0834 29.8332 26.0834 29.9998C25.5 30.0832 25 30.4165 24.5 30.7498C24.0834 30.9998 23.75 31.2498 23.3334 31.4998C21.5 32.6665 19.6667 32.6665 17.8334 31.4998C17.4167 31.2498 17 30.9165 16.5834 30.6665C15.6667 29.9998 14.5834 29.8332 13.5 29.9165C13.0834 29.9165 12.5834 30.0832 12.1667 30.0832C11.9167 30.0832 11.9167 30.0832 11.8334 29.9165C11.75 29.5832 11.6667 29.3332 11.5834 28.9998C11.5 28.6665 11.25 28.4165 10.9167 28.4165C10.1667 28.3332 9.4167 28.1665 8.75004 27.8332C8.58337 27.7498 8.4167 27.6665 8.25003 27.5832C8.58336 27.2498 8.50003 27.1665 8.41669 27.0832Z"
      fill="#003083" />
  </g>
</svg>