<svg width="25" height="25" viewBox="0 0 25 25" fill="none" xmlns="http://www.w3.org/2000/svg">
<path fill-rule="evenodd" clip-rule="evenodd" d="M7.02991 3.67767L9.95038 6.59898L8.44108 8.11893L8.44023 8.11979C8.21611 8.34658 8.05784 8.63009 7.98237 8.93988C7.9069 9.24964 7.917 9.57408 8.01168 9.87858L8.01545 9.8907L8.01983 9.90262C8.57769 11.4204 9.45767 12.7993 10.5992 13.9444L10.6009 13.9461C11.7446 15.0825 13.1177 15.9616 14.6282 16.5248L14.6412 16.5296L14.6544 16.5337C14.9623 16.6295 15.2905 16.6388 15.6032 16.5606C15.9155 16.4825 16.2003 16.3202 16.4267 16.0914C16.427 16.091 16.4274 16.0906 16.4278 16.0902L17.9333 14.5843L20.8324 17.4843L19.3682 18.9387L19.3657 18.9413C19.0696 19.2396 18.7004 19.4549 18.2949 19.5655C17.8895 19.6761 17.4621 19.6782 17.0556 19.5715C14.1444 18.8045 11.4886 17.279 9.35899 15.1505C7.2299 13.0226 5.70278 10.3682 4.93332 7.45768C4.83085 7.04996 4.83586 6.62256 4.94789 6.21731C5.06014 5.81123 5.27603 5.44132 5.57432 5.14386L7.02991 3.67767ZM7.01952 2.65021C7.15098 2.64734 7.28158 2.67292 7.40229 2.72525C7.51831 2.77554 7.62262 2.8494 7.70857 2.9421L10.72 5.95443C10.8042 6.04123 10.8702 6.14386 10.9143 6.25624C10.9585 6.36873 10.9799 6.48887 10.9773 6.60963L10.4774 6.59883L10.9773 6.60731C10.9773 6.60808 10.9773 6.60885 10.9773 6.60963C10.9728 6.83866 10.8862 7.05849 10.7331 7.22901L10.7247 7.23838L9.15152 8.82269L8.79598 8.47134L9.15067 8.82355L9.15152 8.82269C9.05504 8.92046 8.98648 9.04305 8.95395 9.17658C8.92226 9.30666 8.92553 9.44267 8.96333 9.5709C8.9617 9.56648 8.96007 9.56206 8.95844 9.55763L8.48914 9.73012L8.96659 9.58167C8.96548 9.57808 8.96439 9.5745 8.96333 9.5709C9.47148 10.9476 10.2708 12.1983 11.3066 13.2376C11.3063 13.2373 11.306 13.237 11.3057 13.2367L10.9534 13.5914L11.3074 13.2384C11.3072 13.2382 11.3069 13.2379 11.3066 13.2376C12.3456 14.2697 13.592 15.0689 14.9632 15.5824C14.9592 15.5813 14.9553 15.5801 14.9514 15.5789L14.8029 16.0563L14.9776 15.5878C14.9728 15.586 14.968 15.5842 14.9632 15.5824C15.0924 15.6204 15.2296 15.6232 15.3606 15.5904C15.4955 15.5567 15.6185 15.4865 15.7163 15.3876L15.7184 15.3854L17.2931 13.8103L17.3031 13.8013C17.4739 13.6479 17.6941 13.5612 17.9236 13.557C18.044 13.5545 18.1638 13.576 18.2759 13.62C18.3883 13.6642 18.4909 13.7302 18.5777 13.8144L18.5831 13.8197L21.6025 16.8401C21.6864 16.9267 21.7526 17.0292 21.7968 17.1419C21.841 17.2543 21.8624 17.3744 21.8598 17.4952L21.3599 17.4844L21.8598 17.4929C21.8598 17.4937 21.8598 17.4945 21.8598 17.4952C21.8553 17.7244 21.7686 17.9443 21.6156 18.1147L21.606 18.1253L20.0755 19.6456L19.7206 19.2934L20.073 19.6482L20.0743 19.6469C19.6549 20.069 19.1322 20.3736 18.5581 20.5302C17.9835 20.687 17.3778 20.6899 16.8017 20.5387C13.7193 19.7267 10.9069 18.1114 8.65208 15.8579C6.39725 13.6043 4.78015 10.7929 3.96577 7.71036L3.96437 7.70506C3.81879 7.12851 3.82561 6.52399 3.98404 5.95087C4.14236 5.37814 4.44673 4.85639 4.86726 4.43671L6.38883 2.90405L6.39947 2.89449C6.57012 2.7412 6.79021 2.6545 7.01952 2.65021ZM7.01952 2.65021C7.02008 2.6502 7.02063 2.65019 7.02119 2.65018L7.02967 3.15011L7.01786 2.65025C7.01841 2.65024 7.01897 2.65022 7.01952 2.65021ZM17.9236 13.557C17.924 13.557 17.9244 13.557 17.9248 13.557L17.9333 14.0569L17.9225 13.557C17.9229 13.557 17.9233 13.557 17.9236 13.557Z" fill="#002F87"/>
</svg>
