<svg width="687" height="315" viewBox="0 0 687 315" fill="none" xmlns="http://www.w3.org/2000/svg">
<g clip-path="url(#clip0_3215_21469)">
<path d="M354.953 126.091L93.2436 126.012C93.2508 114.208 90.9276 102.517 86.4067 91.609C81.8858 80.7005 75.2557 70.7873 66.8951 62.4356C58.5345 54.0838 48.6071 47.4571 37.6797 42.9337C26.7523 38.4103 15.0389 36.0788 3.20844 36.0725L-267 36C-267.003 47.8039 -264.676 59.4928 -260.152 70.3994C-255.628 81.306 -248.995 91.2167 -240.632 99.5655C-232.269 107.914 -222.34 114.538 -211.412 119.058C-200.484 123.578 -188.771 125.906 -176.941 125.909V125.879L84.7322 126.018C84.7299 137.823 87.0577 149.512 91.583 160.419C96.1082 171.326 102.742 181.237 111.106 189.586C119.47 197.935 129.4 204.558 140.329 209.078C151.259 213.598 162.973 215.925 174.804 215.928V215.897L445 216C445.004 204.197 442.678 192.509 438.155 181.602C433.632 170.696 427 160.786 418.638 152.437C410.277 144.088 400.349 137.464 389.422 132.944C378.494 128.423 366.782 126.095 354.953 126.091Z" fill="url(#paint0_linear_3215_21469)" fill-opacity="0.05"/>
<path d="M526.953 -17.9094L265.244 -17.9879C265.251 -29.7923 262.928 -41.4825 258.407 -52.391C253.886 -63.2995 247.256 -73.2127 238.895 -81.5644C230.535 -89.9162 220.607 -96.5429 209.68 -101.066C198.752 -105.59 187.039 -107.921 175.208 -107.928L-95 -108C-95.0032 -96.1961 -92.6762 -84.5072 -88.1521 -73.6006C-83.6279 -62.694 -76.995 -52.7833 -68.6322 -44.4345C-60.2695 -36.0856 -50.3405 -29.462 -39.4123 -24.9419C-28.484 -20.4219 -16.7706 -18.0938 -4.94061 -18.0906V-18.1208L256.732 -17.9819C256.73 -6.17719 259.058 5.51238 263.583 16.4194C268.108 27.3264 274.742 37.2373 283.106 45.5862C291.47 53.935 301.4 60.5583 312.329 65.078C323.259 69.5977 334.973 71.9251 346.804 71.9275V71.8973L617 72C617.004 60.1969 614.678 48.5086 610.155 37.6024C605.632 26.6963 599 16.7858 590.638 8.43697C582.277 0.0881119 572.349 -6.53568 561.422 -11.0562C550.494 -15.5767 538.782 -17.9054 526.953 -17.9094Z" fill="url(#paint1_linear_3215_21469)" fill-opacity="0.05"/>
<path d="M284.953 301.091L23.2436 301.012C23.2508 289.208 20.9276 277.517 16.4067 266.609C11.8858 255.7 5.25574 245.787 -3.10489 237.436C-11.4655 229.084 -21.3929 222.457 -32.3203 217.934C-43.2477 213.41 -54.9611 211.079 -66.7916 211.072L-337 211C-337.003 222.804 -334.676 234.493 -330.152 245.399C-325.628 256.306 -318.995 266.217 -310.632 274.566C-302.269 282.914 -292.34 289.538 -281.412 294.058C-270.484 298.578 -258.771 300.906 -246.941 300.909V300.879L14.7322 301.018C14.7299 312.823 17.0577 324.512 21.583 335.419C26.1082 346.326 32.7421 356.237 41.106 364.586C49.47 372.935 59.4 379.558 70.3293 384.078C81.2586 388.598 92.973 390.925 104.804 390.928V390.897L375 391C375.004 379.197 372.678 367.509 368.155 356.602C363.632 345.696 357 335.786 348.638 327.437C340.277 319.088 330.349 312.464 319.422 307.944C308.494 303.423 296.782 301.095 284.953 301.091Z" fill="url(#paint2_linear_3215_21469)" fill-opacity="0.05"/>
<path d="M73.2174 144H-197C-197.005 155.817 -194.678 167.52 -190.153 178.439C-185.628 189.358 -178.994 199.28 -170.628 207.637C-162.263 215.995 -152.331 222.625 -141.4 227.147C-130.468 231.67 -118.752 233.998 -106.919 233.997L154.751 234.057C154.755 257.912 164.247 280.789 181.137 297.655C198.027 314.522 220.934 323.998 244.819 324H515C514.998 300.142 505.509 277.262 488.618 260.392C471.728 243.522 448.819 234.043 424.932 234.039H163.225C163.237 210.181 153.758 187.295 136.876 170.415C119.993 153.535 97.088 144.045 73.1992 144.03L73.2174 144Z" fill="url(#paint3_linear_3215_21469)" fill-opacity="0.05"/>
<path d="M245.217 0H-25C-25.0048 11.8174 -22.6782 23.5199 -18.1533 34.439C-13.6284 45.3581 -6.9938 55.2799 1.3715 63.6374C9.7368 71.995 19.6689 78.6245 30.6003 83.1474C41.5317 87.6703 53.2482 89.9978 65.0805 89.997L326.751 90.0574C326.755 113.912 336.247 136.789 353.137 153.655C370.027 170.522 392.934 179.998 416.819 180H687C686.998 156.142 677.509 133.262 660.618 116.392C643.728 99.5217 620.819 90.0425 596.932 90.0393H335.225C335.237 66.1807 325.758 43.2947 308.876 26.4151C291.993 9.53545 269.088 0.0446576 245.199 0.0302306L245.217 0Z" fill="url(#paint4_linear_3215_21469)" fill-opacity="0.05"/>
</g>
<defs>
<linearGradient id="paint0_linear_3215_21469" x1="-267" y1="36" x2="-8.66151" y2="479.975" gradientUnits="userSpaceOnUse">
<stop stop-color="#0092D7"/>
<stop offset="1" stop-color="#012E89"/>
</linearGradient>
<linearGradient id="paint1_linear_3215_21469" x1="-95" y1="-108" x2="163.338" y2="335.975" gradientUnits="userSpaceOnUse">
<stop stop-color="#0092D7"/>
<stop offset="1" stop-color="#012E89"/>
</linearGradient>
<linearGradient id="paint2_linear_3215_21469" x1="-337" y1="211" x2="-78.6615" y2="654.975" gradientUnits="userSpaceOnUse">
<stop stop-color="#0092D7"/>
<stop offset="1" stop-color="#012E89"/>
</linearGradient>
<linearGradient id="paint3_linear_3215_21469" x1="-197" y1="144" x2="61.3385" y2="587.975" gradientUnits="userSpaceOnUse">
<stop stop-color="#0092D7"/>
<stop offset="1" stop-color="#012E89"/>
</linearGradient>
<linearGradient id="paint4_linear_3215_21469" x1="-25" y1="0" x2="233.338" y2="443.975" gradientUnits="userSpaceOnUse">
<stop stop-color="#0092D7"/>
<stop offset="1" stop-color="#012E89"/>
</linearGradient>
<clipPath id="clip0_3215_21469">
<rect width="687" height="509" fill="white" transform="matrix(-1 0 0 1 687 -97)"/>
</clipPath>
</defs>
</svg>
