<svg width="687" height="222" viewBox="0 0 687 222" fill="none" xmlns="http://www.w3.org/2000/svg">
<g clip-path="url(#clip0_3078_18839)">
<path d="M332.047 79.5906L593.756 79.5121C593.749 67.7077 596.072 56.0175 600.593 45.109C605.114 34.2005 611.744 24.2873 620.105 15.9356C628.465 7.58382 638.393 0.957052 649.32 -3.56634C660.248 -8.08974 671.961 -10.4212 683.792 -10.4275L954 -10.5C954.003 1.3039 951.676 12.9928 947.152 23.8994C942.628 34.806 935.995 44.7167 927.632 53.0655C919.269 61.4144 909.34 68.038 898.412 72.5581C887.484 77.0781 875.771 79.4062 863.941 79.4094V79.3792L602.268 79.5181C602.27 91.3228 599.942 103.012 595.417 113.919C590.892 124.826 584.258 134.737 575.894 143.086C567.53 151.435 557.6 158.058 546.671 162.578C535.741 167.098 524.027 169.425 512.196 169.428V169.397L242 169.5C241.996 157.697 244.322 146.009 248.845 135.102C253.368 124.196 260 114.286 268.362 105.937C276.723 97.5881 286.651 90.9643 297.578 86.4438C308.506 81.9233 320.218 79.5946 332.047 79.5906Z" fill="url(#paint0_linear_3078_18839)" fill-opacity="0.05"/>
<path d="M160.047 -64.4094L421.756 -64.4879C421.749 -76.2923 424.072 -87.9825 428.593 -98.891C433.114 -109.8 439.744 -119.713 448.105 -128.064C456.465 -136.416 466.393 -143.043 477.32 -147.566C488.248 -152.09 499.961 -154.421 511.792 -154.428L782 -154.5C782.003 -142.696 779.676 -131.007 775.152 -120.101C770.628 -109.194 763.995 -99.2833 755.632 -90.9345C747.269 -82.5856 737.34 -75.962 726.412 -71.4419C715.484 -66.9219 703.771 -64.5938 691.941 -64.5906V-64.6208L430.268 -64.4819C430.27 -52.6772 427.942 -40.9876 423.417 -30.0806C418.892 -19.1736 412.258 -9.2627 403.894 -0.913834C395.53 7.43503 385.6 14.0583 374.671 18.578C363.741 23.0977 352.027 25.4251 340.196 25.4275V25.3973L70 25.5C69.996 13.6969 72.322 2.00859 76.8451 -8.89757C81.3683 -19.8037 88 -29.7142 96.3617 -38.063C104.723 -46.4119 114.651 -53.0357 125.578 -57.5562C136.506 -62.0767 148.218 -64.4054 160.047 -64.4094Z" fill="url(#paint1_linear_3078_18839)" fill-opacity="0.05"/>
<path d="M402.047 254.591L663.756 254.512C663.749 242.708 666.072 231.017 670.593 220.109C675.114 209.2 681.744 199.287 690.105 190.936C698.465 182.584 708.393 175.957 719.32 171.434C730.248 166.91 741.961 164.579 753.792 164.572L1024 164.5C1024 176.304 1021.68 187.993 1017.15 198.899C1012.63 209.806 1006 219.717 997.632 228.066C989.269 236.414 979.34 243.038 968.412 247.558C957.484 252.078 945.771 254.406 933.941 254.409V254.379L672.268 254.518C672.27 266.323 669.942 278.012 665.417 288.919C660.892 299.826 654.258 309.737 645.894 318.086C637.53 326.435 627.6 333.058 616.671 337.578C605.741 342.098 594.027 344.425 582.196 344.428V344.397L312 344.5C311.996 332.697 314.322 321.009 318.845 310.102C323.368 299.196 330 289.286 338.362 280.937C346.723 272.588 356.651 265.964 367.578 261.444C378.506 256.923 390.218 254.595 402.047 254.591Z" fill="url(#paint2_linear_3078_18839)" fill-opacity="0.05"/>
<path d="M613.783 97.5H884C884.005 109.317 881.678 121.02 877.153 131.939C872.628 142.858 865.994 152.78 857.628 161.137C849.263 169.495 839.331 176.125 828.4 180.647C817.468 185.17 805.752 187.498 793.919 187.497L532.249 187.557C532.245 211.412 522.753 234.289 505.863 251.155C488.973 268.022 466.066 277.498 442.181 277.5H172C172.002 253.642 181.491 230.762 198.382 213.892C215.272 197.022 238.181 187.543 262.068 187.539H523.775C523.763 163.681 533.242 140.795 550.124 123.915C567.007 107.035 589.912 97.5447 613.801 97.5302L613.783 97.5Z" fill="url(#paint3_linear_3078_18839)" fill-opacity="0.05"/>
<path d="M441.783 -46.5H712C712.005 -34.6826 709.678 -22.9801 705.153 -12.061C700.628 -1.14186 693.994 8.77987 685.628 17.1374C677.263 25.495 667.331 32.1245 656.4 36.6474C645.468 41.1703 633.752 43.4978 621.919 43.497L360.249 43.5574C360.245 67.4123 350.753 90.2886 333.863 107.155C316.973 124.022 294.066 133.498 270.181 133.5H0C0.00164795 109.642 9.49127 86.7625 26.3819 69.8921C43.2725 53.0217 66.1807 43.5425 90.0684 43.5393H351.775C351.763 19.6807 361.242 -3.2053 378.124 -20.0849C395.007 -36.9646 417.912 -46.4553 441.801 -46.4698L441.783 -46.5Z" fill="url(#paint4_linear_3078_18839)" fill-opacity="0.05"/>
</g>
<defs>
<linearGradient id="paint0_linear_3078_18839" x1="954" y1="-10.5" x2="695.662" y2="433.475" gradientUnits="userSpaceOnUse">
<stop stop-color="#0092D7"/>
<stop offset="1" stop-color="#012E89"/>
</linearGradient>
<linearGradient id="paint1_linear_3078_18839" x1="782" y1="-154.5" x2="523.662" y2="289.475" gradientUnits="userSpaceOnUse">
<stop stop-color="#0092D7"/>
<stop offset="1" stop-color="#012E89"/>
</linearGradient>
<linearGradient id="paint2_linear_3078_18839" x1="1024" y1="164.5" x2="765.662" y2="608.475" gradientUnits="userSpaceOnUse">
<stop stop-color="#0092D7"/>
<stop offset="1" stop-color="#012E89"/>
</linearGradient>
<linearGradient id="paint3_linear_3078_18839" x1="884" y1="97.5" x2="625.662" y2="541.475" gradientUnits="userSpaceOnUse">
<stop stop-color="#0092D7"/>
<stop offset="1" stop-color="#012E89"/>
</linearGradient>
<linearGradient id="paint4_linear_3078_18839" x1="712" y1="-46.5" x2="453.662" y2="397.475" gradientUnits="userSpaceOnUse">
<stop stop-color="#0092D7"/>
<stop offset="1" stop-color="#012E89"/>
</linearGradient>
<clipPath id="clip0_3078_18839">
<rect width="687" height="509" fill="white" transform="translate(0 -143.5)"/>
</clipPath>
</defs>
</svg>
