<svg width="24" height="25" viewBox="0 0 24 25" fill="none" xmlns="http://www.w3.org/2000/svg">
<g id="solar:dollar-broken">
<g id="Group">
<path id="Vector" d="M12 6.5V18.5M15 10C15 8.62 13.657 7.5 12 7.5C10.343 7.5 9 8.62 9 10C9 11.38 10.343 12.5 12 12.5C13.657 12.5 15 13.62 15 15C15 16.38 13.657 17.5 12 17.5C10.343 17.5 9 16.38 9 15" stroke="#012E89" stroke-width="1.5" stroke-linecap="round"/>
<path id="Vector_2" d="M7 3.83801C8.51952 2.95891 10.2445 2.49731 12 2.50001C17.523 2.50001 22 6.97701 22 12.5C22 18.023 17.523 22.5 12 22.5C6.477 22.5 2 18.023 2 12.5C2 10.679 2.487 8.97001 3.338 7.50001" stroke="#012E89" stroke-width="1.5" stroke-linecap="round"/>
</g>
</g>
</svg>
