<svg width="1919" height="4153" viewBox="0 0 1919 4153" fill="none" xmlns="http://www.w3.org/2000/svg">
<g clip-path="url(#clip0_23_2152)">
<path fill-rule="evenodd" clip-rule="evenodd" d="M2247.53 194.157L3367.12 194.269V194.47C3367.12 400.579 3200.03 567.666 2993.92 567.666H2993.72V567.559L1910.59 567.826C1910.48 773.848 1743.43 940.827 1537.38 940.827H1537.18V940.714L418.377 940.827V940.626C418.377 734.671 585.209 567.687 791.104 567.431L790.986 567.313L1874.92 567.27C1875.03 361.409 2041.81 194.535 2247.64 194.27L2247.53 194.157ZM2248.29 194.558V194.67L2248.09 194.67C2042.21 194.692 1875.32 361.589 1875.32 567.47V567.671L791.751 567.714V567.831H791.55C585.738 567.847 418.886 734.636 418.778 940.426L1537.58 940.313V940.425C1743.39 940.317 1910.19 773.451 1910.19 567.625V567.425L2994.12 567.158V567.265C3199.85 567.156 3366.61 400.399 3366.72 194.67L2248.29 194.558Z" fill="#002F87" fill-opacity="0.3"/>
<path fill-rule="evenodd" clip-rule="evenodd" d="M1273.53 0.0134277L2393.13 0.125762V0.326254C2393.13 206.435 2226.04 373.522 2019.93 373.522H2019.73V373.415L936.591 373.682C936.483 579.704 769.436 746.683 563.386 746.683H563.186V746.57L-555.614 746.683V746.482C-555.614 540.528 -388.783 373.544 -182.888 373.287L-183.006 373.169L900.927 373.126C901.035 167.266 1067.82 0.386141 1273.64 0.126046L1273.53 0.0134277ZM1274.29 0.414529V0.526751L1274.09 0.526766C1068.22 0.542799 901.328 167.445 901.328 373.327V373.527L-182.241 373.57V373.688H-182.441C-388.253 373.704 -555.105 540.492 -555.213 746.282L563.587 746.169V746.282C769.39 746.173 936.19 579.307 936.19 373.482V373.281L2020.13 373.014V373.121C2225.86 373.012 2392.62 206.255 2392.73 0.526746L1274.29 0.414529Z" fill="#002F87" fill-opacity="0.3"/>
<path fill-rule="evenodd" clip-rule="evenodd" d="M-478.729 194.157L640.868 194.269V194.47C640.868 400.579 473.779 567.666 267.668 567.666H267.468V567.559L-815.673 567.826C-815.782 773.848 -982.829 940.827 -1188.87 940.827H-1189.07V940.714L-2307.88 940.827V940.626C-2307.88 734.671 -2141.05 567.687 -1935.15 567.431L-1935.27 567.313L-851.338 567.27C-851.23 361.409 -684.443 194.535 -478.617 194.27L-478.729 194.157ZM-477.964 194.558V194.67L-478.165 194.67C-684.044 194.692 -850.937 361.589 -850.937 567.47V567.671L-1934.51 567.714V567.831H-1934.71C-2140.52 567.847 -2307.37 734.636 -2307.48 940.426L-1188.67 940.313V940.425C-982.875 940.317 -816.074 773.451 -816.074 567.625V567.425L267.868 567.158V567.265C473.599 567.156 640.358 400.399 640.467 194.67L-477.964 194.558Z" fill="#002F87" fill-opacity="0.3"/>
<path fill-rule="evenodd" clip-rule="evenodd" d="M2710.46 836.592L3830.06 836.705V836.905C3830.06 1043.01 3662.97 1210.1 3456.86 1210.1H3456.66V1209.99L2373.53 1210.26C2373.42 1416.28 2206.38 1583.26 2000.33 1583.26H2000.13V1583.15L881.329 1583.26V1583.06C881.329 1377.11 1048.16 1210.12 1254.06 1209.87L1253.94 1209.75L2337.85 1209.71C2337.96 1003.84 2504.75 836.965 2710.58 836.705L2710.46 836.592ZM2711.23 836.993V837.106L2711.03 837.106C2505.15 837.122 2338.26 1004.02 2338.26 1209.91V1210.11L1254.7 1210.15V1210.27H1254.5C1048.69 1210.28 881.839 1377.07 881.73 1582.86L2000.53 1582.75V1582.86C2206.33 1582.75 2373.13 1415.89 2373.13 1210.06V1209.86L3457.06 1209.59V1209.7C3662.79 1209.59 3829.55 1042.83 3829.66 837.106L2711.23 836.993Z" fill="#002F87" fill-opacity="0.3"/>
<path fill-rule="evenodd" clip-rule="evenodd" d="M1736.47 642.438L2856.07 642.55V642.751C2856.07 848.859 2688.98 1015.95 2482.86 1015.95H2482.66V1015.83L1399.53 1016.1C1399.42 1222.12 1232.37 1389.1 1026.32 1389.1H1026.12V1388.99L-92.6775 1389.1V1388.9C-92.6775 1182.95 74.1375 1015.97 280.029 1015.71L279.903 1015.59L1363.86 1015.55C1363.97 809.69 1530.75 642.81 1736.58 642.55L1736.47 642.438ZM1737.23 642.839V642.951L1737.03 642.951C1531.15 642.967 1364.26 809.869 1364.26 1015.75V1015.95L280.696 1015.99V1016.11H280.496C74.6782 1016.12 -92.1681 1182.91 -92.2764 1388.7L1026.52 1388.59V1388.7C1232.33 1388.59 1399.13 1221.73 1399.13 1015.9V1015.7L2483.06 1015.43V1015.55C2688.8 1015.44 2855.56 848.679 2855.67 642.951L1737.23 642.839Z" fill="#002F87" fill-opacity="0.3"/>
<path fill-rule="evenodd" clip-rule="evenodd" d="M-15.7933 836.592L1103.79 836.71V836.91C1103.79 1043.02 936.705 1210.11 730.589 1210.11H730.388V1210L-352.747 1210.27C-352.856 1416.29 -519.903 1583.27 -725.947 1583.27H-726.148V1583.15L-1844.95 1583.27V1583.07C-1844.95 1377.11 -1678.12 1210.13 -1472.23 1209.87L-1472.34 1209.75L-388.401 1209.71C-388.293 1003.84 -221.506 836.965 -15.6805 836.705L-15.7933 836.592ZM-15.0278 836.993V837.106L-15.2283 837.106C-221.107 837.122 -388 1004.02 -388 1209.91V1210.11L-1471.58 1210.15V1210.27H-1471.78C-1677.59 1210.29 -1844.44 1377.08 -1844.55 1582.87L-725.747 1582.75V1582.87C-519.949 1582.76 -353.148 1415.89 -353.148 1210.07V1209.87L730.789 1209.6V1209.71C936.525 1209.6 1103.28 1042.84 1103.39 837.111L-15.0278 836.993Z" fill="#002F87" fill-opacity="0.3"/>
<path fill-rule="evenodd" clip-rule="evenodd" d="M3173.4 1479.03L4293 1479.14V1479.34C4293 1685.45 4125.91 1852.54 3919.8 1852.54H3919.6V1852.42L2836.46 1852.69C2836.35 2058.71 2669.3 2225.69 2463.26 2225.69H2463.06V2225.58L1344.25 2225.69V2225.49C1344.25 2019.54 1511.08 1852.56 1716.97 1852.29L1716.86 1852.18L2800.79 1852.14C2800.9 1646.28 2967.69 1479.4 3173.51 1479.14L3173.4 1479.03ZM3174.16 1479.43V1479.54L3173.96 1479.54C2968.09 1479.56 2801.19 1646.46 2801.19 1852.34V1852.54L1717.62 1852.58V1852.69L1717.42 1852.69C1511.61 1852.71 1344.76 2019.5 1344.65 2225.29L2463.46 2225.18V2225.29C2669.25 2225.18 2836.06 2058.31 2836.06 1852.49V1852.29L3920 1852.02V1852.13C4125.73 1852.03 4292.49 1685.27 4292.6 1479.54L3174.16 1479.43Z" fill="#002F87" fill-opacity="0.3"/>
<path fill-rule="evenodd" clip-rule="evenodd" d="M2199.43 1284.89L3319 1285.01V1285.21C3319 1491.32 3151.92 1658.4 2945.8 1658.4H2945.6V1658.29L1862.46 1658.56C1862.36 1864.58 1695.31 2031.56 1489.26 2031.56H1489.06V2031.45L370.259 2031.56V2031.36C370.259 1825.41 537.082 1658.43 742.975 1658.16L742.863 1658.05L1826.79 1658.01C1826.9 1452.14 1993.7 1285.26 2199.54 1285.01L2199.43 1284.89ZM2200.17 1285.29V1285.41L2199.97 1285.41C1994.09 1285.42 1827.2 1452.33 1827.2 1658.21V1658.41L743.627 1658.45V1658.56L743.427 1658.56C537.615 1658.58 370.768 1825.37 370.66 2031.16L1489.46 2031.05V2031.16C1695.26 2031.05 1862.06 1864.18 1862.06 1658.36V1658.16L2946 1657.89V1658C3151.74 1657.89 3318.49 1491.14 3318.6 1285.41L2200.17 1285.29Z" fill="#002F87" fill-opacity="0.3"/>
<path fill-rule="evenodd" clip-rule="evenodd" d="M447.143 1479.03L1566.74 1479.14V1479.34C1566.74 1685.45 1399.65 1852.54 1193.54 1852.54H1193.33V1852.42L110.2 1852.69C110.091 2058.71 -56.9558 2225.69 -263 2225.69H-263.201V2225.58L-1382.01 2225.69V2225.49C-1382.01 2019.54 -1215.18 1852.56 -1009.28 1852.29L-1009.4 1852.18L74.535 1852.14C74.6433 1646.28 241.43 1479.4 447.256 1479.14L447.143 1479.03ZM447.909 1479.43V1479.54L447.708 1479.54C241.829 1479.56 74.936 1646.46 74.936 1852.34V1852.54L-1008.63 1852.58V1852.69L-1008.83 1852.69C-1214.64 1852.71 -1381.5 2019.5 -1381.6 2225.29L-262.8 2225.18V2225.29C-57.0021 2225.18 109.799 2058.31 109.799 1852.49V1852.29L1193.74 1852.02V1852.13C1399.47 1852.03 1566.23 1685.27 1566.34 1479.54L447.909 1479.43Z" fill="#002F87" fill-opacity="0.3"/>
<path fill-rule="evenodd" clip-rule="evenodd" d="M-526.832 1284.89L592.744 1285.01V1285.21C592.744 1491.32 425.655 1658.4 219.544 1658.4H219.344V1658.29L-863.792 1658.56C-863.9 1864.58 -1030.95 2031.56 -1237 2031.56H-1237.2V2031.45L-2356 2031.56V2031.36C-2356 1825.41 -2189.17 1658.43 -1983.28 1658.16L-1983.39 1658.05L-899.462 1658.01C-899.354 1452.14 -732.556 1285.26 -526.721 1285.01L-526.832 1284.89ZM-526.088 1285.29V1285.41L-526.289 1285.41C-732.168 1285.42 -899.061 1452.33 -899.061 1658.21V1658.41L-1982.63 1658.45V1658.56L-1982.83 1658.56C-2188.64 1658.58 -2355.49 1825.37 -2355.6 2031.16L-1236.8 2031.05V2031.16C-1030.99 2031.05 -864.193 1864.18 -864.193 1658.36V1658.16L219.744 1657.89V1658C425.475 1657.89 592.234 1491.14 592.343 1285.41L-526.088 1285.29Z" fill="#002F87" fill-opacity="0.3"/>
<path fill-rule="evenodd" clip-rule="evenodd" d="M2662.36 1927.3L3781.94 1927.42V1927.62C3781.94 2133.73 3614.85 2300.82 3408.74 2300.82H3408.54V2300.7L2325.41 2300.98C2325.3 2506.99 2158.26 2673.97 1952.21 2673.97H1952.01V2673.87L833.212 2673.98V2673.78C833.212 2467.82 1000.04 2300.84 1205.93 2300.58L1205.82 2300.46L2289.73 2300.42C2289.84 2094.55 2456.64 1927.67 2662.47 1927.42L2662.36 1927.3ZM2663.11 1927.7V1927.82L2662.9 1927.82C2457.03 1927.84 2290.13 2094.74 2290.13 2300.62V2300.82L1206.58 2300.87V2300.98H1206.38C1000.57 2300.99 833.721 2467.79 833.613 2673.58L1952.41 2673.46V2673.57C2158.21 2673.46 2325.01 2506.6 2325.01 2300.78V2300.58L3408.94 2300.3V2300.42C3614.67 2300.31 3781.43 2133.55 3781.54 1927.82L2663.11 1927.7Z" fill="#002F87" fill-opacity="0.3"/>
<path fill-rule="evenodd" clip-rule="evenodd" d="M910.075 2121.47L2029.68 2121.59V2121.79C2029.68 2327.9 1862.59 2494.99 1656.47 2494.99H1656.27V2494.87L573.136 2495.15C573.028 2701.16 405.981 2868.14 199.931 2868.14H199.731V2868.04L-919.069 2868.15V2867.95C-919.069 2661.99 -752.241 2495.01 -546.348 2494.75L-546.461 2494.63L537.471 2494.58C537.58 2288.71 704.362 2121.84 910.193 2121.59L910.075 2121.47ZM910.845 2121.87V2121.99H910.645C704.76 2121.99 537.872 2288.89 537.872 2494.78V2494.98L-545.696 2495.04V2495.15H-545.896C-751.708 2495.16 -918.56 2661.96 -918.668 2867.75L200.132 2867.63V2867.74C405.934 2867.63 572.735 2700.77 572.735 2494.95V2494.75L1656.67 2494.47V2494.59C1862.41 2494.48 2029.17 2327.72 2029.28 2121.99L910.845 2121.87Z" fill="#002F87" fill-opacity="0.3"/>
<path fill-rule="evenodd" clip-rule="evenodd" d="M-63.8953 1927.3L1055.68 1927.42V1927.62C1055.67 2133.73 888.592 2300.82 682.481 2300.82H682.281V2300.7L-400.865 2300.98C-400.974 2506.99 -568.016 2673.97 -774.065 2673.97H-774.266V2673.87L-1893.07 2673.98V2673.78C-1893.07 2467.82 -1726.24 2300.84 -1520.35 2300.58L-1520.46 2300.46L-436.525 2300.42C-436.417 2094.55 -269.619 1927.67 -63.7847 1927.42L-63.8953 1927.3ZM-63.1512 1927.7V1927.82L-63.3517 1927.82C-269.231 1927.84 -436.124 2094.74 -436.124 2300.62V2300.82L-1519.7 2300.87V2300.98H-1519.9C-1725.71 2300.99 -1892.56 2467.79 -1892.67 2673.58L-773.865 2673.46V2673.57C-568.062 2673.46 -401.266 2506.6 -401.266 2300.78V2300.58L682.682 2300.3V2300.42C888.412 2300.31 1055.16 2133.55 1055.28 1927.82L-63.1512 1927.7Z" fill="#002F87" fill-opacity="0.3"/>
<path fill-rule="evenodd" clip-rule="evenodd" d="M3125.28 2569.74L4244.87 2569.85V2570.05C4244.87 2776.16 4077.78 2943.25 3871.67 2943.25H3871.47V2943.14L2788.33 2943.41C2788.22 3149.43 2621.18 3316.41 2415.13 3316.41H2414.93V3316.3L1296.13 3316.41V3316.21C1296.13 3110.25 1462.96 2943.27 1668.85 2943.01L1668.74 2942.89L2752.67 2942.85C2752.78 2736.99 2919.57 2570.11 3125.39 2569.86L3125.28 2569.74ZM3126.04 2570.14L4244.47 2570.25C4244.36 2775.99 4077.6 2942.74 3871.87 2942.85V2942.74L2787.93 2943.01V2943.21C2787.93 3149.03 2621.14 3315.9 2415.33 3316.01V3315.89L1296.53 3316.01C1296.64 3110.22 1463.49 2943.42 1669.3 2943.41H1669.5V2943.29L2753.07 2943.25V2943.05C2753.07 2737.17 2919.96 2570.27 3125.84 2570.26L3126.04 2570.26V2570.14Z" fill="#002F87" fill-opacity="0.3"/>
<path fill-rule="evenodd" clip-rule="evenodd" d="M1373.01 2763.89L2492.61 2764V2764.21C2492.61 2970.32 2325.52 3137.41 2119.41 3137.41H2119.21V3137.29L1036.07 3137.57C1035.96 3343.58 868.917 3510.56 662.868 3510.56H662.667V3510.45L-456.133 3510.56V3510.36C-456.133 3304.41 -289.304 3137.42 -83.4114 3137.16L-83.5239 3137.05L1000.41 3137.01C1000.52 2931.15 1167.3 2764.27 1373.13 2764.01L1373.01 2763.89ZM1373.78 2764.29L2492.21 2764.41C2492.1 2970.14 2325.34 3136.9 2119.61 3137.01V3136.89L1035.67 3137.17V3137.37C1035.67 3343.19 868.871 3510.05 663.068 3510.16V3510.05L-455.732 3510.16C-455.623 3304.37 -288.772 3137.58 -82.9597 3137.56H-82.7592V3137.45L1000.81 3137.41V3137.21C1000.81 2931.33 1167.7 2764.43 1373.58 2764.41L1373.78 2764.41V2764.29Z" fill="#002F87" fill-opacity="0.3"/>
<path fill-rule="evenodd" clip-rule="evenodd" d="M399.02 2569.74L1518.62 2569.85V2570.05C1518.62 2776.16 1351.53 2943.25 1145.42 2943.25H1145.22V2943.14L62.0763 2943.41C61.9679 3149.43 -105.079 3316.41 -311.124 3316.41H-311.324V3316.3L-1430.13 3316.41V3316.21C-1430.13 3110.25 -1263.3 2943.27 -1057.41 2943.01L-1057.52 2942.89L26.4115 2942.85C26.5198 2736.99 193.31 2570.11 399.138 2569.86L399.02 2569.74ZM399.785 2570.14L1518.22 2570.25C1518.11 2775.99 1351.35 2942.74 1145.62 2942.85V2942.74L61.6753 2943.01V2943.21C61.6753 3149.03 -105.126 3315.9 -310.923 3316.01V3315.89L-1429.73 3316.01C-1429.62 3110.22 -1262.77 2943.42 -1056.96 2943.41H-1056.76V2943.29L26.8125 2943.25V2943.05C26.8125 2737.17 193.706 2570.27 399.585 2570.26L399.785 2570.26V2570.14Z" fill="#002F87" fill-opacity="0.3"/>
<path fill-rule="evenodd" clip-rule="evenodd" d="M1835.95 3406.33L2955.55 3406.44V3406.64C2955.55 3612.75 2788.46 3779.84 2582.35 3779.84H2582.15V3779.73L1499.01 3780C1498.9 3986.02 1331.85 4153 1125.8 4153H1125.6V4152.88L6.8042 4153V4152.8C6.8042 3946.85 173.627 3779.86 379.525 3779.6L379.407 3779.48L1463.34 3779.44C1463.45 3573.58 1630.24 3406.7 1836.07 3406.45L1835.95 3406.33ZM1836.71 3406.73L2955.15 3406.84C2955.04 3612.57 2788.28 3779.33 2582.55 3779.44V3779.33L1498.61 3779.6V3779.8C1498.61 3985.62 1331.81 4152.49 1126.01 4152.6V4152.48L7.20528 4152.6C7.31361 3946.81 174.16 3780.02 379.977 3780H380.178V3779.88L1463.74 3779.84V3779.64C1463.74 3573.76 1630.63 3406.86 1836.51 3406.85L1836.71 3406.85V3406.73Z" fill="#002F87" fill-opacity="0.3"/>
<path fill-rule="evenodd" clip-rule="evenodd" d="M861.958 3212.17L1981.55 3212.29V3212.49C1981.55 3418.6 1814.47 3585.69 1608.35 3585.69H1608.15V3585.57L525.013 3585.85C524.905 3791.87 357.858 3958.84 151.819 3958.84H151.618V3958.73L-967.187 3958.85V3958.65C-967.187 3752.69 -800.348 3585.7 -594.447 3585.45L-594.557 3585.33L489.349 3585.29C489.457 3379.43 656.247 3212.55 862.075 3212.29L861.958 3212.17ZM862.722 3212.57L1981.15 3212.69C1981.04 3418.42 1814.29 3585.18 1608.55 3585.29V3585.17L524.612 3585.45V3585.65C524.612 3791.48 357.811 3958.33 152.019 3958.44V3958.33L-966.786 3958.45C-966.678 3752.66 -799.826 3585.86 -594.014 3585.85H-593.814V3585.73L489.75 3585.69V3585.49C489.75 3379.61 656.643 3212.71 862.521 3212.69L862.722 3212.69V3212.57Z" fill="#002F87" fill-opacity="0.3"/>
</g>
<defs>
<clipPath id="clip0_23_2152">
<rect width="1919" height="4153" fill="white"/>
</clipPath>
</defs>
</svg>
