<svg width="48" height="48" viewBox="0 0 48 48" fill="none" xmlns="http://www.w3.org/2000/svg">
<path fill-rule="evenodd" clip-rule="evenodd" d="M23.9518 26H24.0318C29.5548 26 34.0319 21.523 34.0319 16C34.0319 10.477 29.5548 6 24.0318 6H23.9518C18.4658 6.043 14.0318 10.504 14.0318 16C14.0318 21.496 18.4658 25.957 23.9518 26ZM31.9698 17H29.9698C29.9158 17.913 29.7878 18.79 29.5958 19.615H31.1698C31.5856 18.7961 31.8563 17.9113 31.9698 17ZM29.7298 21.615H28.9648C28.8179 21.978 28.6549 22.323 28.4809 22.65C28.9314 22.348 29.3502 22.0013 29.7309 21.615H29.7298ZM27.5329 19.615C27.7509 18.818 27.9028 17.939 27.9658 17H25.0318V19.615H27.5329ZM25.0318 21.615H26.7659C26.6889 21.763 26.6098 21.905 26.5278 22.042C26.0278 22.873 25.5108 23.387 25.0318 23.678V21.615ZM23.0318 19.615V17H20.0338C20.0968 17.939 20.2488 18.818 20.4668 19.615H23.0318ZM21.2338 21.615H23.0318V23.715C22.5358 23.432 21.9938 22.911 21.4718 22.042C21.3881 21.9022 21.3088 21.7598 21.2338 21.615ZM18.4038 19.615C18.2059 18.7554 18.0808 17.8806 18.0299 17H16.0938C16.2098 17.93 16.4858 18.812 16.8938 19.615H18.4038ZM18.3338 21.615H19.0338C19.1718 21.953 19.3218 22.275 19.4828 22.581C19.0702 22.2955 18.6862 21.9721 18.3338 21.615ZM29.9698 15C29.919 14.1194 29.7939 13.2446 29.5958 12.385H31.1698C31.5859 13.2038 31.8566 14.0886 31.9698 15H29.9698ZM29.7298 10.385H28.9648C28.8179 10.022 28.6549 9.677 28.4809 9.35C28.9319 9.653 29.3509 10 29.7309 10.385H29.7298ZM25.0318 10.385H26.7659C26.6909 10.2402 26.6116 10.0978 26.5278 9.958C26.0278 9.126 25.5108 8.613 25.0318 8.322V10.385ZM27.5329 12.385H25.0318V15H27.9658C27.9085 14.1161 27.7635 13.2402 27.5329 12.385ZM23.0318 8.285V10.385H21.2338C21.3108 10.237 21.3908 10.095 21.4718 9.958C21.9928 9.089 22.5358 8.569 23.0318 8.285ZM23.0318 12.385H20.4668C20.2488 13.182 20.0968 14.061 20.0338 15H23.0318V12.385ZM19.4818 9.419C19.3218 9.725 19.1718 10.047 19.0348 10.385H18.3338C18.6848 10.028 19.0688 9.705 19.4818 9.419ZM18.4038 12.385H16.8938C16.4781 13.2039 16.2074 14.0887 16.0938 15H18.0299C18.0838 14.086 18.2118 13.21 18.4038 12.385ZM8.72985 17C7.69185 16.976 6.64985 17.613 6.31285 18.605C6.22885 18.853 6.18285 19.177 6.14985 19.472C6.11485 19.794 6.08785 20.181 6.06685 20.602C6.0235 21.5661 6.00117 22.531 5.99985 23.496C5.99185 25.514 6.04285 27.614 6.11585 28.265C6.24385 29.405 6.89985 30.467 7.46985 31.391L7.53385 31.494C7.70685 31.774 7.87785 32.053 8.04585 32.34C8.79985 33.631 9.61985 34.501 10.3628 35.29L10.3798 35.307C10.7978 35.75 11.1848 36.162 11.5498 36.621C11.1958 36.9927 10.9987 37.4867 10.9998 38V40C10.9998 40.5304 11.2106 41.0391 11.5856 41.4142C11.9607 41.7893 12.4694 42 12.9998 42H20.9998C21.5303 42 22.039 41.7893 22.4141 41.4142C22.7891 41.0391 22.9998 40.5304 22.9998 40V38C22.9998 37.4938 22.8079 37.0065 22.4627 36.6362C22.1175 36.266 21.6448 36.0404 21.1398 36.005C21.0048 34.869 20.8298 33.335 20.8138 32.898C20.7998 32.522 20.6738 32.155 20.5558 31.876C20.432 31.5884 20.2897 31.3092 20.1298 31.04C19.9655 30.7603 19.7893 30.4877 19.6018 30.223L19.5628 30.169L19.5528 30.154L19.5488 30.149L19.5469 30.146L19.5368 30.132L16.2928 26.042L16.2628 26.012V26.01L16.2589 26.006L16.2348 25.98C16.0857 25.815 15.9423 25.6449 15.8048 25.47C15.4988 25.0878 15.2322 24.6757 15.0088 24.24C14.7808 23.772 14.3488 23.323 13.6858 23.29C13.1208 23.26 12.6778 23.56 12.4198 23.791C12.2778 23.9191 12.1482 24.0604 12.0328 24.213L11.9878 23.611L11.9828 23.545C11.8848 22.227 11.7658 20.632 11.3788 19.355C10.9248 17.861 9.91585 17.029 8.72885 17.001L8.72985 17ZM19.1248 36C18.9948 34.9 18.8328 33.463 18.8148 32.971C18.8112 32.9415 18.8049 32.9123 18.7958 32.884C18.7731 32.8047 18.7453 32.7269 18.7128 32.651C18.6227 32.4446 18.5195 32.2442 18.4038 32.051C18.2691 31.8216 18.1246 31.5981 17.9708 31.381L17.9448 31.344L14.7768 27.35L14.7588 27.33C14.576 27.1275 14.4002 26.9187 14.2318 26.704C13.9624 26.3624 13.7149 26.004 13.4908 25.631L13.4838 25.642C13.3938 25.809 13.3438 25.962 13.3288 26.062C13.2738 26.416 13.3018 26.66 13.3298 26.792C13.3383 26.8342 13.35 26.8756 13.3648 26.916V26.919L15.1968 30.557L13.4958 31.596L13.4708 31.562L13.4018 31.467C13.0449 30.9746 12.6915 30.4796 12.3418 29.982C11.7348 29.118 11.0088 28.058 10.6508 27.422C10.3828 26.947 10.2588 26.318 10.1798 25.749C10.0984 25.095 10.0367 24.4387 9.99485 23.781L9.99285 23.759C9.88885 22.361 9.78085 20.979 9.46485 19.936C9.32685 19.481 9.14885 19.252 9.02085 19.141C8.92886 19.0549 8.80875 19.0052 8.68285 19.001C8.40985 18.994 8.22885 19.183 8.20585 19.251C8.20385 19.257 8.19485 19.291 8.18185 19.365C8.1638 19.4722 8.14912 19.5799 8.13785 19.688C8.10885 19.956 8.08385 20.3 8.06385 20.702C8.02256 21.6354 8.00156 22.5697 8.00085 23.504C7.99185 25.543 8.04685 27.526 8.10485 28.042C8.17685 28.687 8.57885 29.376 9.23685 30.444L9.23985 30.449C9.40985 30.725 9.59285 31.022 9.77385 31.332C10.4068 32.416 11.0888 33.143 11.8358 33.935L11.8528 33.953C12.4088 34.543 13.0128 35.183 13.5828 36H19.1248ZM13.7998 25.246C13.7998 25.246 13.7958 25.247 13.7888 25.253C13.7928 25.2511 13.7965 25.2488 13.7998 25.246ZM20.9998 40V38H12.9998V40H20.9998ZM41.6868 18.605C41.3488 17.613 40.3078 16.976 39.2698 17.001C38.0838 17.029 37.0748 17.861 36.6208 19.355C36.2338 20.632 36.1148 22.227 36.0168 23.545L36.0119 23.611L35.9668 24.213C35.8468 24.056 35.7169 23.913 35.5799 23.791C35.3219 23.561 34.8798 23.261 34.3138 23.289C33.6508 23.323 33.2189 23.772 32.9909 24.239C32.7671 24.6747 32.5001 25.0868 32.1938 25.469C32.0565 25.6443 31.9131 25.8147 31.7638 25.98L31.7408 26.006L31.7368 26.011L31.7069 26.042L28.4639 30.132L28.4528 30.146L28.4508 30.149L28.4478 30.154L28.4368 30.169C28.2346 30.4502 28.0455 30.7405 27.8699 31.039C27.7097 31.3085 27.567 31.5881 27.4429 31.876C27.3258 32.155 27.1999 32.522 27.1859 32.898C27.1698 33.335 26.9958 34.869 26.8598 36.005C26.3549 36.0404 25.8822 36.266 25.537 36.6362C25.1918 37.0065 24.9999 37.4938 24.9998 38V40C24.9998 40.5304 25.2106 41.0391 25.5856 41.4142C25.9607 41.7893 26.4694 42 26.9998 42H34.9998C35.5303 42 36.039 41.7893 36.4141 41.4142C36.7891 41.0391 36.9998 40.5304 36.9998 40V38C37.0002 37.4863 36.8029 36.9922 36.4489 36.62C36.8148 36.162 37.2008 35.75 37.6188 35.307L37.6359 35.289C38.3788 34.501 39.1988 33.631 39.9528 32.34C40.1208 32.053 40.2928 31.775 40.4648 31.494L40.5288 31.391C41.0988 30.467 41.7548 29.405 41.8828 28.265C41.9558 27.614 42.0068 25.514 41.9988 23.496C41.9979 22.531 41.9758 21.5661 41.9328 20.602C41.9158 20.2246 41.8882 19.8478 41.8498 19.472C41.8178 19.177 41.7718 18.852 41.6868 18.605ZM34.4178 36C34.9878 35.183 35.5908 34.543 36.1478 33.953L36.1639 33.935C36.9109 33.143 37.5938 32.415 38.2258 31.332C38.4058 31.022 38.5888 30.726 38.7598 30.449L38.7628 30.444C39.4218 29.376 39.8228 28.687 39.8948 28.042C39.9528 27.526 40.0068 25.543 39.9988 23.504C39.9948 22.498 39.9758 21.504 39.9358 20.702C39.9158 20.3 39.8908 19.956 39.8618 19.688C39.8506 19.5799 39.8359 19.4722 39.8178 19.365C39.8117 19.3266 39.8037 19.2886 39.7938 19.251C39.7708 19.183 39.5898 18.994 39.3178 19.001C39.1916 19.0049 39.0711 19.0547 38.9788 19.141C38.8508 19.251 38.6728 19.481 38.5348 19.936C38.2188 20.978 38.1108 22.361 38.0068 23.759L38.0048 23.781C37.9548 24.465 37.9028 25.155 37.8198 25.749C37.7418 26.318 37.6168 26.947 37.3498 27.423C36.9908 28.058 36.2649 29.118 35.6579 29.983C35.3082 30.4803 34.9548 30.9749 34.5978 31.467L34.5278 31.562L34.5039 31.596L32.8029 30.556L34.6338 26.919L34.6348 26.916C34.6497 26.8756 34.6614 26.8342 34.6698 26.792C34.6978 26.66 34.7259 26.416 34.6709 26.062C34.6424 25.9145 34.59 25.7726 34.5158 25.642L34.5088 25.631C34.2628 26.046 33.9918 26.418 33.7689 26.703C33.6002 26.9181 33.4241 27.1272 33.2409 27.33L33.2218 27.35L30.0548 31.344L30.0288 31.381C29.8752 31.5982 29.7307 31.8217 29.5958 32.051C29.4758 32.255 29.3659 32.464 29.2868 32.651C29.2479 32.744 29.2208 32.821 29.2038 32.883C29.1949 32.9117 29.1885 32.9412 29.1848 32.971C29.1668 33.463 29.0048 34.901 28.8748 36H34.4178ZM34.1999 25.246C34.1999 25.246 34.2038 25.247 34.2108 25.253C34.2069 25.2511 34.2032 25.2487 34.1999 25.246ZM26.9998 40V38H34.9998V40H26.9998Z" fill="white"/>
</svg>
