<svg width="48" height="48" viewBox="0 0 48 48" fill="none" xmlns="http://www.w3.org/2000/svg">
<path fill-rule="evenodd" clip-rule="evenodd" d="M24.0347 30.2375C24.7485 30.2375 25.3271 30.8161 25.3271 31.53V37.1522C25.3271 37.866 24.7485 38.4447 24.0347 38.4447C23.3208 38.4447 22.7422 37.866 22.7422 37.1522V31.53C22.7422 30.8161 23.3208 30.2375 24.0347 30.2375Z" fill="white"/>
<path fill-rule="evenodd" clip-rule="evenodd" d="M18.1123 39.5961L17.4751 42.7745H30.5937L29.9565 39.5961C29.8716 39.1714 29.6423 38.7892 29.3074 38.5145C28.9726 38.2398 28.553 38.0896 28.1199 38.0893H19.9489C19.5158 38.0896 19.0962 38.2398 18.7613 38.5145C18.4265 38.7892 18.1972 39.1714 18.1123 39.5961Z" fill="white"/>
<path fill-rule="evenodd" clip-rule="evenodd" d="M22.2498 13.1623C22.0474 13.5259 21.9462 13.7058 21.7888 13.8257C21.6312 13.9462 21.4369 13.9897 21.0517 14.0759L21.0391 14.0787L20.683 14.1612L20.6752 14.163C19.2973 14.4748 18.6081 14.6307 18.4435 15.1582C18.2788 15.6878 18.7494 16.2379 19.6893 17.3365L19.9372 17.6264L19.9382 17.6276C20.2055 17.9397 20.3402 18.097 20.4001 18.2898C20.4593 18.4822 20.4399 18.6874 20.4016 19.0947L20.4001 19.1107L20.3626 19.4911L20.3609 19.508C20.2196 20.9679 20.1487 21.7 20.5781 22.0249C21.0091 22.3509 21.6576 22.0548 22.9526 21.457L23.2862 21.3033L23.2914 21.3009C23.6571 21.1339 23.8399 21.0503 24.0339 21.0503C24.2279 21.0503 24.4107 21.1339 24.7764 21.3009L24.7817 21.3033L25.1153 21.457C26.4102 22.053 27.0587 22.3509 27.4897 22.0249C27.9189 21.6988 27.8477 20.9622 27.7052 19.4911L27.6678 19.1107L27.6663 19.0947C27.6279 18.6874 27.6086 18.4822 27.6678 18.2898C27.7268 18.098 27.8584 17.9443 28.118 17.6412L28.3786 17.3365C29.3184 16.2379 29.789 15.6878 29.6243 15.1582C29.4597 14.6307 28.7705 14.4748 27.3927 14.163L27.3848 14.1612L27.0287 14.0787C26.6351 13.9907 26.4384 13.9457 26.2791 13.8257C26.1216 13.7058 26.0204 13.5259 25.818 13.1623L25.6344 12.8325C24.9222 11.5525 24.5662 10.9153 24.0339 10.9153C23.5017 10.9153 23.1456 11.5525 22.4334 12.8325L22.2498 13.1623ZM25.1971 17.5296C25.3333 17.0871 25.5665 16.7052 25.7725 16.4241C25.4522 16.3178 25.0708 16.1517 24.7242 15.8908L24.7124 15.8819C24.436 15.6713 24.2107 15.4209 24.0339 15.1857C23.8575 15.4204 23.6328 15.6701 23.3572 15.8805L25.7725 16.4241L23.3554 15.8819C23.0061 16.1481 22.619 16.3172 22.2953 16.4248C22.5005 16.7047 22.7322 17.0837 22.8686 17.5229L22.8707 17.5296C22.9889 17.9138 23.0218 18.3029 23.0219 18.6257C23.316 18.5369 23.6657 18.4654 24.0339 18.4654C24.4022 18.4654 24.7518 18.5369 25.0459 18.6257C25.046 18.3029 25.0789 17.9138 25.1971 17.5296Z" fill="white"/>
<path d="M34.3433 24.9709L39.8849 21.8937L39.9036 21.8832C41.3005 21.1049 42.0025 20.7138 42.3887 20.0571C42.7766 19.3974 42.7766 18.5897 42.7766 16.9779V16.8411C42.7766 14.8865 42.7766 13.9082 42.2463 13.1717C41.7159 12.4352 40.7882 12.1259 38.9329 11.5075L37.1544 10.9153L36.6435 13.4697L38.1155 13.9598C39.0992 14.2877 39.6306 14.469 39.9959 14.639C40.0485 14.6634 40.0901 14.6844 40.1225 14.7016C40.1286 14.738 40.1354 14.7845 40.1421 14.8427C40.1878 15.2434 40.1917 15.8043 40.1917 16.8411V16.9779C40.1917 17.8347 40.1887 18.2897 40.156 18.6178C40.1511 18.6663 40.1462 18.7049 40.1417 18.7351C40.1174 18.7537 40.086 18.7769 40.0459 18.8047C39.774 18.9935 39.3776 19.2172 38.6279 19.6349L38.6268 19.6356L35.0085 21.6448L34.3433 24.9709Z" fill="white"/>
<path fill-rule="evenodd" clip-rule="evenodd" d="M16.0406 7.21821C13.7908 7.59751 13.2698 7.74338 12.7416 8.39504L12.7401 8.39691C12.2175 9.03914 12.1776 9.66091 12.2794 12.1862C12.4468 16.4227 13.0051 21.0122 14.7453 24.5088C15.6053 26.2367 16.7329 27.654 18.2068 28.6425C19.6722 29.6253 21.5585 30.2376 24.0315 30.2376H24.0334C26.5065 30.2376 28.3928 29.6252 29.8581 28.6423C31.332 27.6536 32.4597 26.2362 33.3197 24.5081C35.0599 21.0112 35.6181 16.4227 35.7856 12.1872C35.8854 9.66039 35.8477 9.04051 35.3242 8.39607C34.7937 7.74298 34.2713 7.59729 32.0196 7.21772C29.9804 6.87301 27.2989 6.58539 24.0315 6.58539H24.0261C21.3513 6.5741 18.6802 6.78576 16.0406 7.21821ZM24.0343 4.00044C21.2157 3.98869 18.4011 4.2119 15.6196 4.66776L15.6138 4.66873C15.5331 4.68234 15.453 4.69576 15.3735 4.70906C13.4685 5.02799 11.9353 5.28467 10.7335 6.76731L11.7376 7.58117L10.735 6.76544C9.52871 8.24799 9.59804 9.91717 9.68461 12.0013C9.68857 12.0966 9.69256 12.1927 9.69647 12.2898C9.86638 16.5878 10.4326 21.645 12.4311 25.6605C13.4405 27.6887 14.8359 29.4942 16.767 30.7893C18.7066 32.0902 21.1073 32.8226 24.0315 32.8226H24.0334C26.9577 32.8226 29.3584 32.0901 31.2981 30.789C33.2291 29.4937 34.6245 27.6881 35.6339 25.6598C37.6324 21.6439 38.1986 16.5866 38.3685 12.2893C38.3725 12.1878 38.3766 12.0872 38.3807 11.9875C38.4656 9.91092 38.5336 8.24721 37.3306 6.76628C36.1271 5.28458 34.5948 5.02803 32.689 4.70896C32.6099 4.69572 32.5302 4.68238 32.4498 4.66883M32.4498 4.66883C30.2768 4.30153 27.4522 4.0006 24.0343 4.00044L32.4498 4.66883Z" fill="white"/>
<path fill-rule="evenodd" clip-rule="evenodd" d="M9.62225 10.9153L7.84375 11.5075C5.9884 12.1259 5.06073 12.4352 4.53037 13.1717C4 13.9082 4 14.8883 4 16.8411V16.9779C4 18.5897 4 19.3974 4.38794 20.0571C4.77415 20.7138 5.47613 21.1049 6.87299 21.8832L6.89171 21.8937L12.4334 24.9709L11.7682 21.6448L8.14988 19.6356L8.14825 19.6347C7.39892 19.2171 7.00263 18.9934 6.73077 18.8047C6.69064 18.7769 6.65919 18.7537 6.63496 18.7351C6.63045 18.7049 6.62551 18.6663 6.62067 18.6178C6.58792 18.2897 6.58495 17.8347 6.58495 16.9779V16.8411C6.58495 15.8054 6.58885 15.2443 6.6346 14.8433C6.64126 14.7848 6.64806 14.7381 6.65428 14.7016C6.68664 14.6843 6.7282 14.6634 6.78072 14.639C7.14606 14.469 7.6767 14.288 8.66041 13.9601L10.1331 13.4697L9.62225 10.9153Z" fill="white"/>
<path fill-rule="evenodd" clip-rule="evenodd" d="M11.498 42.7747C11.498 42.0609 12.0767 41.4822 12.7905 41.4822H35.2795C35.9933 41.4822 36.572 42.0609 36.572 42.7747C36.572 43.4885 35.9933 44.0672 35.2795 44.0672H12.7905C12.0767 44.0672 11.498 43.4885 11.498 42.7747Z" fill="white"/>
</svg>
