<svg width="42" height="59" viewBox="0 0 42 59" fill="none" xmlns="http://www.w3.org/2000/svg">
<g id="Group 133095">
<path id="Vector" fill-rule="evenodd" clip-rule="evenodd" d="M6.3147 17.4515C6.45066 17.4515 7.11536 17.5773 7.78007 17.7374C8.44477 17.8975 9.09437 18.0691 9.21523 18.1262C9.35119 18.1948 9.39651 18.2978 9.33608 18.4121C9.23033 18.5722 9.13969 18.5836 8.5052 18.4236C8.09731 18.3321 7.40239 18.172 6.94919 18.0691C6.49598 17.9661 6.05788 17.8518 5.98234 17.806C5.92192 17.7717 5.90681 17.6688 5.95213 17.6002C6.01256 17.5202 6.17873 17.4515 6.3147 17.4515ZM11.0734 18.5951C11.164 18.5951 11.9043 18.7666 12.6898 18.9725C13.6567 19.2355 14.1401 19.4184 14.1703 19.5442C14.1854 19.6586 14.1099 19.7386 14.0192 19.7386C13.9135 19.7386 13.2035 19.5785 12.4632 19.3956C11.723 19.2012 11.0583 18.9839 10.9978 18.9038C10.9374 18.8238 10.877 18.7323 10.877 18.6866C10.877 18.6294 10.9676 18.5951 11.0734 18.5951ZM16.3759 19.9902C16.6327 20.0245 17.1161 20.1389 17.4485 20.2418C17.7809 20.3561 18.2794 20.5277 18.5664 20.6306C18.8534 20.7335 19.1103 20.8936 19.1405 20.9737C19.1707 21.0537 19.0196 21.1109 18.7326 21.1109C18.4909 21.1109 18.2492 21.0766 18.219 21.0308C18.1887 20.9737 17.7506 20.8479 17.237 20.7449C16.7385 20.6306 16.2097 20.4591 16.0889 20.3676C15.968 20.2761 15.8774 20.1389 15.8925 20.0703C15.8925 19.9902 16.0889 19.9559 16.3759 19.9902ZM20.9684 21.4539C21.1044 21.4539 21.7389 21.6598 22.3583 21.9114C22.9776 22.1744 23.5517 22.426 23.6423 22.4831C23.733 22.5403 23.7481 22.6661 23.6877 22.769C23.5819 22.9177 23.3553 22.8605 22.2525 22.4145C21.5123 22.1286 20.8325 21.8427 20.7418 21.7856C20.6361 21.7284 20.5756 21.6369 20.621 21.5683C20.6814 21.4997 20.8325 21.4539 20.9684 21.4539ZM25.2286 23.398C25.3192 23.398 25.6667 23.6495 26.0292 23.9469C26.3767 24.2556 26.7544 24.7016 26.845 24.9532C26.9508 25.1933 27.0414 25.4907 27.0414 25.605C27.0414 25.7537 26.9659 25.7765 26.7393 25.7079C26.558 25.6622 26.3918 25.4792 26.3465 25.2848C26.2861 25.0904 25.9537 24.6444 25.5911 24.2785C25.2286 23.924 24.9566 23.5809 25.002 23.5123C25.0624 23.4437 25.153 23.398 25.2286 23.398ZM26.2861 27.0573C26.4522 27.0573 26.5882 27.1374 26.5882 27.2288C26.5882 27.3203 26.3314 27.6405 26.0141 27.9493C25.6969 28.2466 25.2135 28.624 24.9566 28.8069C24.5488 29.0585 24.4279 29.0928 24.2315 28.9785C24.0351 28.8527 24.1107 28.7498 24.8207 28.2009C25.2739 27.8578 25.7271 27.4576 25.8177 27.3203C25.9084 27.1717 26.1199 27.0573 26.2861 27.0573ZM22.6302 29.6875C22.7208 29.6875 22.8417 29.7218 22.8719 29.7789C22.9172 29.8247 22.9021 29.9162 22.8417 29.9962C22.7812 30.0648 22.2072 30.385 21.5727 30.7052C20.9231 31.0254 20.2584 31.2884 20.0922 31.2884C19.926 31.2884 19.7901 31.2427 19.7901 31.1741C19.7901 31.1055 19.9411 30.9568 20.1375 30.831C20.3188 30.7167 20.5152 30.6137 20.5907 30.6023C20.6512 30.6023 21.0893 30.3965 21.5727 30.1449C22.041 29.8933 22.5244 29.6875 22.6302 29.6875ZM18.1736 31.7458C18.3096 31.7458 18.4305 31.7801 18.4305 31.8373C18.4305 31.8831 18.37 31.9746 18.3096 32.0432C18.2492 32.1118 17.6449 32.3862 16.9651 32.6492C16.2702 32.9008 15.6055 33.0952 15.4846 33.0609C15.3637 33.0266 15.258 32.9351 15.258 32.8665C15.258 32.7865 15.8623 32.5006 16.5874 32.2376C17.3125 31.9631 18.0226 31.7458 18.1736 31.7458ZM13.5056 33.3811C13.5962 33.404 13.6869 33.5069 13.7171 33.6098C13.7322 33.7127 13.6264 33.8385 13.4905 33.8728C13.3394 33.9186 12.6898 34.1244 12.0553 34.3303C11.4057 34.5475 10.7712 34.6962 10.6504 34.6619C10.5295 34.6276 10.4238 34.5475 10.4087 34.4903C10.4087 34.4217 10.9072 34.193 11.5417 33.9758C12.1762 33.7585 12.7956 33.5755 12.9164 33.5755C13.0373 33.5755 13.1883 33.5183 13.2337 33.4497C13.2941 33.3925 13.415 33.3582 13.5056 33.3811ZM8.7318 35.0736C8.82245 35.0621 8.91309 35.1079 8.91309 35.1765C8.91309 35.2451 8.92819 35.3251 8.92819 35.3709C8.9433 35.4281 8.76202 35.5538 8.52031 35.6568C8.2786 35.7711 7.97646 35.8969 7.8556 35.9427C7.73475 35.9884 7.29665 36.1714 6.90387 36.3658C6.40534 36.6059 6.11831 36.686 6.01256 36.6059C5.93702 36.5373 5.90681 36.4229 5.95213 36.3429C5.99745 36.2743 6.3298 36.0684 6.69237 35.8969C7.03983 35.7139 7.59878 35.4624 7.93114 35.3251C8.26349 35.1879 8.62606 35.0736 8.7318 35.0736ZM4.60761 37.2463C4.71336 37.3263 4.39612 37.6237 3.59545 38.2069C2.94585 38.6757 2.31136 39.0645 2.1905 39.0645C2.06965 39.0645 1.9639 38.973 1.9639 38.8587C1.9639 38.7558 2.34157 38.4013 2.80989 38.0925C3.2782 37.7723 3.83716 37.4293 4.04866 37.3263C4.32058 37.1891 4.48676 37.1662 4.60761 37.2463ZM0.921523 40.0937C0.997057 40.0937 1.0877 40.1738 1.13302 40.2652C1.17834 40.3567 1.11791 40.5511 0.997057 40.6998C0.891309 40.837 0.710026 41.2601 0.619384 41.6375C0.513636 42.0149 0.407887 42.4151 0.362566 42.5295C0.332352 42.6324 0.241711 42.7239 0.151069 42.7239C0.0755346 42.7239 0 42.4494 0 42.1292C0 41.7976 0.0755346 41.3173 0.166176 41.0657C0.256818 40.8141 0.438101 40.494 0.558956 40.3567C0.679812 40.2081 0.845988 40.0937 0.921523 40.0937ZM0.664705 43.8903C0.755346 43.9246 1.04238 44.2219 1.28409 44.5764C1.54091 44.9195 1.88837 45.3655 2.08476 45.5599C2.26604 45.7657 2.41711 45.9715 2.41711 46.0401C2.41711 46.1088 2.35668 46.1774 2.26604 46.2117C2.1905 46.246 1.93369 46.1316 1.72219 45.9487C1.51069 45.7771 1.13302 45.3769 0.891309 45.0681C0.664705 44.7479 0.468315 44.3477 0.468315 44.1762C0.483422 43.9818 0.558956 43.8674 0.664705 43.8903ZM3.67098 47.0236C3.77673 47.0808 4.3508 47.4124 4.95507 47.7783C5.54424 48.1443 6.04277 48.4645 6.04277 48.4988C6.04277 48.5331 6.07299 48.636 6.11831 48.7275C6.16363 48.8304 6.1032 48.899 5.96724 48.899C5.84638 48.899 5.31764 48.636 4.804 48.3044C4.27526 47.9842 3.73141 47.6182 3.59545 47.5039C3.44438 47.3895 3.36884 47.218 3.41417 47.1151C3.45949 47.0122 3.56524 46.9779 3.67098 47.0236ZM7.64411 49.4708C7.76496 49.4708 8.47499 49.7681 9.23033 50.134C10.3936 50.6944 10.5597 50.8087 10.3634 50.9345C10.167 51.0489 9.91014 50.9803 8.88287 50.5114C8.12753 50.1798 7.58368 49.8596 7.53836 49.7109C7.46282 49.5508 7.50814 49.4708 7.64411 49.4708ZM12.146 51.5292C12.146 51.5292 12.8258 51.7807 13.6416 52.1009C14.4422 52.4097 15.1069 52.7184 15.1069 52.7871C15.1069 52.8557 14.9861 52.9357 14.8501 52.97C14.699 53.0158 14.3214 52.9357 13.9739 52.7985C13.6416 52.6613 13.2639 52.5012 13.143 52.444C13.0222 52.3868 12.6596 52.2382 12.3575 52.1124C11.8892 51.918 11.8136 51.8379 11.9496 51.7007C12.0402 51.6092 12.1309 51.5292 12.146 51.5292ZM16.5874 53.3588C16.6478 53.3588 17.237 53.5761 17.9017 53.8277C18.5664 54.0793 19.2311 54.3766 19.3822 54.4795C19.5333 54.5824 19.6541 54.7082 19.639 54.7654C19.639 54.8111 19.5182 54.8454 19.3822 54.8454C19.2311 54.8454 18.6722 54.6625 18.1283 54.4452C17.5845 54.2279 16.9953 53.9992 16.814 53.9306C16.6176 53.8734 16.4666 53.7133 16.4666 53.5875C16.4666 53.4618 16.5119 53.3588 16.5874 53.3588ZM21.3008 55.1885C21.3914 55.1885 22.041 55.4286 22.7812 55.7145C23.5064 56.0004 24.156 56.2749 24.2164 56.3206C24.2768 56.3549 24.2315 56.4578 24.0956 56.5379C23.9143 56.6522 23.6726 56.5951 22.7057 56.2291C22.0561 55.9775 21.3914 55.7145 21.2403 55.623C21.0742 55.543 20.9986 55.4172 21.0591 55.3372C21.1195 55.2571 21.2252 55.1885 21.3008 55.1885ZM26.1954 57.0868C26.3767 57.1325 26.9508 57.3384 27.4946 57.5671C28.0385 57.7843 28.6125 58.0588 28.7787 58.1732C29.0657 58.3676 29.0657 58.3904 28.824 58.4476C28.6729 58.4819 27.9931 58.2875 27.3133 58.0359C26.6184 57.7729 25.9688 57.5099 25.8782 57.4642C25.7724 57.407 25.7271 57.2812 25.7724 57.1897C25.8429 57.0677 25.9839 57.0334 26.1954 57.0868Z" fill="#012E89"/>
<path id="Vector_2" d="M31.5 58.4515C31.5 58.4515 42 48.501 42 40.9515C42 38.1668 40.8938 35.496 38.9246 33.5269C36.9555 31.5578 34.2848 30.4515 31.5 30.4515C28.7152 30.4515 26.0445 31.5578 24.0754 33.5269C22.1062 35.496 21 38.1668 21 40.9515C21 48.501 31.5 58.4515 31.5 58.4515ZM31.5 46.2015C30.1076 46.2015 28.7723 45.6484 27.7877 44.6638C26.8031 43.6793 26.25 42.3439 26.25 40.9515C26.25 39.5592 26.8031 38.2238 27.7877 37.2392C28.7723 36.2547 30.1076 35.7015 31.5 35.7015C32.8924 35.7015 34.2277 36.2547 35.2123 37.2392C36.1969 38.2238 36.75 39.5592 36.75 40.9515C36.75 42.3439 36.1969 43.6793 35.2123 44.6638C34.2277 45.6484 32.8924 46.2015 31.5 46.2015Z" fill="#012E89"/>
<path id="Vector_3" d="M6.21145 17.5154C6.21145 17.5154 12.4229 11.629 12.4229 7.16299C12.4229 5.51561 11.7685 3.9357 10.6036 2.77083C9.43874 1.60596 7.85883 0.951538 6.21145 0.951538C4.56407 0.951538 2.98417 1.60596 1.81929 2.77083C0.654419 3.9357 2.45479e-08 5.51561 0 7.16299C0 11.629 6.21145 17.5154 6.21145 17.5154ZM6.21145 10.2687C5.38776 10.2687 4.59781 9.94151 4.01537 9.35907C3.43294 8.77664 3.10573 7.98668 3.10573 7.16299C3.10573 6.3393 3.43294 5.54935 4.01537 4.96691C4.59781 4.38447 5.38776 4.05727 6.21145 4.05727C7.03514 4.05727 7.8251 4.38447 8.40753 4.96691C8.98997 5.54935 9.31718 6.3393 9.31718 7.16299C9.31718 7.98668 8.98997 8.77664 8.40753 9.35907C7.8251 9.94151 7.03514 10.2687 6.21145 10.2687Z" fill="#012E89"/>
</g>
</svg>
