<svg width="1919" height="792" viewBox="0 0 1919 792" fill="none" xmlns="http://www.w3.org/2000/svg">
<g clip-path="url(#clip0_2041_29434)">
<path fill-rule="evenodd" clip-rule="evenodd" d="M2247.53 -410.843L3367.12 -410.73V-410.53C3367.12 -204.421 3200.03 -37.3342 2993.92 -37.3342H2993.72V-37.4413L1910.59 -37.174C1910.48 168.848 1743.43 335.827 1537.38 335.827H1537.18V335.714L418.377 335.827V335.626C418.377 129.671 585.209 -37.3124 791.104 -37.5693L790.986 -37.6872L1874.92 -37.7299C1875.03 -243.591 2041.81 -410.465 2247.64 -410.73L2247.53 -410.843ZM2248.29 -410.442V-410.329L2248.09 -410.329C2042.21 -410.308 1875.32 -243.411 1875.32 -37.5294V-37.3289L791.751 -37.2862V-37.1686H791.55C585.738 -37.1526 418.886 129.636 418.778 335.426L1537.58 335.313V335.426C1743.39 335.317 1910.19 168.451 1910.19 -37.3745V-37.5749L2994.12 -37.8423V-37.7353C3199.85 -37.8436 3366.61 -204.601 3366.72 -410.329L2248.29 -410.442Z" fill="#6681B8"/>
<path fill-rule="evenodd" clip-rule="evenodd" d="M1273.53 -604.986L2393.13 -604.874V-604.674C2393.13 -398.565 2226.04 -231.478 2019.93 -231.478H2019.73V-231.585L936.592 -231.318C936.484 -25.2957 769.437 141.683 563.387 141.683H563.187V141.571L-555.613 141.683V141.482C-555.613 -64.4721 -388.782 -231.456 -182.887 -231.713L-183.005 -231.831L900.928 -231.874C901.036 -437.734 1067.82 -604.614 1273.64 -604.874L1273.53 -604.986ZM1274.3 -604.585V-604.473L1274.1 -604.473C1068.22 -604.457 901.329 -437.555 901.329 -231.673V-231.473L-182.24 -231.43V-231.312H-182.44C-388.252 -231.296 -555.104 -64.5079 -555.212 141.282L563.588 141.17V141.282C769.391 141.173 936.191 -25.6923 936.191 -231.518V-231.718L2020.13 -231.986V-231.879C2225.86 -231.987 2392.62 -398.745 2392.73 -604.473L1274.3 -604.585Z" fill="#6681B8"/>
<path fill-rule="evenodd" clip-rule="evenodd" d="M-478.729 -410.843L640.868 -410.73V-410.53C640.868 -204.421 473.779 -37.3342 267.668 -37.3342H267.468V-37.4413L-815.673 -37.174C-815.782 168.848 -982.829 335.827 -1188.87 335.827H-1189.07V335.714L-2307.88 335.827V335.626C-2307.88 129.671 -2141.05 -37.3125 -1935.15 -37.5693L-1935.27 -37.6872L-851.338 -37.7299C-851.23 -243.591 -684.443 -410.465 -478.617 -410.73L-478.729 -410.843ZM-477.964 -410.442V-410.329L-478.165 -410.329C-684.044 -410.308 -850.937 -243.411 -850.937 -37.5294V-37.3289L-1934.51 -37.2862V-37.1686H-1934.71C-2140.52 -37.1526 -2307.37 129.636 -2307.48 335.426L-1188.67 335.313V335.426C-982.875 335.317 -816.074 168.451 -816.074 -37.3745V-37.5749L267.868 -37.8423V-37.7353C473.599 -37.8436 640.358 -204.601 640.467 -410.329L-477.964 -410.442Z" fill="#6681B8"/>
<path fill-rule="evenodd" clip-rule="evenodd" d="M2710.46 231.592L3830.06 231.704V231.905C3830.06 438.013 3662.97 605.1 3456.86 605.1H3456.66V604.993L2373.53 605.261C2373.42 811.283 2206.38 978.261 2000.33 978.261H2000.13V978.149L881.33 978.261V978.061C881.33 772.106 1048.16 605.122 1254.06 604.865L1253.94 604.747L2337.86 604.705C2337.96 398.844 2504.75 231.964 2710.58 231.704L2710.46 231.592ZM2711.23 231.993V232.105L2711.03 232.105C2505.15 232.121 2338.26 399.023 2338.26 604.905V605.106L1254.7 605.148V605.266H1254.5C1048.69 605.282 881.839 772.07 881.731 977.86L2000.53 977.748V977.86C2206.33 977.752 2373.13 810.886 2373.13 605.06V604.86L3457.06 604.592V604.699C3662.79 604.591 3829.55 437.833 3829.66 232.105L2711.23 231.993Z" fill="#6681B8"/>
<path fill-rule="evenodd" clip-rule="evenodd" d="M1736.47 37.4375L2856.07 37.5498V37.7503C2856.07 243.859 2688.98 410.946 2482.86 410.946H2482.66V410.834L1399.53 411.101C1399.42 617.123 1232.37 784.102 1026.32 784.102H1026.12V783.989L-92.6777 784.102V783.901C-92.6777 577.953 74.1373 410.974 280.028 410.706L279.902 410.588L1363.86 410.55C1363.97 204.69 1530.75 37.8097 1736.58 37.5501L1736.47 37.4375ZM1737.23 37.8386V37.9508L1737.03 37.9508C1531.15 37.9669 1364.26 204.869 1364.26 410.751V410.951L280.696 410.989V411.106H280.495C74.678 411.122 -92.1683 577.911 -92.2767 783.701L1026.52 783.588V783.701C1232.33 783.592 1399.13 616.726 1399.13 410.901V410.7L2483.06 410.433V410.545C2688.8 410.437 2855.56 243.679 2855.67 37.9508L1737.23 37.8386Z" fill="#6681B8"/>
<path fill-rule="evenodd" clip-rule="evenodd" d="M-15.7933 231.592L1103.79 231.709V231.91C1103.79 438.019 936.705 605.106 730.589 605.106H730.388V604.999L-352.747 605.266C-352.856 811.288 -519.903 978.267 -725.947 978.267H-726.148V978.154L-1844.95 978.267V978.066C-1844.95 772.111 -1678.12 605.128 -1472.23 604.871L-1472.34 604.753L-388.401 604.705C-388.293 398.844 -221.506 231.965 -15.6805 231.704L-15.7933 231.592ZM-15.0278 231.993V232.105L-15.2283 232.105C-221.107 232.121 -388 399.023 -388 604.905V605.106L-1471.58 605.154V605.271H-1471.78C-1677.59 605.287 -1844.44 772.076 -1844.55 977.865L-725.747 977.753V977.865C-519.949 977.757 -353.148 810.891 -353.148 605.065V604.865L730.789 604.598V604.705C936.525 604.596 1103.28 437.839 1103.39 232.11L-15.0278 231.993Z" fill="#6681B8"/>
<path fill-rule="evenodd" clip-rule="evenodd" d="M2199.43 679.889L3319 680.006V680.207C3319 886.316 3151.92 1053.4 2945.8 1053.4H2945.6V1053.29L1862.47 1053.56C1862.36 1259.58 1695.31 1426.56 1489.26 1426.56H1489.06V1426.45L370.26 1426.56V1426.36C370.26 1220.41 537.083 1053.43 742.976 1053.16L742.863 1053.05L1826.8 1053.01C1826.9 847.14 1993.7 680.256 2199.54 680.007L2199.43 679.889ZM2200.17 680.29V680.407L2199.97 680.407C1994.09 680.423 1827.2 847.325 1827.2 1053.21V1053.41L743.628 1053.45V1053.56L743.428 1053.56C537.615 1053.58 370.769 1220.37 370.661 1426.16L1489.46 1426.05V1426.16C1695.26 1426.05 1862.06 1259.18 1862.06 1053.36V1053.16L2946 1052.89V1053C3151.74 1052.89 3318.49 886.136 3318.6 680.407L2200.17 680.29Z" fill="#6681B8"/>
<path fill-rule="evenodd" clip-rule="evenodd" d="M-526.833 679.889L592.743 680.006V680.207C592.743 886.316 425.654 1053.4 219.543 1053.4H219.343V1053.29L-863.793 1053.56C-863.901 1259.58 -1030.95 1426.56 -1237 1426.56H-1237.2V1426.45L-2356 1426.56V1426.36C-2356 1220.41 -2189.18 1053.43 -1983.28 1053.16L-1983.39 1053.05L-899.463 1053.01C-899.355 847.14 -732.557 680.256 -526.722 680.007L-526.833 679.889ZM-526.089 680.29V680.407L-526.29 680.407C-732.169 680.423 -899.062 847.325 -899.062 1053.21V1053.41L-1982.63 1053.45V1053.56L-1982.83 1053.56C-2188.64 1053.58 -2355.49 1220.37 -2355.6 1426.16L-1236.8 1426.05V1426.16C-1030.99 1426.05 -864.194 1259.18 -864.194 1053.36V1053.16L219.743 1052.89V1053C425.474 1052.89 592.233 886.136 592.342 680.407L-526.089 680.29Z" fill="#6681B8"/>
</g>
<defs>
<clipPath id="clip0_2041_29434">
<rect width="1919" height="1114" fill="white" transform="translate(0 -322)"/>
</clipPath>
</defs>
</svg>
