<svg width="34" height="46" viewBox="0 0 34 46" fill="none" xmlns="http://www.w3.org/2000/svg">
<g id="Group">
<path id="Vector (Stroke)" fill-rule="evenodd" clip-rule="evenodd" d="M9.5 10.5C9.5 9.80964 10.0596 9.25 10.75 9.25H12.8333C13.5237 9.25 14.0833 9.80964 14.0833 10.5C14.0833 11.1904 13.5237 11.75 12.8333 11.75H10.75C10.0596 11.75 9.5 11.1904 9.5 10.5ZM9.5 27.1667C9.5 26.4763 10.0596 25.9167 10.75 25.9167H12.8333C13.5237 25.9167 14.0833 26.4763 14.0833 27.1667C14.0833 27.857 13.5237 28.4167 12.8333 28.4167H10.75C10.0596 28.4167 9.5 27.857 9.5 27.1667Z" fill="#012E89" stroke="#012E89" stroke-linecap="round" stroke-linejoin="round"/>
<path id="Vector (Stroke)_2" fill-rule="evenodd" clip-rule="evenodd" d="M1.89923 1.64886C2.36807 1.18002 3.00395 0.916626 3.66699 0.916626H30.3337C30.9967 0.916626 31.6326 1.18002 32.1014 1.64886C32.5703 2.1177 32.8337 2.75359 32.8337 3.41663V42.5833C32.8337 42.9116 32.769 43.2367 32.6434 43.54C32.5177 43.8433 32.3336 44.1189 32.1014 44.3511C31.8693 44.5832 31.5937 44.7674 31.2904 44.893C30.987 45.0186 30.662 45.0833 30.3337 45.0833H3.66699C3.3387 45.0833 3.01361 45.0186 2.71028 44.893C2.40697 44.7674 2.13137 44.5832 1.89923 44.3511C1.66708 44.1189 1.48293 43.8433 1.35729 43.54C1.23166 43.2367 1.16699 42.9116 1.16699 42.5833V3.41663C1.16699 2.75358 1.43038 2.1177 1.89923 1.64886ZM30.3337 3.41663H3.66699V17.5833H30.3337V3.41663ZM30.3337 20.0833H3.66699V42.5833H30.3337V20.0833Z" fill="#012E89" stroke="#012E89"/>
</g>
</svg>
