<svg width="50" height="50" viewBox="0 0 50 50" fill="none" xmlns="http://www.w3.org/2000/svg">
<g id="kettle">
<g id="Vector (Stroke)">
<path fill-rule="evenodd" clip-rule="evenodd" d="M18.9575 4.16663C18.9575 3.47627 19.5057 2.91663 20.182 2.91663H29.3657C30.0419 2.91663 30.5902 3.47627 30.5902 4.16663V9.16663H45.6922C46.3685 9.16663 46.9167 9.72627 46.9167 10.4166V27.0833C46.9167 27.7736 46.3685 28.3333 45.6922 28.3333H40.1071L40.7822 37.2916H43.6514C44.3277 37.2916 44.8759 37.8513 44.8759 38.5416V45.8333C44.8759 46.5236 44.3277 47.0833 43.6514 47.0833H6.91669C6.24043 47.0833 5.6922 46.5236 5.6922 45.8333V38.5416C5.6922 37.8513 6.24043 37.2916 6.91669 37.2916H9.78621L11.0971 20.4803C11.1164 20.2318 11.0869 19.9819 11.0105 19.7451C10.9341 19.5084 10.8122 19.2896 10.652 19.1015L3.95192 11.2369C3.63707 10.8673 3.56266 10.3441 3.76158 9.89838C3.9605 9.45267 4.39609 9.16663 4.87588 9.16663H18.9575V4.16663ZM21.4065 9.16663H28.1412V5.41663H21.4065V9.16663ZM12.2429 37.2916H38.3259L36.395 11.6666H7.56355L12.4998 17.4609C12.4998 17.4609 12.4998 17.4609 12.4998 17.4609C12.8737 17.8997 13.1581 18.4103 13.3364 18.9627C13.5148 19.515 13.5834 20.0982 13.5384 20.678L12.2429 37.2916ZM38.8512 11.6666L39.9187 25.8333H44.4677V11.6666H38.8512ZM20.9983 18.75C20.9983 18.0596 21.5465 17.5 22.2228 17.5H27.3249C28.0011 17.5 28.5493 18.0596 28.5493 18.75C28.5493 19.4403 28.0011 20 27.3249 20H22.2228C21.5465 20 20.9983 19.4403 20.9983 18.75ZM20.9983 25C20.9983 24.3096 21.5465 23.75 22.2228 23.75H27.3249C28.0011 23.75 28.5493 24.3096 28.5493 25C28.5493 25.6903 28.0011 26.25 27.3249 26.25H22.2228C21.5465 26.25 20.9983 25.6903 20.9983 25ZM20.9983 31.25C20.9983 30.5596 21.5465 30 22.2228 30H27.3249C28.0011 30 28.5493 30.5596 28.5493 31.25C28.5493 31.9403 28.0011 32.5 27.3249 32.5H22.2228C21.5465 32.5 20.9983 31.9403 20.9983 31.25ZM8.14118 39.7916V44.5833H42.4269V39.7916H8.14118Z" fill="#012E89"/>
<path d="M12.4998 17.4609L7.56355 11.6666H36.395L38.3259 37.2916H12.2429L13.5384 20.678C13.5834 20.0982 13.5148 19.515 13.3364 18.9627C13.1581 18.4103 12.8737 17.8997 12.4998 17.4609ZM12.4998 17.4609C12.4998 17.4609 12.4998 17.4609 12.4998 17.4609ZM20.182 2.91663C19.5057 2.91663 18.9575 3.47627 18.9575 4.16663V9.16663H4.87588C4.39609 9.16663 3.9605 9.45267 3.76158 9.89838C3.56266 10.3441 3.63707 10.8673 3.95192 11.2369L10.652 19.1015C10.8122 19.2896 10.9341 19.5084 11.0105 19.7451C11.0869 19.9819 11.1164 20.2318 11.0971 20.4803L9.78621 37.2916H6.91669C6.24043 37.2916 5.6922 37.8513 5.6922 38.5416V45.8333C5.6922 46.5236 6.24043 47.0833 6.91669 47.0833H43.6514C44.3277 47.0833 44.8759 46.5236 44.8759 45.8333V38.5416C44.8759 37.8513 44.3277 37.2916 43.6514 37.2916H40.7822L40.1071 28.3333H45.6922C46.3685 28.3333 46.9167 27.7736 46.9167 27.0833V10.4166C46.9167 9.72627 46.3685 9.16663 45.6922 9.16663H30.5902V4.16663C30.5902 3.47627 30.0419 2.91663 29.3657 2.91663H20.182ZM28.1412 9.16663H21.4065V5.41663H28.1412V9.16663ZM39.9187 25.8333L38.8512 11.6666H44.4677V25.8333H39.9187ZM22.2228 17.5C21.5465 17.5 20.9983 18.0596 20.9983 18.75C20.9983 19.4403 21.5465 20 22.2228 20H27.3249C28.0011 20 28.5493 19.4403 28.5493 18.75C28.5493 18.0596 28.0011 17.5 27.3249 17.5H22.2228ZM22.2228 23.75C21.5465 23.75 20.9983 24.3096 20.9983 25C20.9983 25.6903 21.5465 26.25 22.2228 26.25H27.3249C28.0011 26.25 28.5493 25.6903 28.5493 25C28.5493 24.3096 28.0011 23.75 27.3249 23.75H22.2228ZM22.2228 30C21.5465 30 20.9983 30.5596 20.9983 31.25C20.9983 31.9403 21.5465 32.5 22.2228 32.5H27.3249C28.0011 32.5 28.5493 31.9403 28.5493 31.25C28.5493 30.5596 28.0011 30 27.3249 30H22.2228ZM8.14118 44.5833V39.7916H42.4269V44.5833H8.14118Z" stroke="#012E89" stroke-linecap="round" stroke-linejoin="round"/>
</g>
</g>
</svg>
