<svg width="43" height="42" viewBox="0 0 43 42" fill="none" xmlns="http://www.w3.org/2000/svg">
<g id="bi:safe" clip-path="url(#clip0_2270_6403)">
<g id="Group">
<path id="Vector" d="M3.53516 4.61719C3.53516 3.59155 3.94259 2.60791 4.66783 1.88267C5.39307 1.15743 6.3767 0.75 7.40234 0.75L38.3398 0.75C39.3655 0.75 40.3491 1.15743 41.0744 1.88267C41.7996 2.60791 42.207 3.59155 42.207 4.61719V38.1328C42.207 39.1585 41.7996 40.1421 41.0744 40.8673C40.3491 41.5926 39.3655 42 38.3398 42H7.40234C6.3767 42 5.39307 41.5926 4.66783 40.8673C3.94259 40.1421 3.53516 39.1585 3.53516 38.1328V34.2656H2.24609C1.90421 34.2656 1.57634 34.1298 1.33459 33.8881C1.09284 33.6463 0.957031 33.3184 0.957031 32.9766C0.957031 32.6347 1.09284 32.3068 1.33459 32.0651C1.57634 31.8233 1.90421 31.6875 2.24609 31.6875H3.53516V22.6641H2.24609C1.90421 22.6641 1.57634 22.5283 1.33459 22.2865C1.09284 22.0448 0.957031 21.7169 0.957031 21.375C0.957031 21.0331 1.09284 20.7052 1.33459 20.4635C1.57634 20.2217 1.90421 20.0859 2.24609 20.0859H3.53516V11.0625H2.24609C1.90421 11.0625 1.57634 10.9267 1.33459 10.6849C1.09284 10.4432 0.957031 10.1153 0.957031 9.77344C0.957031 9.43156 1.09284 9.10368 1.33459 8.86193C1.57634 8.62019 1.90421 8.48438 2.24609 8.48438H3.53516V4.61719ZM7.40234 3.32812C7.06046 3.32812 6.73259 3.46394 6.49084 3.70568C6.24909 3.94743 6.11328 4.27531 6.11328 4.61719V38.1328C6.11328 38.4747 6.24909 38.8026 6.49084 39.0443C6.73259 39.2861 7.06046 39.4219 7.40234 39.4219H38.3398C38.6817 39.4219 39.0096 39.2861 39.2514 39.0443C39.4931 38.8026 39.6289 38.4747 39.6289 38.1328V4.61719C39.6289 4.27531 39.4931 3.94743 39.2514 3.70568C39.0096 3.46394 38.6817 3.32812 38.3398 3.32812H7.40234Z" fill="#012E89" stroke="#012E89"/>
<path id="Vector_2" d="M35.7616 16.2188C36.1035 16.2188 36.4314 16.3546 36.6731 16.5964C36.9149 16.8381 37.0507 17.166 37.0507 17.5079V25.2423C37.0507 25.5842 36.9149 25.912 36.6731 26.1538C36.4314 26.3955 36.1035 26.5313 35.7616 26.5313C35.4197 26.5313 35.0918 26.3955 34.8501 26.1538C34.6083 25.912 34.4725 25.5842 34.4725 25.2423V17.5079C34.4725 17.166 34.6083 16.8381 34.8501 16.5964C35.0918 16.3546 35.4197 16.2188 35.7616 16.2188ZM13.4041 12.2588C13.5238 12.1388 13.6661 12.0435 13.8227 11.9786C13.9793 11.9136 14.1472 11.8801 14.3168 11.8801C14.4863 11.8801 14.6542 11.9136 14.8108 11.9786C14.9674 12.0435 15.1097 12.1388 15.2294 12.2588L18.0396 15.069C19.3489 14.1398 20.9148 13.6406 22.5204 13.6406C24.1259 13.6406 25.6918 14.1398 27.0011 15.069L29.8113 12.2588C30.0533 12.0171 30.3815 11.8815 30.7236 11.8817C31.0656 11.882 31.3936 12.0181 31.6353 12.2601C31.877 12.5022 32.0127 12.8303 32.0124 13.1724C32.0122 13.5145 31.8761 13.8424 31.634 14.0841L28.8239 16.8943C30.7317 19.5678 30.7317 23.1849 28.8239 25.8559L31.634 28.666C31.8761 28.9077 32.0122 29.2357 32.0124 29.5778C32.0127 29.9198 31.877 30.248 31.6353 30.49C31.3936 30.7321 31.0656 30.8682 30.7236 30.8685C30.3815 30.8687 30.0533 30.733 29.8113 30.4913L27.0011 27.6812C25.6919 28.6108 24.126 29.1102 22.5204 29.1102C20.9147 29.1102 19.3488 28.6108 18.0396 27.6812L15.2294 30.4913C15.1096 30.6112 14.9673 30.7063 14.8107 30.7711C14.6541 30.836 14.4863 30.8694 14.3168 30.8694C14.1473 30.8694 13.9794 30.836 13.8228 30.7711C13.6662 30.7063 13.524 30.6112 13.4041 30.4913C13.2842 30.3715 13.1892 30.2292 13.1243 30.0726C13.0595 29.916 13.0261 29.7482 13.0261 29.5787C13.0261 29.4092 13.0595 29.2413 13.1243 29.0848C13.1892 28.9282 13.2842 28.7859 13.4041 28.666L16.2143 25.8559C15.285 24.5465 14.7859 22.9807 14.7859 21.3751C14.7859 19.7695 15.285 18.2037 16.2143 16.8943L13.4041 14.0841C13.2841 13.9644 13.1888 13.8222 13.1238 13.6655C13.0588 13.5089 13.0254 13.341 13.0254 13.1715C13.0254 13.0019 13.0588 12.834 13.1238 12.6774C13.1888 12.5208 13.2841 12.3786 13.4041 12.2588ZM18.8749 17.7296C18.3824 18.2053 17.9896 18.7742 17.7194 19.4033C17.4491 20.0324 17.3069 20.709 17.3009 21.3936C17.295 22.0783 17.4254 22.7573 17.6847 23.3909C17.944 24.0246 18.3268 24.6003 18.811 25.0845C19.2951 25.5686 19.8708 25.9515 20.5045 26.2107C21.1382 26.47 21.8172 26.6005 22.5018 26.5945C23.1864 26.5886 23.863 26.4463 24.4921 26.1761C25.1212 25.9058 25.6902 25.513 26.1658 25.0206C27.1051 24.0481 27.6248 22.7456 27.613 21.3936C27.6013 20.0417 27.059 18.7484 26.103 17.7924C25.147 16.8364 23.8537 16.2941 22.5018 16.2824C21.1498 16.2706 19.8474 16.7904 18.8749 17.7296Z" fill="#012E89" stroke="#012E89"/>
</g>
</g>
<defs>
<clipPath id="clip0_2270_6403">
<rect width="41.25" height="41.25" fill="white" transform="translate(0.957031 0.75)"/>
</clipPath>
</defs>
</svg>
