<svg width="46" height="34" viewBox="0 0 46 34" fill="none" xmlns="http://www.w3.org/2000/svg">
<g id="Group">
<g id="Vector (Stroke)">
<path d="M4.84232 10.0778C5.56101 9.50103 6.30077 8.96341 7.05873 8.46496L3.2773 8.12829L4.84232 10.0778Z" fill="#012E89"/>
<path d="M3.02698 11.6624C3.61006 11.1096 4.21583 10.5809 4.84232 10.0778L3.2773 8.12829C2.59733 8.67427 1.93987 9.24812 1.30701 9.84808C0.806004 10.323 0.784886 11.1142 1.25984 11.6152C1.7348 12.1162 2.52597 12.1373 3.02698 11.6624Z" fill="#012E89"/>
<path d="M44.6935 9.84791C33.1757 -1.06671 15.4481 -1.63981 3.2773 8.12829L7.05873 8.46496C18.1172 1.19273 33.051 2.25925 42.9739 11.6625C43.475 12.1374 44.2661 12.1161 44.741 11.615C45.2158 11.1139 45.1946 10.3228 44.6935 9.84791Z" fill="#012E89"/>
<path d="M4.84232 10.0778C4.21583 10.5809 3.61007 11.1096 3.02698 11.6624C2.52597 12.1373 1.7348 12.1162 1.25984 11.6152C0.784886 11.1142 0.806004 10.323 1.30701 9.84808C1.93987 9.24812 2.59733 8.67427 3.2773 8.12829M4.84232 10.0778L3.2773 8.12829M4.84232 10.0778C5.56101 9.50103 6.30077 8.96341 7.05873 8.46496M3.2773 8.12829C15.4481 -1.63981 33.1757 -1.06671 44.6935 9.84791C45.1946 10.3228 45.2158 11.1139 44.741 11.615C44.2661 12.1161 43.475 12.1374 42.9739 11.6625C33.051 2.25925 18.1172 1.19273 7.05873 8.46496M3.2773 8.12829L7.05873 8.46496" stroke="#012E89" stroke-linecap="round" stroke-linejoin="round"/>
</g>
<path id="Vector (Stroke)_2" fill-rule="evenodd" clip-rule="evenodd" d="M7.53311 16.9901C16.0754 8.44779 29.9252 8.44779 38.4675 16.9901C38.9557 17.4783 38.9557 18.2697 38.4675 18.7579C37.9794 19.246 37.1879 19.246 36.6998 18.7579C29.1338 11.1919 16.8669 11.1919 9.30088 18.7579C8.81272 19.246 8.02126 19.246 7.53311 18.7579C7.04495 18.2697 7.04495 17.4783 7.53311 16.9901ZM13.783 23.7767C18.8733 18.6853 27.1274 18.6853 32.2176 23.7767C32.7057 24.2649 32.7057 25.0563 32.2174 25.5444C31.7292 26.0325 30.9378 26.0324 30.4497 25.5442C26.3358 21.4294 19.6649 21.4294 15.551 25.5442C15.0629 26.0324 14.2714 26.0325 13.7832 25.5444C13.295 25.0563 13.2949 24.2649 13.783 23.7767Z" fill="#012E89" stroke="#012E89" stroke-linecap="round" stroke-linejoin="round"/>
<path id="Vector" fill-rule="evenodd" clip-rule="evenodd" d="M23.0007 32.6667C23.6913 32.6667 24.3537 32.3923 24.8421 31.904C25.3305 31.4156 25.6048 30.7532 25.6048 30.0625C25.6048 29.3719 25.3305 28.7095 24.8421 28.2211C24.3537 27.7327 23.6913 27.4584 23.0007 27.4584C22.31 27.4584 21.6476 27.7327 21.1592 28.2211C20.6709 28.7095 20.3965 29.3719 20.3965 30.0625C20.3965 30.7532 20.6709 31.4156 21.1592 31.904C21.6476 32.3923 22.31 32.6667 23.0007 32.6667Z" fill="#012E89" stroke="#012E89"/>
</g>
</svg>
