<svg width="40" height="40" viewBox="0 0 40 40" fill="none" xmlns="http://www.w3.org/2000/svg">
<path d="M19 5.99989C19.2341 5.99981 19.4607 6.08183 19.6405 6.23167C19.8203 6.3815 19.9419 6.58966 19.984 6.81989L20 6.99989V12.9999C20.0002 14.1525 19.6022 15.2699 18.8733 16.1628C18.1444 17.0557 17.1294 17.6694 16 17.8999V32.9999C16.0005 33.2498 15.9073 33.4908 15.739 33.6755C15.5706 33.8601 15.3392 33.9751 15.0904 33.9976C14.8415 34.0202 14.5932 33.9488 14.3943 33.7975C14.1955 33.6461 14.0605 33.4258 14.016 33.1799L14 32.9999V17.8999C12.9283 17.6807 11.958 17.1163 11.2378 16.2931C10.5175 15.4698 10.0869 14.4332 10.012 13.3419L10 12.9999V6.99989C9.99954 6.75 10.0927 6.50899 10.261 6.32432C10.4294 6.13966 10.6608 6.02472 10.9096 6.00214C11.1585 5.97956 11.4068 6.05098 11.6057 6.20233C11.8045 6.35368 11.9395 6.574 11.984 6.81989L12 6.99989V12.9999C11.9997 13.6205 12.1919 14.226 12.5501 14.7329C12.9083 15.2397 13.4148 15.623 14 15.8299V6.99989C13.9995 6.75 14.0927 6.50899 14.261 6.32432C14.4294 6.13966 14.6608 6.02472 14.9096 6.00214C15.1585 5.97956 15.4068 6.05098 15.6057 6.20233C15.8045 6.35368 15.9395 6.574 15.984 6.81989L16 6.99989V15.8279C17.076 15.4479 17.87 14.4719 17.986 13.2979L18 12.9999V6.99989C18 6.73467 18.1054 6.48032 18.2929 6.29278C18.4804 6.10525 18.7348 5.99989 19 5.99989ZM29 5.99989C29.2341 5.99981 29.4607 6.08183 29.6405 6.23167C29.8203 6.3815 29.9419 6.58966 29.984 6.81989L30 6.99989V32.9999C30.0005 33.2498 29.9073 33.4908 29.739 33.6755C29.5706 33.8601 29.3392 33.9751 29.0904 33.9976C28.8415 34.0202 28.5932 33.9488 28.3943 33.7975C28.1955 33.6461 28.0605 33.4258 28.016 33.1799L28 32.9999V21.9999H25C24.766 22 24.5393 21.9179 24.3595 21.7681C24.1797 21.6183 24.0581 21.4101 24.016 21.1799L24 20.9999V10.9999C24 9.67381 24.5268 8.40204 25.4645 7.46436C26.4021 6.52667 27.6739 5.99989 29 5.99989ZM28 19.9999V8.16989C26.924 8.54989 26.13 9.52589 26.014 10.7019L26 10.9999V19.9999H28Z" fill="#012E89"/>
</svg>
