<svg width="386" height="130" viewBox="0 0 386 130" fill="none" xmlns="http://www.w3.org/2000/svg">
<path d="M298.825 64.962L311.894 51.8176L324.962 64.962L311.894 78.1063L298.825 64.962Z" fill="#D3AC82"/>
<path d="M253.846 15.1198C250.275 35.8621 266.762 41.7884 270.713 44.0678C269.877 41.1046 269.193 37.6856 268.813 34.1146H281.578C282.338 41.3326 284.237 47.5628 286.593 51.4378H277.323H273.828H273.752C247.083 44.8276 235.535 30.0117 239.03 8.28172C239.182 7.52193 239.334 6.83811 239.486 6.07832L239.562 5.92637C246.096 2.05145 253.466 0 261.52 0C278.159 0 291.911 8.43367 301.256 24.3892C305.663 31.8352 308.854 40.8767 310.906 50.526L306.423 55.0088C297.837 32.443 280.514 13.9042 261.823 13.9801C259.012 13.9801 257.189 14.2081 253.846 15.1198Z" fill="#752959"/>
<path d="M384.757 8.28172C384.605 7.52193 384.453 6.83811 384.301 6.07832L384.225 5.92637C377.691 2.05145 370.321 0 362.267 0C345.628 0 331.876 8.43367 322.53 24.3892C318.123 31.8352 314.932 40.8767 312.881 50.526L317.364 55.0088C325.949 32.443 343.272 13.9042 361.963 13.9801C364.774 13.9801 366.598 14.1321 370.017 15.1198C373.588 35.8621 357.101 41.7884 353.15 44.0678C353.985 41.1046 354.669 37.6856 355.049 34.1146H342.285C341.525 41.3326 339.625 47.5628 337.27 51.4378H346.54H350.035H350.111C376.779 44.7516 388.328 29.9357 384.757 8.28172Z" fill="#752959"/>
<path d="M253.846 15.1198C250.275 35.8621 266.762 41.7884 270.713 44.0678C269.877 41.1046 269.193 37.6856 268.813 34.1146H281.578C282.338 41.3326 284.237 47.5628 286.593 51.4378H277.323H273.828H273.752C247.083 44.8276 235.535 30.0117 239.03 8.28172C239.182 7.52193 239.334 6.83811 239.486 6.07832L239.562 5.92637C246.096 2.05145 253.466 0 261.52 0C278.159 0 291.911 8.43367 301.256 24.3892C305.663 31.8352 308.854 40.8767 310.906 50.526L306.423 55.0088C297.837 32.443 280.514 13.9042 261.823 13.9801C259.012 13.9801 257.189 14.2081 253.846 15.1198Z" fill="#752959"/>
<path d="M369.941 114.88C373.512 94.1379 357.025 88.2116 353.074 85.9322C353.91 88.8954 354.593 92.3144 354.973 95.8854H342.209C341.449 88.6674 339.549 82.4372 337.194 78.5622H346.464H349.959H350.035C376.703 85.1724 388.252 99.9883 384.757 121.718C384.605 122.478 384.453 123.162 384.301 123.922L384.225 124.074C377.691 127.949 370.321 130 362.267 130C345.628 130 331.876 121.566 322.53 105.611C318.123 98.1648 314.932 89.1233 312.881 79.474L317.364 74.9912C325.949 97.557 343.272 116.096 361.963 116.02C364.774 115.944 366.598 115.792 369.941 114.88Z" fill="#752959"/>
<path d="M239.03 121.718C239.182 122.478 239.334 123.162 239.486 123.922L239.562 124.074C246.096 127.949 253.466 130 261.52 130C278.159 130 291.911 121.566 301.257 105.611C305.663 98.1648 308.855 89.1233 310.906 79.474L306.423 74.9912C297.838 97.557 280.515 116.096 261.824 116.02C259.012 116.02 257.189 115.868 253.77 114.88C250.199 94.1379 266.686 88.2116 270.637 85.9322C269.801 88.8954 269.118 92.3144 268.738 95.8854H281.502C282.262 88.6674 284.162 82.4372 286.517 78.5622H277.247H273.752H273.676C247.008 85.1724 235.459 100.064 239.03 121.718Z" fill="#752959"/>
<path d="M369.941 114.88C373.512 94.1379 357.025 88.2116 353.074 85.9322C353.91 88.8954 354.593 92.3144 354.973 95.8854H342.209C341.449 88.6674 339.549 82.4372 337.194 78.5622H346.464H349.959H350.035C376.703 85.1724 388.252 99.9883 384.757 121.718C384.605 122.478 384.453 123.162 384.301 123.922L384.225 124.074C377.691 127.949 370.321 130 362.267 130C345.628 130 331.876 121.566 322.53 105.611C318.123 98.1648 314.932 89.1233 312.881 79.474L317.364 74.9912C325.949 97.557 343.272 116.096 361.963 116.02C364.774 115.944 366.598 115.792 369.941 114.88Z" fill="#752959"/>
<path d="M28.72 44.9796C29.4798 45.6634 30.0117 46.4232 30.3156 47.107C30.6195 47.8668 30.6955 48.4746 30.6955 49.0824C30.6955 49.9942 30.4675 50.9059 29.9357 51.7417C29.4038 52.5775 28.5681 53.3373 27.3524 54.0211C26.1368 54.7049 24.6172 55.2367 22.6417 55.6166C20.6663 55.9965 18.3869 56.2244 15.5757 56.2244C12.5365 56.2244 9.95324 55.9206 7.97779 55.3887C6.00234 54.8568 4.40679 54.0211 3.19112 53.1093C1.97546 52.1216 1.21564 50.9819 0.683783 49.6903C0.227909 48.3986 0 46.955 0 45.3595V38.5214H2.73522V44.6757C2.73522 47.7148 3.72295 49.9182 5.77438 51.2858C7.82581 52.6534 11.0929 53.4132 15.6516 53.4132C17.3232 53.4132 18.9187 53.3373 20.4383 53.1093C21.9579 52.9574 23.2495 52.6535 24.3892 52.2736C25.5289 51.8937 26.4407 51.4378 27.1245 50.83C27.8083 50.2221 28.1122 49.5383 28.1122 48.7785C28.1122 48.0947 27.8083 47.4869 27.2005 46.955C26.5926 46.4232 25.8328 45.8913 24.997 45.4355C24.0853 44.9796 23.0976 44.5997 22.0339 44.2198C20.9702 43.8399 19.9065 43.536 18.9947 43.308L17.6271 42.9281V40.0409C18.4629 40.2689 19.2986 40.5728 20.2104 40.8007C21.1221 41.0287 22.0339 41.2566 23.0216 41.4845C24.0093 41.7125 24.9211 41.8644 25.8328 41.9404C26.7446 42.0924 27.5803 42.0924 28.4161 42.0924H32.0631C32.595 42.0924 32.9748 42.1684 33.2788 42.3963C33.5827 42.6242 33.6587 43.0041 33.6587 43.536C33.6587 44.1438 33.5067 44.5997 33.2788 44.7516C32.9748 44.9036 32.595 45.0556 32.0631 45.0556H28.72V44.9796Z" fill="#752959"/>
<path d="M32.0624 44.9795C31.5305 44.9795 31.1506 44.9036 30.8467 44.6756C30.5428 44.4477 30.4668 44.0678 30.4668 43.5359C30.4668 42.9281 30.6188 42.4722 30.8467 42.3203C31.1506 42.1683 31.5305 42.0164 32.0624 42.0164H38.7485C39.2804 42.0164 39.6602 42.0923 39.9642 42.3203C40.1921 42.5482 40.3441 42.9281 40.3441 43.46C40.3441 44.0678 40.1921 44.5237 39.9642 44.6756C39.7362 44.8276 39.2804 44.9795 38.7485 44.9795H32.0624Z" fill="#752959"/>
<path d="M38.6737 44.9795C38.1418 44.9795 37.7619 44.9036 37.458 44.6756C37.1541 44.4477 37.0781 44.0678 37.0781 43.5359C37.0781 42.9281 37.2301 42.4722 37.458 42.3203C37.7619 42.1683 38.1418 42.0164 38.6737 42.0164H45.3598C45.8917 42.0164 46.2716 42.0923 46.5755 42.3203C46.8034 42.5482 46.9554 42.9281 46.9554 43.46C46.9554 44.0678 46.8034 44.5237 46.5755 44.6756C46.3476 44.8276 45.8917 44.9795 45.3598 44.9795H38.6737Z" fill="#752959"/>
<path d="M45.3593 44.9795C44.8274 44.9795 44.4475 44.9036 44.1436 44.6756C43.8397 44.4477 43.7637 44.0678 43.7637 43.5359C43.7637 42.9281 43.9156 42.4722 44.1436 42.3203C44.4475 42.1683 44.8274 42.0164 45.3593 42.0164H52.0454C52.5772 42.0164 52.9571 42.0923 53.261 42.3203C53.489 42.5482 53.6409 42.9281 53.6409 43.46C53.6409 44.0678 53.489 44.5237 53.261 44.6756C53.0331 44.8276 52.5772 44.9795 52.0454 44.9795H45.3593Z" fill="#752959"/>
<path d="M51.9696 44.9795C51.4377 44.9795 51.0578 44.9036 50.7539 44.6756C50.45 44.4477 50.374 44.0678 50.374 43.5359C50.374 42.9281 50.526 42.4722 50.7539 42.3203C51.0578 42.1683 51.4377 42.0164 51.9696 42.0164H58.6557C59.1876 42.0164 59.5675 42.0923 59.8714 42.3203C60.0993 42.5482 60.2513 42.9281 60.2513 43.46C60.2513 44.0678 60.0993 44.5237 59.8714 44.6756C59.6435 44.8276 59.1876 44.9795 58.6557 44.9795H51.9696Z" fill="#752959"/>
<path d="M58.6552 44.9795C58.1233 44.9795 57.7434 44.9036 57.4395 44.6756C57.1355 44.4477 57.0596 44.0678 57.0596 43.5359C57.0596 42.9281 57.2115 42.4722 57.4395 42.3203C57.7434 42.1683 58.1233 42.0164 58.6552 42.0164H65.3413C65.8731 42.0164 66.253 42.0923 66.5569 42.3203C66.7849 42.5482 66.9368 42.9281 66.9368 43.46C66.9368 44.0678 66.7849 44.5237 66.5569 44.6756C66.329 44.8276 65.8731 44.9795 65.3413 44.9795H58.6552Z" fill="#752959"/>
<path d="M65.2655 44.9795C64.7336 44.9795 64.3537 44.9036 64.0498 44.6756C63.7459 44.4477 63.6699 44.0678 63.6699 43.5359C63.6699 42.9281 63.8219 42.4722 64.0498 42.3203C64.3537 42.1683 64.7336 42.0164 65.2655 42.0164H71.9516C72.4835 42.0164 72.8634 42.0923 73.1673 42.3203C73.3952 42.5482 73.5472 42.9281 73.5472 43.46C73.5472 44.0678 73.3952 44.5237 73.1673 44.6756C72.9394 44.8276 72.4835 44.9795 71.9516 44.9795H65.2655Z" fill="#752959"/>
<path d="M71.952 44.9795C71.4202 44.9795 71.0403 44.9036 70.7363 44.6756C70.4324 44.4477 70.3564 44.0678 70.3564 43.5359C70.3564 42.9281 70.5084 42.4722 70.7363 42.3203C71.0403 42.1683 71.4202 42.0164 71.952 42.0164H78.6382C79.17 42.0164 79.5499 42.0923 79.8538 42.3203C80.0818 42.5482 80.2337 42.9281 80.2337 43.46C80.2337 44.0678 80.0818 44.5237 79.8538 44.6756C79.6259 44.8276 79.17 44.9795 78.6382 44.9795H71.952Z" fill="#752959"/>
<path d="M78.5623 44.9795C78.0305 44.9795 77.6506 44.9036 77.3467 44.6756C77.0428 44.4477 76.9668 44.0678 76.9668 43.5359C76.9668 42.9281 77.1188 42.4722 77.3467 42.3203C77.6506 42.1683 78.0305 42.0164 78.5623 42.0164H85.2485C85.7804 42.0164 86.1602 42.0923 86.4642 42.3203C86.6921 42.5482 86.8441 42.9281 86.8441 43.46C86.8441 44.0678 86.6921 44.5237 86.4642 44.6756C86.2362 44.8276 85.7804 44.9795 85.2485 44.9795H78.5623Z" fill="#752959"/>
<path d="M85.2479 44.9795C84.7161 44.9795 84.3362 44.9036 84.0322 44.6756C83.7283 44.4477 83.6523 44.0678 83.6523 43.5359C83.6523 42.9281 83.8043 42.4722 84.0322 42.3203C84.3362 42.1683 84.7161 42.0164 85.2479 42.0164H91.9341C92.4659 42.0164 92.8458 42.0923 93.1497 42.3203C93.3776 42.5482 93.5296 42.9281 93.5296 43.46C93.5296 44.0678 93.3776 44.5237 93.1497 44.6756C92.9218 44.8276 92.4659 44.9795 91.9341 44.9795H85.2479Z" fill="#752959"/>
<path d="M113.132 37.0777C113.132 36.2419 112.98 35.4822 112.752 34.7983C112.525 34.1145 112.221 33.4307 111.765 32.8989C111.309 32.367 110.777 31.9111 110.169 31.5312C109.485 31.2273 108.802 30.9994 107.966 30.9994C107.282 30.9994 106.598 31.1514 105.914 31.4553C105.231 31.7592 104.623 32.291 104.015 32.9749C103.407 33.6587 102.799 34.5704 102.267 35.7101C101.66 36.8498 101.128 38.2174 100.596 39.813C101.887 40.7247 103.103 41.4085 104.395 41.8644C105.686 42.3962 106.902 42.6242 108.194 42.6242C109.713 42.6242 110.929 42.1683 111.765 41.3325C112.676 40.4968 113.132 39.0532 113.132 37.0777ZM91.8582 44.9795C91.3264 44.9795 90.9465 44.9035 90.6426 44.6756C90.3387 44.4477 90.2627 44.0678 90.2627 43.5359C90.2627 42.9281 90.4147 42.4722 90.6426 42.3203C90.9465 42.1683 91.3264 42.0163 91.8582 42.0163H93.6058C93.9857 42.0163 94.4415 41.9404 94.8974 41.8644C95.3533 41.7124 95.8092 41.4845 96.2651 41.1806C96.7209 40.8007 97.1768 40.3448 97.5567 39.737C98.0125 39.1291 98.3925 38.2934 98.7723 37.3056C99.4562 35.4821 100.14 33.9626 100.9 32.7469C101.66 31.5312 102.495 30.6195 103.331 29.9357C104.167 29.2519 105.003 28.796 105.838 28.4921C106.674 28.2641 107.51 28.1122 108.194 28.1122C109.333 28.1122 110.397 28.3401 111.309 28.796C112.297 29.2519 113.056 29.8597 113.74 30.6195C114.424 31.3793 114.956 32.367 115.412 33.4307C115.792 34.4944 116.02 35.7101 116.02 37.0777C116.02 39.661 115.412 41.7124 114.12 43.232C112.828 44.7516 111.005 45.5114 108.498 45.5114C107.054 45.5114 105.686 45.2834 104.243 44.8275C102.799 44.3717 101.128 43.5359 99.3042 42.3203C98.5444 43.4599 97.6327 44.2197 96.6449 44.4477C95.6572 44.7516 94.6695 44.8275 93.6058 44.8275H91.8582V44.9795Z" fill="#752959"/>
<path d="M125.518 12.3846H122.631V44.9795H125.518V12.3846Z" fill="#752959"/>
<path d="M133.495 19.0707C133.495 18.5389 133.723 18.083 134.103 17.7031C134.483 17.3232 134.939 17.0953 135.47 17.0953C136.002 17.0953 136.458 17.3232 136.914 17.7031C137.294 18.083 137.522 18.5389 137.522 19.0707C137.522 19.6026 137.294 20.1344 136.914 20.5143C136.534 20.8942 136.002 21.1222 135.47 21.1222C134.939 21.1222 134.483 20.8942 134.103 20.5143C133.723 20.1344 133.495 19.6786 133.495 19.0707ZM136.914 36.318C136.914 38.1415 137.218 39.5091 137.75 40.5728C138.358 41.6365 139.421 42.0924 141.017 42.0924C141.549 42.0924 141.929 42.1683 142.232 42.3963C142.536 42.6242 142.612 43.0041 142.612 43.536C142.612 44.1438 142.46 44.5997 142.232 44.7516C141.929 44.9036 141.549 45.0555 141.017 45.0555C138.889 45.0555 137.522 44.3717 136.838 43.0041C136.838 45.2075 136.686 47.107 136.458 48.6265C136.154 50.1461 135.698 51.3618 135.014 52.2735C134.331 53.1853 133.419 53.8691 132.203 54.325C130.988 54.7808 129.544 55.0088 127.645 55.0847V52.1216C129.088 52.0456 130.228 51.8177 131.064 51.4378C131.899 51.0579 132.583 50.4501 132.963 49.6903C133.419 48.9305 133.647 47.9427 133.799 46.7271C133.951 45.5114 134.027 44.0678 134.027 42.4723V30.1637H136.762V36.318H136.914Z" fill="#752959"/>
<path d="M141.017 44.9795C140.486 44.9795 140.106 44.9036 139.802 44.6756C139.498 44.4477 139.422 44.0678 139.422 43.5359C139.422 42.9281 139.574 42.4722 139.802 42.3203C140.106 42.1683 140.486 42.0164 141.017 42.0164H147.704C148.235 42.0164 148.615 42.0923 148.919 42.3203C149.223 42.5482 149.299 42.9281 149.299 43.46C149.299 44.0678 149.147 44.5237 148.919 44.6756C148.691 44.8276 148.235 44.9795 147.704 44.9795H141.017Z" fill="#752959"/>
<path d="M147.703 44.9795C147.171 44.9795 146.791 44.9036 146.487 44.6756C146.183 44.4477 146.107 44.0678 146.107 43.5359C146.107 42.9281 146.259 42.4722 146.487 42.3203C146.791 42.1683 147.171 42.0164 147.703 42.0164H154.389C154.921 42.0164 155.301 42.0923 155.605 42.3203C155.909 42.5482 155.985 42.9281 155.985 43.46C155.985 44.0678 155.833 44.5237 155.605 44.6756C155.377 44.8276 154.921 44.9795 154.389 44.9795H147.703Z" fill="#752959"/>
<path d="M154.313 44.9795C153.781 44.9795 153.402 44.9036 153.098 44.6756C152.794 44.4477 152.718 44.0678 152.718 43.5359C152.718 42.9281 152.87 42.4722 153.098 42.3203C153.402 42.1683 153.781 42.0164 154.313 42.0164H160.999C161.531 42.0164 161.911 42.0923 162.215 42.3203C162.519 42.5482 162.595 42.9281 162.595 43.46C162.595 44.0678 162.443 44.5237 162.215 44.6756C161.987 44.8276 161.531 44.9795 160.999 44.9795H154.313Z" fill="#752959"/>
<path d="M160.924 44.9795C160.392 44.9795 160.012 44.9036 159.708 44.6756C159.404 44.4477 159.328 44.0678 159.328 43.5359C159.328 42.9281 159.48 42.4722 159.708 42.3203C160.012 42.1683 160.392 42.0164 160.924 42.0164H167.61C168.142 42.0164 168.522 42.0923 168.825 42.3203C169.129 42.5482 169.205 42.9281 169.205 43.46C169.205 44.0678 169.053 44.5237 168.825 44.6756C168.598 44.8276 168.142 44.9795 167.61 44.9795H160.924Z" fill="#752959"/>
<path d="M167.609 44.9795C167.077 44.9795 166.697 44.9036 166.394 44.6756C166.09 44.4477 166.014 44.0678 166.014 43.5359C166.014 42.9281 166.166 42.4722 166.394 42.3203C166.697 42.1683 167.077 42.0164 167.609 42.0164H174.295C174.827 42.0164 175.207 42.0923 175.511 42.3203C175.739 42.5482 175.891 42.9281 175.891 43.46C175.891 44.0678 175.739 44.5237 175.511 44.6756C175.283 44.8276 174.827 44.9795 174.295 44.9795H167.609Z" fill="#752959"/>
<path d="M174.22 44.9795C173.688 44.9795 173.308 44.9036 173.004 44.6756C172.7 44.4477 172.624 44.0678 172.624 43.5359C172.624 42.9281 172.776 42.4722 173.004 42.3203C173.308 42.1683 173.688 42.0164 174.22 42.0164H180.906C181.438 42.0164 181.817 42.0923 182.121 42.3203C182.349 42.5482 182.501 42.9281 182.501 43.46C182.501 44.0678 182.349 44.5237 182.121 44.6756C181.893 44.8276 181.438 44.9795 180.906 44.9795H174.22Z" fill="#752959"/>
<path d="M180.906 44.9795C180.374 44.9795 179.994 44.9036 179.69 44.6756C179.387 44.4477 179.311 44.0678 179.311 43.5359C179.311 42.9281 179.463 42.4722 179.69 42.3203C179.994 42.1683 180.374 42.0164 180.906 42.0164H187.592C188.124 42.0164 188.504 42.0923 188.808 42.3203C189.112 42.5482 189.188 42.9281 189.188 43.46C189.188 44.0678 189.036 44.5237 188.808 44.6756C188.58 44.8276 188.124 44.9795 187.592 44.9795H180.906Z" fill="#752959"/>
<path d="M187.516 44.9795C186.985 44.9795 186.605 44.9036 186.301 44.6756C185.997 44.4477 185.921 44.0678 185.921 43.5359C185.921 42.9281 186.073 42.4722 186.301 42.3203C186.605 42.1683 186.985 42.0164 187.516 42.0164H194.203C194.734 42.0164 195.114 42.0923 195.418 42.3203C195.722 42.5482 195.798 42.9281 195.798 43.46C195.798 44.0678 195.646 44.5237 195.418 44.6756C195.19 44.8276 194.734 44.9795 194.203 44.9795H187.516Z" fill="#752959"/>
<path d="M201.648 19.1467C201.648 18.6149 201.8 18.159 202.18 17.7791C202.56 17.3992 203.016 17.1713 203.547 17.1713C204.079 17.1713 204.535 17.3992 204.915 17.7791C205.295 18.159 205.523 18.6149 205.523 19.1467C205.523 19.6786 205.295 20.2104 204.915 20.5903C204.535 20.9702 204.003 21.1982 203.547 21.1982C203.016 21.1982 202.56 20.9702 202.18 20.5903C201.8 20.2104 201.648 19.6786 201.648 19.1467ZM194.202 44.9796C193.67 44.9796 193.29 44.9036 192.986 44.6757C192.682 44.4477 192.606 44.0678 192.606 43.536C192.606 42.9281 192.758 42.4723 192.986 42.3203C193.29 42.1683 193.67 42.0164 194.202 42.0164H213.501C213.501 39.813 213.197 37.9135 212.665 36.394C212.133 34.8744 211.373 33.6587 210.385 32.671C209.398 31.6832 208.334 30.9994 207.042 30.6195C205.751 30.1637 204.383 29.9357 202.94 29.9357C202.104 29.9357 201.268 30.0117 200.432 30.0877C199.521 30.2396 198.761 30.3156 198.077 30.5436V27.8083C198.685 27.6564 199.521 27.4284 200.432 27.2765C201.42 27.0485 202.408 26.9725 203.395 26.9725C205.751 26.9725 207.726 27.3524 209.398 28.1882C211.069 29.024 212.437 30.0877 213.501 31.4553C214.564 32.8229 215.4 34.4185 215.856 36.242C216.312 38.0655 216.616 39.965 216.616 42.0164V44.9796H194.202Z" fill="#752959"/>
<path d="M14.2081 87.4518C13.8282 87.6797 13.4482 87.7556 12.9924 87.7556C12.6125 87.7556 12.3846 87.6797 12.1566 87.6037C11.9287 87.4517 11.7767 87.2238 11.5488 86.9199L7.21799 79.7779C6.76211 79.094 6.30625 78.5622 5.85038 78.3343C5.3945 78.1063 4.55873 77.9544 3.57101 77.9544H2.43132V87.5277H0.379883V67.3173H2.43132V76.2068H4.10282C4.48272 76.2068 4.71065 76.2068 4.86261 76.2068L11.6248 67.2413H13.9801L6.68613 76.7387C7.52189 77.1946 8.28168 77.9544 8.96549 79.0941L14.2081 87.4518Z" fill="#752959"/>
<path d="M46.2715 67.2413V87.5277H44.2201V77.9544H33.811V87.5277H31.6836V67.2413H33.811V76.2068H44.2201V67.2413H46.2715Z" fill="#752959"/>
<path d="M67.4688 85.9322C66.1772 84.7165 65.5693 82.817 65.5693 80.2338V67.2413H67.6208V80.5376C67.6208 82.4371 68.0766 83.8048 68.9884 84.6405C69.9001 85.5523 71.3437 86.0081 73.3192 86.0081C75.2947 86.0081 76.7383 85.5523 77.65 84.7165C78.5618 83.8047 79.0176 82.4371 79.0176 80.5376V67.2413H81.0691V80.2338C81.0691 82.817 80.4612 84.7165 79.1696 85.9322C77.9539 87.1478 75.9785 87.7556 73.3192 87.7556C70.6599 87.7556 68.6845 87.1478 67.4688 85.9322Z" fill="#752959"/>
<path d="M112.905 85.7802V87.5277H99.2285V85.7802L110.397 68.9889H99.2285V67.2413H112.677V69.1408L101.66 85.7802H112.905Z" fill="#752959"/>
<path d="M141.929 79.9299C140.79 76.2069 139.27 72.7119 137.523 69.4448C135.775 72.7119 134.331 76.2069 133.116 79.9299H141.929ZM142.461 81.6014H132.66C132.204 83.121 131.748 85.0964 131.216 87.4518H129.089C130.077 83.3489 131.14 79.626 132.356 76.4348C133.496 73.2437 134.939 70.1286 136.535 67.1654H138.662C140.258 70.1286 141.625 73.1677 142.765 76.3588C143.905 79.55 145.044 83.2729 146.032 87.3758H143.905C143.373 85.0964 142.917 83.121 142.461 81.6014Z" fill="#752959"/>
<path d="M180.299 87.5277C180.147 81.4494 179.615 75.675 178.627 70.2045C177.943 71.8001 177.259 73.5476 176.576 75.447C175.892 77.3465 174.828 80.6896 173.385 85.4763H171.865C170.573 81.2974 169.51 78.1823 168.826 76.0549C168.066 73.9275 167.382 72.028 166.622 70.2805C165.711 75.523 165.179 81.2974 164.951 87.5277H162.899C162.975 83.8807 163.203 80.3097 163.583 76.8147C163.963 73.3197 164.419 70.1285 165.027 67.2413H167.306C168.446 69.7486 169.434 72.028 170.193 74.0794C170.953 76.1309 171.789 78.4862 172.549 81.1455C173.385 78.4862 174.144 76.1309 174.904 74.0794C175.664 72.028 176.652 69.7486 177.791 67.2413H180.071C180.679 70.1285 181.134 73.2437 181.514 76.8147C181.894 80.3097 182.122 83.8807 182.198 87.5277H180.299Z" fill="#752959"/>
<path d="M212.209 79.9299C211.07 76.2069 209.55 72.7119 207.803 69.4448C206.055 72.7119 204.612 76.2069 203.396 79.9299H212.209ZM212.665 81.6014H202.864C202.408 83.121 201.952 85.0964 201.42 87.4518H199.293C200.281 83.3489 201.344 79.626 202.56 76.4348C203.7 73.2437 205.143 70.1286 206.739 67.1654H208.866C210.462 70.1286 211.829 73.1677 212.969 76.3588C214.109 79.55 215.249 83.2729 216.236 87.3758H214.109C213.577 85.0964 213.121 83.121 212.665 81.6014Z" fill="#752959"/>
<path d="M152.11 116.4C152.414 116.172 152.566 115.792 152.566 115.26C152.566 114.728 152.414 114.348 152.11 114.12C151.806 113.892 151.274 113.74 150.514 113.74H148.767V116.704H150.514C151.274 116.78 151.806 116.628 152.11 116.4ZM151.806 110.701C151.502 110.473 151.122 110.321 150.59 110.321H148.843V113.133H150.59C151.73 113.133 152.338 112.677 152.338 111.689C152.262 111.233 152.11 110.929 151.806 110.701ZM153.022 114.12C153.25 114.424 153.402 114.88 153.402 115.336C153.402 116.02 153.174 116.552 152.718 116.932C152.262 117.312 151.578 117.463 150.742 117.463H148.083V109.714H150.59C151.35 109.714 151.958 109.866 152.414 110.245C152.87 110.625 153.098 111.081 153.098 111.765C153.098 112.145 153.022 112.525 152.794 112.829C152.642 113.133 152.338 113.361 152.034 113.513C152.414 113.513 152.718 113.74 153.022 114.12Z" fill="#D3AC82"/>
<path d="M160.163 109.638L157.504 114.196V117.463H156.744V114.196L154.085 109.638H154.921L157.124 113.437L159.328 109.638H160.163Z" fill="#D3AC82"/>
<path d="M172.699 112.981C172.016 110.777 171.18 108.726 170.116 106.75C169.052 108.65 168.217 110.777 167.533 112.981H172.699ZM173.003 113.968H167.229C166.925 114.88 166.697 116.02 166.393 117.463H165.102C165.709 115.032 166.317 112.905 167.001 111.005C167.685 109.106 168.521 107.282 169.432 105.535H170.724C171.636 107.282 172.472 109.106 173.155 110.929C173.839 112.829 174.447 114.956 175.055 117.463H173.839C173.535 116.02 173.231 114.88 173.003 113.968Z" fill="#D3AC82"/>
<path d="M180.526 111.385C181.513 111.385 182.349 111.157 182.881 110.777C183.413 110.321 183.717 109.79 183.717 109.03C183.717 108.27 183.489 107.662 182.957 107.282C182.425 106.902 181.665 106.674 180.602 106.674H178.018V111.461H180.526V111.385ZM185.236 117.387C185.008 117.539 184.781 117.539 184.477 117.539C184.249 117.539 184.097 117.463 183.945 117.387C183.793 117.311 183.717 117.16 183.565 117.008L181.665 113.665C181.361 113.209 181.058 112.829 180.678 112.677C180.298 112.449 179.766 112.373 179.082 112.373H178.018V117.387H176.803V105.459H180.678C182.045 105.459 183.109 105.763 183.869 106.37C184.629 106.978 185.008 107.814 185.008 108.878C185.008 109.714 184.705 110.473 184.173 111.081C183.641 111.689 182.881 112.069 181.969 112.221C182.273 112.525 182.577 112.829 182.881 113.285L185.236 117.387Z" fill="#D3AC82"/>
<path d="M194.506 115.26C195.114 114.424 195.417 113.133 195.417 111.461C195.417 108.118 194.202 106.523 191.694 106.523C189.263 106.523 187.972 108.194 187.972 111.461C187.972 113.133 188.275 114.424 188.883 115.26C189.491 116.096 190.403 116.552 191.619 116.552C192.986 116.476 193.898 116.096 194.506 115.26ZM188.048 116.02C187.212 114.956 186.756 113.437 186.756 111.385C186.756 109.41 187.212 107.966 188.048 106.902C188.883 105.839 190.099 105.307 191.694 105.307C193.29 105.307 194.506 105.839 195.341 106.902C196.177 107.966 196.633 109.41 196.633 111.385C196.633 113.361 196.177 114.88 195.341 116.02C194.506 117.084 193.29 117.615 191.694 117.615C190.175 117.615 188.959 117.084 188.048 116.02Z" fill="#D3AC82"/>
<path d="M207.119 105.535L203.092 112.449V117.463H201.877V112.449L197.85 105.535H199.141L202.484 111.309L205.827 105.535H207.119Z" fill="#D3AC82"/>
<path d="M214.109 112.981C213.425 110.777 212.589 108.726 211.526 106.75C210.462 108.65 209.626 110.777 208.942 112.981H214.109ZM214.413 113.968H208.638C208.334 114.88 208.107 116.02 207.803 117.463H206.587C207.195 115.032 207.803 112.905 208.486 111.005C209.17 109.106 210.006 107.282 210.918 105.535H212.209C213.121 107.282 213.957 109.106 214.641 110.929C215.325 112.829 215.932 114.956 216.54 117.463H215.324C214.945 116.02 214.717 114.88 214.413 113.968Z" fill="#D3AC82"/>
</svg>
