<svg width="41" height="40" viewBox="0 0 41 40" fill="none" xmlns="http://www.w3.org/2000/svg">
<g clip-path="url(#clip0_1807_24512)">
<path d="M6.0625 6.09375C6.0625 5.27324 6.38845 4.48633 6.96864 3.90614C7.54883 3.32595 8.33574 3 9.15625 3H33.9062C34.7268 3 35.5137 3.32595 36.0939 3.90614C36.6741 4.48633 37 5.27324 37 6.09375V32.9062C37 33.7268 36.6741 34.5137 36.0939 35.0939C35.5137 35.6741 34.7268 36 33.9062 36H9.15625C8.33574 36 7.54883 35.6741 6.96864 35.0939C6.38845 34.5137 6.0625 33.7268 6.0625 32.9062V29.8125H5.03125C4.75775 29.8125 4.49544 29.7039 4.30205 29.5105C4.10865 29.3171 4 29.0548 4 28.7812C4 28.5077 4.10865 28.2454 4.30205 28.052C4.49544 27.8586 4.75775 27.75 5.03125 27.75H6.0625V20.5312H5.03125C4.75775 20.5312 4.49544 20.4226 4.30205 20.2292C4.10865 20.0358 4 19.7735 4 19.5C4 19.2265 4.10865 18.9642 4.30205 18.7708C4.49544 18.5774 4.75775 18.4688 5.03125 18.4688H6.0625V11.25H5.03125C4.75775 11.25 4.49544 11.1414 4.30205 10.948C4.10865 10.7546 4 10.4923 4 10.2188C4 9.94525 4.10865 9.68294 4.30205 9.48955C4.49544 9.29615 4.75775 9.1875 5.03125 9.1875H6.0625V6.09375ZM9.15625 5.0625C8.88275 5.0625 8.62044 5.17115 8.42705 5.36455C8.23365 5.55794 8.125 5.82025 8.125 6.09375V32.9062C8.125 33.1798 8.23365 33.4421 8.42705 33.6355C8.62044 33.8289 8.88275 33.9375 9.15625 33.9375H33.9062C34.1798 33.9375 34.4421 33.8289 34.6355 33.6355C34.8289 33.4421 34.9375 33.1798 34.9375 32.9062V6.09375C34.9375 5.82025 34.8289 5.55794 34.6355 5.36455C34.4421 5.17115 34.1798 5.0625 33.9062 5.0625H9.15625Z" fill="#012E89"/>
<path d="M31.8433 15.375C32.1168 15.375 32.3791 15.4837 32.5725 15.6771C32.7659 15.8705 32.8745 16.1328 32.8745 16.4063V22.5938C32.8745 22.8673 32.7659 23.1296 32.5725 23.323C32.3791 23.5164 32.1168 23.625 31.8433 23.625C31.5698 23.625 31.3075 23.5164 31.1141 23.323C30.9207 23.1296 30.812 22.8673 30.812 22.5938V16.4063C30.812 16.1328 30.9207 15.8705 31.1141 15.6771C31.3075 15.4837 31.5698 15.375 31.8433 15.375ZM13.9573 12.207C14.0531 12.111 14.1669 12.0348 14.2921 11.9828C14.4174 11.9308 14.5517 11.9041 14.6874 11.9041C14.823 11.9041 14.9573 11.9308 15.0826 11.9828C15.2079 12.0348 15.3217 12.111 15.4175 12.207L17.6656 14.4551C18.7131 13.7118 19.9658 13.3124 21.2503 13.3124C22.5347 13.3124 23.7874 13.7118 24.8349 14.4551L27.083 12.207C27.2767 12.0137 27.5392 11.9051 27.8128 11.9053C28.0865 11.9055 28.3489 12.0144 28.5422 12.2081C28.7356 12.4017 28.8441 12.6642 28.8439 12.9379C28.8437 13.2115 28.7348 13.4739 28.5412 13.6673L26.2931 15.9154C27.8193 18.0542 27.8193 20.9479 26.2931 23.0846L28.5412 25.3328C28.7348 25.5261 28.8437 25.7885 28.8439 26.0622C28.8441 26.3358 28.7356 26.5983 28.5422 26.792C28.3489 26.9856 28.0865 27.0945 27.8128 27.0947C27.5392 27.0949 27.2767 26.9864 27.083 26.793L24.8349 24.5449C23.7875 25.2886 22.5348 25.6881 21.2503 25.6881C19.9657 25.6881 18.713 25.2886 17.6656 24.5449L15.4175 26.793C15.3216 26.8889 15.2078 26.965 15.0825 27.0169C14.9573 27.0687 14.823 27.0954 14.6874 27.0954C14.5518 27.0954 14.4175 27.0687 14.2922 27.0169C14.167 26.965 14.0531 26.8889 13.9573 26.793C13.8614 26.6971 13.7853 26.5833 13.7334 26.458C13.6815 26.3328 13.6548 26.1985 13.6548 26.0629C13.6548 25.9273 13.6815 25.793 13.7334 25.6678C13.7853 25.5425 13.8614 25.4287 13.9573 25.3328L16.2054 23.0846C15.462 22.0372 15.0627 20.7845 15.0627 19.5C15.0627 18.2156 15.462 16.9629 16.2054 15.9154L13.9573 13.6673C13.8612 13.5715 13.785 13.4577 13.733 13.3324C13.6811 13.2071 13.6543 13.0728 13.6543 12.9371C13.6543 12.8015 13.6811 12.6672 13.733 12.5419C13.785 12.4166 13.8612 12.3028 13.9573 12.207ZM18.3339 16.5836C17.9399 16.9642 17.6257 17.4193 17.4095 17.9226C17.1933 18.4259 17.0795 18.9672 17.0747 19.5149C17.07 20.0626 17.1743 20.6058 17.3818 21.1127C17.5892 21.6197 17.8955 22.0802 18.2828 22.4675C18.6701 22.8548 19.1306 23.1611 19.6376 23.3685C20.1445 23.5759 20.6877 23.6803 21.2354 23.6756C21.7831 23.6708 22.3244 23.557 22.8277 23.3408C23.331 23.1246 23.7861 22.8104 24.1666 22.4164C24.918 21.6384 25.3338 20.5964 25.3244 19.5149C25.315 18.4333 24.8812 17.3987 24.1164 16.6339C23.3516 15.8691 22.317 15.4353 21.2354 15.4259C20.1539 15.4165 19.1119 15.8322 18.3339 16.5836Z" fill="#012E89"/>
</g>
<defs>
<clipPath id="clip0_1807_24512">
<rect width="33" height="33" fill="white" transform="translate(4 3)"/>
</clipPath>
</defs>
</svg>
