<svg width="40" height="40" viewBox="0 0 40 40" fill="none" xmlns="http://www.w3.org/2000/svg">
<path fill-rule="evenodd" clip-rule="evenodd" d="M5.01094 8.5C4.17647 8.5 3.5 9.17647 3.5 10.0109V26.2391C3.5 27.0735 4.17647 27.75 5.01094 27.75H34.9891C35.8235 27.75 36.5 27.0735 36.5 26.2391V10.0109C36.5 9.17647 35.8235 8.5 34.9891 8.5H5.01094ZM1.5 10.0109C1.5 8.0719 3.0719 6.5 5.01094 6.5H34.9891C36.9281 6.5 38.5 8.0719 38.5 10.0109V26.2391C38.5 28.1781 36.9281 29.75 34.9891 29.75H5.01094C3.0719 29.75 1.5 28.1781 1.5 26.2391V10.0109Z" fill="#012E89"/>
<path fill-rule="evenodd" clip-rule="evenodd" d="M9 32.5C9 31.9477 9.44772 31.5 10 31.5H30C30.5523 31.5 31 31.9477 31 32.5C31 33.0523 30.5523 33.5 30 33.5H10C9.44772 33.5 9 33.0523 9 32.5Z" fill="#012E89"/>
</svg>
