<svg width="41" height="40" viewBox="0 0 41 40" fill="none" xmlns="http://www.w3.org/2000/svg">
<path d="M6.30774 15.2622C6.88269 14.8007 7.4745 14.3706 8.08087 13.9719L5.05573 13.7025L6.30774 15.2622Z" fill="#012E89"/>
<path d="M4.85547 16.5298C5.32194 16.0876 5.80655 15.6646 6.30774 15.2622L5.05573 13.7025C4.51175 14.1393 3.98578 14.5984 3.47949 15.0784C3.07869 15.4583 3.0618 16.0913 3.44176 16.4921C3.82173 16.8929 4.45467 16.9098 4.85547 16.5298Z" fill="#012E89"/>
<path d="M38.1887 15.0782C28.9745 6.34653 14.7924 5.88805 5.05573 13.7025L8.08087 13.9719C16.9277 8.15408 28.8746 9.0073 36.813 16.5299C37.2138 16.9098 37.8468 16.8928 38.2267 16.4919C38.6066 16.0911 38.5895 15.4581 38.1887 15.0782Z" fill="#012E89"/>
<path fill-rule="evenodd" clip-rule="evenodd" d="M8.46037 20.7919C15.2942 13.958 26.3741 13.958 33.2079 20.7919C33.5984 21.1824 33.5984 21.8156 33.2079 22.2061C32.8174 22.5966 32.1842 22.5966 31.7937 22.2061C25.7409 16.1533 15.9274 16.1533 9.87459 22.2061C9.48406 22.5966 8.8509 22.5966 8.46037 22.2061C8.06985 21.8156 8.06985 21.1824 8.46037 20.7919ZM13.4603 26.2211C17.5325 22.148 24.1358 22.148 28.208 26.2211C28.5985 26.6117 28.5984 27.2449 28.2078 27.6354C27.8173 28.0258 27.1841 28.0258 26.7936 27.6352C23.5025 24.3433 18.1658 24.3433 14.8747 27.6352C14.4842 28.0258 13.851 28.0258 13.4605 27.6354C13.0699 27.2449 13.0698 26.6117 13.4603 26.2211Z" fill="#012E89"/>
<path fill-rule="evenodd" clip-rule="evenodd" d="M20.8343 33.3332C21.3868 33.3332 21.9167 33.1137 22.3074 32.723C22.6981 32.3323 22.9176 31.8024 22.9176 31.2498C22.9176 30.6973 22.6981 30.1674 22.3074 29.7767C21.9167 29.386 21.3868 29.1665 20.8343 29.1665C20.2818 29.1665 19.7519 29.386 19.3612 29.7767C18.9705 30.1674 18.751 30.6973 18.751 31.2498C18.751 31.8024 18.9705 32.3323 19.3612 32.723C19.7519 33.1137 20.2818 33.3332 20.8343 33.3332Z" fill="#012E89"/>
</svg>
