<svg width="1919" height="529" viewBox="0 0 1919 529" fill="none" xmlns="http://www.w3.org/2000/svg">
<g clip-path="url(#clip0_2302_15388)">
<path fill-rule="evenodd" clip-rule="evenodd" d="M2247.53 -88.8428L3367.12 -88.7304V-88.5299C3367.12 117.579 3200.03 284.666 2993.92 284.666H2993.72V284.559L1910.59 284.826C1910.48 490.848 1743.43 657.827 1537.38 657.827H1537.18V657.714L418.377 657.827V657.626C418.377 451.671 585.209 284.688 791.104 284.431L790.986 284.313L1874.92 284.27C1875.03 78.4094 2041.81 -88.465 2247.64 -88.7301L2247.53 -88.8428ZM2248.29 -88.4417V-88.3295L2248.09 -88.3294C2042.21 -88.3081 1875.32 78.5886 1875.32 284.471V284.671L791.751 284.714V284.831H791.55C585.738 284.847 418.886 451.636 418.778 657.426L1537.58 657.313V657.426C1743.39 657.317 1910.19 490.451 1910.19 284.626V284.425L2994.12 284.158V284.265C3199.85 284.156 3366.61 117.399 3366.72 -88.3295L2248.29 -88.4417Z" fill="#6681B8"/>
<path fill-rule="evenodd" clip-rule="evenodd" d="M1273.53 -282.986L2393.13 -282.874V-282.674C2393.13 -76.5647 2226.04 90.522 2019.93 90.522H2019.73V90.4152L936.592 90.6824C936.484 296.704 769.437 463.683 563.387 463.683H563.187V463.571L-555.613 463.683V463.482C-555.613 257.528 -388.782 90.5443 -182.887 90.2871L-183.005 90.1692L900.928 90.1264C901.036 -115.734 1067.82 -282.614 1273.64 -282.874L1273.53 -282.986ZM1274.3 -282.585V-282.473L1274.1 -282.473C1068.22 -282.457 901.329 -115.555 901.329 90.3269V90.5274L-182.24 90.5702V90.6878H-182.44C-388.252 90.7039 -555.104 257.492 -555.212 463.282L563.588 463.17V463.282C769.391 463.173 936.191 296.308 936.191 90.482V90.2815L2020.13 90.0141V90.1209C2225.86 90.0127 2392.62 -76.7447 2392.73 -282.473L1274.3 -282.585Z" fill="#6681B8"/>
<path fill-rule="evenodd" clip-rule="evenodd" d="M-478.729 -88.8428L640.868 -88.7304V-88.5299C640.868 117.579 473.779 284.666 267.668 284.666H267.468V284.559L-815.673 284.826C-815.782 490.848 -982.829 657.827 -1188.87 657.827H-1189.07V657.714L-2307.88 657.827V657.626C-2307.88 451.671 -2141.05 284.688 -1935.15 284.431L-1935.27 284.313L-851.338 284.27C-851.23 78.4094 -684.443 -88.465 -478.617 -88.7301L-478.729 -88.8428ZM-477.964 -88.4417V-88.3295L-478.165 -88.3294C-684.044 -88.3081 -850.937 78.5886 -850.937 284.471V284.671L-1934.51 284.714V284.831H-1934.71C-2140.52 284.847 -2307.37 451.636 -2307.48 657.426L-1188.67 657.313V657.426C-982.875 657.317 -816.074 490.451 -816.074 284.626V284.425L267.868 284.158V284.265C473.599 284.156 640.358 117.399 640.467 -88.3295L-477.964 -88.4417Z" fill="#6681B8"/>
<path fill-rule="evenodd" clip-rule="evenodd" d="M1736.47 359.438L2856.07 359.55V359.75C2856.07 565.859 2688.98 732.946 2482.86 732.946H2482.66V732.834L1399.53 733.101C1399.42 939.123 1232.37 1106.1 1026.32 1106.1H1026.12V1105.99L-92.6777 1106.1V1105.9C-92.6777 899.953 74.1373 732.974 280.028 732.706L279.902 732.588L1363.86 732.55C1363.97 526.69 1530.75 359.81 1736.58 359.55L1736.47 359.438ZM1737.23 359.839V359.951L1737.03 359.951C1531.15 359.967 1364.26 526.869 1364.26 732.751V732.951L280.696 732.989V733.106H280.495C74.678 733.122 -92.1683 899.911 -92.2767 1105.7L1026.52 1105.59V1105.7C1232.33 1105.59 1399.13 938.726 1399.13 732.901V732.7L2483.06 732.433V732.545C2688.8 732.437 2855.56 565.679 2855.67 359.951L1737.23 359.839Z" fill="#6681B8"/>
</g>
<defs>
<clipPath id="clip0_2302_15388">
<rect width="1919" height="529" fill="white"/>
</clipPath>
</defs>
</svg>
