<svg width="1919" height="796" viewBox="0 0 1919 796" fill="none" xmlns="http://www.w3.org/2000/svg">
<g clip-path="url(#clip0_2110_43865)">
<path fill-rule="evenodd" clip-rule="evenodd" d="M2247.53 -88.8428L3367.12 -88.7304V-88.5299C3367.12 117.579 3200.03 284.666 2993.92 284.666H2993.72V284.559L1910.59 284.826C1910.48 490.848 1743.43 657.827 1537.38 657.827H1537.18V657.714L418.377 657.827V657.626C418.377 451.671 585.209 284.688 791.104 284.431L790.986 284.313L1874.92 284.27C1875.03 78.4094 2041.81 -88.465 2247.64 -88.7301L2247.53 -88.8428ZM2248.29 -88.4417V-88.3295L2248.09 -88.3294C2042.21 -88.3081 1875.32 78.5886 1875.32 284.471V284.671L791.751 284.714V284.831H791.55C585.738 284.847 418.886 451.636 418.778 657.426L1537.58 657.313V657.426C1743.39 657.317 1910.19 490.451 1910.19 284.626V284.425L2994.12 284.158V284.265C3199.85 284.156 3366.61 117.399 3366.72 -88.3295L2248.29 -88.4417Z" fill="#6681B8"/>
<path fill-rule="evenodd" clip-rule="evenodd" d="M1273.53 -282.986L2393.13 -282.874V-282.674C2393.13 -76.5647 2226.04 90.522 2019.93 90.522H2019.73V90.4152L936.592 90.6824C936.484 296.704 769.437 463.683 563.387 463.683H563.187V463.571L-555.613 463.683V463.482C-555.613 257.528 -388.782 90.5443 -182.887 90.2871L-183.005 90.1692L900.928 90.1264C901.036 -115.734 1067.82 -282.614 1273.64 -282.874L1273.53 -282.986ZM1274.3 -282.585V-282.473L1274.1 -282.473C1068.22 -282.457 901.329 -115.555 901.329 90.3269V90.5274L-182.24 90.5702V90.6878H-182.44C-388.252 90.7039 -555.104 257.492 -555.212 463.282L563.588 463.17V463.282C769.391 463.173 936.191 296.308 936.191 90.482V90.2815L2020.13 90.0141V90.1209C2225.86 90.0127 2392.62 -76.7447 2392.73 -282.473L1274.3 -282.585Z" fill="#6681B8"/>
<path fill-rule="evenodd" clip-rule="evenodd" d="M-478.729 -88.8428L640.868 -88.7304V-88.5299C640.868 117.579 473.779 284.666 267.668 284.666H267.468V284.559L-815.673 284.826C-815.782 490.848 -982.829 657.827 -1188.87 657.827H-1189.07V657.714L-2307.88 657.827V657.626C-2307.88 451.671 -2141.05 284.688 -1935.15 284.431L-1935.27 284.313L-851.338 284.27C-851.23 78.4094 -684.443 -88.465 -478.617 -88.7301L-478.729 -88.8428ZM-477.964 -88.4417V-88.3295L-478.165 -88.3294C-684.044 -88.3081 -850.937 78.5886 -850.937 284.471V284.671L-1934.51 284.714V284.831H-1934.71C-2140.52 284.847 -2307.37 451.636 -2307.48 657.426L-1188.67 657.313V657.426C-982.875 657.317 -816.074 490.451 -816.074 284.626V284.425L267.868 284.158V284.265C473.599 284.156 640.358 117.399 640.467 -88.3295L-477.964 -88.4417Z" fill="#6681B8"/>
<path fill-rule="evenodd" clip-rule="evenodd" d="M2710.46 553.592L3830.06 553.704V553.905C3830.06 760.013 3662.97 927.1 3456.86 927.1H3456.66V926.993L2373.53 927.261C2373.42 1133.28 2206.38 1300.26 2000.33 1300.26H2000.13V1300.15L881.33 1300.26V1300.06C881.33 1094.11 1048.16 927.122 1254.06 926.865L1253.94 926.747L2337.86 926.705C2337.96 720.844 2504.75 553.964 2710.58 553.704L2710.46 553.592ZM2711.23 553.993V554.105L2711.03 554.105C2505.15 554.121 2338.26 721.023 2338.26 926.905V927.106L1254.7 927.148V927.266H1254.5C1048.69 927.282 881.839 1094.07 881.731 1299.86L2000.53 1299.75V1299.86C2206.33 1299.75 2373.13 1132.89 2373.13 927.06V926.86L3457.06 926.592V926.699C3662.79 926.591 3829.55 759.833 3829.66 554.105L2711.23 553.993Z" fill="#6681B8"/>
<path fill-rule="evenodd" clip-rule="evenodd" d="M1736.47 359.438L2856.07 359.55V359.75C2856.07 565.859 2688.98 732.946 2482.86 732.946H2482.66V732.834L1399.53 733.101C1399.42 939.123 1232.37 1106.1 1026.32 1106.1H1026.12V1105.99L-92.6777 1106.1V1105.9C-92.6777 899.953 74.1373 732.974 280.028 732.706L279.902 732.588L1363.86 732.55C1363.97 526.69 1530.75 359.81 1736.58 359.55L1736.47 359.438ZM1737.23 359.839V359.951L1737.03 359.951C1531.15 359.967 1364.26 526.869 1364.26 732.751V732.951L280.696 732.989V733.106H280.495C74.678 733.122 -92.1683 899.911 -92.2767 1105.7L1026.52 1105.59V1105.7C1232.33 1105.59 1399.13 938.726 1399.13 732.901V732.7L2483.06 732.433V732.545C2688.8 732.437 2855.56 565.679 2855.67 359.951L1737.23 359.839Z" fill="#6681B8"/>
<path fill-rule="evenodd" clip-rule="evenodd" d="M-15.7933 553.592L1103.79 553.709V553.91C1103.79 760.019 936.705 927.106 730.589 927.106H730.388V926.999L-352.747 927.266C-352.856 1133.29 -519.903 1300.27 -725.947 1300.27H-726.148V1300.15L-1844.95 1300.27V1300.07C-1844.95 1094.11 -1678.12 927.128 -1472.23 926.871L-1472.34 926.753L-388.401 926.705C-388.293 720.844 -221.506 553.965 -15.6805 553.704L-15.7933 553.592ZM-15.0278 553.993V554.105L-15.2283 554.105C-221.107 554.121 -388 721.023 -388 926.905V927.106L-1471.58 927.154V927.271H-1471.78C-1677.59 927.287 -1844.44 1094.08 -1844.55 1299.87L-725.747 1299.75V1299.87C-519.949 1299.76 -353.148 1132.89 -353.148 927.065V926.865L730.789 926.598V926.705C936.525 926.596 1103.28 759.839 1103.39 554.11L-15.0278 553.993Z" fill="#6681B8"/>
</g>
<defs>
<clipPath id="clip0_2110_43865">
<rect width="1919" height="796" fill="white"/>
</clipPath>
</defs>
</svg>
