<svg width="98" height="54" viewBox="0 0 98 54" fill="none" xmlns="http://www.w3.org/2000/svg">
<g id="Group 133112">
<path id="Vector" d="M48.6598 33.3842C49.1272 33.3842 49.6238 33.3842 50.1496 33.3842C54.21 33.3842 58.2705 33.3551 62.3309 33.4133C63.2657 33.4133 64.0252 33.1512 64.7555 32.5687C66.9172 30.8796 69.1373 29.2487 71.3281 27.5887C71.6495 27.3266 72 27.1227 72.3798 26.8606C73.0224 27.3266 73.6359 27.7634 74.2201 28.2003C76.1773 29.6856 78.1637 31.1708 80.1209 32.6852C80.7928 33.2094 81.4646 33.4133 82.3118 33.4133C84.824 33.3551 87.3654 33.3842 89.8777 33.4133C90.345 33.4133 90.7832 33.4424 91.2214 33.4716C91.5427 34.4909 91.5427 35.1024 91.309 36.4421C91.0169 36.4712 90.6956 36.5295 90.4035 36.5295C87.2778 36.5295 84.1521 36.5295 81.0265 36.5586C80.3254 36.5586 79.7704 36.3547 79.2445 35.947C77.2581 34.4035 75.2425 32.9182 73.2269 31.3747C72.9932 31.1999 72.7595 31.0543 72.4674 30.8505C72.1461 31.0252 71.8247 31.2 71.5326 31.4038C69.517 32.9182 67.5014 34.4326 65.515 35.947C64.96 36.3839 64.405 36.5586 63.7039 36.5295C59.9063 36.5004 56.138 36.5295 52.3405 36.5295C51.8439 36.5295 51.318 36.5295 50.7922 36.5295C50.5585 36.9372 50.3541 37.2867 50.1788 37.6653C47.6081 43.286 43.5769 47.538 38.0267 50.3047C33.3528 52.6637 28.3868 53.4209 23.1871 52.8093C13.4011 51.6152 5.83525 44.8295 2.5051 37.1411C0.781606 33.1221 0.0512815 28.9575 0.431035 24.589C1.24897 15.2114 5.86444 8.22184 13.9853 3.53302C18.7761 0.76633 24.0342 -0.107359 29.526 0.533349C38.8446 1.6109 46.6442 7.84324 50.1204 15.6482C50.2956 16.0268 50.5001 16.3763 50.7338 16.8131C52.9831 16.8423 55.2032 16.8131 57.4525 16.8131C59.7018 16.8131 61.9512 16.8131 64.1713 16.8131C66.4498 16.8131 68.7575 16.8131 71.036 16.8131C73.2853 16.8131 75.5347 16.8131 77.7547 16.8131C79.9748 16.8131 82.2534 16.8131 84.4735 16.8131C86.7228 16.8131 88.9429 16.8131 91.2214 16.8131C91.5427 17.8325 91.4259 18.7935 91.3382 19.7255C90.9293 20.0458 90.4911 19.9584 90.0821 19.9584C86.9857 19.9584 83.9184 19.9584 80.822 19.9584C70.6271 19.9584 60.4614 19.9584 50.2664 19.9584C49.7114 19.9584 49.1564 19.9584 48.6013 19.9584C48.2216 19.5216 48.0755 19.0265 47.9002 18.5605C45.388 12.0952 40.9478 7.52288 34.4628 4.98918C30.2271 3.32916 25.8161 3.00881 21.3759 4.02812C14.5404 5.60077 9.42828 9.59062 6.09814 15.7065C3.70277 20.1041 2.82642 24.8511 3.58593 29.7438C4.90046 38.1604 9.51594 44.2471 17.2571 47.9166C19.1266 48.7903 21.0838 49.3728 23.1578 49.6057C23.7129 49.664 24.2679 49.8096 24.8229 49.8387C31.9214 50.13 38.0267 47.8583 42.9927 42.7036C45.2128 40.4028 46.8779 37.6944 47.9295 34.6656C48.0463 34.3452 48.1632 34.054 48.3092 33.7628C48.4261 33.7045 48.5137 33.588 48.6598 33.3842Z" fill="#CCE9F7"/>
<path id="Vector_2" d="M94.2266 9.41594C91.2966 9.41594 88.4804 9.41594 85.5788 9.41594C85.4935 10.0381 85.4366 10.6306 85.3512 11.2823C84.441 11.6082 83.5022 11.4601 82.535 11.3712C82.1937 10.5121 82.3928 9.65294 82.3644 8.82343C82.3359 8.02355 82.3644 7.22366 82.3644 6.36452C82.6488 6.30527 82.848 6.18677 83.0471 6.18677C87.5985 6.18677 92.15 6.18677 96.673 6.18677C96.8437 6.18677 97.0144 6.24602 97.0997 6.24602C97.2135 6.36452 97.2704 6.39415 97.2704 6.42377C97.2988 6.4534 97.2988 6.51265 97.2988 6.5719C97.2988 19.8145 97.3273 33.0866 97.3273 46.3292C97.3273 46.507 97.2988 46.7143 97.2704 46.8921C97.2704 46.9217 97.2135 46.9513 97.1566 47.0106C97.1566 47.0106 97.1281 47.0698 97.0713 47.0995C97.0428 47.1291 96.9859 47.1291 96.929 47.1291C92.4629 47.1291 88.0252 47.1587 83.5591 47.1587C83.2746 47.1587 83.0186 47.1587 82.7342 47.1291C82.6488 47.1291 82.5635 47.0698 82.4781 47.0402C82.2506 46.0922 82.1937 43.7222 82.4212 42.0335C83.3031 41.7965 84.2418 41.915 85.2659 41.9446C85.3512 42.5964 85.4081 43.1889 85.4935 43.8703C86.9443 44.0777 88.395 43.9295 89.8174 43.9592C91.2112 43.9888 92.6336 43.9592 94.0844 43.9592C94.1412 43.6333 94.2266 43.3666 94.2551 43.1C94.2835 42.7741 94.2551 42.4483 94.2551 42.0928C94.2551 31.7831 94.2551 21.4439 94.2551 11.1342C94.3404 10.6602 94.3973 10.0973 94.2266 9.41594Z" fill="#CCE9F7"/>
<path id="Vector_3" d="M23.7418 25.0007C23.8626 28.5708 20.9939 32.9145 15.8002 32.9442C10.9688 32.9442 7.82842 29.0766 7.85861 25.0007C7.88881 20.3 11.7539 17.0571 15.8002 17.0571C20.2692 17.0571 23.8324 20.8355 23.7418 25.0007ZM20.541 25.0304C20.4504 21.9066 18.0347 20.2702 15.8002 20.2702C13.2335 20.2702 10.9084 22.5016 11.0594 25.0304C11.2104 27.7973 13.1127 29.6418 15.7398 29.7013C18.4273 29.7608 20.4202 27.7378 20.541 25.0304Z" fill="#CCE9F7"/>
</g>
</svg>
