<svg width="92" height="76" viewBox="0 0 92 76" fill="none" xmlns="http://www.w3.org/2000/svg">
<g id="Group 133109">
<path id="Vector" d="M1.49691 41.5186C1.49691 39.9365 1.89874 38.731 2.50148 37.5757C3.20467 36.1945 4.18412 35.0392 5.26402 33.9593C6.92155 32.3018 8.8051 30.9205 10.7891 29.715C13.1247 28.3087 15.6864 27.7813 18.3987 27.9068C20.6338 28.0073 22.7685 28.5598 24.8279 29.3383C28.0425 30.5438 30.9808 32.2516 33.7936 34.2356C37.4602 36.8474 40.8757 39.7858 43.9145 43.1008C44.2661 43.4775 44.6428 43.8794 44.894 44.3063C45.346 45.0346 44.9944 45.8885 44.2159 46.1647C43.8392 46.2903 43.5127 46.1647 43.1862 46.0141C41.8301 45.4113 40.4739 44.8086 39.0927 44.2561C34.6223 42.4228 30.1018 40.7903 25.3804 39.7607C23.2206 39.2835 21.0608 38.8817 18.8256 38.9319C17.7206 38.957 16.6658 39.1328 15.6361 39.5095C14.5813 39.9113 13.7526 40.5643 13.401 41.6944C13.0996 42.6488 12.8234 43.6031 12.4969 44.5574C12.3211 45.0597 12.1202 45.5369 11.8941 45.9889C11.0905 47.4958 9.75944 48.1488 8.10191 47.973C6.1179 47.772 4.38503 46.9684 3.05398 45.4364C2.02431 44.2561 1.4718 42.8497 1.49691 41.5186ZM19.353 36.4205C20.006 36.4456 20.6338 36.4456 21.2868 36.5209C23.8484 36.8223 26.3598 37.3497 28.8461 38.0027C31.2822 38.6556 33.668 39.5095 36.0538 40.3383C36.2548 40.4136 36.4306 40.5141 36.6315 40.5141C36.757 40.5141 36.958 40.4387 37.0082 40.3132C37.0584 40.2127 37.0333 39.9867 36.958 39.8862C36.8575 39.7355 36.6817 39.61 36.531 39.4844C33.8187 37.1488 30.9055 35.0894 27.7411 33.3817C25.1795 32.0004 22.5174 30.8954 19.6041 30.4936C17.1932 30.1671 14.8576 30.368 12.6727 31.4981C11.8188 31.9502 11.0151 32.5027 10.2366 33.0301C8.70465 34.0849 7.29826 35.2904 6.09279 36.6967C5.26402 37.6511 4.58594 38.6808 4.23434 39.8862C3.73206 41.5186 4.03343 43.0004 5.31425 44.1807C6.14301 44.9342 7.14757 45.336 8.25259 45.4867C9.03113 45.5871 9.55853 45.2857 9.85989 44.5323C10.111 43.9045 10.3119 43.2515 10.538 42.5986C10.7138 42.0209 10.8896 41.4433 11.0654 40.8657C11.7434 38.8817 13.1498 37.6762 15.0836 37.0232C16.4649 36.5963 17.8713 36.3703 19.353 36.4205Z" fill="#0092D7"/>
<path id="Vector_2" d="M49.691 39.9364C49.691 40.5894 49.691 41.2172 49.691 41.8702C49.6659 42.699 49.3143 43.151 48.6111 43.2012C47.9079 43.2515 47.3805 42.8748 47.2298 42.1213C46.9787 40.8908 46.602 39.7104 46.1499 38.5551C45.07 35.6921 43.6887 32.9798 42.1568 30.3428C40.876 28.1579 39.4696 26.0735 37.8874 24.0894C36.5564 22.4319 35.1249 20.8497 33.4422 19.5438C32.6637 18.9411 31.7847 18.4137 30.9308 17.8863C30.1272 17.4091 29.2482 17.158 28.319 17.0575C26.134 16.8064 24.7276 15.5004 23.8486 13.642C22.6432 11.1557 23.1957 8.79499 24.6774 6.58496C25.1797 5.85665 25.8327 5.25391 26.5861 4.77674C27.9925 3.92287 29.4491 3.82241 30.981 4.40003C31.6089 4.65117 32.2367 4.95254 32.8395 5.25391C36.6568 7.21281 39.771 10.0005 42.3075 13.4411C44.5175 16.4799 46.0997 19.8452 47.2801 23.4114C48.2344 26.2995 48.7618 29.2378 49.038 32.2515C49.2892 34.8131 49.5152 37.3748 49.7412 39.9113C49.7161 39.9364 49.7161 39.9364 49.691 39.9364ZM29.3235 6.53473C28.6203 6.55984 28.0678 6.73564 27.6158 7.08724C26.2094 8.24248 25.5564 9.74933 25.7573 11.5575C25.9331 13.1397 27.1135 14.295 28.7459 14.5712C30.102 14.7973 31.3829 15.2493 32.5883 15.9274C34.5723 17.0324 36.255 18.5141 37.7869 20.1465C40.5997 23.1602 42.8851 26.5506 44.8942 30.1168C45.1202 30.5438 45.3463 30.9707 45.5974 31.3725C45.6979 31.5483 45.8737 31.6488 46.0997 31.5985C46.3257 31.5232 46.4262 31.3474 46.376 31.1214C46.2253 30.0415 46.1499 28.9616 45.8988 27.9068C45.1202 24.6168 44.0655 21.4274 42.4582 18.4388C40.7504 15.2995 38.6157 12.537 35.8532 10.2265C34.2459 8.89545 32.4628 7.79043 30.5541 6.93655C30.1523 6.76076 29.6751 6.63518 29.3235 6.53473Z" fill="#0092D7"/>
<path id="Vector_3" d="M91.9835 29.3887C91.9081 31.5485 91.3808 33.2311 90.0748 34.6124C88.6936 36.069 86.9356 36.6466 84.9516 36.5211C84.6502 36.496 84.2986 36.4206 84.0223 36.295C81.9379 35.3407 79.7781 35.19 77.5429 35.3909C74.8557 35.6421 72.2439 36.2951 69.7073 37.2243C66.342 38.4297 63.1274 39.9617 60.1389 41.9457C58.7325 42.8749 57.3763 43.8795 56.2462 45.1352C56.0955 45.311 55.9197 45.4868 55.7188 45.6124C55.317 45.8635 54.89 45.8635 54.4631 45.6375C54.011 45.3863 53.8604 44.9845 53.9106 44.5325C53.9357 44.2311 54.0613 43.9046 54.212 43.6284C54.7394 42.7745 55.2668 41.9206 55.8444 41.0918C57.3261 38.932 58.7827 36.7973 60.5407 34.8384C63.9311 31.0462 67.8991 28.0325 72.5954 26.0485C76.9904 24.1901 81.5612 23.3362 86.3328 23.6627C86.6844 23.6878 87.0611 23.7631 87.4127 23.7883C89.6228 24.0394 90.9538 25.3704 91.6319 27.4047C91.8328 28.1581 91.9081 28.9115 91.9835 29.3887ZM61.7462 37.2745C62.0727 37.7265 62.148 37.8019 62.374 37.7014C62.6252 37.601 62.8763 37.4503 63.1274 37.3247C67.4471 35.1398 71.9425 33.5325 76.7895 32.98C79.4516 32.6786 82.0634 32.8293 84.6 33.8339C85.052 34.0097 85.5292 34.085 86.0063 34.0097C87.2872 33.859 88.2666 33.206 88.8693 32.0759C89.4972 30.8453 89.5977 29.5394 89.2209 28.2083C88.8945 27.0531 88.1662 26.4001 86.9105 26.2494C83.1685 25.8225 79.552 26.3499 76.011 27.4549C72.1685 28.6604 68.7781 30.6695 65.7142 33.2562C64.2827 34.512 62.9265 35.8179 61.7462 37.2745Z" fill="#0092D7"/>
<path id="Vector_4" d="M64.08 75.2969C62.8746 75.3722 61.7947 75.1462 60.765 74.6188C59.459 73.9407 58.6303 72.8859 58.6052 71.3791C58.5298 67.2353 57.3746 63.3175 55.918 59.475C54.9385 56.8883 53.8084 54.3769 52.5025 51.9157C52.3267 51.5892 52.176 51.2627 52.0002 50.9614C51.749 50.4842 51.749 50.0322 52.0755 49.6052C52.4271 49.1532 52.9043 48.9523 53.4568 49.1029C54.1851 49.2787 54.9385 49.5048 55.6166 49.8061C57.249 50.5093 58.7307 51.4637 60.1622 52.5184C62.8746 54.5276 65.386 56.7878 67.5207 59.4248C69.0024 61.233 70.2079 63.217 70.9613 65.4522C71.564 67.2353 71.6896 69.0686 71.2878 70.9019C71.1371 71.58 70.8106 72.1827 70.3334 72.685C68.8266 74.3174 66.943 75.1964 64.7079 75.3471C64.507 75.322 64.2809 75.2969 64.08 75.2969ZM56.0938 52.8449C56.0435 52.8952 55.9933 52.9705 55.918 53.0207C56.0435 53.3472 56.1691 53.6737 56.3198 54.0002C57.5755 56.6874 58.6805 59.4499 59.5093 62.3129C60.3129 65.0504 60.991 67.8129 61.0161 70.701C61.0161 70.8266 61.0161 70.9522 61.0161 71.0526C61.0161 71.6302 61.2924 72.0823 61.7947 72.3083C62.2216 72.5092 62.6736 72.7353 63.1508 72.7855C63.7787 72.8608 64.4567 72.8859 65.0595 72.7855C66.3403 72.5846 67.5207 72.0572 68.4248 71.0526C68.6759 70.7764 68.8266 70.475 68.9019 70.0983C69.1531 68.6417 69.0275 67.2353 68.5001 65.8289C67.6964 63.6942 66.4156 61.8609 64.9339 60.1531C62.7741 57.6417 60.2627 55.5321 57.5001 53.6988C57.0481 53.4226 56.5709 53.1212 56.0938 52.8449Z" fill="#0092D7"/>
<path id="Vector_5" d="M36.4058 75.3222C33.819 75.3222 31.835 74.5186 30.1775 72.9113C29.625 72.3588 29.2231 71.7309 29.0222 70.9775C28.7209 69.7971 28.6204 68.6168 28.8213 67.4113C29.2483 64.8497 30.3533 62.6145 31.8601 60.5301C33.9446 57.6419 36.5062 55.231 39.319 53.0712C40.9765 51.7904 42.7094 50.6351 44.6181 49.7813C45.271 49.505 45.9742 49.279 46.6774 49.1032C46.9788 49.0278 47.3304 49.0781 47.6066 49.1785C48.3349 49.4548 48.6112 50.1328 48.3098 50.836C48.2596 50.9867 48.1591 51.1123 48.0838 51.263C46.4263 54.3771 44.9697 57.5917 43.8144 60.9319C42.8852 63.6191 42.0815 66.3565 41.8053 69.2195C41.7299 69.8474 41.7299 70.5003 41.7048 71.1533C41.6546 72.8108 40.851 73.941 39.4195 74.6944C38.3647 75.1716 37.2848 75.3725 36.4058 75.3222ZM44.3669 52.82C43.9651 53.021 43.6888 53.0963 43.4879 53.247C40.5747 55.1054 37.8875 57.2652 35.6021 59.8771C34.0953 61.5597 32.7893 63.368 31.9355 65.4775C31.383 66.8588 31.0565 68.3154 31.3327 69.8223C31.4332 70.4752 31.7094 71.0277 32.2368 71.4547C33.7939 72.7355 35.6021 73.1373 37.5359 72.7355C38.7916 72.4844 39.1934 71.9067 39.2437 70.6259C39.2437 70.5506 39.2437 70.4752 39.2437 70.3748C39.3441 68.215 39.6957 66.0803 40.2733 63.9707C41.2277 60.4296 42.5085 57.0392 44.0656 53.7242C44.166 53.5232 44.2162 53.247 44.3669 52.82Z" fill="#0092D7"/>
<path id="Vector_6" d="M5.03783 16.2789C6.84604 16.4045 8.62914 16.5049 10.4374 16.7059C12.8734 16.9821 15.2593 17.4844 17.5949 18.2378C19.4282 18.8406 21.2113 19.5437 22.8939 20.473C23.2455 20.6739 23.5971 20.8497 23.9487 21.0757C24.5263 21.4775 24.677 22.1807 24.3254 22.7583C24.024 23.2857 23.3711 23.4866 22.7683 23.2104C22.0149 22.8588 21.2615 22.4319 20.5081 22.0803C18.2227 21.0004 15.8118 20.2721 13.3255 19.7195C10.4374 19.0917 7.52412 18.9159 4.61089 18.7903C3.68167 18.7401 2.77757 18.7401 1.84835 18.6648C1.09492 18.6145 0.642873 18.0871 0.667987 17.4342C0.693101 16.7812 1.19538 16.2538 1.92369 16.2287C2.95337 16.2036 4.00816 16.2287 5.03783 16.2287C5.03783 16.2538 5.03783 16.2789 5.03783 16.2789Z" fill="#0092D7"/>
<path id="Vector_7" d="M70.8869 44.2061C71.8915 44.3567 73.0216 44.4572 74.1015 44.7083C78.6221 45.738 82.9417 47.3202 87.0353 49.4549C87.8891 49.9069 88.6928 50.4343 89.4964 50.9366C89.7225 51.0873 89.9485 51.2631 90.1494 51.464C90.6015 51.9161 90.6517 52.5188 90.3001 52.996C89.8731 53.5485 89.2955 53.6992 88.7179 53.3978C88.6174 53.3476 88.517 53.2722 88.4165 53.1969C86.2065 51.6147 83.7453 50.5599 81.259 49.5553C78.9485 48.6261 76.5878 47.8476 74.1518 47.2951C73.0216 47.0439 71.8664 46.9184 70.7111 46.7426C70.4349 46.6923 70.1586 46.6923 69.8824 46.5919C69.3299 46.391 69.0536 45.9138 69.0787 45.3864C69.1038 44.859 69.4805 44.4321 70.0331 44.2814C70.2842 44.2312 70.5353 44.2312 70.8869 44.2061Z" fill="#0092D7"/>
<path id="Vector_8" d="M85.9542 66.7334C83.493 66.7083 81.4839 64.5987 81.509 62.1375C81.5593 59.6512 83.6186 57.6421 86.1049 57.6923C88.5661 57.7426 90.6003 59.827 90.5501 62.2882C90.525 64.7243 88.3903 66.7585 85.9542 66.7334ZM88.0387 62.2129C88.0387 61.1078 87.1848 60.2288 86.0798 60.2037C84.9748 60.1786 84.0707 61.0325 84.0455 62.1375C84.0204 63.2676 84.9245 64.222 86.0798 64.222C87.1346 64.1969 88.0136 63.3179 88.0387 62.2129Z" fill="#0092D7"/>
<path id="Vector_9" d="M64.609 12.8131C62.4492 12.7629 60.1387 11.1807 60.1387 8.26744C60.1387 5.5049 62.3738 3.77203 64.6592 3.79714C67.1204 3.82226 69.1546 5.83138 69.1295 8.34278C69.1044 11.0802 66.8441 12.8131 64.609 12.8131ZM66.6432 8.34278C66.6683 7.23777 65.8145 6.33366 64.7094 6.30855C63.5793 6.28344 62.7003 7.08708 62.6501 8.1921C62.5998 9.34735 63.504 10.3017 64.6341 10.3268C65.6638 10.3268 66.6181 9.42269 66.6432 8.34278Z" fill="#0092D7"/>
<path id="Vector_10" d="M17.0928 65.4776C17.143 67.4616 15.5357 69.9479 12.5723 69.973C9.75951 69.973 8.05176 67.5871 8.05176 65.4776C8.05176 63.2424 9.9102 60.957 12.5723 60.9821C15.1088 61.0073 17.0928 62.9913 17.0928 65.4776ZM12.5723 67.4867C13.6271 67.4867 14.6065 66.5826 14.6316 65.5278C14.6568 64.4228 13.7024 63.4684 12.5723 63.4684C11.4673 63.4936 10.6385 64.3725 10.5883 65.4776C10.538 66.3566 11.3166 67.4365 12.5723 67.4867Z" fill="#0092D7"/>
<path id="Vector_11" d="M12.4969 13.0645C10.6133 13.1398 8.00145 11.3567 8.07679 8.46861C8.12702 5.98232 10.1864 3.99831 12.6727 4.04854C15.611 4.09877 17.1681 6.68551 17.0927 8.64441C17.0174 11.3818 14.5813 13.1901 12.4969 13.0645ZM12.6224 6.55995C11.5174 6.53483 10.6133 7.38871 10.5882 8.49373C10.5631 9.57363 11.417 10.528 12.4969 10.5782C13.6019 10.6284 14.6064 9.6992 14.6316 8.56907C14.6316 7.48917 13.7023 6.55995 12.6224 6.55995Z" fill="#0092D7"/>
<path id="Vector_12" d="M49.1129 75.3224C47.0786 75.4479 44.6426 73.7151 44.6426 70.7767C44.6426 68.3407 46.6768 66.3315 49.1129 66.3315C51.6996 66.3567 53.6334 68.2653 53.6334 70.827C53.6334 73.6397 51.3229 75.4479 49.1129 75.3224ZM47.154 70.8018C47.1289 71.9571 47.9325 72.7859 49.0375 72.8612C50.2932 72.9365 51.122 71.8315 51.122 70.8521C51.122 69.7722 50.2179 68.8429 49.138 68.8429C48.0581 68.8178 47.1791 69.6968 47.154 70.8018Z" fill="#0092D7"/>
<path id="Vector_13" d="M56.3198 23.4119C58.8061 23.4119 60.8655 25.3959 60.8655 27.8822C60.8655 30.494 58.781 32.4027 56.3952 32.4027C54.0345 32.4278 51.8998 30.5945 51.8495 27.9324C51.7993 25.4461 53.8335 23.4119 56.3198 23.4119ZM54.3861 27.9073C54.3107 29.1128 55.3655 29.8913 56.345 29.9164C57.4249 29.9415 58.329 29.0374 58.3541 27.9575C58.3792 26.8274 57.4249 25.873 56.3198 25.8982C55.2148 25.8982 54.3861 26.8023 54.3861 27.9073Z" fill="#0092D7"/>
<path id="Vector_14" d="M24.3514 50.0073C24.5021 50.0324 24.6779 50.0324 24.8286 50.0827C25.356 50.2333 25.7327 50.7105 25.7076 51.2379C25.7076 51.7904 25.356 52.2425 24.8286 52.3932C24.1756 52.5438 23.4976 52.6443 22.8195 52.8201C20.6597 53.3726 18.6254 54.2265 16.6665 55.2059C14.5821 56.2356 12.5478 57.3908 10.4885 58.4708C10.2122 58.6214 9.91087 58.7721 9.6095 58.8726C9.05699 59.0484 8.40403 58.7721 8.15289 58.295C7.90175 57.7676 8.02732 57.1648 8.47937 56.7881C8.7054 56.6123 8.93142 56.4616 9.18256 56.311C12.2465 54.5781 15.3606 52.8954 18.6506 51.5644C20.2076 50.9365 21.8149 50.3589 23.4725 50.1078C23.7989 50.0576 24.0752 50.0324 24.3514 50.0073Z" fill="#0092D7"/>
<path id="Vector_15" d="M76.5374 11.6335C77.2406 11.6587 77.6675 11.9349 77.8433 12.4121C78.0191 12.9395 77.8936 13.492 77.4415 13.8185C77.2155 13.9943 76.9643 14.0947 76.7132 14.2203C74.0009 15.5262 71.389 16.9828 68.9278 18.7157C67.2954 19.871 65.6881 21.0764 64.4826 22.7088C64.4073 22.8093 64.332 22.8846 64.2315 22.96C63.7292 23.4371 63.2018 23.4874 62.6996 23.1358C62.1722 22.7842 61.9712 22.1312 62.2726 21.5536C62.4484 21.202 62.6996 20.8755 62.9507 20.5741C63.7795 19.5947 64.7338 18.7408 65.7384 17.9372C68.1242 16.0536 70.736 14.4965 73.4233 13.065C74.1264 12.6883 74.8296 12.3116 75.5579 11.9851C75.9347 11.8093 76.3365 11.7089 76.5374 11.6335Z" fill="#0092D7"/>
<path id="Vector_16" d="M55.4659 14.2199C55.4659 14.4962 55.5162 15.0738 55.4408 15.6263C55.3906 16.1537 54.9134 16.5555 54.386 16.6308C53.8586 16.6811 53.3564 16.3797 53.1554 15.8523C53.055 15.6012 53.0299 15.2998 53.0048 15.0235C52.9043 13.9939 52.8541 12.9391 52.7536 11.9094C52.5527 10.0007 52.2011 8.11718 51.4979 6.30897C50.9454 4.87747 50.2422 3.54643 49.1623 2.41629C48.9865 2.2405 48.8358 2.0647 48.7103 1.86378C48.3838 1.33639 48.434 0.758767 48.8609 0.331828C49.2125 -0.0448826 49.966 -0.120225 50.418 0.206258C50.7445 0.432284 51.0208 0.733654 51.2719 1.03502C52.4774 2.41629 53.3312 3.99848 53.934 5.70623C54.8883 8.36832 55.3153 11.1309 55.4659 14.2199Z" fill="#0092D7"/>
<path id="Vector_17" d="M20.9842 71.7309C20.3061 71.7309 19.7536 71.2538 19.7285 70.5506C19.7285 70.1488 19.8039 69.7469 19.9294 69.3702C20.3815 68.1396 20.8586 66.9091 21.386 65.7036C22.4157 63.3931 23.571 61.1579 25.0025 59.0735C25.2787 58.6716 25.5801 58.2949 25.8563 57.9182C25.9819 57.7675 26.1075 57.6168 26.2582 57.4913C26.6851 57.1648 27.313 57.1648 27.7148 57.4411C28.1668 57.7675 28.3426 58.4205 28.1166 58.9479C28.0413 59.1237 27.9157 59.2995 27.7901 59.4502C26.1828 61.4342 25.0527 63.6693 23.9728 65.9547C23.2194 67.5369 22.4408 69.1191 22.0641 70.8771C21.9888 71.4798 21.5618 71.7309 20.9842 71.7309Z" fill="#0092D7"/>
<path id="Vector_18" d="M70.3597 51.8654C70.7364 51.8403 71.0378 52.0161 71.314 52.2672C71.6907 52.6691 72.0925 53.0709 72.4441 53.4978C74.3779 55.959 76.0857 58.5709 77.6176 61.2832C77.7683 61.5594 77.8688 61.8859 77.8939 62.1873C77.9441 62.7398 77.6176 63.0914 77.1656 63.3174C76.7135 63.5183 76.2866 63.443 75.935 63.1165C75.709 62.8905 75.5332 62.6142 75.3825 62.338C74.1519 60.2786 72.8711 58.2444 71.4396 56.3106C70.9122 55.6074 70.3346 54.9545 69.782 54.2764C69.6063 54.0503 69.3802 53.8745 69.2547 53.6234C68.8026 52.8449 69.4053 51.8654 70.3597 51.8654Z" fill="#0092D7"/>
</g>
</svg>
