<svg width="226" height="92" viewBox="0 0 226 92" fill="none" xmlns="http://www.w3.org/2000/svg">
<path d="M190.385 46.0443L117.291 46.0059C117.294 40.2349 116.377 34.5196 114.593 29.1866C112.809 23.8536 110.192 19.0071 106.892 14.9241C103.593 10.841 99.6747 7.60122 95.362 5.38979C91.0494 3.17835 86.4266 2.03854 81.7575 2.03544L0.0761732 2C0.074918 7.77079 0.993272 13.4854 2.7788 18.8175C4.56433 24.1496 7.18206 28.9948 10.4825 33.0765C13.783 37.1581 17.7016 40.3963 22.0146 42.6062C26.3276 44.816 30.9504 45.9542 35.6193 45.9557V45.9409L113.932 46.0089C113.931 51.78 114.85 57.4949 116.636 62.8273C118.422 68.1596 121.04 73.0049 124.341 77.0866C127.642 81.1682 131.561 84.4063 135.874 86.6159C140.187 88.8255 144.811 89.9634 149.48 89.9646V89.9498L225.923 90C225.924 84.2296 225.006 78.5153 223.221 73.1834C221.436 67.8515 218.819 63.0064 215.519 58.9247C212.219 54.8431 208.301 51.6048 203.988 49.3947C199.676 47.1847 195.053 46.0462 190.385 46.0443Z" fill="#CCE9F7"/>
<path d="M123.795 85.2695L123.963 85.1126L123.795 85.2695ZM123.795 85.2695L123.792 85.2727L123.795 85.2695ZM53.016 85.2695L52.8486 85.1126L53.016 85.2695ZM53.016 85.2695L53.0195 85.2727L53.016 85.2695Z" fill="url(#paint0_linear_2110_43874)" stroke="url(#paint1_linear_2110_43874)" stroke-width="5"/>
<path fill-rule="evenodd" clip-rule="evenodd" d="M62.578 4.66663H70.7732L72.169 6.11159L72.2687 17.6916L84.1328 17.712C85.2175 17.7771 88.0144 17.7391 89.2772 17.712L95.6498 17.6569C97.5615 17.6669 98.9347 17.6618 99.945 17.6509L103.395 17.5899L109.356 17.6916L118.688 17.7934L119.227 18.3022C119.526 18.5871 121.32 21.4974 126.704 30.7167L137.87 30.8184L138.508 31.49C139.067 32.0599 139.166 32.2837 139.166 33.1385C139.166 33.8508 139.047 34.2578 138.768 34.5835C138.548 34.848 137.332 35.8453 136.076 36.8221C134.819 37.799 132.666 39.5493 131.29 40.7093C129.934 41.8693 127.781 43.8841 126.505 45.1663C125.248 46.4484 123.773 48.1987 123.215 49.0331C122.676 49.8675 121.958 50.8647 121.021 51.8823H46.6462L46.0081 51.2311C45.6292 50.824 44.054 47.8323 42.06 43.7417C39.0093 37.4937 38.75 36.8628 38.8497 36.1098C38.9096 35.5807 39.1688 35.0923 40.1658 34.0747L45.9483 33.9729L48.8595 26.4835C51.0129 20.9479 51.9102 18.8517 52.9272 17.7934L61.1024 17.6916L61.2021 6.11159L62.578 4.66663ZM60.7635 25.3031L60.7672 25.3032C62.8771 25.3438 62.8974 25.3442 63.555 26.0154C64.1133 26.5853 64.1931 26.8092 64.1931 27.6843C64.1931 28.5594 64.1133 28.7833 62.897 30.0247H58.1314L57.4734 29.3531C56.9151 28.7833 56.8154 28.5594 56.8154 27.7046C56.8154 26.9313 56.935 26.5649 57.294 26.1376C57.5532 25.8323 57.952 25.5067 58.1912 25.4252C58.4305 25.3235 59.587 25.2624 60.7635 25.3031ZM75.459 25.3438L76.117 26.0154C76.6753 26.5853 76.7551 26.8092 76.7551 27.6843C76.7551 28.5594 76.6753 28.7833 75.459 30.0247H70.2946L69.6366 29.3531C69.0783 28.7833 68.9786 28.5594 68.9786 27.7046C68.9786 26.9313 69.0983 26.5649 69.4572 26.1376C69.7164 25.8323 70.1152 25.5067 70.3545 25.4252C70.5937 25.3235 71.83 25.2624 75.459 25.3438ZM88.8186 25.3438L89.4766 26.0154C90.0349 26.5853 90.1147 26.8092 90.1147 27.6843C90.1147 28.5594 90.0349 28.7833 88.8186 30.0247H83.056L82.398 29.3531C81.8397 28.7833 81.74 28.5594 81.74 27.7046C81.74 26.9313 81.8597 26.5649 82.2186 26.1376C82.4778 25.8323 82.8766 25.5067 83.1159 25.4252C83.3551 25.3235 84.731 25.2624 88.8186 25.3438ZM101.181 25.3438L101.839 26.0154C102.398 26.5853 102.477 26.8092 102.477 27.6843C102.477 28.5594 102.398 28.7833 101.181 30.0247H96.0168L95.3588 29.3531C94.8005 28.7833 94.7008 28.5594 94.7008 27.7046C94.7008 26.9313 94.8205 26.5649 95.1794 26.1376C95.4386 25.8323 95.8374 25.5067 96.0767 25.4252C96.3159 25.3235 97.5522 25.2624 101.181 25.3438ZM114.541 25.3438L115.199 26.0154C115.757 26.5853 115.837 26.8092 115.837 27.6843C115.837 28.5594 115.757 28.7833 114.541 30.0247H108.778L108.12 29.3531C107.562 28.7833 107.462 28.5594 107.462 27.7046C107.462 26.9313 107.582 26.5649 107.941 26.1376C108.2 25.8323 108.599 25.5067 108.838 25.4252C109.077 25.3235 110.453 25.2624 114.541 25.3438Z" fill="url(#paint2_linear_2110_43874)"/>
<defs>
<linearGradient id="paint0_linear_2110_43874" x1="136.216" y1="60.7354" x2="131.684" y2="98.2864" gradientUnits="userSpaceOnUse">
<stop stop-color="#0092D7"/>
<stop offset="1" stop-color="#012E89"/>
</linearGradient>
<linearGradient id="paint1_linear_2110_43874" x1="136.216" y1="60.7354" x2="131.684" y2="98.2864" gradientUnits="userSpaceOnUse">
<stop stop-color="#0092D7"/>
<stop offset="1" stop-color="#012E89"/>
</linearGradient>
<linearGradient id="paint2_linear_2110_43874" x1="38.833" y1="4.66663" x2="116.53" y2="76.4005" gradientUnits="userSpaceOnUse">
<stop stop-color="#0092D7"/>
<stop offset="1" stop-color="#012E89"/>
</linearGradient>
</defs>
</svg>
