<svg width="226" height="88" viewBox="0 0 226 88" fill="none" xmlns="http://www.w3.org/2000/svg">
<path d="M190.385 44.0443L117.291 44.0059C117.294 38.2349 116.377 32.5196 114.593 27.1866C112.809 21.8536 110.192 17.0071 106.892 12.9241C103.593 8.84098 99.6747 5.60122 95.362 3.38979C91.0494 1.17835 86.4266 0.0385379 81.7575 0.0354365L0.0761732 0C0.074918 5.77079 0.993272 11.4854 2.7788 16.8175C4.56433 22.1496 7.18206 26.9948 10.4825 31.0765C13.783 35.1581 17.7016 38.3963 22.0146 40.6062C26.3276 42.816 30.9504 43.9542 35.6193 43.9557V43.9409L113.932 44.0089C113.931 49.78 114.85 55.4949 116.636 60.8273C118.422 66.1596 121.04 71.0049 124.341 75.0866C127.642 79.1682 131.561 82.4063 135.874 84.6159C140.187 86.8255 144.811 87.9634 149.48 87.9646V87.9498L225.923 88C225.924 82.2296 225.006 76.5153 223.221 71.1834C221.436 65.8515 218.819 61.0064 215.519 56.9247C212.219 52.8431 208.301 49.6048 203.988 47.3947C199.676 45.1847 195.053 44.0462 190.385 44.0443Z" fill="#CCE9F7"/>
<g clip-path="url(#clip0_2110_43884)">
<path d="M78.9968 57.4609C80.1968 56.2609 81.3969 55.0609 82.3969 53.8609C82.5969 53.6609 82.5968 53.4609 82.5968 53.2609C82.5968 52.6974 82.5333 52.1339 82.4779 51.6419C82.4349 51.2609 82.3969 50.9228 82.3969 50.6609H75.3969V50.4609C75.3969 50.8386 75.3523 51.2609 75.3052 51.7067C75.2526 52.2052 75.1969 52.7331 75.1969 53.2609C75.1969 53.3609 75.2469 53.4609 75.2969 53.5609C75.3469 53.6609 75.3969 53.7609 75.3969 53.8609C75.7969 54.2609 76.1747 54.661 76.5525 55.061C77.308 55.861 78.0635 56.661 78.9968 57.4609Z" fill="url(#paint0_linear_2110_43884)"/>
<path d="M70.1969 38.4609C70.1969 43.4609 74.3969 47.6609 79.3969 47.4609C84.9969 47.2609 88.1969 42.2609 87.7969 39.0609C83.3969 39.8609 79.3968 38.8609 75.9968 36.0609C75.7968 35.8609 75.1968 35.8609 74.9968 36.0609C73.3968 36.6609 71.7969 37.4609 70.1969 38.4609Z" fill="url(#paint1_linear_2110_43884)"/>
<path d="M87.7969 35.4609C87.9969 30.2609 83.9968 25.8609 78.9968 25.8609C74.1968 25.8609 69.9969 30.0609 70.3969 34.6609C70.8579 34.3535 71.319 34.0757 71.7687 33.8046C72.4895 33.3703 73.1811 32.9535 73.7969 32.4609C75.5969 31.0609 75.9968 31.0609 77.5968 32.6609C80.1968 35.6609 83.7969 36.6609 87.7969 35.4609Z" fill="url(#paint2_linear_2110_43884)"/>
<path d="M129.797 21.2609C130.397 17.0609 126.997 12.2609 122.797 10.6609C120.96 9.99294 118.983 10.0222 117.1 10.05C116.728 10.0555 116.36 10.0609 115.997 10.0609C108.797 10.2609 103.997 16.0609 105.197 24.0609C105.297 23.9609 105.447 23.9109 105.597 23.8609C105.747 23.8109 105.897 23.7609 105.997 23.6609C106.597 23.4609 106.997 23.0609 107.397 22.6609C108.397 22.0609 109.397 22.0609 109.997 22.8609C110.597 23.6609 110.397 24.6609 109.397 25.2609C109.232 25.3709 109.052 25.4809 108.865 25.595C108.372 25.896 107.832 26.2259 107.397 26.6609C107.197 26.8609 106.797 27.2609 106.797 27.6609C106.797 29.8609 107.397 31.8609 108.597 33.6609C111.597 37.8609 116.997 39.4609 121.597 37.4609C126.597 35.0609 128.597 30.2609 127.797 24.6609C126.997 24.6609 126.197 24.6832 125.397 24.7054C123.797 24.7498 122.197 24.7943 120.597 24.6609C116.997 24.2609 113.797 22.8609 111.197 20.4609C110.397 19.6609 110.197 18.6609 110.997 17.8609C111.597 17.0609 112.597 17.0609 113.397 17.8609C118.397 22.2609 123.997 22.2609 129.797 21.2609Z" fill="url(#paint3_linear_2110_43884)"/>
<path d="M123.197 44.4609C123.397 44.2609 123.597 43.8609 123.397 43.6609C123.197 42.6609 122.997 41.8609 122.597 40.6609C119.197 42.0609 115.597 41.8609 112.197 40.6609C112.078 41.2558 111.888 41.8506 111.712 42.4034C111.592 42.7799 111.478 43.1368 111.397 43.4609C111.397 43.6609 111.397 44.0609 111.597 44.0609C112.723 45.1871 113.744 46.2609 114.741 47.3091C115.692 48.3086 116.621 49.2848 117.597 50.2609L117.599 50.2585C119.598 48.2595 121.398 46.4601 123.197 44.4609Z" fill="url(#paint4_linear_2110_43884)"/>
<path d="M151.197 76.2609V56.0609C151.197 55.4609 150.997 54.8609 150.597 54.4609C149.936 53.6686 149.189 52.9634 148.412 52.2302C148.012 51.8531 147.604 51.4685 147.197 51.0609C147.09 51.1145 146.997 51.1681 146.911 51.2179C146.675 51.3538 146.49 51.4609 146.197 51.4609C145.397 51.8609 144.797 51.6609 144.197 50.8609C143.797 50.0609 143.797 49.2609 144.397 48.8609L140.421 50.4609C141.594 52.0104 142.197 53.9548 142.197 56.2609V76.2609H151.197Z" fill="url(#paint5_linear_2110_43884)"/>
<path d="M149.397 48.4609C150.397 49.6609 151.597 50.8609 152.797 52.0609L153.047 51.7604C153.934 50.693 154.681 49.7932 155.597 49.0609C156.397 48.2609 156.597 47.4609 156.197 46.4609C153.797 47.2609 151.597 47.2609 148.997 46.4609C149.075 46.7741 149.092 47.0873 149.108 47.3765C149.132 47.826 149.153 48.2175 149.397 48.4609Z" fill="url(#paint6_linear_2110_43884)"/>
<path d="M159.797 36.2609C159.797 34.6609 159.797 34.6609 158.397 34.4609C157.663 34.2609 156.908 34.0831 156.152 33.9053C154.641 33.5498 153.13 33.1942 151.797 32.6609C150.197 32.0609 148.797 31.6609 147.597 33.0609C147.397 33.2609 147.197 33.4609 146.797 33.4609C145.797 33.6609 145.397 34.2609 145.597 35.2609V36.6609C145.597 38.6609 146.397 40.4609 147.997 41.8609C150.197 43.8609 152.797 44.2609 155.597 43.0609C158.597 41.8609 159.797 39.4609 159.797 36.2609Z" fill="url(#paint7_linear_2110_43884)"/>
<path d="M147.797 28.6609C148.597 28.0609 149.397 27.8609 150.397 28.2609L154.597 30.0609C156.797 30.8609 159.197 31.2609 161.597 31.2609C162.197 26.8609 159.997 23.4609 156.197 22.6609C154.397 22.2609 152.397 22.2609 150.597 22.4609C145.997 23.0609 143.397 26.4609 143.997 31.4609C144.315 31.2337 144.623 31.0168 144.922 30.8056L144.926 30.8031C145.944 30.0855 146.871 29.4328 147.797 28.6609Z" fill="url(#paint8_linear_2110_43884)"/>
<path d="M77.3969 76.2609V61.2609C77.3969 60.6609 77.1969 60.0609 76.7969 59.6609C76.2969 59.0609 75.7469 58.5109 75.1968 57.9609C74.6468 57.4109 74.0968 56.8609 73.5968 56.2609C70.9968 57.4609 68.5968 58.6609 65.9968 60.0609L69.1969 63.2609C70.9969 65.0609 71.9969 67.0609 71.7969 69.6609V76.2609H77.3969Z" fill="url(#paint9_linear_2110_43884)"/>
<path d="M68.5968 76.2609V69.2609C68.5968 67.8609 68.1969 66.6609 67.1969 65.6609C66.5969 65.0609 65.7968 64.2609 64.9968 63.2609V64.6609V76.2609H68.5968Z" fill="url(#paint10_linear_2110_43884)"/>
<path d="M101.997 76.2609V62.6609C101.997 61.0609 101.597 59.8609 100.397 58.8609L96.3969 54.8609V56.4609V76.2609H101.997Z" fill="url(#paint11_linear_2110_43884)"/>
<path d="M115.998 76.2609C115.997 76.1904 115.997 76.1232 115.997 76.0609V54.4609C115.997 53.4609 115.797 52.8609 114.997 52.2609L109.597 46.8609C109.397 46.6609 108.797 46.4609 108.397 46.6609C106.997 47.2609 105.547 47.9109 104.097 48.5609C102.647 49.2109 101.197 49.8609 99.7969 50.4609C99.3968 50.5943 98.9968 50.9054 98.5967 51.2165C98.3968 51.3721 98.1968 51.5276 97.9968 51.6609C98.4128 52.0769 98.7807 52.4688 99.1339 52.8451C99.7996 53.5542 100.413 54.2076 101.197 54.8609C104.397 57.4609 105.597 60.6609 105.397 64.8609C105.264 67.3799 105.307 69.8988 105.352 72.476C105.373 73.7218 105.395 74.9813 105.397 76.2609H115.998Z" fill="url(#paint12_linear_2110_43884)"/>
<path d="M130.199 76.2609C130.197 76.1957 130.197 76.129 130.197 76.0609V62.2609C130.197 59.8609 130.997 57.8609 132.797 56.2609C133.33 55.7277 133.863 55.2166 134.397 54.7055C135.463 53.6833 136.53 52.661 137.597 51.4609C137.263 51.294 136.999 51.0922 136.746 50.8991C136.393 50.6297 136.063 50.3775 135.597 50.2609C134.197 49.6609 132.797 49.0109 131.397 48.3609C129.997 47.7109 128.597 47.0609 127.197 46.4609C126.597 46.2609 126.397 46.2609 125.797 46.6609L119.997 52.4609C119.597 52.861 119.397 53.4609 119.397 54.0609V76.0609C119.397 76.1232 119.402 76.1904 119.408 76.2609H130.199Z" fill="url(#paint13_linear_2110_43884)"/>
<path d="M138.597 54.8609C136.997 56.4609 135.397 58.0609 133.997 59.8609C133.597 60.4609 133.397 61.4609 133.397 62.2609V76.0609C133.397 76.129 133.396 76.1957 133.395 76.2609L138.997 76.2609V56.2609V55.0609C138.797 55.0609 138.597 55.0609 138.597 54.8609Z" fill="url(#paint14_linear_2110_43884)"/>
<path d="M154.597 54.8609C154.397 55.0609 154.397 55.6609 154.397 56.0609V76.2609L163.997 76.2609V75.8609V63.8609C163.997 61.2609 164.797 59.2609 166.597 57.6609C166.597 57.4609 167.397 56.6609 168.197 56.0609C166.735 55.2869 165.31 54.5869 163.906 53.8972C162.045 52.983 160.221 52.0869 158.397 51.0609C158.004 51.4538 157.59 51.8467 157.168 52.2466C156.301 53.0681 155.404 53.9193 154.597 54.8609Z" fill="url(#paint15_linear_2110_43884)"/>
<path d="M170.797 76.0609V59.6609V57.8609C169.597 59.0609 168.597 60.0609 167.797 61.2609C167.397 61.8609 167.197 62.8609 167.197 63.4609V75.8609V76.2609H170.798C170.797 76.2284 170.797 76.1965 170.797 76.1654C170.797 76.1294 170.797 76.0945 170.797 76.0609Z" fill="url(#paint16_linear_2110_43884)"/>
<path d="M82.5968 22.8609C82.7968 21.4609 82.1969 20.2609 80.7969 19.4609C79.3969 18.6609 78.1969 18.6609 76.7969 19.6609C75.5969 20.4609 75.1969 21.6609 75.1969 22.8609H82.5968Z" fill="url(#paint17_linear_2110_43884)"/>
<path fill-rule="evenodd" clip-rule="evenodd" d="M133.997 59.8609C135.397 58.0609 136.997 56.4609 138.597 54.8609C138.597 55.0609 138.797 55.0609 138.997 55.0609V56.2609V76.2609L142.197 76.2609V56.2609C142.197 53.9548 141.594 52.0104 140.421 50.4609C139.458 49.1885 138.11 48.1824 136.397 47.4609C134.997 46.8609 133.547 46.2109 132.097 45.5609C130.647 44.9109 129.197 44.2609 127.797 43.6609C125.997 42.8609 125.597 39.6609 126.997 38.4609C128.997 36.6609 130.597 34.4609 130.997 31.8609C131.263 30.3943 131.352 28.9276 131.441 27.461C131.486 26.7276 131.53 25.9943 131.597 25.2609C131.597 24.6609 131.797 24.2609 132.197 23.8609C132.997 23.0609 133.397 22.0609 133.397 21.0609C133.397 15.4609 130.797 11.2609 125.797 8.66093C123.997 7.66088 122.147 7.21089 120.247 7.06091C119.107 6.97095 117.949 6.98894 116.773 7.06091C115.989 7.10891 115.197 7.18092 114.397 7.26094C110.197 7.66094 106.997 9.86094 104.597 13.2609C102.197 16.8609 101.997 20.8609 102.397 25.0609C102.397 25.4209 102.613 25.7809 102.829 26.1409C102.973 26.3809 103.117 26.6209 103.197 26.8609C103.272 27.0868 103.376 27.2844 103.476 27.4749C103.641 27.7905 103.797 28.0868 103.797 28.4609C103.997 32.0609 105.197 35.4609 107.797 37.8609C108.797 38.8609 108.997 39.8609 108.997 41.2609C108.997 42.4609 108.397 43.2609 107.397 43.6609C105.618 44.3726 103.909 45.1547 102.228 45.9237C101.076 46.4513 99.9362 46.9727 98.7969 47.4609C95.2308 48.9625 93.4261 51.6969 93.2174 55.499C93.2037 55.7484 93.1969 56.0024 93.1969 56.2609V76.2609H96.3969V56.4609V54.8609L100.397 58.8609C101.597 59.8609 101.997 61.0609 101.997 62.6609V76.2609H105.397C105.395 74.9813 105.373 73.7218 105.352 72.476C105.307 69.8988 105.264 67.3799 105.397 64.8609C105.597 60.6609 104.397 57.4609 101.197 54.8609C100.413 54.2076 99.7996 53.5542 99.1339 52.8451C98.7807 52.4688 98.4128 52.0769 97.9968 51.6609C98.1968 51.5276 98.3968 51.3721 98.5967 51.2165C98.9968 50.9054 99.3968 50.5943 99.7969 50.4609C101.197 49.8609 102.647 49.2109 104.097 48.5609C105.547 47.9109 106.997 47.2609 108.397 46.6609C108.797 46.4609 109.397 46.6609 109.597 46.8609L114.997 52.2609C115.797 52.8609 115.997 53.4609 115.997 54.4609V76.0609C115.997 76.1232 115.997 76.1904 115.998 76.2609H119.408C119.402 76.1904 119.397 76.1232 119.397 76.0609V54.0609C119.397 53.4609 119.597 52.861 119.997 52.4609L125.797 46.6609C126.397 46.2609 126.597 46.2609 127.197 46.4609C128.597 47.0609 129.997 47.7109 131.397 48.3609C132.797 49.0109 134.197 49.6609 135.597 50.2609C136.063 50.3775 136.393 50.6297 136.746 50.8991C136.999 51.0922 137.263 51.294 137.597 51.4609C136.53 52.661 135.463 53.6833 134.397 54.7055C133.863 55.2166 133.33 55.7277 132.797 56.2609C130.997 57.8609 130.197 59.8609 130.197 62.2609V76.0609C130.197 76.129 130.197 76.1957 130.199 76.2609H133.395C133.396 76.1957 133.397 76.129 133.397 76.0609V62.2609C133.397 61.4609 133.597 60.4609 133.997 59.8609ZM122.797 10.6609C126.997 12.2609 130.397 17.0609 129.797 21.2609C123.997 22.2609 118.397 22.2609 113.397 17.8609C112.597 17.0609 111.597 17.0609 110.997 17.8609C110.197 18.6609 110.397 19.6609 111.197 20.4609C113.797 22.8609 116.997 24.2609 120.597 24.6609C122.197 24.7943 123.797 24.7498 125.397 24.7054C126.197 24.6832 126.997 24.6609 127.797 24.6609C128.597 30.2609 126.597 35.0609 121.597 37.4609C116.997 39.4609 111.597 37.8609 108.597 33.6609C107.397 31.8609 106.797 29.8609 106.797 27.6609C106.797 27.2609 107.197 26.8609 107.397 26.6609C107.832 26.2259 108.372 25.896 108.865 25.595C109.052 25.4809 109.232 25.3709 109.397 25.2609C110.397 24.6609 110.597 23.6609 109.997 22.8609C109.397 22.0609 108.397 22.0609 107.397 22.6609C106.997 23.0609 106.597 23.4609 105.997 23.6609C105.897 23.7609 105.747 23.8109 105.597 23.8609C105.447 23.9109 105.297 23.9609 105.197 24.0609C103.997 16.0609 108.797 10.2609 115.997 10.0609C116.36 10.0609 116.728 10.0555 117.1 10.05C118.983 10.0222 120.96 9.99294 122.797 10.6609ZM117.599 50.2585L117.597 50.2609C116.621 49.2848 115.692 48.3086 114.741 47.3091C113.744 46.2609 112.723 45.1871 111.597 44.0609C111.397 44.0609 111.397 43.6609 111.397 43.4609C111.478 43.1368 111.592 42.7799 111.712 42.4034C111.888 41.8506 112.078 41.2558 112.197 40.6609C115.597 41.8609 119.197 42.0609 122.597 40.6609C122.997 41.8609 123.197 42.6609 123.397 43.6609C123.597 43.8609 123.397 44.2609 123.197 44.4609C121.398 46.4601 119.598 48.2595 117.599 50.2585ZM169.597 52.6609C171.678 53.632 172.989 55.0842 173.597 56.9508C173.865 57.7752 173.997 58.6805 173.997 59.6609V76.0609V76.2609H173.597H170.798L170.797 76.1654L170.797 76.0609V59.6609V57.8609C169.597 59.0609 168.597 60.0609 167.797 61.2609C167.397 61.8609 167.197 62.8609 167.197 63.4609V75.8609V76.2609H163.997V75.8609V63.8609C163.997 61.2609 164.797 59.2609 166.597 57.6609C166.597 57.4609 167.397 56.6609 168.197 56.0609C166.735 55.2869 165.31 54.5869 163.906 53.8972C162.045 52.983 160.221 52.0869 158.397 51.0609C158.004 51.4538 157.59 51.8467 157.168 52.2466C156.301 53.0681 155.404 53.9193 154.597 54.8609C154.397 55.0609 154.397 55.6609 154.397 56.0609V76.2609H151.197V56.0609C151.197 55.4609 150.997 54.8609 150.597 54.4609C149.936 53.6686 149.189 52.9634 148.412 52.2302C148.012 51.8531 147.604 51.4685 147.197 51.0609C147.09 51.1145 146.997 51.1681 146.911 51.2179C146.675 51.3538 146.49 51.4609 146.197 51.4609C145.397 51.8609 144.797 51.6609 144.197 50.8609C143.797 50.0609 143.797 49.2609 144.397 48.8609C145.836 47.9612 145.819 46.7377 145.801 45.4817C145.799 45.3417 145.797 45.2013 145.797 45.0609C145.797 44.8609 145.597 44.4609 145.397 44.2609C143.197 42.0609 142.197 39.2609 142.397 36.0609C142.397 35.4609 142.397 34.8609 141.597 34.6609C141.197 34.6609 140.797 34.0609 140.797 33.6609C140.597 30.8609 140.397 27.8609 141.797 25.2609C143.797 21.2609 146.997 19.4609 151.397 19.2609C153.197 19.2609 155.197 19.2609 156.997 19.6609C161.997 20.8609 164.997 24.8609 164.997 29.8609V32.4609C164.997 34.0609 164.797 34.2609 163.397 34.8609C163.397 35.8609 163.397 37.0609 163.197 38.0609C162.997 40.2609 161.997 42.2609 160.397 43.8609C159.197 45.0609 159.797 47.8609 161.197 48.4609L169.597 52.6609ZM159.797 36.2609C159.797 34.6609 159.797 34.6609 158.397 34.4609C157.663 34.2609 156.908 34.0831 156.152 33.9053C154.641 33.5498 153.13 33.1942 151.797 32.6609C150.197 32.0609 148.797 31.6609 147.597 33.0609C147.397 33.2609 147.197 33.4609 146.797 33.4609C145.797 33.6609 145.397 34.2609 145.597 35.2609V36.6609C145.597 38.6609 146.397 40.4609 147.997 41.8609C150.197 43.8609 152.797 44.2609 155.597 43.0609C158.597 41.8609 159.797 39.4609 159.797 36.2609ZM147.797 28.6609C146.871 29.4328 145.944 30.0855 144.926 30.8031L144.922 30.8056C144.623 31.0168 144.315 31.2337 143.997 31.4609C143.397 26.4609 145.997 23.0609 150.597 22.4609C152.397 22.2609 154.397 22.2609 156.197 22.6609C159.997 23.4609 162.197 26.8609 161.597 31.2609C159.197 31.2609 156.797 30.8609 154.597 30.0609L150.397 28.2609C149.397 27.8609 148.597 28.0609 147.797 28.6609ZM149.108 47.3765C149.092 47.0873 149.075 46.7741 148.997 46.4609C151.597 47.2609 153.797 47.2609 156.197 46.4609C156.597 47.4609 156.397 48.2609 155.597 49.0609C154.681 49.7932 153.934 50.693 153.047 51.7604L152.797 52.0609C151.597 50.8609 150.397 49.6609 149.397 48.4609C149.153 48.2175 149.132 47.826 149.108 47.3765Z" fill="url(#paint18_linear_2110_43884)"/>
<path fill-rule="evenodd" clip-rule="evenodd" d="M89.1969 56.8609C89.5969 55.8609 89.3969 54.8609 88.1969 54.4609L93.2174 55.499C93.2037 55.7484 93.1969 56.0024 93.1969 56.2609V76.2609H80.5968V61.2609C80.5968 60.8609 80.7968 60.2609 80.9968 60.0609C82.1968 58.6609 83.3968 57.4609 84.5968 56.2609C84.9968 56.4609 85.3468 56.6609 85.6968 56.8609C86.0469 57.0609 86.3969 57.2609 86.7969 57.4609C87.9969 57.8609 88.7969 57.6609 89.1969 56.8609Z" fill="url(#paint19_linear_2110_43884)"/>
<path fill-rule="evenodd" clip-rule="evenodd" d="M66.7969 55.8609C64.1969 57.0609 62.3969 58.6609 61.7969 61.6609V76.2609H64.9968V64.6609V63.2609C65.7968 64.2609 66.5969 65.0609 67.1969 65.6609C68.1969 66.6609 68.5968 67.8609 68.5968 69.2609V76.2609H71.7969V69.6609C71.9969 67.0609 70.9969 65.0609 69.1969 63.2609L65.9968 60.0609C68.5968 58.6609 70.9968 57.4609 73.5968 56.2609C74.0968 56.8609 74.6468 57.4109 75.1968 57.9609C75.7469 58.5109 76.2969 59.0609 76.7969 59.6609C77.1969 60.0609 77.3969 60.6609 77.3969 61.2609V76.2609H80.5968V61.2609C80.5968 60.8609 80.7968 60.2609 80.9968 60.0609C82.1968 58.6609 83.3968 57.4609 84.5968 56.2609C84.9968 56.4609 85.3468 56.6609 85.6968 56.8609C86.0469 57.0609 86.3969 57.2609 86.7969 57.4609C87.9969 57.8609 88.7969 57.6609 89.1969 56.8609C89.5969 55.8609 89.3969 54.8609 88.1969 54.4609C86.1969 53.6609 85.5969 52.2609 85.7969 50.2609V49.4609C85.7969 48.8609 85.9968 48.2609 86.5968 47.8609C88.7968 46.0609 90.3969 43.6609 90.7969 40.6609C90.9969 38.6609 90.9968 36.6609 90.9968 34.6609C90.9968 30.6609 89.3969 27.4609 86.1969 25.0609C85.7969 24.8609 85.5969 24.4609 85.7969 23.8609C86.3969 21.2609 85.1969 18.2609 82.7969 16.8609C80.1969 15.2609 77.5969 15.2609 75.1969 16.8609C72.7969 18.2609 71.5969 21.0609 72.1969 23.8609C72.3969 24.4609 71.9968 24.8609 71.5968 25.2609C70.3968 26.4609 68.9969 27.8609 68.1969 29.4609C66.1969 32.8609 66.5968 36.6609 66.9968 40.2609C67.1968 42.8609 68.3969 45.0609 70.1969 46.6609C71.7969 48.0609 72.1968 49.6609 71.9968 51.6609V51.8609C71.9968 52.8609 71.5969 53.4609 70.7969 53.8609C70.0969 54.1609 69.4469 54.5109 68.7969 54.8609C68.1469 55.2109 67.4969 55.5609 66.7969 55.8609ZM79.3969 47.4609C74.3969 47.6609 70.1969 43.4609 70.1969 38.4609C71.7969 37.4609 73.3968 36.6609 74.9968 36.0609C75.1968 35.8609 75.7968 35.8609 75.9968 36.0609C79.3968 38.8609 83.3969 39.8609 87.7969 39.0609C88.1969 42.2609 84.9969 47.2609 79.3969 47.4609ZM78.9968 25.8609C83.9968 25.8609 87.9969 30.2609 87.7969 35.4609C83.7969 36.6609 80.1968 35.6609 77.5968 32.6609C75.9968 31.0609 75.5969 31.0609 73.7969 32.4609C73.1811 32.9535 72.4895 33.3703 71.7687 33.8046C71.319 34.0757 70.8579 34.3535 70.3969 34.6609C69.9969 30.0609 74.1968 25.8609 78.9968 25.8609ZM75.3052 51.7067C75.3523 51.2609 75.3969 50.8386 75.3969 50.4609V50.6609H82.3969C82.3969 50.9228 82.4349 51.2609 82.4779 51.6419C82.5333 52.1339 82.5968 52.6974 82.5968 53.2609C82.5968 53.4609 82.5969 53.6609 82.3969 53.8609C81.3969 55.0609 80.1968 56.2609 78.9968 57.4609C78.0635 56.661 77.308 55.861 76.5525 55.061C76.1747 54.661 75.7969 54.2609 75.3969 53.8609C75.3969 53.7609 75.3469 53.6609 75.2969 53.5609C75.2469 53.4609 75.1969 53.3609 75.1969 53.2609C75.1969 52.7331 75.2526 52.2052 75.3052 51.7067ZM80.7969 19.4609C82.1969 20.2609 82.7968 21.4609 82.5968 22.8609H75.1969C75.1969 21.6609 75.5969 20.4609 76.7969 19.6609C78.1969 18.6609 79.3969 18.6609 80.7969 19.4609Z" fill="url(#paint20_linear_2110_43884)"/>
<path d="M123.196 44.4609C123.396 44.2609 123.596 43.8609 123.396 43.6609C123.196 42.6609 122.996 41.8609 122.596 40.6609C119.196 42.0609 115.596 41.8609 112.196 40.6609C112.077 41.2558 111.887 41.8506 111.711 42.4034C111.591 42.7799 111.477 43.1368 111.396 43.4609C111.396 43.6609 111.396 44.0609 111.596 44.0609C112.722 45.1871 113.743 46.2609 114.74 47.3091C115.691 48.3086 116.62 49.2848 117.596 50.2609L117.598 50.2585C119.597 48.2595 121.397 46.4601 123.196 44.4609Z" fill="#F1F4F9"/>
<path d="M159.796 36.2609C159.796 34.6609 159.796 34.6609 158.396 34.4609C157.662 34.2609 156.907 34.0831 156.151 33.9053C154.64 33.5498 153.129 33.1942 151.796 32.6609C150.196 32.0609 148.796 31.6609 147.596 33.0609C147.396 33.2609 147.196 33.4609 146.796 33.4609C145.796 33.6609 145.396 34.2609 145.596 35.2609V36.6609C145.596 38.6609 146.396 40.4609 147.996 41.8609C150.196 43.8609 152.796 44.2609 155.596 43.0609C158.596 41.8609 159.796 39.4609 159.796 36.2609Z" fill="#F1F4F9"/>
<path d="M70.1959 38.4609C70.1959 43.4609 74.3959 47.6609 79.3959 47.4609C84.9959 47.2609 88.1959 42.2609 87.7959 39.0609C83.3959 39.8609 79.3958 38.8609 75.9958 36.0609C75.7958 35.8609 75.1958 35.8609 74.9958 36.0609C73.3958 36.6609 71.7959 37.4609 70.1959 38.4609Z" fill="#F1F4F9"/>
<path d="M78.9958 57.4609C80.1959 56.2609 81.3959 55.0609 82.3959 53.8609C82.5959 53.6609 82.5958 53.4609 82.5958 53.2609C82.5958 52.6974 82.5323 52.1339 82.4769 51.6419C82.434 51.2609 82.3959 50.9228 82.3959 50.6609H75.3959V50.4609C75.3959 50.8386 75.3513 51.2609 75.3042 51.7067C75.2516 52.2052 75.1959 52.7331 75.1959 53.2609C75.1959 53.3609 75.2459 53.4609 75.2959 53.5609C75.3459 53.6609 75.3959 53.7609 75.3959 53.8609C75.7959 54.2609 76.1737 54.661 76.5515 55.061C77.307 55.861 78.0626 56.661 78.9958 57.4609Z" fill="#F1F4F9"/>
<path d="M149.396 48.4609C150.396 49.6609 151.596 50.8609 152.796 52.0609L153.046 51.7604C153.933 50.693 154.68 49.7932 155.596 49.0609C156.396 48.2609 156.596 47.4609 156.196 46.4609C153.796 47.2609 151.596 47.2609 148.996 46.4609C149.074 46.7741 149.091 47.0873 149.107 47.3765C149.131 47.826 149.152 48.2175 149.396 48.4609Z" fill="#F1F4F9"/>
<path d="M109.996 22.8609C110.596 23.6609 110.396 24.6609 109.396 25.2609C109.231 25.3709 109.051 25.4809 108.864 25.595C108.371 25.896 107.831 26.2259 107.396 26.6609C107.196 26.8609 106.796 27.2609 106.796 27.6609C106.796 29.8609 107.396 31.8609 108.596 33.6609C111.596 37.8609 116.996 39.4609 121.596 37.4609C126.596 35.0609 128.596 30.2609 127.796 24.6609C126.996 24.6609 126.196 24.6832 125.396 24.7054C123.796 24.7498 122.196 24.7943 120.596 24.6609C116.996 24.2609 113.796 22.8609 111.196 20.4609C110.784 21.1009 109.958 22.0726 109.596 22.4785C109.743 22.5757 109.877 22.7026 109.996 22.8609Z" fill="#F1F4F9"/>
<path fill-rule="evenodd" clip-rule="evenodd" d="M116.772 7.06091C117.948 6.98894 119.106 6.97095 120.246 7.06091H116.772ZM173.596 56.9508C173.864 57.7752 173.996 58.6805 173.996 59.6609V76.0609V76.2344H173.596V56.9508Z" fill="#F1F4F9"/>
</g>
<defs>
<linearGradient id="paint0_linear_2110_43884" x1="61.7969" y1="7" x2="169.837" y2="82.605" gradientUnits="userSpaceOnUse">
<stop stop-color="#0092D7"/>
<stop offset="1" stop-color="#012E89"/>
</linearGradient>
<linearGradient id="paint1_linear_2110_43884" x1="61.7969" y1="7" x2="169.837" y2="82.605" gradientUnits="userSpaceOnUse">
<stop stop-color="#0092D7"/>
<stop offset="1" stop-color="#012E89"/>
</linearGradient>
<linearGradient id="paint2_linear_2110_43884" x1="61.7969" y1="7" x2="169.837" y2="82.605" gradientUnits="userSpaceOnUse">
<stop stop-color="#0092D7"/>
<stop offset="1" stop-color="#012E89"/>
</linearGradient>
<linearGradient id="paint3_linear_2110_43884" x1="61.7969" y1="7" x2="169.837" y2="82.605" gradientUnits="userSpaceOnUse">
<stop stop-color="#0092D7"/>
<stop offset="1" stop-color="#012E89"/>
</linearGradient>
<linearGradient id="paint4_linear_2110_43884" x1="61.7969" y1="7" x2="169.837" y2="82.605" gradientUnits="userSpaceOnUse">
<stop stop-color="#0092D7"/>
<stop offset="1" stop-color="#012E89"/>
</linearGradient>
<linearGradient id="paint5_linear_2110_43884" x1="61.7969" y1="7" x2="169.837" y2="82.605" gradientUnits="userSpaceOnUse">
<stop stop-color="#0092D7"/>
<stop offset="1" stop-color="#012E89"/>
</linearGradient>
<linearGradient id="paint6_linear_2110_43884" x1="61.7969" y1="7" x2="169.837" y2="82.605" gradientUnits="userSpaceOnUse">
<stop stop-color="#0092D7"/>
<stop offset="1" stop-color="#012E89"/>
</linearGradient>
<linearGradient id="paint7_linear_2110_43884" x1="61.7969" y1="7" x2="169.837" y2="82.605" gradientUnits="userSpaceOnUse">
<stop stop-color="#0092D7"/>
<stop offset="1" stop-color="#012E89"/>
</linearGradient>
<linearGradient id="paint8_linear_2110_43884" x1="61.7969" y1="7" x2="169.837" y2="82.605" gradientUnits="userSpaceOnUse">
<stop stop-color="#0092D7"/>
<stop offset="1" stop-color="#012E89"/>
</linearGradient>
<linearGradient id="paint9_linear_2110_43884" x1="61.7969" y1="7" x2="169.837" y2="82.605" gradientUnits="userSpaceOnUse">
<stop stop-color="#0092D7"/>
<stop offset="1" stop-color="#012E89"/>
</linearGradient>
<linearGradient id="paint10_linear_2110_43884" x1="61.7969" y1="7" x2="169.837" y2="82.605" gradientUnits="userSpaceOnUse">
<stop stop-color="#0092D7"/>
<stop offset="1" stop-color="#012E89"/>
</linearGradient>
<linearGradient id="paint11_linear_2110_43884" x1="61.7969" y1="7" x2="169.837" y2="82.605" gradientUnits="userSpaceOnUse">
<stop stop-color="#0092D7"/>
<stop offset="1" stop-color="#012E89"/>
</linearGradient>
<linearGradient id="paint12_linear_2110_43884" x1="61.7969" y1="7" x2="169.837" y2="82.605" gradientUnits="userSpaceOnUse">
<stop stop-color="#0092D7"/>
<stop offset="1" stop-color="#012E89"/>
</linearGradient>
<linearGradient id="paint13_linear_2110_43884" x1="61.7969" y1="7" x2="169.837" y2="82.605" gradientUnits="userSpaceOnUse">
<stop stop-color="#0092D7"/>
<stop offset="1" stop-color="#012E89"/>
</linearGradient>
<linearGradient id="paint14_linear_2110_43884" x1="61.7969" y1="7" x2="169.837" y2="82.605" gradientUnits="userSpaceOnUse">
<stop stop-color="#0092D7"/>
<stop offset="1" stop-color="#012E89"/>
</linearGradient>
<linearGradient id="paint15_linear_2110_43884" x1="61.7969" y1="7" x2="169.837" y2="82.605" gradientUnits="userSpaceOnUse">
<stop stop-color="#0092D7"/>
<stop offset="1" stop-color="#012E89"/>
</linearGradient>
<linearGradient id="paint16_linear_2110_43884" x1="61.7969" y1="7" x2="169.837" y2="82.605" gradientUnits="userSpaceOnUse">
<stop stop-color="#0092D7"/>
<stop offset="1" stop-color="#012E89"/>
</linearGradient>
<linearGradient id="paint17_linear_2110_43884" x1="61.7969" y1="7" x2="169.837" y2="82.605" gradientUnits="userSpaceOnUse">
<stop stop-color="#0092D7"/>
<stop offset="1" stop-color="#012E89"/>
</linearGradient>
<linearGradient id="paint18_linear_2110_43884" x1="61.7969" y1="7" x2="169.837" y2="82.605" gradientUnits="userSpaceOnUse">
<stop stop-color="#0092D7"/>
<stop offset="1" stop-color="#012E89"/>
</linearGradient>
<linearGradient id="paint19_linear_2110_43884" x1="61.7969" y1="7" x2="169.837" y2="82.605" gradientUnits="userSpaceOnUse">
<stop stop-color="#0092D7"/>
<stop offset="1" stop-color="#012E89"/>
</linearGradient>
<linearGradient id="paint20_linear_2110_43884" x1="61.7969" y1="7" x2="169.837" y2="82.605" gradientUnits="userSpaceOnUse">
<stop stop-color="#0092D7"/>
<stop offset="1" stop-color="#012E89"/>
</linearGradient>
<clipPath id="clip0_2110_43884">
<rect width="160" height="80" fill="white" transform="translate(37.5967 3)"/>
</clipPath>
</defs>
</svg>
