<svg width="92" height="58" viewBox="0 0 92 58" fill="none" xmlns="http://www.w3.org/2000/svg">
<g id="Group 133105">
<path id="Vector" d="M75.9987 28.9621C76.1519 44.7222 62.9547 57.6666 47.0376 57.6666C31.293 57.6666 18 45.0056 18 28.9999C18 13.2588 30.9099 0.333252 47.0376 0.333252C63.3186 0.352149 76.1136 13.5233 75.9987 28.9621ZM20.356 28.9999C20.3176 43.3238 32.1166 55.3234 46.9802 55.3234C61.7097 55.3423 73.6427 43.5317 73.6619 29.0377C73.681 14.4871 61.748 2.63868 46.9802 2.65757C32.1166 2.67647 20.3176 14.6571 20.356 28.9999Z" fill="#0092D7"/>
<path id="Vector_2" d="M91.3289 29.4084C91.3289 36.4078 91.3289 43.3883 91.3289 50.3877C91.3289 50.692 91.348 50.9964 91.3098 51.3007C91.2142 52.0615 90.8128 52.5941 90.0673 52.8413C88.9204 53.2407 87.7352 52.8794 87.1235 51.8332C86.7412 51.1866 86.4163 50.4828 86.1296 49.7791C85.4223 47.9912 85.0591 46.1082 84.6959 44.2252C84.046 40.8205 83.6063 37.3779 83.3578 33.9352C83.2814 32.8701 83.1858 31.824 83.0902 30.7588C83.0711 30.4735 82.9947 30.2453 82.7844 30.0361C80.8729 28.096 79.7833 25.6994 79.1716 23.0746C78.407 19.7651 78.4835 16.4936 79.5922 13.2792C80.4332 10.8256 81.8095 8.67631 83.8357 7.00252C84.9062 6.10857 86.1104 5.4809 87.4867 5.15756C87.7543 5.1005 88.022 5.04344 88.2896 5.02442C89.9717 4.8152 91.1186 5.97543 91.2715 7.53509C91.3098 7.89647 91.2907 8.25786 91.2907 8.61924C91.3289 15.5426 91.3289 22.466 91.3289 29.4084ZM89.3218 51.0915C89.3409 50.5589 89.3409 50.2355 89.3409 49.8932C89.3409 43.7116 89.3409 37.549 89.3409 31.3675C89.3409 23.7974 89.3409 16.2273 89.3409 8.65729C89.3409 8.31492 89.3409 7.99158 89.3218 7.64922C89.2644 7.13567 89.0351 6.96449 88.5381 6.98351C87.9073 7.00253 87.3529 7.23077 86.7795 7.47803C85.4414 8.08668 84.3901 9.05671 83.5108 10.1979C81.6948 12.5374 80.8729 15.2383 80.72 18.1674C80.6435 19.5178 80.7964 20.8493 81.064 22.1617C81.5993 24.7674 82.6124 27.145 84.6386 28.9899C84.9444 29.2752 85.0782 29.5986 85.0973 30.0361C85.2885 32.7369 85.4414 35.4378 85.7855 38.1197C86.1296 40.7444 86.531 43.3502 87.1044 45.937C87.372 47.1543 87.6779 48.3716 88.1558 49.5128C88.3278 49.9312 88.5572 50.3307 88.7866 50.7301C88.863 50.8632 89.0351 50.9013 89.3218 51.0915Z" fill="#0092D7"/>
<path id="Vector_3" d="M11.7902 26.2575C11.7902 26.5801 11.7902 26.8838 11.7902 27.1875C11.7902 32.16 11.7705 37.1326 11.4556 42.1051C11.2981 44.6104 11.1013 47.1346 10.5699 49.6019C10.4124 50.3421 10.1763 51.0633 9.84166 51.7656C9.40865 52.6386 8.66073 52.9802 7.71598 52.9992C6.73187 53.0182 5.94458 52.6955 5.49189 51.7845C5.13761 51.0633 4.90142 50.3042 4.74396 49.545C4.42904 48.0267 4.25191 46.4893 4.11414 44.952C3.6024 39.0495 3.56303 33.1279 3.56303 27.2254C3.56303 26.9217 3.56303 26.6181 3.56303 26.2954C3.32684 26.1626 3.11034 26.0487 2.91351 25.8969C2.40178 25.5362 1.87036 25.2136 1.41767 24.7961C0.492606 23.904 -0.0191347 22.8222 0.000547478 21.5316C0.0202297 16.4642 0.000547478 11.3967 0.000547478 6.32926C0.000547478 6.17743 0.000542672 6.02559 0.0202249 5.87376C0.0792716 5.34234 0.492601 4.98174 1.0437 5.00072C1.55544 5.01969 1.89004 5.32336 1.96877 5.87376C2.00813 6.17742 1.98845 6.4811 1.98845 6.78477C1.98845 11.4537 1.98845 16.1225 1.98845 20.8104C1.98845 21.0002 1.98845 21.171 1.98845 21.3608C1.9294 22.3288 2.34273 23.069 3.11034 23.6573C3.50398 23.961 3.93699 24.1887 4.37 24.4355C4.52746 24.5304 4.72428 24.5873 4.88174 24.6632C5.29506 24.853 5.53125 25.1377 5.51157 25.5932C5.51157 25.802 5.51157 26.0107 5.51157 26.2385C5.57062 30.5088 5.5903 34.7981 5.70839 39.0685C5.78712 41.9723 6.00362 44.8951 6.41695 47.7799C6.51536 48.4632 6.67282 49.1464 6.83028 49.8297C6.90901 50.1523 7.04679 50.456 7.16488 50.7786C7.26329 51.0064 7.46011 51.0823 7.69629 51.0823C7.89312 51.0633 8.07026 50.9874 8.14899 50.7976C8.26709 50.494 8.40485 50.1713 8.48358 49.8487C8.91659 48.1595 9.09374 46.4514 9.25119 44.7243C9.8023 38.6129 9.8023 32.4827 9.78262 26.3524C9.78262 25.2516 9.6842 24.9289 11.0226 24.4355C11.6524 24.2077 12.1642 23.7902 12.6168 23.3157C13.1089 22.8032 13.3648 22.2149 13.3451 21.4937C13.3254 20.7914 13.3451 20.0892 13.3451 19.406C13.3451 15.1926 13.3451 10.9792 13.3451 6.74681C13.3451 6.4811 13.3254 6.19641 13.3648 5.9307C13.4041 5.39928 13.7584 5.07663 14.2505 5.03868C14.7819 5.00072 15.2346 5.34234 15.2936 5.87376C15.333 6.12049 15.3133 6.36722 15.3133 6.59498C15.3133 11.4726 15.2936 16.3693 15.333 21.2469C15.3527 23.1638 14.4867 24.5493 12.9121 25.6122C12.5972 25.802 12.2429 25.9918 11.7902 26.2575Z" fill="#0092D7"/>
<path id="Vector_4" d="M11.3271 11.0842C11.3271 12.5819 11.3271 14.0796 11.3271 15.5772C11.3271 15.7832 11.3532 15.9891 11.3011 16.195C11.2228 16.6817 10.6751 17 9.99707 17C9.37116 17 8.87563 16.7192 8.74523 16.2886C8.69307 16.0827 8.66699 15.8768 8.66699 15.6708C8.66699 12.5632 8.66699 9.45554 8.66699 6.3479C8.66699 6.10453 8.69308 5.86116 8.77132 5.63651C8.9278 5.24337 9.42332 5 9.99707 5C10.5969 5 11.1446 5.29954 11.275 5.73011C11.3271 5.95476 11.3271 6.19813 11.3271 6.4415C11.3271 7.9766 11.3271 9.53042 11.3271 11.0842Z" fill="#0092D7"/>
<path id="Vector_5" d="M6.65832 10.9924C6.65832 12.4889 6.65832 13.9853 6.65832 15.4817C6.65832 15.6875 6.67784 15.8932 6.65832 16.1177C6.61927 16.6228 6.26786 16.9595 5.76027 16.9969C5.21363 17.0343 4.80364 16.735 4.70603 16.1925C4.66698 16.0242 4.66699 15.8371 4.66699 15.6501C4.66699 12.545 4.66699 9.43991 4.66699 6.33483C4.66699 6.12907 4.66699 5.90461 4.72556 5.71755C4.8427 5.24992 5.2722 4.95062 5.76027 5.00674C6.20929 5.04415 6.56071 5.38085 6.61928 5.82978C6.6388 6.03554 6.6388 6.24129 6.6388 6.44705C6.65832 7.94348 6.65832 9.45861 6.65832 10.9924Z" fill="#0092D7"/>
<path id="Vector_6" d="M47.4133 7.6665C51.1432 7.72376 54.6245 8.63982 57.8762 10.4147C58.2205 10.6056 58.5648 10.8155 58.89 11.0445C59.3491 11.4071 59.4638 12.0369 59.1769 12.514C58.9091 12.9721 58.3544 13.1629 57.8188 12.9721C57.6276 12.8957 57.4363 12.7812 57.245 12.6858C55.294 11.5789 53.2281 10.7392 51.0093 10.3384C49.0774 9.99485 47.1264 9.95668 45.1753 10.1666C42.8991 10.4147 40.7568 11.1018 38.7292 12.1323C35.9748 13.5255 33.7177 15.4913 31.9197 17.9914C29.9496 20.7205 28.7828 23.755 28.4193 27.1139C27.9794 31.179 28.7828 34.996 30.7721 38.5649C32.1301 41.0077 33.9473 43.0307 36.2044 44.672C36.3765 44.8056 36.5487 44.9201 36.7017 45.0728C37.1034 45.4927 37.1225 46.1606 36.7591 46.5805C36.4148 47.0004 35.8409 47.1339 35.3627 46.8477C34.9993 46.6377 34.6359 46.3896 34.3107 46.1225C30.4086 43.0498 27.8264 39.1183 26.6404 34.2899C25.684 30.4347 25.7988 26.6177 26.9847 22.8199C28.2089 18.9075 30.3895 15.6058 33.4882 12.9339C36.3574 10.4529 39.6856 8.83067 43.4347 8.12453C44.7163 7.87643 46.0743 7.8001 47.4133 7.6665Z" fill="#0092D7"/>
</g>
</svg>
