<svg width="1920" height="523" viewBox="0 0 1920 523" fill="none" xmlns="http://www.w3.org/2000/svg">
<rect width="1920" height="521" fill="white"/>
<g clip-path="url(#clip0_270_1779)">
<rect width="1920" height="523" fill="#6F2C5F"/>
<mask id="mask0_270_1779" style="mask-type:luminance" maskUnits="userSpaceOnUse" x="-429" y="106" width="1804" height="519">
<path d="M1374.23 106H-429V625H1374.23V106Z" fill="white"/>
</mask>
<g mask="url(#mask0_270_1779)">
<path d="M74.4075 307.761C74.4075 274.553 61.2127 242.703 37.7246 219.216C14.2365 195.73 -17.6221 182.529 -50.8458 182.516H-426.557C-426.563 198.961 -423.328 215.246 -417.036 230.441C-410.745 245.636 -401.52 259.444 -389.888 271.075C-378.257 282.705 -364.447 291.932 -349.247 298.227C-334.047 304.521 -317.756 307.761 -301.303 307.761H62.5368C62.524 324.211 65.7543 340.501 72.0431 355.702C78.3319 370.903 87.5559 384.716 99.188 396.352C110.82 407.988 124.632 417.218 139.835 423.516C155.038 429.814 171.333 433.056 187.79 433.056H563.501C563.501 399.851 550.305 368.007 526.815 344.528C503.326 321.049 471.467 307.859 438.248 307.859H74.4075V307.761Z" fill="url(#paint0_linear_270_1779)" fill-opacity="0.04"/>
<path d="M357.838 189.839C357.838 168.264 349.264 147.573 334.001 132.317C318.738 117.061 298.038 108.49 276.453 108.49H32.1992C32.2122 130.07 40.7976 150.761 56.0681 166.015C71.3385 181.27 92.0442 189.839 113.633 189.839H350.168C350.162 200.526 352.263 211.109 356.35 220.985C360.437 230.86 366.43 239.833 373.988 247.393C381.546 254.952 390.52 260.948 400.398 265.039C410.275 269.13 420.862 271.236 431.554 271.236H675.807C675.814 260.549 673.714 249.966 669.626 240.09C665.539 230.215 659.546 221.242 651.988 213.683C644.43 206.124 635.456 200.127 625.578 196.036C615.701 191.945 605.114 189.839 594.422 189.839H357.838Z" fill="url(#paint1_linear_270_1779)" fill-opacity="0.04"/>
<path d="M882.642 497.314C882.648 480.875 879.414 464.596 873.125 449.407C866.836 434.218 857.614 420.416 845.987 408.789C834.361 397.163 820.556 387.94 805.362 381.648C790.169 375.356 773.884 372.117 757.437 372.117H381.678C381.678 388.562 384.919 404.846 391.217 420.039C397.514 435.232 406.745 449.036 418.381 460.662C430.017 472.288 443.83 481.509 459.032 487.798C474.235 494.087 490.527 497.32 506.98 497.314H870.82C870.813 513.763 874.05 530.052 880.345 545.251C886.64 560.449 895.869 574.259 907.506 585.89C919.142 597.522 932.958 606.747 948.163 613.039C963.369 619.331 979.665 622.566 996.122 622.559H1371.78C1371.78 589.355 1358.59 557.511 1335.1 534.032C1311.61 510.553 1279.75 497.363 1246.53 497.363H882.642V497.314Z" fill="url(#paint2_linear_270_1779)" fill-opacity="0.03"/>
<path d="M222.572 456.442C222.572 434.871 214.006 414.182 198.755 398.92C183.505 383.658 162.817 375.071 141.236 375.045H-103.018C-103.018 396.633 -94.438 417.337 -79.1662 432.602C-63.8943 447.867 -43.1812 456.442 -21.5835 456.442H214.903C214.903 467.129 217.009 477.712 221.102 487.585C225.196 497.457 231.195 506.427 238.757 513.982C246.32 521.536 255.297 527.527 265.177 531.613C275.057 535.698 285.645 537.797 296.337 537.791H540.59C540.59 527.104 538.484 516.522 534.391 506.649C530.298 496.776 524.299 487.806 516.736 480.252C509.174 472.697 500.196 466.706 490.316 462.621C480.436 458.535 469.848 456.436 459.156 456.442H222.572Z" fill="url(#paint3_linear_270_1779)" fill-opacity="0.04"/>
</g>
<mask id="mask1_270_1779" style="mask-type:luminance" maskUnits="userSpaceOnUse" x="227" y="-120" width="1804" height="519">
<path d="M2030.23 -120H227V399H2030.23V-120Z" fill="white"/>
</mask>
<g mask="url(#mask1_270_1779)">
<path d="M730.408 81.7613C730.408 48.5526 717.213 16.7031 693.725 -6.78359C670.236 -30.2703 638.378 -43.4714 605.154 -43.4844H229.443C229.437 -27.0392 232.672 -10.7539 238.964 4.44128C245.255 19.6365 254.48 33.4439 266.112 45.0747C277.743 56.7054 291.553 65.9318 306.753 72.2265C321.953 78.5213 338.244 81.7613 354.697 81.7613H718.537C718.524 98.2106 721.754 114.501 728.043 129.702C734.332 144.903 743.556 158.716 755.188 170.352C766.82 181.988 780.632 191.218 795.835 197.516C811.038 203.814 827.333 207.056 843.79 207.056H1219.5C1219.5 173.851 1206.3 142.007 1182.82 118.528C1159.33 95.0493 1127.47 81.8588 1094.25 81.8588H730.408V81.7613Z" fill="url(#paint4_linear_270_1779)" fill-opacity="0.04"/>
<path d="M1013.84 -36.1612C1013.84 -57.7362 1005.26 -78.4275 990.001 -93.6833C974.738 -108.939 954.038 -117.51 932.453 -117.51H688.199C688.212 -95.9303 696.798 -75.2391 712.068 -59.9847C727.339 -44.7303 748.044 -36.1612 769.633 -36.1612H1006.17C1006.16 -25.4742 1008.26 -14.8908 1012.35 -5.01545C1016.44 4.85985 1022.43 13.8334 1029.99 21.3925C1037.55 28.9516 1046.52 34.9481 1056.4 39.0393C1066.28 43.1305 1076.86 45.2362 1087.55 45.2362H1331.81C1331.81 34.5492 1329.71 23.9657 1325.63 14.0904C1321.54 4.21514 1315.55 -4.75832 1307.99 -12.3174C1300.43 -19.8765 1291.46 -25.873 1281.58 -29.9642C1271.7 -34.0554 1261.11 -36.1612 1250.42 -36.1612H1013.84Z" fill="url(#paint5_linear_270_1779)" fill-opacity="0.04"/>
<path d="M1538.64 271.314C1538.65 254.875 1535.41 238.596 1529.13 223.407C1522.84 208.218 1513.61 194.416 1501.99 182.789C1490.36 171.163 1476.56 161.94 1461.36 155.648C1446.17 149.356 1429.88 146.117 1413.44 146.117H1037.68C1037.68 162.562 1040.92 178.846 1047.22 194.039C1053.51 209.232 1062.74 223.036 1074.38 234.662C1086.02 246.288 1099.83 255.509 1115.03 261.798C1130.23 268.087 1146.53 271.32 1162.98 271.314H1526.82C1526.81 287.763 1530.05 304.052 1536.34 319.251C1542.64 334.449 1551.87 348.259 1563.51 359.89C1575.14 371.522 1588.96 380.747 1604.16 387.039C1619.37 393.331 1635.67 396.566 1652.12 396.559H2027.78C2027.78 363.355 2014.59 331.511 1991.1 308.032C1967.61 284.553 1935.75 271.363 1902.53 271.363H1538.64V271.314Z" fill="url(#paint6_linear_270_1779)" fill-opacity="0.03"/>
<path d="M878.572 230.442C878.572 208.871 870.006 188.182 854.755 172.92C839.505 157.658 818.817 149.071 797.236 149.045H552.982C552.982 170.633 561.562 191.337 576.834 206.602C592.106 221.867 612.819 230.442 634.417 230.442H870.903C870.903 241.129 873.009 251.712 877.102 261.585C881.196 271.457 887.195 280.427 894.757 287.982C902.32 295.536 911.297 301.527 921.177 305.613C931.057 309.698 941.645 311.797 952.337 311.791H1196.59C1196.59 301.104 1194.48 290.522 1190.39 280.649C1186.3 270.776 1180.3 261.806 1172.74 254.252C1165.17 246.697 1156.2 240.706 1146.32 236.621C1136.44 232.535 1125.85 230.436 1115.16 230.442H878.572Z" fill="url(#paint7_linear_270_1779)" fill-opacity="0.04"/>
</g>
<mask id="mask2_270_1779" style="mask-type:luminance" maskUnits="userSpaceOnUse" x="1215" y="-154" width="1804" height="519">
<path d="M3018.23 -154H1215V365H3018.23V-154Z" fill="white"/>
</mask>
<g mask="url(#mask2_270_1779)">
<path d="M1718.41 47.7613C1718.41 14.5526 1705.21 -17.2969 1681.72 -40.7836C1658.24 -64.2703 1626.38 -77.4714 1593.15 -77.4844H1217.44C1217.44 -61.0392 1220.67 -44.7539 1226.96 -29.5587C1233.26 -14.3635 1242.48 -0.556088 1254.11 11.0747C1265.74 22.7054 1279.55 31.9318 1294.75 38.2265C1309.95 44.5213 1326.24 47.7613 1342.7 47.7613H1706.54C1706.52 64.2106 1709.75 80.501 1716.04 95.7019C1722.33 110.903 1731.56 124.716 1743.19 136.352C1754.82 147.988 1768.63 157.218 1783.84 163.516C1799.04 169.814 1815.33 173.056 1831.79 173.056H2207.5C2207.5 139.851 2194.3 108.007 2170.82 84.5282C2147.33 61.0493 2115.47 47.8588 2082.25 47.8588H1718.41V47.7613Z" fill="url(#paint8_linear_270_1779)" fill-opacity="0.04"/>
<path d="M2001.84 -70.1612C2001.84 -91.7362 1993.26 -112.427 1978 -127.683C1962.74 -142.939 1942.04 -151.51 1920.45 -151.51H1676.2C1676.21 -129.93 1684.8 -109.239 1700.07 -93.9847C1715.34 -78.7303 1736.04 -70.1612 1757.63 -70.1612H1994.17C1994.16 -59.4742 1996.26 -48.8908 2000.35 -39.0155C2004.44 -29.1402 2010.43 -20.1666 2017.99 -12.6075C2025.55 -5.04838 2034.52 0.948084 2044.4 5.03929C2054.28 9.13049 2064.86 11.2362 2075.55 11.2362H2319.81C2319.81 0.549197 2317.71 -10.0343 2313.63 -19.9096C2309.54 -29.7849 2303.55 -38.7583 2295.99 -46.3174C2288.43 -53.8765 2279.46 -59.873 2269.58 -63.9642C2259.7 -68.0554 2249.11 -70.1612 2238.42 -70.1612H2001.84Z" fill="url(#paint9_linear_270_1779)" fill-opacity="0.04"/>
<path d="M1866.57 196.442C1866.57 174.871 1858.01 154.182 1842.76 138.92C1827.5 123.658 1806.82 115.071 1785.24 115.045H1540.98C1540.98 136.633 1549.56 157.337 1564.83 172.602C1580.11 187.867 1600.82 196.442 1622.42 196.442H1858.9C1858.9 207.129 1861.01 217.712 1865.1 227.585C1869.2 237.457 1875.19 246.427 1882.76 253.982C1890.32 261.536 1899.3 267.527 1909.18 271.613C1919.06 275.698 1929.65 277.797 1940.34 277.791H2184.59C2184.59 267.104 2182.48 256.522 2178.39 246.649C2174.3 236.776 2168.3 227.806 2160.74 220.252C2153.17 212.697 2144.2 206.706 2134.32 202.621C2124.44 198.535 2113.85 196.436 2103.16 196.442H1866.57Z" fill="url(#paint10_linear_270_1779)" fill-opacity="0.04"/>
</g>
<mask id="mask3_270_1779" style="mask-type:luminance" maskUnits="userSpaceOnUse" x="747" y="254" width="1804" height="519">
<path d="M2550.23 254H747V773H2550.23V254Z" fill="white"/>
</mask>
<g mask="url(#mask3_270_1779)">
<path d="M1250.41 455.759C1250.41 422.551 1237.21 390.701 1213.72 367.214C1190.24 343.728 1158.38 330.527 1125.15 330.514H749.443C749.437 346.959 752.672 363.244 758.964 378.439C765.255 393.635 774.48 407.442 786.112 419.073C797.743 430.703 811.553 439.93 826.753 446.225C841.953 452.519 858.244 455.759 874.697 455.759H1238.54C1238.52 472.209 1241.75 488.499 1248.04 503.7C1254.33 518.901 1263.56 532.714 1275.19 544.35C1286.82 555.986 1300.63 565.217 1315.84 571.514C1331.04 577.812 1347.33 581.054 1363.79 581.054H1739.5C1739.5 547.849 1726.3 516.005 1702.82 492.526C1679.33 469.047 1647.47 455.857 1614.25 455.857H1250.41V455.759Z" fill="url(#paint11_linear_270_1779)" fill-opacity="0.03"/>
<path d="M2058.64 645.312C2058.65 628.873 2055.41 612.594 2049.13 597.405C2042.84 582.216 2033.61 568.414 2021.99 556.787C2010.36 545.161 1996.56 535.938 1981.36 529.646C1966.17 523.354 1949.88 520.115 1933.44 520.115H1557.68C1557.68 536.56 1560.92 552.844 1567.22 568.037C1573.51 583.23 1582.74 597.034 1594.38 608.66C1606.02 620.286 1619.83 629.507 1635.03 635.796C1650.23 642.085 1666.53 645.318 1682.98 645.312H2046.82C2046.81 661.761 2050.05 678.05 2056.34 693.249C2062.64 708.447 2071.87 722.257 2083.51 733.888C2095.14 745.52 2108.96 754.745 2124.16 761.037C2139.37 767.329 2155.67 770.564 2172.12 770.557H2547.78C2547.78 737.353 2534.59 705.509 2511.1 682.03C2487.61 658.551 2455.75 645.361 2422.53 645.361H2058.64V645.312Z" fill="url(#paint12_linear_270_1779)" fill-opacity="0.04"/>
<path d="M1739.59 431.397C1739.59 409.826 1731.02 389.137 1715.77 373.875C1700.52 358.613 1679.83 350.026 1658.25 350H1414C1414 371.588 1422.58 392.292 1437.85 407.557C1453.12 422.822 1473.84 431.397 1495.43 431.397H1731.92C1731.92 442.084 1734.03 452.667 1738.12 462.54C1742.21 472.412 1748.21 481.382 1755.77 488.937C1763.34 496.491 1772.32 502.482 1782.19 506.568C1792.07 510.653 1802.66 512.752 1813.35 512.746H2057.61C2057.61 502.059 2055.5 491.477 2051.41 481.604C2047.32 471.731 2041.32 462.761 2033.75 455.207C2026.19 447.652 2017.21 441.661 2007.33 437.576C1997.45 433.49 1986.87 431.391 1976.17 431.397H1739.59Z" fill="url(#paint13_linear_270_1779)" fill-opacity="0.04"/>
</g>
<rect opacity="0.3" x="463" y="-394" width="788" height="788" fill="url(#paint14_radial_270_1779)"/>
<rect opacity="0.3" x="1255" y="115" width="788" height="788" fill="url(#paint15_radial_270_1779)"/>
<rect opacity="0.3" x="-394" y="154" width="788" height="788" fill="url(#paint16_radial_270_1779)"/>
</g>
<defs>
<linearGradient id="paint0_linear_270_1779" x1="68.4721" y1="182.516" x2="68.4721" y2="433.056" gradientUnits="userSpaceOnUse">
<stop stop-color="white"/>
<stop offset="1" stop-color="white" stop-opacity="0"/>
</linearGradient>
<linearGradient id="paint1_linear_270_1779" x1="354.003" y1="108.49" x2="354.003" y2="271.236" gradientUnits="userSpaceOnUse">
<stop stop-color="white"/>
<stop offset="1" stop-color="white" stop-opacity="0"/>
</linearGradient>
<linearGradient id="paint2_linear_270_1779" x1="876.731" y1="372.117" x2="876.731" y2="622.559" gradientUnits="userSpaceOnUse">
<stop stop-color="white"/>
<stop offset="1" stop-color="white" stop-opacity="0"/>
</linearGradient>
<linearGradient id="paint3_linear_270_1779" x1="218.786" y1="375.045" x2="218.786" y2="537.791" gradientUnits="userSpaceOnUse">
<stop stop-color="white"/>
<stop offset="1" stop-color="white" stop-opacity="0"/>
</linearGradient>
<linearGradient id="paint4_linear_270_1779" x1="724.472" y1="-43.4844" x2="724.472" y2="207.056" gradientUnits="userSpaceOnUse">
<stop stop-color="white"/>
<stop offset="1" stop-color="white" stop-opacity="0"/>
</linearGradient>
<linearGradient id="paint5_linear_270_1779" x1="1010" y1="-117.51" x2="1010" y2="45.2362" gradientUnits="userSpaceOnUse">
<stop stop-color="white"/>
<stop offset="1" stop-color="white" stop-opacity="0"/>
</linearGradient>
<linearGradient id="paint6_linear_270_1779" x1="1532.73" y1="146.117" x2="1532.73" y2="396.559" gradientUnits="userSpaceOnUse">
<stop stop-color="white"/>
<stop offset="1" stop-color="white" stop-opacity="0"/>
</linearGradient>
<linearGradient id="paint7_linear_270_1779" x1="874.786" y1="149.045" x2="874.786" y2="311.791" gradientUnits="userSpaceOnUse">
<stop stop-color="white"/>
<stop offset="1" stop-color="white" stop-opacity="0"/>
</linearGradient>
<linearGradient id="paint8_linear_270_1779" x1="1712.47" y1="-77.4844" x2="1712.47" y2="173.056" gradientUnits="userSpaceOnUse">
<stop stop-color="white"/>
<stop offset="1" stop-color="white" stop-opacity="0"/>
</linearGradient>
<linearGradient id="paint9_linear_270_1779" x1="1998" y1="-151.51" x2="1998" y2="11.2362" gradientUnits="userSpaceOnUse">
<stop stop-color="white"/>
<stop offset="1" stop-color="white" stop-opacity="0"/>
</linearGradient>
<linearGradient id="paint10_linear_270_1779" x1="1862.79" y1="115.045" x2="1862.79" y2="277.791" gradientUnits="userSpaceOnUse">
<stop stop-color="white"/>
<stop offset="1" stop-color="white" stop-opacity="0"/>
</linearGradient>
<linearGradient id="paint11_linear_270_1779" x1="1244.47" y1="330.514" x2="1244.47" y2="581.054" gradientUnits="userSpaceOnUse">
<stop stop-color="white"/>
<stop offset="1" stop-color="white" stop-opacity="0"/>
</linearGradient>
<linearGradient id="paint12_linear_270_1779" x1="2052.73" y1="520.115" x2="2052.73" y2="770.557" gradientUnits="userSpaceOnUse">
<stop stop-color="white"/>
<stop offset="1" stop-color="white" stop-opacity="0"/>
</linearGradient>
<linearGradient id="paint13_linear_270_1779" x1="1735.8" y1="350" x2="1735.8" y2="512.746" gradientUnits="userSpaceOnUse">
<stop stop-color="white"/>
<stop offset="1" stop-color="white" stop-opacity="0"/>
</linearGradient>
<radialGradient id="paint14_radial_270_1779" cx="0" cy="0" r="1" gradientUnits="userSpaceOnUse" gradientTransform="translate(857) rotate(90) scale(394)">
<stop stop-color="#E6B2DA"/>
<stop offset="1" stop-color="#E6B2DA" stop-opacity="0"/>
</radialGradient>
<radialGradient id="paint15_radial_270_1779" cx="0" cy="0" r="1" gradientUnits="userSpaceOnUse" gradientTransform="translate(1649 509) rotate(90) scale(394)">
<stop stop-color="#E6B2DA"/>
<stop offset="1" stop-color="#E6B2DA" stop-opacity="0"/>
</radialGradient>
<radialGradient id="paint16_radial_270_1779" cx="0" cy="0" r="1" gradientUnits="userSpaceOnUse" gradientTransform="translate(0 548) rotate(90) scale(394)">
<stop stop-color="#E6B2DA"/>
<stop offset="1" stop-color="#E6B2DA" stop-opacity="0"/>
</radialGradient>
<clipPath id="clip0_270_1779">
<rect width="1920" height="523" fill="white"/>
</clipPath>
</defs>
</svg>
