<svg width="87" height="87" viewBox="0 0 87 87" fill="none" xmlns="http://www.w3.org/2000/svg">
<g id="Group 133110">
<path id="Vector" d="M49.3984 54.2419C49.217 54.1123 49.0615 54.0346 48.9578 53.905C40.8197 45.1449 32.6816 36.3588 24.5176 27.5987C24.5694 27.3913 24.5694 27.2099 24.6472 27.0803C27.1871 22.6225 29.7529 18.1647 32.2669 13.7846C33.3036 13.655 64.6639 13.6032 66.2708 13.7328C67.6444 15.9099 68.8884 18.2424 70.2102 20.5232C71.532 22.8298 72.8279 25.1106 74.1497 27.4432C73.9942 27.6764 73.8905 27.8319 73.735 27.9874C65.6488 36.7217 57.5365 45.4559 49.3984 54.2419ZM49.4503 49.499C51.9124 42.579 54.3487 35.7627 56.759 28.9464C56.8109 28.7909 56.8109 28.6354 56.8368 28.428C56.6035 28.4021 56.3962 28.3503 56.1888 28.3503C51.6273 28.3503 47.0918 28.3503 42.5303 28.3503C42.297 28.3503 42.0378 28.2985 41.8305 28.5835C41.8823 28.765 41.9342 29.0241 42.0119 29.2315C44.3963 35.8923 46.7808 42.5272 49.1652 49.188C49.1911 49.2917 49.2689 49.3435 49.4503 49.499ZM52.3271 48.0217C52.69 47.6589 52.9751 47.3997 53.2602 47.0887C56.7849 43.3047 60.3097 39.5208 63.8086 35.7109C65.8302 33.5338 67.8517 31.3567 69.8733 29.1537C70.0547 28.9723 70.3657 28.8168 70.2362 28.454C69.0699 28.3244 60.2061 28.3503 59.2212 28.4799C58.8324 29.1796 53.001 45.1967 52.2753 47.5811C52.2494 47.6589 52.3012 47.7885 52.3271 48.0217ZM39.5498 28.454C39.2647 28.4021 39.161 28.3762 39.0314 28.3762C35.5844 28.3762 32.1633 28.3762 28.7162 28.3762C28.5866 28.3762 28.4571 28.454 28.1979 28.5576C34.2107 35.0111 40.1199 41.3868 46.0292 47.7366C46.1069 47.8144 46.2365 47.8403 46.3402 47.8921C46.3661 47.7885 46.4179 47.7107 46.392 47.633C44.1372 41.2572 41.8564 34.8815 39.5498 28.454ZM49.3984 16.4541C49.1911 16.6355 49.0874 16.7133 49.0097 16.817C46.8585 19.8234 44.7333 22.8039 42.5821 25.8104C42.5044 25.914 42.5044 26.0955 42.4525 26.251C43.4115 26.3806 54.1673 26.4065 55.9297 26.3287C55.9815 26.3287 56.0593 26.251 56.1111 26.1991C56.1111 26.1214 56.1629 26.0177 56.1111 25.9659C53.9081 22.8039 51.6792 19.6679 49.3984 16.4541ZM51.5755 15.7543C52.1457 16.9206 57.718 24.6959 58.4177 25.292C60.1542 22.2337 61.9166 19.2014 63.6272 16.1431C63.679 16.0394 63.6531 15.9099 63.679 15.8062C62.7719 15.6248 53.1047 15.5988 51.5755 15.7543ZM40.431 25.3438C42.6599 22.1819 44.8369 19.1236 47.014 16.0654C47.0399 16.0135 47.0399 15.9099 47.0399 15.8321C46.9881 15.7803 46.9104 15.7025 46.8585 15.7025C43.0227 15.7025 39.161 15.6766 35.3252 15.6766C35.2215 15.6766 35.092 15.7543 34.9105 15.8062C34.9883 16.0135 35.066 16.1949 35.1438 16.3764C37.0876 19.9789 39.7053 24.4367 40.431 25.3438ZM71.0914 26.251C70.5731 25.0847 69.9251 24.0739 69.355 23.0631C68.7589 22.0264 68.1887 20.9638 67.5667 19.953C66.9446 18.9422 66.4781 17.8537 65.6747 16.7911C65.5451 16.9984 65.4932 17.1021 65.4155 17.2057C63.7827 20.0826 62.124 22.9594 60.4911 25.8104C60.4134 25.9399 60.4393 26.1214 60.3875 26.3546C63.8086 26.3546 67.152 26.3546 70.4953 26.3546C70.6508 26.3546 70.8063 26.3028 71.0914 26.251ZM38.3316 26.225C38.228 25.9659 38.2021 25.8104 38.1243 25.6808C36.5433 22.8817 34.9364 20.0826 33.3295 17.2835C33.2518 17.128 33.1741 16.8947 32.8371 16.9466C32.2669 17.9314 31.6967 18.9163 31.1266 19.9271C30.0639 21.7931 28.9754 23.6592 27.9387 25.5253C27.8091 25.7585 27.5499 25.9918 27.8091 26.3028C29.4938 26.4065 37.2431 26.3805 38.3316 26.225Z" fill="#0092D7"/>
<path id="Vector_2" d="M60.698 61.9913C61.2941 61.758 61.8902 61.5507 62.4604 61.3174C66.9182 59.5291 71.376 57.7667 75.8338 55.9525C76.9742 55.486 78.1405 55.3305 79.3586 55.486C80.7582 55.6674 81.9763 56.2635 82.9352 57.3002C83.0648 57.4557 83.2203 57.6112 83.3499 57.7667C84.1534 58.7516 85.5788 61.5248 86.0453 62.9502C85.7602 63.2872 85.3456 63.4686 84.9568 63.7018C80.3953 66.4232 75.8597 69.1445 71.2982 71.8399C64.1191 76.1163 56.914 80.4187 49.7348 84.6951C49.3201 84.9542 48.8795 85.1875 48.4389 85.4207C47.2986 86.0428 46.0805 86.3019 44.7587 86.3279C42.6593 86.3797 40.6637 86.0687 38.668 85.4467C33.9251 83.9694 29.1563 82.5957 24.3874 81.1962C22.4436 80.626 20.4998 80.0558 18.556 79.5115C17.0269 79.0709 15.5236 79.2005 14.0204 79.693C11.1436 80.6519 8.29263 81.6109 5.41579 82.5698C3.99032 83.0363 2.59078 83.5288 1.16531 83.9953C1.00981 84.0471 0.854297 84.0471 0.672874 84.073C0.232275 83.5547 0.232282 82.9327 -0.000976562 82.3366C0.284117 82.207 0.491454 82.0774 0.724712 81.9996C4.97519 80.5742 9.22567 79.2005 13.4502 77.7491C15.4459 77.0753 17.4415 77.0753 19.4372 77.6196C22.3918 78.4489 25.3205 79.3301 28.2492 80.2113C31.6185 81.2221 34.9877 82.2329 38.357 83.2178C39.4974 83.5547 40.6637 83.8916 41.8041 84.2026C43.9552 84.8246 46.0027 84.4618 47.9206 83.3733C49.3201 82.5698 50.7197 81.7405 52.0933 80.9111C59.9204 76.2459 67.7475 71.5808 75.5746 66.9156C77.9331 65.5161 80.2657 64.1165 82.6242 62.717C82.9093 62.5615 83.1426 62.3541 83.4536 62.1468C82.9352 60.8768 82.365 59.6846 81.4579 58.6997C80.2139 57.3779 78.6329 57.1447 77.0001 57.689C75.2118 58.311 73.4494 59.0626 71.687 59.7883C68.4214 61.0842 65.1558 62.406 61.8902 63.7018C61.7087 63.7796 61.5273 63.8833 61.2941 63.9869C61.2682 64.3498 61.2422 64.7126 61.2163 65.0755C60.9571 67.8486 58.7801 69.9739 55.981 70.1294C55.644 70.1553 55.3071 70.1294 54.9961 70.1294C48.1539 70.1294 41.3116 70.1294 34.4694 70.1294C34.0288 70.1294 33.5623 70.2071 33.0958 70.0257C32.9403 69.4296 32.9921 68.8853 33.0698 68.3152C33.5104 68.0041 33.9769 68.1337 34.4175 68.1337C41.182 68.1337 47.9206 68.1337 54.6851 68.1337C55.0479 68.1337 55.4367 68.1597 55.7995 68.1337C57.7434 68.0301 59.2466 66.475 59.2207 64.5571C59.1947 62.6651 57.6915 61.136 55.8514 61.0842C55.4885 61.0842 55.0998 61.0842 54.7369 61.0842C50.7975 61.0842 46.858 61.0842 42.9185 61.0842C42.2446 61.0842 41.6226 60.9805 40.9747 60.7472C37.2426 59.3995 33.4845 58.1036 29.7524 56.73C26.2017 55.4341 22.651 55.3045 19.0225 56.3672C13.0874 58.0777 7.15227 59.7105 1.21715 61.3693C1.11348 61.3952 0.983885 61.3693 0.802462 61.3693C0.517368 60.825 0.310037 60.2548 0.310037 59.5809C0.569213 59.4773 0.828389 59.3218 1.08756 59.244C6.42658 57.7408 11.7656 56.2635 17.1305 54.7862C18.556 54.3974 19.9815 53.9568 21.4588 53.7236C24.3097 53.283 27.0829 53.6458 29.7783 54.6048C33.5363 55.9266 37.2685 57.2484 41.0265 58.5961C41.8041 58.8812 42.6075 59.0108 43.4628 59.0108C47.3504 58.9848 51.264 59.0108 55.1516 58.9848C55.981 58.9848 56.8103 59.0367 57.5879 59.3477C58.5727 59.7105 59.4021 60.3326 60.0759 61.136C60.2574 61.447 60.4647 61.6803 60.698 61.9913Z" fill="#0092D7"/>
<path id="Vector_3" d="M48.4393 7.35691C48.2579 6.13879 48.2579 1.5773 48.4134 0.411005C48.6985 0.385088 49.0095 0.333252 49.3464 0.333252C49.6315 0.333252 49.9166 0.359171 50.2276 0.385088C50.5386 1.1367 50.3572 1.88831 50.3831 2.614C50.409 3.39153 50.3831 4.19497 50.3831 4.9725C50.3831 5.72411 50.3572 6.4498 50.3572 7.17549C49.6833 7.51242 49.0872 7.30508 48.4393 7.35691Z" fill="#0092D7"/>
<path id="Vector_4" d="M69.4581 3.36572C70.0024 3.57306 70.5726 3.80632 71.0391 4.19508C70.6503 5.36137 68.9657 8.70474 68.3437 9.5341C67.9808 9.3786 67.618 9.22309 67.2551 9.04167C67.0737 8.96391 66.9182 8.80841 66.7627 8.70474C67.0996 7.6162 68.8361 4.14325 69.4581 3.36572Z" fill="black"/>
<path id="Vector_5" d="M27.6523 4.091C28.1448 3.83183 28.6631 3.59857 29.2074 3.31348C29.3629 3.52082 29.5184 3.70224 29.6221 3.90958C30.3218 5.25729 30.9957 6.63092 31.6955 7.97864C31.7991 8.16006 31.851 8.3674 31.9287 8.54882C31.3067 9.17085 31.3067 9.17085 30.2441 9.45594C29.5184 8.34148 27.9115 5.02404 27.6523 4.091Z" fill="black"/>
</g>
</svg>
