<svg width="48" height="48" viewBox="0 0 48 48" fill="none" xmlns="http://www.w3.org/2000/svg">
<g clip-path="url(#clip0_560_7827)">
<path d="M43.1869 26.4487C42.6964 26.0707 42.134 25.7965 41.5342 25.6427C40.9343 25.489 40.3094 25.4589 39.6975 25.5544C43.2188 21.9994 45 18.465 45 15C45 10.0369 41.0081 5.99999 36.1012 5.99999C34.7993 5.99182 33.5113 6.26873 32.3277 6.81128C31.1441 7.35384 30.0936 8.14889 29.25 9.14062C28.4064 8.14889 27.3559 7.35384 26.1723 6.81128C24.9887 6.26873 23.7007 5.99182 22.3988 5.99999C17.4919 5.99999 13.5 10.0369 13.5 15C13.5 17.0625 14.1075 19.0669 15.3862 21.1875C14.3389 21.4528 13.3832 21.9971 12.6206 22.7625L8.37937 27H3C2.20435 27 1.44129 27.3161 0.87868 27.8787C0.316071 28.4413 0 29.2043 0 30L0 37.5C0 38.2956 0.316071 39.0587 0.87868 39.6213C1.44129 40.1839 2.20435 40.5 3 40.5H22.5C22.6226 40.5 22.7448 40.4849 22.8638 40.455L34.8638 37.455C34.9402 37.4368 35.0149 37.4117 35.0869 37.38L42.375 34.2787L42.4575 34.2412C43.1579 33.8912 43.7578 33.3687 44.2004 32.7228C44.6431 32.0769 44.914 31.329 44.9878 30.5494C45.0615 29.7699 44.9355 28.9844 44.6218 28.267C44.308 27.5496 43.8168 26.9238 43.1944 26.4487H43.1869ZM22.3988 8.99999C23.5605 8.98299 24.701 9.31288 25.6743 9.94749C26.6475 10.5821 27.4094 11.4926 27.8625 12.5625C27.9755 12.8376 28.1678 13.0729 28.4148 13.2385C28.6619 13.4041 28.9526 13.4925 29.25 13.4925C29.5474 13.4925 29.8381 13.4041 30.0852 13.2385C30.3322 13.0729 30.5245 12.8376 30.6375 12.5625C31.0906 11.4926 31.8525 10.5821 32.8257 9.94749C33.799 9.31288 34.9395 8.98299 36.1012 8.99999C39.2981 8.99999 42 11.7469 42 15C42 18.6581 39.0394 22.7962 33.4388 26.9812L31.3594 27.4594C31.5419 26.6884 31.5475 25.886 31.3759 25.1125C31.2042 24.339 30.8597 23.6144 30.3681 22.993C29.8766 22.3716 29.2508 21.8695 28.5376 21.5243C27.8244 21.1792 27.0423 20.9999 26.25 21H18.8775C17.2594 18.8175 16.5 16.8975 16.5 15C16.5 11.7469 19.2019 8.99999 22.3988 8.99999ZM3 30H7.5V37.5H3V30ZM41.1431 31.5394L34.0181 34.5731L22.3125 37.5H10.5V29.1206L14.7431 24.8794C15.0207 24.5996 15.3511 24.3778 15.7152 24.2268C16.0792 24.0758 16.4696 23.9987 16.8638 24H26.25C26.8467 24 27.419 24.237 27.841 24.659C28.2629 25.081 28.5 25.6533 28.5 26.25C28.5 26.8467 28.2629 27.419 27.841 27.841C27.419 28.2629 26.8467 28.5 26.25 28.5H21C20.6022 28.5 20.2206 28.658 19.9393 28.9393C19.658 29.2206 19.5 29.6022 19.5 30C19.5 30.3978 19.658 30.7793 19.9393 31.0606C20.2206 31.342 20.6022 31.5 21 31.5H27C27.1129 31.4997 27.2254 31.4871 27.3356 31.4625L39.8981 28.5731L39.9563 28.5581C40.3397 28.4517 40.7491 28.4908 41.1054 28.668C41.4618 28.8451 41.7401 29.1479 41.8867 29.5179C42.0333 29.8879 42.0379 30.299 41.8996 30.6722C41.7613 31.0454 41.4898 31.3543 41.1375 31.5394H41.1431Z" fill="white"/>
</g>
<defs>
<clipPath id="clip0_560_7827">
<rect width="48" height="48" fill="white"/>
</clipPath>
</defs>
</svg>
