<svg width="50" height="50" viewBox="0 0 50 50" fill="none" xmlns="http://www.w3.org/2000/svg">
<g id="fluent:slide-size-24-regular">
<path id="Vector" d="M34.9577 15.0416C35.2535 15.3333 35.416 15.7312 35.416 16.1458V21.3541C35.416 21.7685 35.2514 22.1659 34.9584 22.4589C34.6653 22.752 34.2679 22.9166 33.8535 22.9166C33.4391 22.9166 33.0417 22.752 32.7487 22.4589C32.4556 22.1659 32.291 21.7685 32.291 21.3541V19.9166L28.7077 23.4999C28.5635 23.6491 28.391 23.768 28.2003 23.8498C28.0097 23.9316 27.8046 23.9746 27.5972 23.9763C27.3897 23.978 27.184 23.9384 26.992 23.8598C26.8 23.7811 26.6256 23.665 26.4789 23.5182C26.3323 23.3715 26.2164 23.1969 26.1379 23.0049C26.0594 22.8128 26.02 22.6071 26.0219 22.3996C26.0238 22.1921 26.067 21.9871 26.149 21.7965C26.2309 21.6059 26.35 21.4336 26.4994 21.2895L30.0827 17.7083H28.6452C28.2308 17.7083 27.8334 17.5436 27.5403 17.2506C27.2473 16.9576 27.0827 16.5602 27.0827 16.1458C27.0827 15.7314 27.2473 15.3339 27.5403 15.0409C27.8334 14.7479 28.2308 14.5833 28.6452 14.5833H33.8535C34.2678 14.5836 34.6649 14.7485 34.9577 15.0416ZM14.5827 33.8541C14.5827 34.2685 14.7473 34.6659 15.0403 34.9589C15.3334 35.252 15.7308 35.4166 16.1452 35.4166H21.3556C21.77 35.4166 22.1674 35.252 22.4605 34.9589C22.7535 34.6659 22.9181 34.2685 22.9181 33.8541C22.9181 33.4397 22.7535 33.0423 22.4605 32.7492C22.1674 32.4562 21.77 32.2916 21.3556 32.2916H19.9181L23.5014 28.7083C23.7859 28.4134 23.9432 28.0187 23.9395 27.609C23.9357 27.1993 23.7712 26.8075 23.4814 26.5179C23.1915 26.2283 22.7996 26.0642 22.3899 26.0608C21.9802 26.0575 21.5856 26.2152 21.291 26.4999L17.7077 30.0791V28.6416C17.7077 28.2272 17.5431 27.8298 17.25 27.5367C16.957 27.2437 16.5596 27.0791 16.1452 27.0791C15.7308 27.0791 15.3334 27.2437 15.0403 27.5367C14.7473 27.8298 14.5827 28.2272 14.5827 28.6416V33.8499V33.8541ZM4.16602 14.0624C4.16602 12.5429 4.76962 11.0857 5.84405 10.0113C6.91848 8.93686 8.37571 8.33325 9.89518 8.33325H40.1035C41.623 8.33325 43.0802 8.93686 44.1547 10.0113C45.2291 11.0857 45.8327 12.5429 45.8327 14.0624V35.9374C45.8327 36.6898 45.6845 37.4348 45.3966 38.1299C45.1087 38.825 44.6867 39.4565 44.1547 39.9886C43.6227 40.5206 42.9911 40.9426 42.296 41.2305C41.6009 41.5184 40.8559 41.6666 40.1035 41.6666H9.89518C9.14282 41.6666 8.39782 41.5184 7.70273 41.2305C7.00763 40.9426 6.37605 40.5206 5.84405 39.9886C5.31205 39.4565 4.89004 38.825 4.60212 38.1299C4.3142 37.4348 4.16602 36.6898 4.16602 35.9374V14.0624ZM9.89518 11.4583C8.45768 11.4583 7.29102 12.6249 7.29102 14.0624V35.9374C7.29102 37.3749 8.45768 38.5416 9.89518 38.5416H40.1035C41.541 38.5416 42.7077 37.3749 42.7077 35.9374V14.0624C42.7077 12.6249 41.541 11.4583 40.1035 11.4583H9.89518Z" fill="#012E89"/>
</g>
</svg>
