<svg width="50" height="50" viewBox="0 0 50 50" fill="none" xmlns="http://www.w3.org/2000/svg">
<g id="TV">
<path id="Vector (Stroke)" fill-rule="evenodd" clip-rule="evenodd" d="M6.26367 10.625C5.22059 10.625 4.375 11.4706 4.375 12.5137V32.7988C4.375 33.8419 5.22059 34.6875 6.26367 34.6875H43.7363C44.7794 34.6875 45.625 33.8419 45.625 32.7988V12.5137C45.625 11.4706 44.7794 10.625 43.7363 10.625H6.26367ZM1.875 12.5137C1.875 10.0899 3.83988 8.125 6.26367 8.125H43.7363C46.1601 8.125 48.125 10.0899 48.125 12.5137V32.7988C48.125 35.2226 46.1601 37.1875 43.7363 37.1875H6.26367C3.83987 37.1875 1.875 35.2226 1.875 32.7988V12.5137Z" fill="#012E89" stroke="#012E89" stroke-linejoin="round"/>
<path id="Vector (Stroke)_2" fill-rule="evenodd" clip-rule="evenodd" d="M11.25 40.625C11.25 39.9346 11.8096 39.375 12.5 39.375H37.5C38.1904 39.375 38.75 39.9346 38.75 40.625C38.75 41.3154 38.1904 41.875 37.5 41.875H12.5C11.8096 41.875 11.25 41.3154 11.25 40.625Z" fill="#012E89" stroke="#012E89" stroke-miterlimit="10" stroke-linecap="round"/>
</g>
</svg>
